<?xml version="1.0" encoding="utf-8"?>
<!-- Generator: Adobe Illustrator 22.0.0, SVG Export Plug-In . SVG Version: 6.00 Build 0)  -->
<svg version="1.1" id="Camada_1" xmlns:figma="http://www.figma.com/figma/ns"
	 xmlns="http://www.w3.org/2000/svg" xmlns:xlink="http://www.w3.org/1999/xlink" x="0px" y="0px" viewBox="0 0 109 102.6"
	 style="enable-background:new 0 0 109 102.6;" xml:space="preserve">
<style type="text/css">
	.st0{fill:#FFFFFF;}
</style>
<title>Logo</title>
<g id="XMLID_152_">
	<g id="XMLID_153_">
		<path id="XMLID_154_" class="st0" d="M28.6,60c0.2,0.2,0.6,0.4,1,0.7c0.2,0.1,0.5,0.2,0.7,0.4c0.1,0.1,0.3,0.1,0.4,0.2
			c0.1,0.1,0.3,0.1,0.4,0.2c0.3,0.1,0.6,0.2,0.9,0.3c0.3,0.1,0.6,0.1,1,0.2c0.3,0,0.7,0.1,1,0.1c0.3,0,0.6,0,1,0.1
			c0.6,0,1.2,0.1,1.7,0.1c0.1,0,0.1,0,0.2,0c-0.1-0.1-0.1-0.1-0.2-0.2c-0.1,0-0.1,0-0.2,0c-0.1,0-0.2,0-0.4,0c-0.2,0-0.3,0-0.5,0
			c-0.4,0-0.8-0.1-1.2-0.2c-0.4-0.1-0.9-0.2-1.4-0.4c-0.4-0.1-0.9-0.3-1.3-0.5c-0.4-0.2-0.7-0.5-1-0.7c-0.1-0.1-0.2-0.2-0.2-0.2
			c-0.2-0.1-0.3-0.1-0.5-0.2c-0.9-0.5-1.7-1-2.4-1.4l0.9,1.6C28.6,60,28.6,60,28.6,60z"/>
		<path id="XMLID_155_" class="st0" d="M29.1,57.5c-0.1,0-0.2,0.1-0.3,0.1c-0.1,0-0.3,0.1-0.4,0.1c-0.3,0.1-0.6,0.1-0.9,0
			c0,0,0,0,0.1,0c0.4,0.1,0.8,0.1,1.2,0.1c0.4,0,0.7,0,1,0c0.1,0,0.2,0,0.3-0.1c-0.2-0.1-0.5-0.2-0.7-0.4
			C29.3,57.4,29.2,57.4,29.1,57.5z"/>
		<path id="XMLID_156_" class="st0" d="M27.5,58c0.2,0.1,0.4,0.2,0.6,0.3c0.2,0,0.3,0,0.5,0.1c0.2,0,0.5,0,0.7,0c0.3,0,0.5,0,0.7,0
			c0.2,0,0.5,0,0.7,0c0.1,0,0.2,0,0.3,0c-0.2-0.1-0.3-0.2-0.5-0.3c0,0-0.1,0-0.2,0c-0.2,0-0.4,0.1-0.7,0.1c-0.3,0-0.7,0-1.1-0.1
			C28.3,58.1,27.9,58,27.5,58z"/>
		<path id="XMLID_157_" class="st0" d="M31.3,59.4c0.3,0.1,0.6,0.2,0.9,0.2c0.3,0,0.6,0.1,0.9,0.1c0.1,0,0.3,0,0.4,0
			c0,0,0.1,0,0.1,0c-0.1-0.1-0.2-0.1-0.3-0.2c-0.2-0.1-0.5-0.3-0.7-0.4c-0.2,0-0.6-0.1-1.2-0.2c-0.2,0-0.4,0-0.6-0.1
			c-0.2,0-0.4,0-0.7-0.1c-0.2,0-0.5,0-0.7-0.1c0.3,0.1,0.6,0.2,0.9,0.3C30.6,59.2,31,59.4,31.3,59.4z"/>
		<path id="XMLID_158_" class="st0" d="M28.5,57c-0.1-0.1-0.3-0.1-0.4-0.2c-0.1,0-0.3,0-0.6,0.1c-0.2,0-0.5,0.1-0.8,0.1l0.1,0.2
			c0.2,0,0.4,0.1,0.6,0.1c0.3,0,0.6-0.1,0.9-0.1C28.4,57,28.4,57,28.5,57z"/>
		<path id="XMLID_159_" class="st0" d="M78.5,42.1c0,0.1,0,0.2,0,0.3c0,0.1,0,0.2,0,0.3c0,0.1,0,0.3,0,0.4c0,0.3,0,0.6,0,0.9
			c0,0.2,0,0.3,0,0.5c0,0.2,0,0.3-0.1,0.5c0,0.4-0.1,0.7-0.2,1.1c-0.1,0.4-0.2,0.8-0.3,1.2c0,0.1-0.1,0.2-0.1,0.3c0,0,0-0.1,0.1-0.1
			c0.2-0.3,0.4-0.8,0.6-1.2c0.2-0.5,0.2-1,0.3-1.5c0.1-0.5,0.2-1.1,0.2-1.6c0-0.5,0-1,0-1.4c0-0.2,0-0.4-0.1-0.5c0-0.1,0-0.1,0-0.1
			c0,0,0,0,0,0C78.8,41.6,78.6,41.9,78.5,42.1z"/>
		<path id="XMLID_160_" class="st0" d="M27.3,56.4c0,0-0.1,0.1-0.2,0.1c0,0,0,0,0,0c0.1,0,0.3-0.1,0.4-0.1c0,0,0,0,0,0
			C27.4,56.5,27.3,56.4,27.3,56.4L27.3,56.4z"/>
		<path id="XMLID_161_" class="st0" d="M26.1,56l0.1,0.2c0,0,0.1-0.1,0.1-0.1c0,0,0,0,0.1,0C26.4,56,26.3,56,26.1,56
			C26.2,56,26.2,56,26.1,56z"/>
		<path id="XMLID_162_" class="st0" d="M39,75.9c1.2,0.1,2.6,0.6,4.1,1c0.2,0.1,0.4,0.1,0.5,0.2c-0.2-0.1-0.4-0.2-0.5-0.3
			c-0.3-0.2-0.6-0.3-0.9-0.5c-1.2-0.6-2.5-1.1-3.5-1.6c-0.2-0.1-0.4-0.3-0.6-0.4c-0.2-0.1-0.3-0.3-0.4-0.4c-0.1-0.1-0.2-0.2-0.2-0.3
			c-0.1-0.1-0.1-0.1-0.1-0.1s0,0,0.1,0.1c0.1,0.1,0.1,0.1,0.3,0.2c0.1,0.1,0.3,0.2,0.5,0.3c0.2,0.1,0.4,0.2,0.6,0.3
			c0.9,0.4,2.3,0.7,3.6,1.1c0.3,0.1,0.7,0.2,1,0.3c0.3,0.1,0.6,0.2,0.9,0.4c0.1,0.1,0.3,0.1,0.4,0.2c0.1,0,0.1,0,0.2,0.1
			c-0.8-0.4-1.8-0.9-2.9-1.3c-1.2-0.5-2.4-1.1-3.3-1.5c-0.5-0.2-0.8-0.4-1.1-0.5c-0.1-0.1-0.2-0.1-0.3-0.2c-0.1,0-0.1-0.1-0.1-0.1
			s0,0,0.1,0.1c0.1,0,0.2,0.1,0.3,0.1c0.3,0.1,0.7,0.3,1.1,0.4c1,0.3,2.2,0.7,3.5,1.1c1.3,0.4,2.5,0.8,3.5,1.2
			c0.1,0.1,0.3,0.1,0.4,0.2c-0.1,0-0.1-0.1-0.2-0.1c-0.1-0.1-0.2-0.1-0.3-0.2c-0.2-0.1-0.3-0.2-0.5-0.2c-0.8-0.3-1.8-0.7-2.9-1.1
			c-1.1-0.4-2.2-0.8-2.9-1.1c-0.4-0.2-0.7-0.3-0.9-0.5c-0.1-0.1-0.2-0.1-0.2-0.2c0,0-0.1-0.1-0.1-0.1s0,0,0.1,0.1
			c0.1,0,0.1,0.1,0.3,0.1c0.2,0.1,0.6,0.2,1,0.4c0.8,0.3,1.9,0.5,3,0.8c0.4,0.1,0.8,0.2,1.3,0.3c-0.8-0.3-1.8-0.6-2.8-0.9
			c-0.6-0.2-1.3-0.5-1.8-0.7c-0.6-0.2-1.1-0.5-1.5-0.8c-0.2-0.1-0.4-0.2-0.6-0.4c-0.2-0.1-0.3-0.2-0.4-0.3c-0.2-0.2-0.4-0.3-0.4-0.3
			s0.1,0.1,0.4,0.2c0.1,0.1,0.3,0.2,0.5,0.3c0.2,0.1,0.4,0.2,0.6,0.3c0.5,0.2,1,0.4,1.6,0.5c0.6,0.2,1.2,0.3,1.9,0.4
			c1.3,0.3,2.6,0.5,3.6,0.7c0.2,0,0.3,0.1,0.5,0.1c0,0,0-0.1,0-0.1c-0.1,0-0.3-0.1-0.4-0.1c-0.2,0-0.4-0.1-0.6-0.1
			c-0.4-0.1-0.9-0.2-1.5-0.3c-0.6-0.1-1.1-0.3-1.7-0.5c-1.2-0.4-2.2-0.9-3-1.3c-0.4-0.2-0.7-0.4-0.9-0.6c-0.2-0.2-0.3-0.2-0.3-0.2
			s0.1,0.1,0.4,0.2c0.2,0.1,0.6,0.3,1,0.4c0.8,0.3,1.9,0.7,3.1,0.9c0.5,0.1,1,0.2,1.5,0.2c-0.1,0-0.2-0.1-0.4-0.1
			c-0.4-0.2-0.9-0.4-1.4-0.5c-0.2-0.1-0.5-0.2-0.7-0.3c-0.2-0.1-0.5-0.2-0.7-0.3c-0.4-0.2-0.8-0.4-1.2-0.6c-0.7-0.4-1.1-0.6-1.1-0.6
			s0.5,0.2,1.2,0.4c0.4,0.1,0.8,0.3,1.2,0.4c0.2,0.1,0.5,0.1,0.7,0.2c0.2,0.1,0.5,0.1,0.7,0.2c0,0,0,0,0,0c-0.4-0.1-0.8-0.3-1.2-0.5
			c-1-0.4-1.9-0.9-2.6-1.3c-0.5-0.2-1.1-0.4-1.5-0.5c-0.4-0.2-0.8-0.3-1-0.4c-0.2-0.1-0.4-0.2-0.4-0.2s0.1,0.1,0.4,0.2
			c0.2,0.1,0.6,0.2,1,0.3c0,0,0.1,0,0.1,0c0,0,0,0,0,0c0.1,0,0.2,0,0.3,0c0.2,0,0.6,0.1,1,0.3c0.2,0.1,0.4,0.1,0.6,0.2
			c0.4,0.1,0.8,0.2,1.1,0.2c0.6,0.1,1.2,0.2,1.7,0.3c0.3,0,0.5,0.1,0.8,0.1c0.2,0,0.5,0,0.7,0.1c0.3,0,0.5,0,0.6,0
			c0.1,0,0.2,0,0.2,0c0-0.1-0.1-0.1-0.1-0.2c0,0-0.1,0-0.2,0c-0.3,0-0.6,0-1,0c-0.4,0-0.9-0.1-1.4-0.2c-0.2,0-0.5-0.1-0.8-0.2
			c-0.3-0.1-0.5-0.1-0.8-0.1c-0.6-0.1-1.1-0.2-1.6-0.4c-0.5-0.2-0.9-0.3-1.3-0.5c-0.4-0.2-0.7-0.4-0.8-0.5c-0.2-0.1-0.3-0.2-0.3-0.2
			s0.1,0.1,0.3,0.2c0.2,0.1,0.5,0.3,0.9,0.4c0.4,0.1,0.8,0.3,1.3,0.4c0.5,0.1,1,0.2,1.5,0.2c0.3,0,0.6,0,0.8,0.1
			c0.3,0,0.5,0,0.8,0.1c0.5,0,1,0.1,1.3,0.1c0.2,0,0.4,0,0.6,0c0,0,0-0.1-0.1-0.1c-0.1,0-0.1,0-0.3,0c-0.1,0-0.3,0-0.5,0
			c-0.2,0-0.3,0-0.5,0c-0.4,0-0.9-0.1-1.3-0.1c-0.2,0-0.5-0.1-0.7-0.1c-0.2-0.1-0.5-0.1-0.7-0.2c-1.9-0.7-3.8-1.3-3.8-1.3
			s2,0.4,4,0.8c0.2,0.1,0.5,0.1,0.7,0.1c0.2,0,0.5,0,0.7,0.1c0.2,0,0.4,0,0.5,0c-0.4-0.1-0.7-0.3-1.1-0.5c-0.2-0.1-0.4-0.2-0.6-0.3
			c-0.2-0.1-0.5-0.2-0.7-0.3c-0.9-0.3-1.8-0.6-2.6-0.8c-0.4-0.1-0.7-0.1-0.9-0.1c-0.2,0-0.3,0-0.3,0s0.1,0,0.3-0.1
			c0.2,0,0.5,0,0.9,0c0.7,0,1.7,0.1,2.7,0.3c0.2,0,0.5,0.1,0.7,0.2c0.2,0.1,0.5,0.1,0.7,0.2c0.4,0.1,0.9,0.2,1.2,0.2
			c0.1,0,0.2,0,0.3,0c0,0-0.1-0.1-0.1-0.1l0,0c0,0-0.1,0-0.3-0.1c-0.2,0-0.5-0.1-0.8-0.2c-0.7-0.2-1.5-0.4-2.4-0.7
			c-0.9-0.2-1.7-0.5-2.4-0.6c-0.2,0-0.3-0.1-0.4-0.1c-0.1,0-0.3,0-0.3,0c-0.2,0-0.3,0-0.3,0s0.1,0,0.3,0c0.1,0,0.2,0,0.4,0
			c0.1,0,0.3,0,0.5,0c0.7,0,1.6,0.2,2.5,0.3c0.9,0.1,1.8,0.3,2.4,0.3c0,0,0,0,0.1,0c-0.2-0.2-0.4-0.4-0.6-0.6c0,0-0.1,0-0.3,0
			c-0.2,0-0.5-0.1-0.9-0.2c-0.2,0-0.4-0.1-0.6-0.1c-0.2-0.1-0.4-0.1-0.7-0.2c-0.5-0.1-1-0.3-1.5-0.4c-0.5-0.2-1-0.3-1.4-0.5
			c-0.5-0.2-0.9-0.3-1.2-0.5c-0.7-0.3-1.2-0.5-1.2-0.5s0.5,0.1,1.2,0.3c0.4,0.1,0.8,0.2,1.3,0.3c0.5,0.1,1,0.2,1.5,0.3
			c0.5,0.1,1,0.2,1.5,0.2c0.2,0,0.5,0.1,0.7,0.1c0.2,0,0.4,0,0.6,0c0.1,0,0.1,0,0.2,0c-0.1-0.1-0.1-0.1-0.2-0.2c0,0-0.2,0-0.4-0.1
			c-0.1,0-0.3-0.1-0.5-0.1c-0.2,0-0.4-0.1-0.7-0.1c-0.5-0.1-1-0.2-1.7-0.3c-0.3-0.1-0.6-0.1-1-0.2c-0.3-0.1-0.7-0.1-1-0.2
			c-0.3-0.1-0.7-0.2-1-0.3c-0.3-0.1-0.6-0.3-0.9-0.4c-0.1-0.1-0.3-0.1-0.4-0.2c-0.1-0.1-0.3-0.2-0.4-0.2c-0.3-0.2-0.5-0.3-0.7-0.4
			c-0.4-0.3-0.7-0.6-0.9-0.8c0,0,0,0,0,0L38,75.8C38.3,75.8,38.6,75.8,39,75.9z"/>
		<path id="XMLID_163_" class="st0" d="M75,53c0-0.4,0.1-0.8,0-1.2c0-0.4-0.1-0.7-0.3-1c0-0.1-0.1-0.2-0.1-0.2
			c-0.1,0.2-0.1,0.3-0.2,0.5c0,0.1,0.1,0.4,0.2,0.7c0.1,0.3,0.1,0.6,0.2,0.9c0,0.2,0.1,0.5,0.1,0.8C74.9,53.3,75,53.2,75,53z"/>
		<path id="XMLID_164_" class="st0" d="M73.1,56.9c0,0.2,0.1,0.5,0.2,0.8c0,0.2,0.1,0.3,0.1,0.5c0,0.2,0.1,0.3,0.1,0.5
			c0,0.2,0.1,0.4,0.1,0.5c0,0.2,0,0.3,0,0.5c0,0.3-0.1,0.6-0.1,0.9c0,0,0,0,0,0c0,0,0.1-0.3,0.2-0.8c0.1-0.5,0.2-1.2,0.1-1.9
			c0-0.2,0-0.3-0.1-0.5c0-0.2-0.1-0.3-0.1-0.5c-0.1-0.3-0.2-0.6-0.3-0.8c-0.1-0.1-0.1-0.2-0.2-0.3c0,0,0,0,0,0c0,0.1,0,0.1,0,0.2
			C73,56.3,73.1,56.6,73.1,56.9z"/>
		<path id="XMLID_165_" class="st0" d="M75.5,52.7C75.5,52.7,75.5,52.7,75.5,52.7c0-0.1,0-0.2,0-0.2C75.5,52.6,75.5,52.7,75.5,52.7z
			"/>
		<path id="XMLID_166_" class="st0" d="M74.5,54.3c-0.1-0.4-0.2-0.7-0.4-0.9c-0.1-0.1-0.2-0.2-0.2-0.3c0,0,0,0-0.1-0.1
			c0,0.1-0.1,0.2-0.1,0.3c0,0,0.1,0.1,0.1,0.2c0.1,0.2,0.3,0.5,0.4,0.8c0.1,0.2,0.1,0.4,0.2,0.6c0,0.1,0,0.2,0.1,0.3
			c0,0,0-0.1,0-0.1C74.6,54.8,74.5,54.5,74.5,54.3z"/>
		<path id="XMLID_167_" class="st0" d="M74.2,52.1c0,0,0.1,0.1,0.2,0.2c0,0,0,0,0,0c-0.1-0.2-0.1-0.3-0.2-0.5c0,0,0,0,0,0
			C74.2,52,74.2,52,74.2,52.1L74.2,52.1z"/>
		<path id="XMLID_168_" class="st0" d="M75.1,49.8c0,0.1,0.1,0.2,0.2,0.3c0.1,0.1,0.1,0.3,0.2,0.5c0.1,0.3,0.1,0.7,0.2,1.1
			c0,0,0-0.1,0-0.1c0-0.5,0-0.9,0-1.3c0-0.4-0.1-0.8-0.1-1.1c0-0.1-0.1-0.3-0.1-0.4c-0.1,0.3-0.2,0.6-0.3,0.8
			C75,49.7,75.1,49.7,75.1,49.8z"/>
		<path id="XMLID_169_" class="st0" d="M73.2,59.3c0-0.2-0.1-0.3-0.1-0.5c0-0.2-0.1-0.3-0.2-0.5c-0.1-0.2-0.1-0.3-0.2-0.5
			c0,0,0-0.1-0.1-0.1c0,0.3-0.1,0.5-0.1,0.8c0,0,0,0,0,0c0,0,0.1,0.1,0.1,0.2c0.1,0.1,0.1,0.2,0.1,0.3c0.1,0.2,0.1,0.5,0.1,0.7
			c0,0.1,0,0.3,0.1,0.4c0,0.1,0.1,0.2,0.1,0.4c0.1,0.2,0.1,0.3,0.2,0.5c0-0.1,0-0.3,0-0.4c0-0.3,0-0.5,0-0.9
			C73.3,59.7,73.2,59.5,73.2,59.3z"/>
		<path id="XMLID_170_" class="st0" d="M72.8,63.1c0-0.4,0-0.9-0.1-1.3c-0.1-0.4-0.2-0.7-0.4-1c0,0.2,0,0.4,0,0.5c0,0,0,0,0,0.1
			c0,0,0,0.1,0,0.1c0,0.1,0.1,0.1,0.1,0.2c0,0.1,0.1,0.2,0.1,0.3c0.1,0.4,0.2,1,0.2,1.5C72.8,63.4,72.8,63.2,72.8,63.1z"/>
		<path id="XMLID_171_" class="st0" d="M47.1,88.5c-0.7-0.3-1.4-0.7-2.3-1l0.3,0.4C45.8,88.1,46.5,88.3,47.1,88.5z"/>
		<path id="XMLID_172_" class="st0" d="M75.3,53.5c-0.1,0.1-0.1,0.3-0.2,0.4c0,0.1-0.1,0.2-0.1,0.4c0,0.1,0,0.2,0,0.3
			c0.1-0.2,0.1-0.3,0.1-0.5C75.3,53.9,75.3,53.7,75.3,53.5z"/>
		<path id="XMLID_173_" class="st0" d="M58.3,94.9l0.4-0.6c-1.2,0.2-2.3,0.3-3.3,0.5c0.3,0,0.6,0,1,0.1C57,94.8,57.7,94.9,58.3,94.9
			z"/>
		<path id="XMLID_174_" class="st0" d="M46.9,90c0.1,0,0.2,0.1,0.3,0.1c-0.3-0.1-0.6-0.3-1-0.4l0.1,0.2C46.5,89.9,46.7,89.9,46.9,90
			z"/>
		<path id="XMLID_175_" class="st0" d="M47.2,85.9c-0.3-0.1-0.7-0.3-1.1-0.4c-0.4-0.2-0.8-0.3-1.2-0.6c-0.4-0.2-0.8-0.4-1.2-0.7
			c-0.4-0.2-0.8-0.5-1.1-0.8l0.9,1.4c0.1,0,0.2,0.1,0.2,0.1c1.5,0.6,3.1,1.1,4.2,1.3c0.3,0.1,0.5,0.1,0.8,0.1c0.2,0,0.4,0,0.5,0
			c0,0,0.1,0,0.1,0c-0.1,0-0.2,0-0.3-0.1C48.5,86.3,47.9,86.1,47.2,85.9z"/>
		<path id="XMLID_176_" class="st0" d="M47.7,91.9c-0.1,0-0.1,0-0.2-0.1L47.7,91.9C47.7,92,47.9,92,48,92
			C47.9,91.9,47.8,91.9,47.7,91.9z"/>
		<path id="XMLID_177_" class="st0" d="M95.6,30.9c-0.1,0.2-0.2,0.4-0.3,0.6c-0.1,0.4-0.3,0.7-0.4,1.1c-0.5,1.5-0.9,3-1.4,4.1
			c-0.1,0.3-0.3,0.5-0.4,0.7c-0.1,0.2-0.3,0.4-0.4,0.5c-0.1,0.1-0.2,0.2-0.3,0.3c-0.1,0.1-0.1,0.1-0.1,0.1s0,0,0.1-0.1
			c0.1-0.1,0.2-0.2,0.2-0.3c0.1-0.2,0.2-0.3,0.3-0.5c0.1-0.2,0.2-0.5,0.3-0.7c0.3-1.1,0.5-2.7,0.8-4.3c0.1-0.4,0.2-0.8,0.3-1.2
			c0.1-0.4,0.2-0.8,0.3-1.1c0.1-0.2,0.1-0.3,0.1-0.5c0-0.1,0-0.1,0.1-0.2c-0.4,1-0.8,2.2-1.1,3.4c-0.5,1.5-0.9,2.9-1.3,4
			c-0.2,0.5-0.3,1-0.5,1.3c-0.1,0.1-0.1,0.3-0.2,0.3c-0.1,0.1-0.1,0.1-0.1,0.1s0,0,0.1-0.1c0.1-0.1,0.1-0.2,0.1-0.4
			c0.1-0.3,0.2-0.8,0.3-1.3c0.2-1.1,0.6-2.6,0.9-4.1c0.3-1.5,0.6-3,0.9-4.1c0-0.2,0.1-0.3,0.1-0.5c0,0.1-0.1,0.1-0.1,0.2
			c-0.1,0.1-0.1,0.2-0.2,0.4c-0.1,0.2-0.1,0.4-0.2,0.6c-0.3,0.9-0.6,2.2-0.9,3.5c-0.3,1.3-0.6,2.6-0.9,3.5c-0.1,0.5-0.3,0.9-0.4,1.1
			c-0.1,0.1-0.1,0.2-0.2,0.3c0,0.1-0.1,0.1-0.1,0.1s0,0,0.1-0.1c0-0.1,0.1-0.2,0.1-0.3c0.1-0.3,0.2-0.7,0.3-1.1
			c0.2-1,0.4-2.3,0.6-3.6c0.1-0.5,0.1-1,0.2-1.5c-0.2,1-0.5,2.2-0.7,3.4c-0.2,0.7-0.4,1.5-0.6,2.2c-0.2,0.7-0.4,1.3-0.7,1.9
			c-0.1,0.3-0.2,0.5-0.4,0.7c-0.1,0.2-0.2,0.4-0.3,0.5c-0.2,0.3-0.3,0.4-0.3,0.4s0.1-0.2,0.2-0.5c0.1-0.1,0.1-0.3,0.2-0.6
			c0.1-0.2,0.2-0.5,0.2-0.7c0.2-0.5,0.3-1.2,0.4-1.9c0.1-0.7,0.2-1.4,0.3-2.2c0.1-1.5,0.2-3,0.3-4.2c0-0.2,0.1-0.4,0.1-0.6
			c0,0-0.1,0-0.1,0.1c0,0.1,0,0.3-0.1,0.5c0,0.2,0,0.4-0.1,0.7c0,0.5-0.1,1.1-0.2,1.7c-0.1,0.6-0.2,1.3-0.3,2
			c-0.3,1.3-0.7,2.7-1.1,3.6c-0.2,0.5-0.4,0.8-0.6,1.1c-0.2,0.2-0.2,0.4-0.2,0.4s0.1-0.2,0.2-0.4c0.1-0.3,0.2-0.7,0.4-1.2
			c0.3-1,0.5-2.3,0.7-3.6c0.1-0.6,0.1-1.2,0.1-1.7c0,0.1-0.1,0.3-0.1,0.4c-0.1,0.5-0.3,1.1-0.4,1.7c-0.1,0.3-0.1,0.6-0.2,0.8
			c-0.1,0.3-0.2,0.5-0.3,0.8c-0.2,0.5-0.3,1-0.5,1.4c-0.3,0.8-0.6,1.3-0.6,1.3s0.2-0.6,0.4-1.4c0.1-0.4,0.2-0.9,0.3-1.4
			c0-0.3,0.1-0.5,0.1-0.8c0.1-0.3,0.1-0.6,0.1-0.9c0,0,0,0,0-0.1c-0.1,0.5-0.3,1-0.4,1.5c-0.4,1.2-0.8,2.3-1.2,3.1
			c-0.1,0.7-0.3,1.3-0.4,1.8c-0.1,0.5-0.3,0.9-0.4,1.2c-0.1,0.3-0.2,0.4-0.2,0.4s0.1-0.2,0.1-0.5c0.1-0.3,0.2-0.7,0.3-1.2
			c0-0.1,0-0.1,0-0.2c0,0,0,0,0,0c0-0.1,0-0.2,0-0.3c0-0.3,0.1-0.7,0.2-1.2c0-0.2,0.1-0.5,0.2-0.7c0.1-0.4,0.1-0.9,0.1-1.3
			c0.1-0.7,0.1-1.4,0.1-2c0-0.3,0-0.6,0-0.9c0-0.3,0-0.6,0-0.8c0-0.3,0-0.5,0-0.7c0-0.1,0-0.2,0-0.3c-0.1,0.1-0.1,0.1-0.2,0.2
			c0,0.1,0,0.1,0,0.2c0.1,0.3,0.1,0.7,0.1,1.2c0,0.5,0,1-0.1,1.6c0,0.3-0.1,0.6-0.1,0.9c0,0.3-0.1,0.6-0.1,0.9
			c0,0.6-0.1,1.3-0.3,1.8c-0.1,0.6-0.3,1.1-0.4,1.5c-0.2,0.4-0.3,0.8-0.5,1c-0.1,0.2-0.2,0.4-0.2,0.4s0.1-0.1,0.2-0.4
			c0.1-0.2,0.2-0.6,0.3-1.1c0.1-0.4,0.2-1,0.3-1.5c0.1-0.6,0.1-1.2,0-1.8c0-0.3,0-0.6,0-0.9c0-0.3,0-0.6,0-0.9c0-0.6,0-1.1-0.1-1.5
			c0-0.3-0.1-0.5-0.1-0.7c0,0-0.1,0-0.1,0.1c0,0.1,0,0.1,0.1,0.3c0,0.2,0.1,0.4,0.1,0.5c0,0.2,0,0.4,0.1,0.6c0,0.5,0,1,0,1.5
			c0,0.3-0.1,0.6-0.1,0.9c-0.1,0.3-0.1,0.6-0.2,0.9c-0.5,2.3-1,4.5-1,4.5s0.2-2.3,0.5-4.6c0-0.3,0-0.6,0-0.8c0-0.3,0-0.5,0-0.8
			c0-0.2,0-0.4-0.1-0.6c-0.1,0.4-0.2,0.9-0.4,1.3c-0.1,0.2-0.2,0.5-0.3,0.8c-0.1,0.2-0.2,0.5-0.2,0.8c-0.3,1.1-0.5,2.2-0.6,3
			c0,0.4,0,0.8,0,1c0,0.2,0.1,0.4,0.1,0.4s-0.1-0.1-0.1-0.4c-0.1-0.2-0.1-0.6-0.1-1c-0.1-0.9-0.1-2,0-3.1c0-0.3,0.1-0.6,0.1-0.9
			c0-0.3,0.1-0.6,0.1-0.8c0.1-0.5,0.1-1,0.1-1.4c0-0.1,0-0.2,0-0.3c0,0-0.1,0.1-0.2,0.2h0c0,0,0,0.1,0,0.3c0,0.2-0.1,0.5-0.1,0.9
			c-0.1,0.8-0.3,1.8-0.5,2.8c-0.2,1-0.3,2-0.4,2.8c0,0.2,0,0.4,0,0.5c0,0.2,0,0.3,0,0.4c0,0.2,0,0.4,0,0.4s0-0.1,0-0.3
			c0-0.1,0-0.2,0-0.4c0-0.2,0-0.3,0-0.5c0-0.8,0-1.8,0-2.8c0-1,0.1-2.1,0.1-2.8c0,0,0,0,0-0.1c-0.2,0.2-0.4,0.5-0.6,0.7
			c0,0,0,0.2,0,0.4c0,0.3,0,0.6-0.1,1.1c0,0.2,0,0.5-0.1,0.7c0,0.3-0.1,0.5-0.1,0.8c-0.1,0.6-0.2,1.1-0.3,1.7
			c-0.1,0.6-0.3,1.2-0.4,1.7c-0.1,0.5-0.3,1-0.4,1.5c-0.2,0.8-0.4,1.4-0.4,1.4s0.1-0.6,0.2-1.5c0.1-0.4,0.1-0.9,0.2-1.5
			c0.1-0.5,0.1-1.1,0.2-1.7c0-0.6,0.1-1.2,0.1-1.7c0-0.3,0-0.5,0-0.8c0-0.2,0-0.5,0-0.7c0-0.1,0-0.1,0-0.2c-0.1,0.1-0.1,0.2-0.2,0.2
			c0,0.1,0,0.2-0.1,0.5c0,0.2,0,0.4-0.1,0.6c0,0.2-0.1,0.5-0.1,0.8c0,0.6-0.1,1.2-0.1,1.9c0,0.4,0,0.7-0.1,1.1
			c0,0.4-0.1,0.8-0.1,1.2c-0.1,0.4-0.1,0.8-0.2,1.2c-0.1,0.4-0.2,0.7-0.3,1.1c-0.1,0.2-0.1,0.3-0.2,0.5c-0.1,0.2-0.2,0.3-0.2,0.5
			c-0.1,0.3-0.3,0.6-0.4,0.8c-0.3,0.5-0.6,0.9-0.8,1.2c-0.2,0.3-0.3,0.4-0.3,0.4s0.1-0.2,0.3-0.5c0.2-0.3,0.4-0.7,0.7-1.2
			c0.1-0.3,0.2-0.6,0.3-0.9c0.1-0.2,0.1-0.3,0.2-0.5c0.1-0.2,0.1-0.3,0.1-0.5c0.1-0.3,0.2-0.7,0.2-1.1c0-0.4,0.1-0.7,0.1-1.1
			c0-0.4,0-0.8,0-1.1c0-0.4,0-0.7,0-1.1c0-0.7,0-1.4-0.1-2c0-0.1,0-0.2,0-0.2c0,0.1-0.1,0.1-0.2,0.2c0,0.1,0,0.1,0,0.2
			c0,0.1,0,0.3,0.1,0.4c0,0.2,0,0.4,0,0.6c0,0.4,0,0.9,0,1.4c-0.1,0.5-0.2,1.1-0.3,1.6c-0.1,0.5-0.2,1.1-0.4,1.5
			c-0.2,0.5-0.5,0.9-0.7,1.2c-0.1,0.1-0.2,0.2-0.2,0.3c-0.1,0.2-0.1,0.4-0.2,0.6c-0.4,1.1-0.9,2.1-1.3,3c0,0.2-0.1,0.3-0.2,0.5
			c-0.2,0.5-0.4,1-0.6,1.4c-0.2,0.5-0.4,0.9-0.5,1.1c0,0,0,0.1,0,0.1c0,0.3,0,0.6,0,0.9c0,0.2-0.1,0.4-0.1,0.6
			c0,0.2-0.1,0.4-0.1,0.6c0,0,0,0.1,0,0.1c0,0,0,0,0,0.1c0.1,0.9,0.1,1.9,0,2.5c0,0.3-0.1,0.6-0.1,0.8c0,0.2-0.1,0.3-0.1,0.3
			s0-0.1,0-0.3c0-0.2,0-0.5,0-0.8c0-0.4-0.1-0.9-0.1-1.3c-0.1,0.2-0.1,0.4-0.2,0.5c-0.1,0.2-0.1,0.3-0.1,0.3s0-0.1,0.1-0.3
			c0.1-0.2,0.1-0.4,0.1-0.8c0,0,0,0,0,0c0-0.3-0.1-0.5-0.2-0.8c-0.1-0.2-0.1-0.4-0.2-0.6c0-0.1-0.1-0.2-0.1-0.3
			c-0.1,0-0.1,0.1-0.1,0.1s0,0,0.1-0.1c0-0.1-0.1-0.2-0.1-0.3c-0.1-0.4-0.3-0.7-0.4-1c0,0,0-0.1-0.1-0.1c-0.1,0.2-0.1,0.4-0.1,0.6
			c0,0,0.1,0.1,0.1,0.2c0,0.1,0.1,0.1,0.2,0.2c0.1,0.1,0.1,0.2,0.2,0.3c0.1,0.3,0.2,0.6,0.3,0.9c0,0.2,0.1,0.3,0.1,0.5
			c0,0.2,0,0.4,0,0.5c0,0.7-0.2,1.4-0.3,1.9c-0.2,0.5-0.3,0.8-0.3,0.8c0,0.2-0.1,0.3-0.1,0.5c0,0.1,0,0.1,0.1,0.2
			c0.1,0.2,0.2,0.4,0.3,0.7c0.1,0.2,0.1,0.4,0.1,0.5c0,0.1,0,0.2,0,0.2s0-0.1,0-0.2c0-0.1-0.1-0.3-0.2-0.5c-0.1-0.2-0.2-0.4-0.3-0.6
			c0,0,0,0.1,0,0.1s0,0,0-0.1c0,0,0,0,0,0c-0.1-0.2-0.3-0.5-0.4-0.7c-0.1-0.1-0.1-0.2-0.2-0.4c0-0.1-0.1-0.3-0.1-0.4
			c0-0.1-0.1-0.3-0.1-0.4c0,0,0,0,0,0c0,0.1,0,0.3,0,0.4c0.1,0.1,0.1,0.2,0.2,0.3c0.2,0.4,0.4,0.9,0.4,1.4c0,0.5,0,1-0.1,1.4
			c-0.1,0.2-0.1,0.4-0.1,0.5c0,0.1,0,0.1,0,0.2c0,0.6-0.1,1.3,0,1.7c0,0.2,0.1,0.4,0.1,0.6c0.1,0.1,0.1,0.2,0.1,0.2s0-0.1-0.1-0.2
			c0-0.1-0.1-0.3-0.2-0.6c-0.1-0.5-0.1-1.1-0.2-1.7c0-0.3,0-0.6-0.1-0.9c0-0.1-0.1-0.3-0.1-0.4c0-0.1-0.1-0.1-0.1-0.2
			c0,0.2,0,0.4,0,0.5c0,0,0,0,0,0.1c0,0.2,0,0.4,0,0.7c0,0,0,0.1,0,0.1c0,0,0,0.1,0,0.1c0,0.4,0.1,0.9,0.1,1.1
			c0.1,0.7,0.3,1.5,0.7,1.9c0.2,0.2,0.4,0.4,0.5,0.4c0.2,0.1,0.3,0.1,0.3,0.1s-0.1,0-0.3,0c-0.2-0.1-0.4-0.2-0.6-0.4
			c-0.2-0.2-0.4-0.5-0.6-0.8c-0.1-0.2-0.2-0.5-0.3-0.8c0,0.1-0.1,0.2-0.1,0.3c-0.1,0.2-0.1,0.4-0.1,0.6c0,0.2,0,0.4,0,0.6
			c0,0.2,0.1,0.4,0.1,0.5c0.1,0.1,0.1,0.2,0.2,0.3c0.1,0.1,0.1,0.1,0.1,0.1s-0.1,0-0.1,0c-0.1,0-0.2-0.1-0.3-0.3
			c-0.2-0.3-0.3-0.7-0.3-1.1c0-0.2,0-0.4,0-0.6c0-0.2,0.1-0.4,0.1-0.5c0-0.2,0.1-0.3,0.1-0.4c0,0,0,0,0-0.1c0,0,0-0.1,0-0.1
			c-0.2,0.4-0.4,0.7-0.7,1.1c-0.4,0.5-0.7,1-0.9,1.5c-0.1,0.2-0.2,0.4-0.2,0.5c0,0.1-0.1,0.2-0.1,0.2s0-0.1,0-0.2
			c0-0.1,0.1-0.3,0.2-0.6c0.2-0.5,0.5-1,0.8-1.6c0.1-0.3,0.3-0.6,0.4-0.8c0-0.1,0.1-0.3,0.1-0.4c0-0.1,0.1-0.2,0.1-0.3
			c0-0.1,0-0.1,0-0.1c-0.1,0-0.1,0.1-0.2,0.2c-0.2,0.2-0.4,0.4-0.6,0.6c-0.2,0.2-0.4,0.5-0.6,0.8c-0.2,0.3-0.4,0.6-0.5,0.9
			c-0.1,0.3-0.2,0.6-0.1,0.8c0,0.3,0.1,0.5,0.1,0.6c0,0.1,0.1,0.2,0.1,0.2s0-0.1-0.1-0.2c-0.1-0.1-0.2-0.3-0.2-0.6
			c-0.1-0.3,0-0.6,0.1-0.9c0.1-0.3,0.3-0.6,0.4-1c0.2-0.3,0.4-0.6,0.6-0.9c0.2-0.3,0.4-0.5,0.6-0.7c0.2-0.3,0.4-0.5,0.5-0.6
			c-0.1,0-0.2,0.1-0.3,0.1c-0.2,0.1-0.4,0.3-0.7,0.5c-0.1,0.1-0.2,0.2-0.3,0.3c-0.1,0.1-0.2,0.2-0.3,0.4c-0.4,0.5-0.7,1.2-0.9,1.7
			c-0.2,0.5-0.2,0.8-0.2,0.8s0-0.4,0.1-0.9c0.1-0.5,0.3-1.2,0.7-1.9c0.1-0.2,0.2-0.3,0.3-0.5c0.1-0.2,0.2-0.3,0.3-0.4
			c0.2-0.3,0.5-0.5,0.7-0.7c0.1-0.1,0.2-0.2,0.4-0.2c0.1-0.1,0.2-0.1,0.3-0.1c0,0,0.1,0,0.1,0c0,0,0-0.1,0-0.1c0,0,0,0,0,0
			c-0.1,0-0.2,0-0.3,0c-0.1,0-0.2,0-0.3,0c-0.1,0-0.2,0-0.4,0.1c-0.1,0-0.3,0.1-0.4,0.1c-0.3,0.1-0.6,0.3-0.8,0.5
			c-0.5,0.4-0.9,1-1.2,1.5c-0.1,0.2-0.2,0.4-0.3,0.6c-0.1,0.1-0.1,0.2-0.1,0.2s0-0.1,0.1-0.2c0-0.2,0.1-0.4,0.2-0.6
			c0.2-0.5,0.5-1.2,1-1.7c0.3-0.3,0.6-0.5,0.9-0.7c0.2-0.1,0.3-0.2,0.5-0.2c0.2-0.1,0.3-0.1,0.5-0.1c0.1,0,0.3-0.1,0.4-0.1
			c0.1,0,0.2,0,0.3,0c0,0,0,0,0,0c-0.1,0-0.2,0-0.2,0c-0.1,0-0.2,0-0.4,0c-0.3,0-0.6,0.1-1,0.3c-0.3,0.2-0.7,0.4-1,0.6
			c-0.2,0.1-0.3,0.3-0.5,0.4c-0.2,0.1-0.3,0.3-0.5,0.4c-0.3,0.3-0.6,0.5-0.8,0.7c-0.2,0.2-0.4,0.4-0.5,0.6c-0.1,0.1-0.2,0.2-0.2,0.2
			s0.1-0.1,0.2-0.3c0.1-0.2,0.3-0.4,0.5-0.6c0.2-0.3,0.5-0.5,0.7-0.9c0.1-0.2,0.3-0.3,0.4-0.4c0.1-0.1,0.3-0.3,0.5-0.5
			c0.3-0.3,0.7-0.6,1-0.8c0.4-0.2,0.8-0.4,1.1-0.4c0.1,0,0.1,0,0.2,0c0,0,0,0-0.1,0c-0.3,0-0.7,0-1.1,0c-0.4,0.1-0.8,0.2-1.3,0.4
			c-0.4,0.2-0.8,0.4-1.2,0.7c-0.3,0.3-0.7,0.6-1,0.8c-0.3,0.2-0.6,0.3-0.8,0.4c-0.1,0-0.2,0-0.2,0c-0.1,0-0.1,0-0.1,0s0,0,0.1,0
			c0.1,0,0.1,0,0.2-0.1c0.2-0.1,0.4-0.2,0.7-0.5c0.3-0.2,0.6-0.5,0.8-0.9c0.3-0.4,0.6-0.7,1-1.1c0.4-0.3,0.9-0.6,1.3-0.8
			c0.5-0.2,0.9-0.3,1.3-0.4c0.2,0,0.4-0.1,0.6-0.1c0.1,0,0.3,0,0.4,0c0,0,0,0,0,0c0,0-0.1,0-0.1,0c-0.1,0-0.2,0-0.3-0.1
			c-0.1,0-0.2,0-0.4,0c-0.3,0-0.7,0-1,0c-0.4,0-0.8,0.1-1.2,0.3c-0.4,0.1-0.8,0.3-1.2,0.5c-0.4,0.2-0.7,0.4-0.9,0.6
			c-0.3,0.2-0.5,0.4-0.6,0.5c-0.1,0.1-0.2,0.2-0.2,0.2s0.1-0.1,0.2-0.3c0.1-0.2,0.3-0.4,0.5-0.6c0.2-0.2,0.5-0.5,0.9-0.7
			c0.3-0.3,0.7-0.5,1.1-0.7c0.4-0.2,0.8-0.4,1.2-0.5c0,0,0.1,0,0.1,0c-0.2,0-0.4,0-0.6,0c-0.4,0-0.8-0.1-1.2-0.1
			c-0.4,0-0.7-0.1-1-0.1c-0.2,0-0.3,0-0.4,0c-0.1,0-0.2,0-0.3,0.1c-0.2,0-0.3,0.1-0.3,0.1s0.1,0,0.3-0.1c0.1,0,0.2-0.1,0.3-0.1
			c0.1,0,0.3-0.1,0.4-0.1c0.3,0,0.7,0,1,0c0.4,0,0.8,0,1.1,0c0.2,0,0.4,0,0.6-0.1c0.2,0,0.4-0.1,0.6-0.1c0.4-0.1,0.7-0.2,1-0.2
			c0.2,0,0.3,0,0.4,0c0,0,0,0,0,0c-0.1,0-0.1,0-0.2-0.1c-0.1,0-0.2-0.1-0.4-0.1c-0.1,0-0.3-0.1-0.4-0.1c-0.2,0-0.3,0-0.5-0.1
			c-0.2,0-0.4,0-0.5,0c-0.2,0-0.4,0-0.6,0c-0.4,0-0.8,0-1.1,0.1c-0.4,0-0.7,0.1-1,0.2c-0.3,0-0.5,0.1-0.7,0.2
			c-0.2,0-0.3,0.1-0.3,0.1s0.1-0.1,0.2-0.1c0.2-0.1,0.4-0.2,0.6-0.3c0.3-0.1,0.6-0.3,1-0.4c0.4-0.2,0.7-0.3,1.1-0.4
			c0.2-0.1,0.4-0.1,0.6-0.2c0,0,0.1,0,0.1,0c-0.3-0.1-0.7-0.1-1-0.2c-0.5-0.1-1-0.1-1.4-0.1c-0.5,0-0.9,0.1-1.2,0.2
			c-0.3,0.1-0.6,0.3-0.8,0.4c-0.2,0.1-0.3,0.2-0.3,0.2s0.1-0.1,0.3-0.2c0.2-0.1,0.4-0.3,0.8-0.5c0.3-0.2,0.8-0.3,1.3-0.4
			c0.5-0.1,1-0.1,1.5-0.1c0.4,0,0.8,0,1.2,0c-0.5-0.1-1.1-0.2-1.6-0.2c-0.3,0-0.6,0-0.8,0c-0.3,0-0.5,0-0.8,0c-0.5,0-1,0.1-1.4,0.2
			c-0.2,0.1-0.4,0.1-0.5,0.2c-0.2,0.1-0.3,0.1-0.4,0.2c-0.2,0.1-0.3,0.2-0.3,0.2s0.1-0.1,0.3-0.3c0.1-0.1,0.2-0.2,0.4-0.3
			c0.1-0.1,0.3-0.2,0.5-0.3c0.4-0.2,0.9-0.4,1.4-0.6c0.3-0.1,0.5-0.2,0.8-0.2c0.3-0.1,0.6-0.1,0.9-0.2c1.2-0.2,2.4-0.3,3.3-0.3
			c0.2,0,0.3,0,0.5,0c-0.1,0-0.2-0.1-0.2-0.1c-0.4-0.1-0.8-0.2-1.3-0.1c-0.5,0-1,0.1-1.6,0c-1.1,0-2.1,0-2.9,0.2
			c-0.4,0.1-0.7,0.1-0.9,0.2c-0.2,0.1-0.3,0.1-0.3,0.1s0.1-0.1,0.3-0.1c0.2-0.1,0.5-0.2,0.9-0.3c0.8-0.2,1.9-0.3,2.9-0.4
			c0.5,0,1-0.1,1.5-0.2c0.2,0,0.5-0.1,0.8-0.1c0.2,0,0.5,0.1,0.7,0.1c0.2,0,0.3,0.1,0.4,0.1c-0.1,0-0.2-0.1-0.3-0.1
			c-0.3-0.1-0.6-0.2-1-0.3c-0.2,0-0.4-0.1-0.7-0.1c-0.2,0-0.4-0.1-0.7-0.1c-0.9-0.1-1.8,0-2.5,0c-0.3,0-0.6,0.1-0.8,0.1
			c-0.2,0.1-0.3,0.1-0.3,0.1s0.1,0,0.3-0.1c0.2-0.1,0.5-0.2,0.8-0.3c0.7-0.2,1.6-0.4,2.5-0.4c0.2,0,0.5,0,0.7,0c0.2,0,0.4,0,0.7,0
			c0.2,0,0.4,0,0.7,0c0.2,0,0.4,0.1,0.6,0.1c-0.1-0.1-0.3-0.1-0.4-0.2c-0.2-0.1-0.4-0.2-0.6-0.2c-0.2-0.1-0.5-0.1-0.8-0.1
			c-0.5-0.1-1.1-0.1-1.7,0c-1.2,0.1-2.4,0.3-3.3,0.5c-0.4,0.1-0.8,0.2-1.1,0.2c-0.3,0-0.4-0.1-0.4-0.1s0.1,0.1,0.4,0
			c0.3,0,0.6-0.1,1.1-0.3c0.9-0.3,2-0.6,3.3-0.8c0.6-0.1,1.2-0.2,1.8-0.2c0.3,0,0.6,0,0.9,0c0.3,0,0.5,0.1,0.8,0.2
			c0.5,0.1,0.8,0.3,1.1,0.4c0.1,0,0.1,0,0.2,0.1c0,0-0.1-0.1-0.2-0.1c-0.1-0.1-0.2-0.1-0.3-0.2c0,0-0.1-0.1-0.2-0.1
			c-0.1,0-0.1-0.1-0.2-0.1c-0.6-0.3-1.5-0.5-2.5-0.5c-1-0.1-2,0-2.8,0c-0.8,0-1.3,0.1-1.3,0.1s0.5-0.2,1.2-0.4
			c0.7-0.2,1.7-0.6,2.8-0.8c0.5-0.1,1.1-0.2,1.6-0.2c0.4,0,0.7,0,1.1,0c-0.3-0.1-0.7-0.2-1.1-0.3c-0.3-0.1-0.5-0.1-0.8-0.1
			c-0.3,0-0.5,0-0.8,0c-0.6,0-1.1,0.3-1.6,0.5c-0.5,0.2-1,0.5-1.4,0.6c-0.4,0.2-0.8,0.3-1,0.4c-0.3,0.1-0.4,0.1-0.4,0.1
			s0.1-0.1,0.4-0.2c0.2-0.1,0.6-0.3,1-0.5c0.4-0.2,0.8-0.5,1.3-0.8c0.5-0.3,1-0.6,1.7-0.8c0.3-0.1,0.6-0.1,1-0.1c0.1,0,0.3,0,0.5,0
			c0.2,0,0.3,0,0.4,0.1c0.6,0.1,1.1,0.2,1.6,0.3c0.2,0,0.4,0.1,0.6,0.1c0.2,0,0.3,0,0.4,0.1c0.1,0,0.2,0,0.2,0
			c0-0.1,0.1-0.1,0.1-0.2c-0.3,0-0.6-0.1-1.1-0.2c-0.2,0-0.5-0.1-0.7-0.1c-0.3-0.1-0.5-0.1-0.8-0.2c-0.3-0.1-0.5-0.1-0.8-0.2
			c-0.3,0-0.6-0.1-0.8-0.2c-0.3,0-0.6-0.1-0.8,0c-0.3,0-0.6,0-0.8,0.1c-0.5,0.1-1,0.2-1.5,0.3c-0.9,0.2-1.4,0.3-1.4,0.3
			s0.6-0.2,1.4-0.5c0.4-0.2,0.9-0.3,1.5-0.4c0.3-0.1,0.6-0.1,0.8-0.2c0.3-0.1,0.6-0.1,0.9-0.1c0.3,0,0.6,0,0.9,0.1
			c0.3,0,0.6,0.1,0.8,0.1c0.3,0,0.5,0,0.8,0.1c0.2,0,0.5,0,0.7,0c0.7,0,1.2,0,1.4,0c-0.1,0-0.1-0.1-0.2-0.1C75.1,47,75,47,74.9,46.9
			c-0.1-0.1-0.3-0.1-0.5-0.2c-0.4-0.1-0.9-0.2-1.4-0.3c-0.3,0-0.6-0.1-0.8-0.1c-0.3,0-0.6,0-0.9,0c-1.2,0-2.4,0.2-3.3,0.4
			c-0.9,0.2-1.5,0.4-1.5,0.4s0.6-0.3,1.4-0.7c0.9-0.4,2-0.9,3.3-1.2c0.3-0.1,0.6-0.2,1-0.2c0.3-0.1,0.6-0.1,1-0.1c0.2,0,0.4,0,0.6,0
			c-0.2,0-0.4,0-0.6-0.1c-0.4,0-0.7,0-1.1,0c-0.4,0-0.7,0-1.1,0.1c-0.4,0-0.8,0.1-1.1,0.2c-0.4,0.1-0.7,0.2-1.1,0.2
			c-0.3,0.1-0.7,0.2-1,0.3c-0.3,0.1-0.6,0.2-0.9,0.4c-0.5,0.2-0.9,0.5-1.2,0.6c-0.3,0.1-0.5,0.2-0.5,0.2s0.2-0.1,0.5-0.3
			c0.3-0.2,0.7-0.4,1.2-0.8c0.2-0.2,0.5-0.3,0.8-0.5c0.3-0.2,0.6-0.3,1-0.4c0.3-0.1,0.7-0.3,1.1-0.4c0.4-0.1,0.7-0.2,1.1-0.3
			c0.4-0.1,0.8-0.1,1.2-0.2c0.4,0,0.8-0.1,1.1-0.1c0.4,0,0.7,0,1.1,0c0.3,0,0.7,0,1,0c0.6,0,1.1,0.1,1.4,0.1c0.2,0,0.3,0,0.4,0
			c0,0,0,0,0,0c-0.1-0.1-0.3-0.1-0.5-0.1c-0.2-0.1-0.4-0.1-0.7-0.2c-1-0.2-2.3-0.4-3.7-0.6c-1.4-0.1-2.7-0.1-3.8,0
			c-0.3,0-0.5,0.1-0.7,0.1c-0.2,0-0.4,0.1-0.5,0.1c-0.1,0-0.2,0.1-0.3,0.1c-0.1,0-0.1,0.1-0.1,0.1s0,0,0.1-0.1
			c0.1,0,0.2-0.1,0.3-0.2c0.1-0.1,0.3-0.2,0.5-0.2c0.2-0.1,0.4-0.2,0.7-0.2c1-0.3,2.4-0.5,3.8-0.6c1.3-0.1,2.7-0.1,3.7,0
			c-0.1,0-0.2-0.1-0.3-0.2c-0.1-0.1-0.3-0.1-0.4-0.2c-0.3-0.1-0.6-0.2-1-0.3c-0.4-0.1-0.7-0.2-1.1-0.2c-0.4-0.1-0.8-0.1-1.2-0.1
			c-1.6-0.1-3.2-0.1-4.4-0.1c-1.2,0-2,0-2,0s0.8-0.1,2-0.3c1.2-0.2,2.8-0.4,4.4-0.5c0.4,0,0.8,0,1.2,0c0.4,0,0.8,0,1.2,0.1
			c0.4,0.1,0.8,0.1,1.1,0.2c0.2,0,0.4,0.1,0.5,0.1c0.2,0,0.3,0.1,0.5,0.1c0.3,0.1,0.6,0.2,0.9,0.3c0.1,0.1,0.2,0.1,0.4,0.1
			c0.1,0,0.2,0.1,0.3,0.1c0.2,0.1,0.3,0.1,0.4,0.2c0.1-0.2,0.2-0.3,0.3-0.5c0,0-0.1,0-0.1,0c-0.4-0.1-1-0.2-1.6-0.4
			c-0.7-0.2-1.4-0.4-2.3-0.7c-0.8-0.3-1.7-0.6-2.6-0.8l-0.7-0.1c-0.2,0-0.4-0.1-0.7-0.1c-0.4,0-0.9-0.1-1.3-0.1c-0.4,0-0.8,0-1.2,0
			c-0.4,0-0.8,0.1-1.1,0.1c-0.3,0.1-0.6,0.1-0.9,0.2c-0.3,0-0.5,0.1-0.7,0.2c-0.4,0.1-0.6,0.2-0.6,0.2s0.2-0.1,0.6-0.2
			c0.2-0.1,0.4-0.2,0.7-0.2c0.3-0.1,0.6-0.2,0.9-0.2c0.3-0.1,0.7-0.2,1.1-0.2c0.4-0.1,0.8-0.1,1.3-0.1c0.4,0,0.9,0,1.3,0
			c0.2,0,0.5,0,0.7,0.1l0.7,0.1c0.9,0.2,1.8,0.4,2.7,0.6c0.8,0.2,1.6,0.4,2.3,0.5c0.7,0.1,1.2,0.2,1.6,0.3c0.3,0,0.5,0.1,0.6,0.1
			c0,0,0,0,0,0c-0.1,0-0.2-0.1-0.3-0.1c-0.4-0.1-0.9-0.4-1.6-0.6c-0.7-0.2-1.4-0.5-2.3-0.7c-0.4-0.1-0.8-0.3-1.3-0.4
			c-0.4-0.1-0.9-0.2-1.3-0.3c-0.9-0.2-1.8-0.5-2.7-0.6c-0.9-0.1-1.7-0.1-2.3,0.1c-0.7,0.2-1.2,0.4-1.6,0.6c-0.4,0.2-0.6,0.3-0.6,0.3
			s0.2-0.1,0.5-0.3c0.3-0.2,0.9-0.5,1.5-0.7c0.7-0.2,1.5-0.3,2.4-0.3c0.9,0,1.8,0.2,2.7,0.4c0.5,0.1,0.9,0.2,1.4,0.2
			c0.5,0.1,0.9,0.2,1.3,0.3c0.9,0.2,1.7,0.4,2.3,0.6c0.6,0.2,1.1,0.3,1.5,0.4c-0.1,0-0.1-0.1-0.2-0.1c-0.1-0.1-0.2-0.1-0.3-0.2
			c-0.2-0.2-0.4-0.3-0.7-0.5c-0.3-0.2-0.6-0.4-0.9-0.6c-0.3-0.2-0.7-0.4-1.1-0.6c-0.4-0.2-0.8-0.3-1.2-0.5c-0.4-0.1-0.9-0.3-1.3-0.4
			l-0.7-0.2c-0.2,0-0.4-0.1-0.7-0.1c-0.5-0.1-0.9-0.1-1.3-0.2c-0.4,0-0.9-0.1-1.2,0c-0.4,0-0.8,0-1.1,0.1c-0.3,0-0.6,0.1-0.9,0.2
			c-0.3,0.1-0.5,0.2-0.7,0.3c-0.4,0.2-0.6,0.3-0.6,0.3s0.2-0.1,0.5-0.4c0.2-0.1,0.4-0.2,0.7-0.4c0.3-0.1,0.6-0.2,0.9-0.3
			c0.4-0.1,0.7-0.2,1.2-0.3c0.4-0.1,0.9-0.1,1.3-0.1c0.5,0,0.9,0,1.4,0c0.2,0,0.5,0,0.7,0l0.7,0.1c0.5,0,1,0.2,1.5,0.2
			c0.5,0.1,0.9,0.2,1.4,0.3c0.4,0.1,0.9,0.3,1.3,0.4c0.4,0.1,0.8,0.3,1.1,0.5c0.3,0.1,0.7,0.3,1,0.5c0.2,0.1,0.3,0.2,0.4,0.2
			c0.1,0.1,0.2,0.1,0.3,0.2c0.2,0.1,0.4,0.2,0.5,0.3c0,0,0-0.1,0.1-0.1c0,0,0,0,0,0c0,0,0,0,0-0.1c-0.1-0.1-0.1-0.2-0.3-0.3
			c-0.3-0.3-0.8-0.6-1.4-1c-0.6-0.4-1.4-0.8-2.3-1.1c-0.4-0.2-0.9-0.4-1.3-0.5c-0.5-0.2-0.9-0.3-1.4-0.4c-1-0.2-2-0.2-2.9-0.3
			c-0.9,0-1.8,0-2.6,0c-0.8,0-1.4,0-1.8,0c-0.4,0-0.7,0-0.7,0s0.2,0,0.7,0c0.4,0,1.1-0.1,1.8-0.1c0.8-0.1,1.6-0.1,2.6-0.2
			c0.9,0,2,0,3,0.1c0.5,0.1,1,0.2,1.5,0.3c0.5,0.1,1,0.3,1.4,0.4c0.9,0.3,1.7,0.6,2.4,1c0.7,0.3,1.3,0.7,1.7,1
			c0.1,0.1,0.2,0.2,0.3,0.3c0,0,0,0,0.1-0.1c-0.1-0.1-0.2-0.1-0.3-0.3c-0.3-0.2-0.7-0.6-1.2-0.9c-0.2-0.2-0.5-0.4-0.8-0.6
			c-0.3-0.2-0.6-0.4-0.9-0.6c-0.3-0.2-0.7-0.4-1-0.6c-0.2-0.1-0.4-0.2-0.5-0.3l-0.3-0.1l-0.3-0.1c-0.4-0.1-0.8-0.3-1.2-0.4
			c-0.4-0.1-0.8-0.2-1.2-0.3c-0.4-0.1-0.8-0.1-1.1-0.2c-0.4,0-0.7-0.1-1-0.1c-0.6,0-1.2-0.1-1.5-0.1c-0.4,0-0.6-0.1-0.6-0.1
			s0.2,0,0.6,0c0.4,0,0.9,0,1.5,0c0.3,0,0.7,0,1,0c0.4,0,0.7,0,1.1,0.1c0.4,0,0.8,0.1,1.2,0.2c0.4,0.1,0.8,0.2,1.2,0.3l0.3,0.1
			l0.3,0.1c0.2,0.1,0.4,0.1,0.6,0.2c0.4,0.2,0.8,0.3,1.1,0.5c0.4,0.2,0.7,0.4,1,0.6c0.3,0.2,0.6,0.4,0.9,0.6
			c0.3,0.2,0.6,0.4,0.8,0.5c0,0-0.1-0.1-0.1-0.1c-0.2-0.2-0.4-0.4-0.7-0.6c-0.3-0.2-0.6-0.4-0.9-0.7c-0.4-0.2-0.7-0.4-1.1-0.7
			c-0.8-0.4-1.7-0.8-2.6-1.2c-0.5-0.2-0.9-0.3-1.4-0.4c-0.5-0.1-0.9-0.2-1.4-0.3c-0.5-0.1-0.9-0.1-1.3-0.2c-0.4,0-0.8,0-1.2,0
			c-0.4,0-0.7,0.1-1,0.1c-0.3,0.1-0.6,0.1-0.8,0.2c-0.4,0.2-0.6,0.3-0.6,0.3s0.2-0.1,0.6-0.4c0.2-0.1,0.4-0.2,0.7-0.3
			c0.3-0.1,0.6-0.2,1-0.3c0.4-0.1,0.8-0.1,1.2-0.2c0.4,0,0.9-0.1,1.4,0c0.5,0,1,0.1,1.5,0.1c0.5,0.1,1,0.2,1.5,0.3
			c1,0.2,2,0.5,2.9,0.9c0.5,0.2,0.9,0.4,1.3,0.5c0.4,0.2,0.8,0.4,1.1,0.6c0.3,0.2,0.7,0.4,1,0.6c0.3,0.2,0.6,0.4,0.7,0.5
			c0.2,0.2,0.3,0.3,0.4,0.3c0,0,0,0,0,0c-0.1-0.1-0.2-0.2-0.4-0.4c-0.1-0.2-0.3-0.3-0.5-0.5c-0.2-0.2-0.4-0.4-0.7-0.6
			c-0.6-0.4-1.3-0.9-2-1.4c-0.4-0.2-0.8-0.5-1.2-0.8c-0.4-0.2-0.8-0.5-1.2-0.7c-0.2-0.1-0.4-0.2-0.7-0.3c-0.2-0.1-0.4-0.2-0.7-0.2
			c-0.4-0.1-0.9-0.2-1.3-0.2c-0.2,0-0.4,0-0.7,0c-0.2,0-0.4,0-0.6,0.1c-0.4,0.1-0.8,0.2-1.1,0.3c-0.7,0.2-1.3,0.4-1.7,0.5
			c-0.4,0.1-0.6,0.2-0.6,0.2s0.2-0.1,0.6-0.2c0.4-0.2,1-0.4,1.6-0.7c0.3-0.1,0.7-0.3,1.1-0.4c0.2-0.1,0.4-0.1,0.6-0.1
			c0.2,0,0.5-0.1,0.7-0.1c0.5,0,1,0,1.5,0.1c0.2,0,0.5,0.1,0.7,0.2c0.2,0.1,0.5,0.1,0.7,0.2c0.5,0.2,0.9,0.4,1.4,0.6
			c0.2,0.1,0.4,0.2,0.6,0.3l0.3,0.2l0.3,0.2c0.8,0.4,1.5,0.9,2.2,1.3c0.3,0.2,0.6,0.4,0.8,0.6c0.2,0.2,0.5,0.4,0.6,0.5
			c0.2,0.2,0.3,0.3,0.4,0.4c0.1-0.1,0.3-0.2,0.4-0.4c0,0-0.1-0.1-0.1-0.1c-0.1-0.1-0.3-0.3-0.4-0.4c-0.2-0.2-0.4-0.3-0.6-0.5
			c-0.2-0.2-0.4-0.4-0.7-0.6c-0.3-0.2-0.5-0.4-0.8-0.6c-0.3-0.2-0.6-0.4-0.9-0.6c-0.3-0.2-0.7-0.4-1-0.5c-0.3-0.2-0.7-0.3-1-0.5
			c-0.3-0.1-0.7-0.3-1-0.4c-0.3-0.1-0.7-0.2-1-0.3c-0.3-0.1-0.6-0.2-0.9-0.2c-0.6-0.1-1-0.2-1.4-0.2c-0.2,0-0.3,0-0.4,0
			c-0.1,0-0.1,0-0.1,0s0.1,0,0.1,0c0.1,0,0.2,0,0.4,0c0.3,0,0.8,0,1.4,0.1c0.3,0,0.6,0.1,0.9,0.1c0.3,0.1,0.7,0.1,1,0.2
			c0.4,0.1,0.7,0.2,1.1,0.3c0.4,0.1,0.7,0.3,1.1,0.4c0.4,0.1,0.7,0.3,1.1,0.5c0.3,0.2,0.7,0.3,1,0.5c0.3,0.2,0.6,0.4,0.9,0.5
			c0.3,0.2,0.5,0.4,0.8,0.5c0.2,0.2,0.5,0.3,0.6,0.5c0.2,0.1,0.3,0.3,0.5,0.4c0.1,0.1,0.2,0.1,0.2,0.2c0.2-0.1,0.3-0.3,0.5-0.4
			c-0.1-0.1-0.2-0.2-0.3-0.4c0,0-0.1-0.1-0.1-0.1c0,0-0.1-0.1-0.1-0.1c-0.1-0.1-0.1-0.1-0.2-0.2c-0.1-0.2-0.4-0.4-0.6-0.6
			c-0.2-0.2-0.6-0.4-0.9-0.6c-0.4-0.2-0.7-0.4-1.1-0.6c-0.2-0.1-0.4-0.2-0.6-0.3c-0.2-0.1-0.4-0.2-0.6-0.2c-0.4-0.2-0.9-0.3-1.3-0.4
			c-0.5-0.1-0.9-0.2-1.4-0.3c-0.5-0.1-0.9-0.2-1.4-0.2c-0.5-0.1-0.9-0.1-1.3-0.1c-0.4,0-0.8,0-1.2,0c-0.4,0-0.7,0-1,0.1
			c-0.3,0-0.6,0-0.8,0.1c-0.4,0.1-0.7,0.1-0.7,0.1s0.2-0.1,0.6-0.2c0.2-0.1,0.5-0.1,0.8-0.2c0.3-0.1,0.6-0.1,1-0.2
			c0.4-0.1,0.8-0.1,1.2-0.2c0.4,0,0.9-0.1,1.3-0.1c0.5,0,1,0,1.5,0c0.5,0,1,0.1,1.5,0.1c0.5,0.1,1,0.1,1.5,0.3
			c0.2,0.1,0.5,0.1,0.7,0.2c0.2,0.1,0.5,0.1,0.7,0.2c0.5,0.1,0.9,0.3,1.3,0.5c0.4,0.2,0.8,0.4,1.2,0.6c0.3,0.2,0.7,0.4,0.9,0.7
			c0.1,0.1,0.3,0.2,0.4,0.3c0.1,0.1,0.1,0.1,0.2,0.2c0,0,0.1,0.1,0.1,0.1c0.1,0.2,0.3,0.3,0.3,0.4c0,0,0.1,0,0.1-0.1
			c0,0,0-0.1-0.1-0.1c0-0.1-0.1-0.2-0.2-0.2c-0.1-0.2-0.3-0.4-0.5-0.7c-0.2-0.3-0.5-0.5-0.8-0.8c-0.7-0.6-1.5-1.2-2.6-1.7
			c-0.5-0.3-1-0.5-1.6-0.7c-0.3-0.1-0.6-0.2-0.8-0.3c-0.3-0.1-0.6-0.2-0.9-0.3c-0.6-0.1-1.2-0.2-1.8-0.2c-0.6,0-1.2,0-1.8,0.1
			c-1.2,0.1-2.2,0.4-3.2,0.5c-0.9,0.2-1.7,0.3-2.3,0.3c-0.6,0.1-0.9,0.1-0.9,0.1s0.3,0,0.9-0.1c0.5-0.1,1.3-0.3,2.2-0.5
			c0.9-0.2,2-0.6,3.1-0.8c0.6-0.1,1.2-0.2,1.8-0.3c0.6,0,1.3,0,2,0.1c0.3,0,0.6,0.1,0.9,0.2c0.4,0.1,0.6,0.2,0.9,0.3
			c0.6,0.2,1.2,0.4,1.8,0.6c1.1,0.5,2.1,1,3,1.6c0.4,0.3,0.8,0.6,1.1,0.9c0.1,0.1,0.2,0.3,0.4,0.4c-0.1-0.1-0.2-0.3-0.3-0.4
			c-0.2-0.3-0.5-0.6-0.8-0.9c-0.3-0.3-0.7-0.7-1.2-1c-0.4-0.3-0.9-0.7-1.4-1c-0.5-0.3-1-0.7-1.6-1c-0.3-0.2-0.6-0.3-0.8-0.5l0,0
			c0,0-0.1,0,0.1,0l0,0l-0.1,0l-0.1,0l-0.2-0.1L82,23.7l-0.5-0.2l-0.4-0.1c-0.3-0.1-0.6-0.2-0.9-0.2c-0.3,0-0.6-0.1-0.9-0.1
			c-0.2,0-0.3-0.1-0.5-0.1c-0.2,0-0.3,0-0.5,0c-0.3,0-0.6,0-0.9-0.1c-0.3,0-0.6,0-0.9,0C76,22.9,75.5,23,75,23
			c-0.5,0-0.9,0.2-1.3,0.2c-0.2,0-0.4,0.1-0.6,0.1c-0.2,0-0.3,0.1-0.5,0.1c-0.6,0.2-0.9,0.3-0.9,0.3s0.3-0.1,0.8-0.4
			c0.1-0.1,0.3-0.1,0.4-0.2c0.2-0.1,0.4-0.1,0.6-0.2c0.4-0.1,0.8-0.3,1.3-0.4c0.5-0.1,1-0.3,1.6-0.3c0.3,0,0.6-0.1,0.9-0.1
			c0.3,0,0.6,0,0.9,0c0.2,0,0.3,0,0.5,0c0.2,0,0.3,0,0.5,0c0.3,0,0.7,0,1,0.1c0.3,0.1,0.7,0.1,1,0.2l0.5,0.1l0.5,0.1l0.5,0.1
			l0.2,0.1l0.1,0l0.1,0l0,0l0,0l0.1,0l0,0c0.3,0.1,0.6,0.3,0.9,0.4c0.6,0.3,1.2,0.6,1.8,0.9c0.5,0.3,0.9,0.5,1.3,0.8
			c-0.6-0.5-1.3-1.1-1.9-1.7c-0.2-0.2-0.4-0.4-0.6-0.5c-0.2-0.2-0.4-0.3-0.6-0.5c-0.4-0.3-0.9-0.5-1.3-0.7c-0.9-0.4-1.8-0.7-2.5-0.8
			c-0.8-0.2-1.4-0.2-1.9-0.2c-0.2,0-0.4,0-0.5,0c-0.1,0-0.2,0-0.2,0s0.1,0,0.2,0c0.1,0,0.3,0,0.5,0c0.5,0,1.1,0,1.9,0.1
			c0.8,0.1,1.7,0.3,2.6,0.7c0.5,0.2,0.9,0.4,1.4,0.7c0.5,0.3,0.9,0.6,1.3,0.9c0.8,0.6,1.7,1.3,2.5,1.9c-0.2-0.2-0.4-0.4-0.6-0.6
			c-0.4-0.4-0.8-0.8-1.2-1.3c-0.4-0.5-0.7-1-1.1-1.4c-0.4-0.5-0.7-0.9-1.2-1.3c-0.4-0.4-0.9-0.7-1.4-1c-0.5-0.3-1-0.5-1.4-0.6
			c-0.5-0.1-1-0.2-1.4-0.3c-0.4,0-0.8,0-1.2,0c-0.4,0-0.7,0.1-0.9,0.2c-0.3,0.1-0.4,0.1-0.6,0.2c-0.1,0-0.2,0.1-0.2,0.1
			s0.1,0,0.2-0.1c0.1,0,0.3-0.1,0.6-0.2c0.2-0.1,0.5-0.2,0.9-0.2c0.4-0.1,0.8-0.1,1.2-0.1c0.5,0,0.9,0.1,1.5,0.2
			c0.5,0.1,1,0.3,1.5,0.6c0.5,0.3,1,0.6,1.5,1c0.5,0.4,0.9,0.8,1.3,1.3c0.4,0.5,0.8,0.9,1.2,1.3c0.4,0.4,0.8,0.8,1.2,1.2
			c0.8,0.8,1.6,1.5,2.2,2.1c0.3,0.3,0.6,0.7,0.9,1c-0.1-0.3-0.3-0.5-0.4-0.8c-0.7-1.5-1.8-3.4-3.1-5.2c-0.6-0.9-1.3-1.7-2.1-2.4
			c-0.7-0.7-1.5-1.3-2.2-1.6c-0.4-0.2-0.7-0.3-1-0.4c-0.3-0.1-0.6-0.1-0.9-0.1c-0.2,0-0.4,0-0.6,0c-0.1,0-0.2,0-0.2,0s0.1,0,0.2,0
			c0.1,0,0.3-0.1,0.6-0.1c0.2,0,0.5,0,0.9,0c0.3,0,0.7,0.1,1.1,0.3c0.8,0.3,1.7,0.8,2.6,1.4c0.9,0.6,1.7,1.4,2.5,2.3
			c1.6,1.7,2.9,3.5,3.8,4.9c0.1,0.2,0.2,0.4,0.3,0.5c-0.1-0.2-0.3-0.5-0.4-0.8c-0.2-0.4-0.4-0.9-0.7-1.3c-0.2-0.5-0.5-1-0.7-1.5
			c-0.5-1-1-2-1.7-3c-0.7-1-1.4-1.9-2.2-2.6c-0.8-0.8-1.7-1.3-2.5-1.7c-0.8-0.4-1.5-0.7-2-1c-0.2-0.1-0.4-0.3-0.5-0.4
			c-0.1-0.1-0.2-0.1-0.2-0.1s0.1,0,0.2,0.1c0.1,0.1,0.3,0.2,0.5,0.3c0.5,0.2,1.2,0.5,2,0.8c0.9,0.3,1.8,0.8,2.8,1.5
			c0.9,0.7,1.8,1.6,2.6,2.6c0.8,1,1.4,2,2,3c0.3,0.5,0.6,1,0.8,1.4c0.3,0.4,0.5,0.8,0.8,1.2c0.3,0.4,0.5,0.7,0.7,1
			c0.1,0.1,0.1,0.2,0.2,0.3c0-0.1-0.1-0.2-0.1-0.3c-0.1-0.3-0.3-0.7-0.4-1.1c-0.3-0.8-0.6-1.8-1-2.8c-0.2-0.5-0.3-1-0.5-1.5
			c-0.2-0.5-0.4-1-0.6-1.5c-0.2-0.5-0.5-1-0.8-1.5c-0.1-0.2-0.3-0.5-0.4-0.7c-0.2-0.2-0.3-0.4-0.5-0.6c-0.2-0.2-0.3-0.4-0.5-0.6
			c-0.2-0.2-0.4-0.3-0.5-0.5c-0.3-0.3-0.7-0.6-1.1-0.8c-0.3-0.2-0.7-0.4-1-0.6c-0.2-0.1-0.3-0.2-0.5-0.2h-25
			c0.2,0.5,0.4,0.9,0.6,1.3c0.1,0.2,0.2,0.4,0.2,0.6c0.1,0.2,0.1,0.4,0.1,0.5c0.1,0.3,0.1,0.4,0.1,0.4s-0.1-0.1-0.2-0.4
			c-0.1-0.1-0.1-0.3-0.2-0.4c-0.1-0.2-0.2-0.4-0.3-0.6c-0.3-0.4-0.6-0.8-1-1.3c0-0.1-0.1-0.1-0.1-0.2h-0.6c0,0,0,0.1,0,0.1
			c-0.1,1.5-0.1,3-0.2,4.1c0,0.3-0.1,0.5-0.1,0.8c-0.1,0.2-0.1,0.4-0.2,0.6c-0.1,0.3-0.2,0.5-0.2,0.5s0-0.2,0.1-0.5
			c0-0.2,0.1-0.4,0.1-0.6c0-0.2,0-0.5,0-0.8c-0.1-1.1-0.4-2.6-0.6-4.1c0-0.1,0-0.1,0-0.2H59c-0.1,0.8-0.2,1.5-0.3,2.4
			c-0.1,0.5-0.2,1-0.3,1.5c-0.1,0.5-0.2,1-0.3,1.4c-0.1,0.2-0.1,0.4-0.2,0.7c-0.1,0.2-0.2,0.4-0.2,0.6c-0.2,0.4-0.3,0.8-0.5,1.1
			c-0.2,0.3-0.3,0.6-0.5,0.9c-0.1,0.3-0.3,0.5-0.4,0.7c-0.2,0.4-0.4,0.6-0.4,0.6s0.1-0.2,0.3-0.6c0.1-0.2,0.2-0.4,0.3-0.7
			c0.1-0.3,0.2-0.6,0.3-0.9c0.1-0.4,0.2-0.7,0.3-1.1c0-0.2,0.1-0.4,0.1-0.6c0-0.2,0.1-0.4,0.1-0.7c0.1-0.5,0.1-0.9,0.1-1.4
			c0-0.5,0-1,0-1.5c0,0,0-0.1,0-0.2c-0.1,0.4-0.2,0.8-0.4,1.2c-0.4,1-0.9,2-1.5,2.9c-0.3,0.4-0.6,0.9-0.8,1.2
			c-0.3,0.4-0.6,0.7-0.8,1c-0.3,0.3-0.5,0.6-0.8,0.8c-0.2,0.2-0.4,0.4-0.6,0.6c-0.3,0.3-0.6,0.5-0.6,0.5s0.2-0.2,0.5-0.6
			c0.2-0.2,0.3-0.4,0.5-0.7c0.2-0.3,0.4-0.6,0.7-0.9c0.2-0.3,0.5-0.7,0.7-1.1c0.2-0.4,0.5-0.8,0.7-1.3c0.4-0.9,0.8-1.9,1.1-2.9
			c0.3-1,0.5-2,0.6-3h-0.4c0,0.1-0.1,0.2-0.1,0.4l-0.1,0.2c0,0.1-0.1,0.1-0.1,0.2L56,13.7c-0.2,0.4-0.4,0.9-0.7,1.4
			c-0.2,0.5-0.5,0.9-0.8,1.3c-0.3,0.4-0.5,0.8-0.8,1.2c-0.3,0.4-0.5,0.8-0.8,1.1c-0.3,0.3-0.5,0.7-0.8,1c-0.2,0.3-0.5,0.5-0.7,0.8
			c-0.2,0.2-0.4,0.4-0.5,0.6c-0.3,0.3-0.5,0.5-0.5,0.5s0.1-0.2,0.4-0.6c0.1-0.2,0.3-0.4,0.4-0.6c0.2-0.2,0.4-0.5,0.6-0.9
			c0.2-0.3,0.4-0.7,0.6-1c0.2-0.4,0.4-0.8,0.6-1.2c0.2-0.4,0.4-0.9,0.6-1.3c0.2-0.4,0.4-0.9,0.5-1.3c0.2-0.5,0.3-0.9,0.5-1.4
			l0.1-0.3c0-0.1,0-0.1,0-0.2l0-0.1h-0.1c0,0.1,0,0.1-0.1,0.1c-0.1,0.3-0.2,0.5-0.3,0.8c-0.5,1-1.1,2.1-1.7,3.1
			c-1.3,2-2.7,3.8-3.8,5.2c-1.1,1.4-1.8,2.3-1.8,2.3s0.6-1,1.5-2.5c0.9-1.5,2.1-3.5,3.1-5.5c0.5-1,0.9-2.1,1.2-3.1
			c0-0.1,0.1-0.3,0.1-0.4h-0.5c-0.2,0.4-0.3,0.8-0.5,1.2c-0.2,0.6-0.5,1.1-0.7,1.7c-0.3,0.6-0.5,1.2-0.8,1.8
			c-0.3,0.6-0.6,1.2-0.9,1.7c-0.3,0.6-0.7,1.1-1,1.6c-0.4,0.5-0.7,1-1,1.4c-0.3,0.4-0.7,0.8-1,1.2c-0.3,0.4-0.6,0.7-0.9,1
			c-0.3,0.3-0.5,0.5-0.7,0.7c-0.4,0.4-0.6,0.6-0.6,0.6s0.2-0.3,0.6-0.7c0.2-0.2,0.4-0.5,0.6-0.8c0.2-0.3,0.5-0.7,0.8-1.1
			c0.3-0.4,0.6-0.8,0.9-1.3c0.3-0.5,0.6-1,0.9-1.5c0.3-0.5,0.6-1.1,0.8-1.6c0.3-0.6,0.5-1.1,0.7-1.7c0.2-0.6,0.4-1.2,0.6-1.8
			c0.2-0.6,0.3-1.2,0.5-1.8c0.1-0.2,0.1-0.5,0.2-0.7h-0.2c-0.5,1-1.1,2.1-1.7,3.2c-0.6,1-1.1,1.8-1.7,2.7c-0.5,0.9-1.1,1.6-1.5,2.3
			c-0.5,0.7-0.9,1.2-1.1,1.6c-0.2,0.2-0.3,0.3-0.4,0.4C44.2,23,44.1,23,44.1,23s0.1,0,0.1-0.1c0.1-0.1,0.2-0.2,0.3-0.4
			c0.2-0.4,0.6-1,0.9-1.7c0.4-0.7,0.8-1.6,1.2-2.5c0.4-0.9,0.9-1.9,1.3-2.9c0.4-0.9,0.7-1.9,1-2.7h-0.2c-0.6,1.2-1.2,2.6-1.9,3.9
			c-1,2.1-2.1,4.3-3,5.8c-0.2,0.4-0.4,0.7-0.6,1c-0.2,0.3-0.4,0.6-0.5,0.8c-0.1,0.2-0.3,0.3-0.4,0.4c-0.1,0.1-0.2,0.1-0.2,0.1
			s0.1-0.1,0.1-0.2c0.1-0.1,0.2-0.2,0.4-0.5c0.1-0.2,0.3-0.5,0.5-0.8c0.2-0.3,0.3-0.7,0.5-1.1c0.7-1.6,1.6-3.8,2.4-6
			c0-0.1,0-0.1,0.1-0.2c-1,1.6-2.1,3-2.9,4.1c-0.4,0.6-0.8,1-1.1,1.3c-0.1,0.1-0.3,0.3-0.4,0.3c-0.1,0.1-0.2,0.1-0.2,0.1
			c0,0,0.1,0,0.1-0.1c0.1-0.1,0.2-0.2,0.3-0.4c0.2-0.3,0.6-0.8,0.9-1.5c0.7-1.2,1.6-3,2.3-4.7c0.4-0.9,0.7-1.8,1-2.6h-0.5
			c-0.2,0.4-0.3,0.7-0.6,1.1c-0.2,0.5-0.5,0.9-0.8,1.4c-0.3,0.5-0.7,0.9-1,1.4c-0.3,0.4-0.6,0.9-0.9,1.3c-0.3,0.5-0.5,0.9-0.8,1.4
			c-0.5,0.9-0.9,1.8-1.2,2.5c-0.2,0.4-0.4,0.7-0.6,1c-0.2,0.3-0.4,0.5-0.5,0.7c-0.2,0.2-0.3,0.3-0.4,0.4C39,24,38.9,24,38.9,24
			s0-0.1,0.1-0.2c0.1-0.1,0.2-0.2,0.3-0.4c0.1-0.2,0.3-0.4,0.4-0.7c0.2-0.3,0.3-0.6,0.5-1c0.3-0.8,0.6-1.7,1-2.7
			c0.2-0.5,0.4-1,0.6-1.5c0.2-0.5,0.5-1,0.8-1.5c0.3-0.5,0.6-0.9,0.8-1.4c0.2-0.5,0.5-0.9,0.7-1.4c0.1-0.2,0.2-0.4,0.2-0.6H44
			c-0.4,1-1,2.1-1.5,3.2c-0.2,0.4-0.4,0.8-0.7,1.2c-0.2,0.4-0.5,0.8-0.7,1.2c-0.5,0.8-1,1.4-1.4,2c-0.2,0.3-0.4,0.5-0.6,0.7
			c-0.2,0.2-0.4,0.4-0.5,0.5c-0.3,0.3-0.5,0.4-0.5,0.4s0.2-0.2,0.4-0.5c0.1-0.2,0.3-0.4,0.4-0.6c0.2-0.2,0.3-0.5,0.5-0.8
			c0.3-0.6,0.7-1.3,1-2.1c0.2-0.4,0.3-0.8,0.5-1.2c0.2-0.4,0.3-0.9,0.5-1.3c0.3-0.9,0.6-1.9,0.9-2.8H42c0,0,0,0,0,0
			c-0.2,0.4-0.4,0.8-0.6,1.2c-0.4,0.9-0.9,1.8-1.3,2.7c-1,1.8-2,3.6-2.8,4.9c-0.4,0.7-0.7,1.2-1,1.6c-0.1,0.2-0.2,0.3-0.3,0.4
			c0,0-0.1,0.1-0.1,0.1c0,0,0,0,0,0c0,0,0,0,0,0c0,0,0,0,0,0c0,0,0,0,0,0c0,0,0,0,0,0c0,0,0,0,0,0c0,0,0.1-0.1,0.1-0.1
			c0.1-0.1,0.2-0.3,0.3-0.4c0.2-0.4,0.5-1,0.9-1.7c0.7-1.4,1.5-3.2,2.3-5.1c0.4-0.9,0.8-1.9,1.1-2.8c0-0.1,0-0.1,0.1-0.2
			c-0.1,0.2-0.2,0.4-0.3,0.5c-0.4,0.7-0.9,1.4-1.4,2.1c-0.5,0.7-1,1.4-1.4,2.1c-0.4,0.7-0.8,1.3-1,1.9c-0.1,0.3-0.2,0.6-0.3,0.8
			c-0.1,0.2-0.1,0.5-0.1,0.7c0,0.4,0,0.6,0,0.6s0-0.2,0-0.6c0-0.2,0-0.4,0.1-0.7c0-0.3,0.1-0.5,0.2-0.9c0.2-0.6,0.5-1.3,0.8-2.1
			c0.3-0.7,0.7-1.5,1.1-2.3c0.4-0.8,0.8-1.5,1.1-2.2c0.1-0.2,0.2-0.4,0.3-0.7h-0.4c-0.6,1-1.4,2.2-2.1,3.5c-0.8,1.5-1.6,3.1-2.1,4.3
			c-0.2,0.6-0.4,1.1-0.4,1.5c0,0.2,0,0.3,0,0.4c0,0.1,0.1,0.1,0.1,0.1s0,0-0.1-0.1c0-0.1-0.1-0.2-0.1-0.4c-0.1-0.4,0-1,0.1-1.6
			c0.2-1.3,0.8-3,1.4-4.7c0.1-0.2,0.2-0.4,0.2-0.6c-0.1,0.2-0.2,0.4-0.4,0.6c-0.2,0.3-0.4,0.7-0.6,1c-0.7,1.4-1.3,2.9-2,4
			c-0.2,0.3-0.3,0.5-0.5,0.7c-0.2,0.2-0.3,0.3-0.5,0.5c-0.1,0.1-0.3,0.2-0.3,0.3c-0.1,0.1-0.1,0.1-0.1,0.1s0,0,0.1-0.1
			c0.1-0.1,0.2-0.2,0.3-0.3c0.1-0.1,0.2-0.3,0.4-0.5c0.1-0.2,0.3-0.4,0.4-0.7c0.5-1.1,0.9-2.6,1.4-4.2c0.1-0.4,0.3-0.8,0.4-1.1
			c0.2-0.4,0.3-0.8,0.5-1.1c0.1-0.2,0.1-0.3,0.2-0.5c0-0.1,0.1-0.1,0.1-0.2c-0.5,0.9-1.1,2.1-1.6,3.3c-0.7,1.4-1.3,2.8-1.9,3.8
			c-0.3,0.5-0.5,0.9-0.7,1.2c-0.1,0.1-0.2,0.3-0.2,0.3c-0.1,0.1-0.1,0.1-0.1,0.1s0,0,0.1-0.1c0.1-0.1,0.1-0.2,0.2-0.3
			c0.1-0.3,0.3-0.8,0.5-1.3c0.4-1.1,0.9-2.5,1.5-4c0.5-1.3,1-2.7,1.4-3.7h-0.1c-0.1,0.1-0.2,0.3-0.2,0.4c-0.4,0.9-0.9,2.1-1.4,3.3
			c-0.5,1.2-1,2.5-1.4,3.4c-0.2,0.5-0.4,0.8-0.6,1.1c-0.1,0.1-0.2,0.2-0.2,0.3c-0.1,0.1-0.1,0.1-0.1,0.1s0,0,0.1-0.1
			c0-0.1,0.1-0.1,0.2-0.3c0.1-0.3,0.3-0.6,0.5-1.1c0.3-0.9,0.7-2.2,1.1-3.5c0.1-0.5,0.3-1,0.4-1.5c-0.4,1-0.8,2.1-1.2,3.3
			c-0.3,0.7-0.6,1.4-0.9,2.1c-0.3,0.7-0.6,1.3-1,1.8c-0.2,0.2-0.3,0.5-0.4,0.7c-0.1,0.2-0.3,0.4-0.4,0.5c-0.2,0.2-0.4,0.4-0.4,0.4
			s0.1-0.2,0.3-0.4c0.1-0.1,0.2-0.3,0.3-0.5c0.1-0.2,0.2-0.4,0.3-0.7c0.2-0.5,0.5-1.1,0.7-1.8c0.2-0.7,0.4-1.4,0.6-2.2
			c0.4-1.5,0.6-3,0.9-4.2c0-0.2,0.1-0.4,0.2-0.6c0,0-0.1,0-0.1,0c0,0.1-0.1,0.3-0.1,0.5c0,0.2-0.1,0.4-0.1,0.7
			c-0.1,0.5-0.3,1.1-0.4,1.7c-0.2,0.6-0.4,1.3-0.6,2c-0.5,1.3-1.1,2.6-1.6,3.5c-0.3,0.4-0.5,0.8-0.7,1c-0.2,0.2-0.3,0.4-0.3,0.4
			s0.1-0.1,0.2-0.4c0.2-0.3,0.4-0.6,0.6-1.1c0.4-0.9,0.9-2.2,1.2-3.5c0.1-0.6,0.3-1.1,0.3-1.7c-0.1,0.1-0.1,0.3-0.2,0.4
			c-0.2,0.5-0.4,1.1-0.7,1.6c-0.1,0.3-0.2,0.5-0.4,0.8c-0.1,0.3-0.3,0.5-0.4,0.8c-0.3,0.5-0.5,1-0.7,1.4c-0.4,0.8-0.8,1.3-0.8,1.3
			s0.2-0.5,0.6-1.4c0.2-0.4,0.3-0.9,0.5-1.4c0.1-0.3,0.2-0.5,0.3-0.8c0.1-0.3,0.2-0.6,0.2-0.8c0,0,0,0,0,0c-0.2,0.5-0.4,0.9-0.6,1.4
			c-0.5,1.1-1.2,2.2-1.6,3c-0.2,0.6-0.5,1.2-0.7,1.7c-0.2,0.5-0.4,0.9-0.5,1.1c-0.1,0.3-0.2,0.4-0.2,0.4s0.1-0.2,0.2-0.4
			c0.1-0.3,0.3-0.7,0.4-1.2c0-0.1,0-0.1,0-0.2c0,0,0,0,0,0c0-0.1,0-0.2,0.1-0.3c0.1-0.3,0.2-0.7,0.3-1.1c0.1-0.2,0.2-0.5,0.3-0.7
			c0.1-0.4,0.2-0.9,0.3-1.3c0.2-0.7,0.3-1.4,0.4-2c0.1-0.3,0.1-0.6,0.1-0.9c0-0.3,0.1-0.6,0.1-0.8c0-0.3,0-0.5,0.1-0.7
			c0-0.1,0-0.2,0-0.3c-0.1,0-0.2,0.1-0.2,0.1c0,0.1,0,0.1,0,0.2c0,0.3,0,0.7-0.1,1.2c-0.1,0.5-0.2,1-0.3,1.6
			c-0.1,0.3-0.1,0.6-0.2,0.9c-0.1,0.3-0.2,0.6-0.2,0.9c-0.1,0.6-0.3,1.3-0.5,1.8c-0.2,0.6-0.4,1.1-0.7,1.5c-0.2,0.4-0.4,0.7-0.6,1
			c-0.2,0.2-0.3,0.3-0.3,0.3s0.1-0.1,0.2-0.4c0.1-0.2,0.3-0.6,0.5-1c0.2-0.4,0.3-1,0.5-1.5c0.1-0.6,0.2-1.2,0.3-1.8
			c0-0.3,0.1-0.6,0.1-0.9c0-0.3,0.1-0.6,0.1-0.9c0.1-0.6,0.1-1.1,0.1-1.6c0-0.3,0-0.5,0-0.7c0,0-0.1,0-0.1,0.1c0,0.1,0,0.1,0,0.3
			c0,0.2,0,0.4,0,0.6c0,0.2,0,0.4,0,0.6c0,0.5-0.1,1-0.2,1.6c-0.1,0.3-0.1,0.6-0.2,0.9c-0.1,0.3-0.2,0.6-0.3,0.9
			c-0.8,2.2-1.7,4.4-1.7,4.4s0.6-2.3,1.1-4.6c0.1-0.3,0.1-0.6,0.2-0.8c0-0.3,0.1-0.6,0.1-0.8c0-0.2,0-0.4,0-0.6
			c-0.2,0.4-0.4,0.8-0.6,1.3c-0.1,0.2-0.2,0.5-0.4,0.7c-0.1,0.2-0.2,0.5-0.3,0.8c-0.4,1-0.8,2.1-1,2.9c-0.1,0.4-0.1,0.8-0.2,1
			c0,0.2,0,0.4,0,0.4s0-0.1-0.1-0.4c0-0.3,0-0.6,0-1.1c0.1-0.9,0.2-2,0.5-3.2c0.1-0.3,0.1-0.6,0.2-0.9c0.1-0.3,0.1-0.5,0.2-0.8
			c0.1-0.5,0.3-1,0.3-1.4c0-0.1,0-0.2,0-0.3c-0.1,0-0.1,0.1-0.2,0.1l0,0c0,0,0,0.1-0.1,0.3c-0.1,0.2-0.1,0.5-0.3,0.9
			c-0.2,0.8-0.6,1.8-0.9,2.7c-0.3,1-0.6,2-0.8,2.7c0,0.2-0.1,0.4-0.1,0.5c0,0.2,0,0.3-0.1,0.4c0,0.2-0.1,0.4-0.1,0.4s0-0.1,0-0.4
			c0-0.1,0-0.3,0-0.4c0-0.2,0-0.3,0.1-0.5c0.1-0.8,0.2-1.8,0.4-2.8c0.2-1,0.4-2.1,0.5-2.8c0,0,0-0.1,0-0.1c-0.3,0.2-0.5,0.4-0.7,0.6
			c0,0,0,0.2-0.1,0.4c0,0.3-0.1,0.6-0.2,1.1c-0.1,0.2-0.1,0.5-0.2,0.7c-0.1,0.3-0.1,0.5-0.2,0.8c-0.1,0.6-0.4,1.1-0.6,1.7
			c-0.2,0.6-0.4,1.1-0.6,1.6c-0.2,0.5-0.4,1-0.6,1.4c-0.4,0.8-0.6,1.4-0.6,1.4s0.2-0.6,0.4-1.4c0.1-0.4,0.3-0.9,0.4-1.5
			c0.2-0.5,0.3-1.1,0.4-1.7c0.1-0.6,0.3-1.2,0.3-1.7c0-0.3,0.1-0.5,0.1-0.8c0-0.2,0.1-0.5,0.1-0.7c0-0.1,0-0.1,0-0.2
			c-0.1,0.1-0.2,0.1-0.2,0.2c0,0.1-0.1,0.2-0.1,0.5c0,0.2-0.1,0.4-0.2,0.6c-0.1,0.2-0.1,0.5-0.2,0.8c-0.1,0.6-0.3,1.2-0.4,1.9
			c-0.1,0.4-0.1,0.7-0.2,1.1c-0.1,0.4-0.2,0.8-0.3,1.1c-0.1,0.4-0.3,0.8-0.4,1.1c-0.1,0.4-0.3,0.7-0.5,1c-0.1,0.2-0.2,0.3-0.3,0.5
			c-0.1,0.1-0.2,0.3-0.3,0.4c-0.2,0.3-0.4,0.5-0.5,0.8c-0.4,0.4-0.7,0.8-0.9,1.1c-0.2,0.3-0.4,0.4-0.4,0.4s0.1-0.2,0.3-0.4
			c0.2-0.3,0.5-0.7,0.8-1.1c0.1-0.3,0.3-0.5,0.5-0.8c0.1-0.1,0.2-0.3,0.2-0.4c0.1-0.1,0.1-0.3,0.2-0.5c0.1-0.3,0.3-0.7,0.4-1
			c0.1-0.4,0.2-0.7,0.3-1.1c0.1-0.4,0.1-0.8,0.2-1.1c0.1-0.4,0.1-0.8,0.1-1.1c0.1-0.7,0.2-1.4,0.2-2c0-0.1,0-0.2,0-0.2
			c-0.1,0.1-0.1,0.1-0.2,0.2c0,0.1,0,0.1,0,0.2c0,0.1,0,0.3,0,0.4c0,0.2,0,0.4,0,0.6c0,0.4-0.1,0.9-0.2,1.4c-0.1,0.5-0.3,1-0.5,1.6
			c-0.2,0.5-0.4,1-0.7,1.5c-0.3,0.4-0.6,0.8-0.9,1.1c-0.1,0.1-0.2,0.2-0.3,0.3c-0.1,0.2-0.2,0.4-0.3,0.6c-0.6,1-1.2,2-1.8,2.8
			c-0.1,0.2-0.1,0.3-0.2,0.5c-0.1,0.2-0.2,0.5-0.4,0.7l9.7,16.3c0-0.1,0.1-0.3,0.1-0.4c0-0.1,0-0.2,0-0.4c0-0.1,0-0.2,0-0.3
			c0-0.2,0-0.2,0-0.2s0,0.1,0,0.2c0,0.1,0,0.2,0,0.3c0,0.1,0,0.2,0,0.4c0,0.2,0,0.4,0,0.6l0.6,1c0-0.2,0-0.4,0-0.6
			c0-0.3,0-0.6,0-0.9c0-0.3-0.1-0.5-0.1-0.6c0-0.2,0-0.2,0-0.2s0,0.1,0.1,0.2c0.1,0.1,0.2,0.3,0.2,0.6c0.1,0.3,0.2,0.5,0.3,0.9
			c0.1,0.3,0.2,0.7,0.2,1c0,0.2,0,0.4,0.1,0.5c0,0,0,0.1,0,0.1c0.1-0.3,0.2-0.6,0.2-0.9c0.1-0.4,0.2-0.8,0.2-1.2
			c0-0.4,0-0.8-0.1-1.1c-0.1-0.3-0.2-0.6-0.2-0.7c-0.1-0.2-0.1-0.3-0.1-0.3s0.1,0.1,0.2,0.2c0.1,0.2,0.2,0.4,0.4,0.7
			c0.1,0.3,0.2,0.7,0.2,1.1c0,0.4,0,0.9,0,1.3c0,0.4-0.1,0.7-0.1,1.1c0.1-0.4,0.2-0.9,0.3-1.4c0-0.2,0.1-0.5,0.1-0.7
			c0-0.2,0-0.5,0.1-0.7c0-0.5,0-0.9-0.1-1.3c0-0.2-0.1-0.3-0.1-0.5c0-0.1-0.1-0.3-0.1-0.4C25,47.7,25,47.5,25,47.5s0.1,0.1,0.2,0.3
			c0.1,0.1,0.1,0.2,0.2,0.3c0.1,0.1,0.1,0.3,0.2,0.5c0.2,0.4,0.3,0.8,0.4,1.3c0.1,0.2,0.1,0.5,0.1,0.7c0,0.3,0.1,0.5,0.1,0.8
			c0.1,1.1,0,2.1-0.1,2.9c0,0.2,0,0.3-0.1,0.4c0-0.1,0.1-0.1,0.1-0.2c0.1-0.3,0.2-0.7,0.2-1.1c0-0.4,0-0.9,0.1-1.4
			c0.1-0.9,0.2-1.8,0.1-2.5c0-0.4-0.1-0.6-0.1-0.8c0-0.2-0.1-0.3-0.1-0.3s0,0.1,0.1,0.3c0.1,0.2,0.1,0.5,0.2,0.8
			c0.1,0.7,0.1,1.6,0,2.6c0,0.5,0,0.9,0,1.4c0,0.2,0,0.4,0,0.7c0,0.2-0.1,0.4-0.1,0.6c-0.1,0.1-0.1,0.3-0.2,0.4
			c0-0.1,0.1-0.1,0.1-0.2c0.1-0.2,0.2-0.5,0.3-0.9c0-0.2,0.1-0.4,0.1-0.6c0.1-0.2,0.1-0.4,0.1-0.6c0.2-0.8,0.2-1.6,0.2-2.1
			c0-0.3,0-0.5-0.1-0.7c0-0.2,0-0.3,0-0.3s0,0.1,0.1,0.3c0,0.2,0.1,0.4,0.2,0.7c0.1,0.6,0.2,1.4,0.1,2.2c0,0.2,0,0.4,0,0.6
			c0,0.2,0,0.4-0.1,0.6c0,0.2-0.1,0.4-0.1,0.6c0,0.2-0.1,0.3-0.1,0.5c0.1-0.1,0.2-0.2,0.2-0.4c0.1-0.2,0.2-0.3,0.3-0.5
			c0.1-0.2,0.1-0.4,0.2-0.6c0.1-0.5,0.2-1,0.2-1.5c0.1-1,0-2.1-0.1-2.9c0-0.4-0.1-0.7,0-1c0-0.2,0.1-0.3,0.1-0.3s-0.1,0.1-0.1,0.4
			c0,0.2,0.1,0.6,0.1,0.9c0.2,0.8,0.3,1.8,0.4,2.9c0,0.5,0,1.1,0,1.6c0,0.3-0.1,0.5-0.1,0.8c-0.1,0.2-0.1,0.5-0.2,0.7
			c-0.2,0.4-0.3,0.7-0.4,0.9c0,0.1,0,0.1-0.1,0.1c0,0,0.1-0.1,0.1-0.1c0.1-0.1,0.1-0.2,0.2-0.2c0,0,0.1-0.1,0.1-0.1
			c0-0.1,0.1-0.1,0.1-0.2c0.3-0.5,0.6-1.3,0.7-2.1c0.1-0.9,0.2-1.7,0.2-2.4c0-0.7,0.1-1.1,0.1-1.1s0.1,0.4,0.3,1.1
			c0.1,0.7,0.3,1.6,0.4,2.5c0,0.5,0.1,0.9,0,1.4c0,0.3-0.1,0.6-0.1,0.9c0.1-0.3,0.2-0.6,0.3-0.9c0.1-0.2,0.1-0.4,0.2-0.7
			c0-0.2,0.1-0.5,0.1-0.7c0-0.5-0.1-1-0.3-1.4c-0.2-0.5-0.3-0.9-0.4-1.3c-0.1-0.4-0.2-0.7-0.2-0.9c0-0.2-0.1-0.4-0.1-0.4
			s0.1,0.1,0.1,0.3c0.1,0.2,0.2,0.5,0.4,0.9c0.2,0.4,0.4,0.8,0.6,1.2c0.2,0.4,0.5,1,0.5,1.5c0.1,0.3,0,0.6,0,0.9c0,0.1,0,0.2,0,0.4
			c0,0.1-0.1,0.3-0.1,0.4c-0.1,0.5-0.3,0.9-0.4,1.3c-0.1,0.2-0.1,0.4-0.1,0.5c0,0.1-0.1,0.3-0.1,0.4c0,0.1,0,0.1,0,0.2
			c0.1,0,0.1,0.1,0.2,0.1c0.1-0.2,0.1-0.5,0.2-0.9c0-0.2,0.1-0.4,0.2-0.6c0.1-0.2,0.1-0.4,0.2-0.7c0.1-0.2,0.2-0.5,0.2-0.7
			c0.1-0.2,0.2-0.5,0.2-0.7c0-0.2,0.1-0.5,0.1-0.7c0-0.2,0-0.5,0-0.7c0-0.5,0-0.9-0.1-1.3c-0.1-0.8-0.1-1.3-0.1-1.3s0.1,0.5,0.3,1.3
			c0.1,0.4,0.2,0.8,0.2,1.3c0.1,0.2,0.1,0.5,0.1,0.8c0,0.3,0,0.5,0,0.8c0,0.3-0.1,0.5-0.1,0.8c-0.1,0.2-0.1,0.5-0.2,0.7
			c-0.1,0.2-0.1,0.5-0.1,0.7c0,0.2-0.1,0.4-0.1,0.6c-0.1,0.6-0.1,1-0.2,1.2c0,0,0.1-0.1,0.1-0.2c0.1-0.1,0.1-0.2,0.2-0.3
			c0.1-0.1,0.1-0.2,0.2-0.4c0.1-0.3,0.3-0.7,0.4-1.2c0.1-0.2,0.1-0.5,0.1-0.7c0-0.3,0.1-0.5,0.1-0.8c0.1-1.1,0-2.1-0.1-2.9
			c-0.1-0.8-0.2-1.4-0.2-1.4s0.2,0.5,0.5,1.3c0.3,0.8,0.6,1.8,0.7,3c0,0.3,0.1,0.6,0.1,0.8c0,0.3,0,0.6,0,0.8c0,0.2,0,0.4,0,0.5
			c0-0.2,0.1-0.4,0.1-0.6c0-0.3,0.1-0.6,0.1-0.9c0-0.3,0.1-0.6,0.1-1c0-0.3,0-0.7-0.1-1c0-0.3-0.1-0.6-0.1-0.9
			c-0.1-0.3-0.1-0.6-0.2-0.9c-0.1-0.3-0.2-0.5-0.2-0.8c-0.2-0.5-0.3-0.9-0.4-1.1c-0.1-0.3-0.1-0.4-0.1-0.4s0.1,0.1,0.2,0.4
			c0.1,0.3,0.3,0.6,0.5,1.1c0.1,0.2,0.2,0.5,0.3,0.8c0.1,0.3,0.2,0.6,0.3,0.9c0.1,0.3,0.2,0.6,0.2,1c0,0.3,0.1,0.6,0.1,1
			c0,0.3,0,0.7,0,1c0,0.3,0,0.7,0,1c0,0.3-0.1,0.6-0.1,0.9c0,0.3-0.1,0.6-0.1,0.8c-0.1,0.5-0.2,0.9-0.2,1.2c0,0.2-0.1,0.3-0.1,0.4
			c0,0,0,0,0,0c0.1-0.1,0.1-0.2,0.2-0.4c0.1-0.1,0.1-0.3,0.2-0.5c0.3-0.8,0.6-2,0.8-3.2c0.2-1.2,0.4-2.4,0.4-3.3c0-0.2,0-0.4,0-0.6
			c0-0.2-0.1-0.3-0.1-0.5c0-0.1-0.1-0.2-0.1-0.3c0-0.1,0-0.1,0-0.1s0,0,0.1,0.1c0,0.1,0.1,0.2,0.1,0.3c0,0.1,0.1,0.3,0.1,0.5
			c0,0.2,0.1,0.4,0.1,0.6c0.1,0.9,0.2,2.1,0.1,3.4c0,1.2-0.2,2.3-0.3,3.2c0.1-0.1,0.1-0.2,0.2-0.3c0.1-0.1,0.1-0.2,0.2-0.4
			c0.1-0.2,0.2-0.5,0.3-0.8c0.1-0.3,0.2-0.6,0.3-0.9c0.1-0.3,0.2-0.7,0.2-1c0.3-1.4,0.4-2.8,0.5-3.8c0.1-1,0.2-1.7,0.2-1.7
			s0,0.7,0,1.8c0,1,0.1,2.4,0,3.9c0,0.4-0.1,0.7-0.1,1.1c0,0.4-0.1,0.7-0.2,1c-0.1,0.3-0.2,0.7-0.3,1c0,0.2-0.1,0.3-0.1,0.4
			c-0.1,0.1-0.1,0.3-0.2,0.4c-0.1,0.3-0.2,0.5-0.3,0.7c-0.1,0.1-0.1,0.2-0.2,0.3c0,0.1-0.1,0.1-0.1,0.2c-0.1,0.1-0.1,0.2-0.2,0.3
			c0.1,0.1,0.3,0.2,0.4,0.3c0,0,0-0.1,0-0.1c0.1-0.3,0.3-0.8,0.5-1.4c0.2-0.6,0.5-1.2,0.8-1.9c0.3-0.7,0.6-1.4,0.9-2.2l0.2-0.6
			c0.1-0.2,0.1-0.4,0.2-0.6c0.1-0.4,0.2-0.7,0.2-1.1c0.1-0.4,0.1-0.7,0.1-1.1c0-0.3,0-0.7,0-1c0-0.3,0-0.6-0.1-0.8
			c0-0.3-0.1-0.5-0.1-0.6c0-0.3-0.1-0.5-0.1-0.5s0,0.2,0.1,0.5c0,0.2,0.1,0.4,0.1,0.6c0,0.2,0.1,0.5,0.1,0.8c0,0.3,0.1,0.6,0.1,1
			c0,0.3,0,0.7,0,1.1c0,0.4-0.1,0.8-0.1,1.2c0,0.2-0.1,0.4-0.1,0.6L39,55.7c-0.2,0.8-0.5,1.5-0.8,2.3c-0.3,0.7-0.5,1.4-0.7,1.9
			c-0.2,0.6-0.3,1-0.4,1.4C37,61.5,37,61.7,37,61.7c0,0,0,0,0,0c0-0.1,0.1-0.1,0.1-0.2c0.2-0.3,0.4-0.8,0.6-1.3
			c0.3-0.6,0.6-1.2,0.9-1.9c0.1-0.4,0.3-0.7,0.5-1.1c0.1-0.4,0.3-0.8,0.4-1.1c0.3-0.8,0.6-1.5,0.7-2.3c0.2-0.7,0.3-1.4,0.2-2
			c-0.1-0.6-0.2-1.1-0.4-1.4c-0.1-0.3-0.2-0.5-0.2-0.5s0.1,0.2,0.3,0.5c0.2,0.3,0.4,0.8,0.5,1.4c0.1,0.6,0.1,1.4,0,2.1
			c-0.1,0.8-0.4,1.6-0.6,2.3c-0.1,0.4-0.2,0.8-0.3,1.2c-0.1,0.4-0.3,0.8-0.4,1.1c-0.2,0.7-0.5,1.4-0.7,2c-0.2,0.5-0.4,1-0.5,1.3
			c0,0,0.1-0.1,0.1-0.1c0.1-0.1,0.1-0.1,0.2-0.2c0.2-0.2,0.3-0.3,0.5-0.6c0.2-0.2,0.4-0.5,0.6-0.8c0.2-0.3,0.4-0.6,0.6-0.9
			c0.2-0.3,0.4-0.7,0.6-1c0.2-0.4,0.3-0.7,0.5-1.1l0.2-0.6c0.1-0.2,0.1-0.4,0.2-0.6c0.1-0.4,0.2-0.8,0.3-1.1
			c0.1-0.4,0.1-0.7,0.2-1.1c0-0.4,0-0.7,0-1c0-0.3-0.1-0.6-0.1-0.8c-0.1-0.2-0.1-0.5-0.2-0.6c-0.2-0.3-0.2-0.5-0.2-0.5
			s0.1,0.2,0.3,0.5c0.1,0.2,0.2,0.4,0.3,0.6c0.1,0.2,0.2,0.5,0.2,0.8c0,0.3,0.1,0.7,0.1,1c0,0.4,0,0.7,0,1.1c0,0.4-0.1,0.8-0.1,1.2
			c0,0.2-0.1,0.4-0.1,0.6L42,57.5c-0.1,0.4-0.2,0.8-0.3,1.2c-0.1,0.4-0.3,0.8-0.4,1.2c-0.2,0.4-0.3,0.7-0.5,1.1
			c-0.2,0.3-0.3,0.7-0.5,0.9c-0.2,0.3-0.4,0.5-0.5,0.8c-0.1,0.1-0.2,0.2-0.2,0.3c-0.1,0.1-0.1,0.2-0.2,0.2c-0.2,0.2-0.2,0.3-0.3,0.4
			c0,0,0.1,0,0.1,0.1c0,0,0,0,0.1,0c0.1-0.1,0.1-0.1,0.3-0.2c0.3-0.2,0.6-0.6,1-1.1c0.4-0.5,0.8-1.2,1.2-1.9
			c0.2-0.4,0.4-0.7,0.6-1.1c0.2-0.4,0.3-0.8,0.5-1.2c0.2-0.8,0.4-1.7,0.5-2.5c0.1-0.8,0.2-1.6,0.2-2.2c0.1-0.7,0.1-1.2,0.1-1.6
			c0-0.4,0.1-0.6,0.1-0.6s0,0.2-0.1,0.6c0,0.4,0,0.9,0,1.6c0,0.7,0,1.4-0.1,2.3c-0.1,0.8-0.2,1.7-0.4,2.6c-0.1,0.4-0.2,0.9-0.4,1.3
			c-0.2,0.4-0.3,0.8-0.5,1.2c-0.4,0.8-0.7,1.4-1.1,2c-0.4,0.6-0.7,1-1,1.4c-0.1,0.1-0.2,0.2-0.3,0.3c0,0,0,0,0.1,0.1
			c0.1-0.1,0.1-0.1,0.3-0.2c0.2-0.2,0.5-0.5,0.9-0.9c0.2-0.2,0.4-0.4,0.6-0.6c0.2-0.2,0.4-0.5,0.6-0.7c0.2-0.3,0.4-0.5,0.6-0.8
			c0.1-0.1,0.2-0.3,0.3-0.4l0.1-0.2l0.1-0.2c0.2-0.3,0.3-0.7,0.4-1c0.1-0.3,0.2-0.7,0.3-1c0.1-0.3,0.2-0.6,0.3-0.9
			c0.1-0.3,0.1-0.6,0.2-0.9c0.1-0.5,0.2-1,0.2-1.3c0.1-0.3,0.1-0.5,0.1-0.5s0,0.2-0.1,0.5c0,0.3-0.1,0.8-0.1,1.3
			c0,0.3-0.1,0.6-0.1,0.9c0,0.3-0.1,0.6-0.2,1c-0.1,0.3-0.2,0.7-0.3,1c-0.1,0.4-0.2,0.7-0.4,1l-0.1,0.3l-0.1,0.3
			c-0.1,0.2-0.2,0.3-0.3,0.5c-0.2,0.3-0.4,0.6-0.6,0.9c-0.2,0.3-0.4,0.6-0.6,0.8c-0.2,0.3-0.4,0.5-0.6,0.7c-0.2,0.2-0.4,0.5-0.5,0.6
			c0,0,0.1-0.1,0.1-0.1c0.2-0.1,0.4-0.4,0.6-0.6c0.2-0.2,0.4-0.5,0.7-0.8c0.2-0.3,0.5-0.6,0.7-0.9c0.5-0.6,0.9-1.4,1.3-2.1
			c0.2-0.4,0.4-0.8,0.5-1.2c0.2-0.4,0.3-0.8,0.4-1.2c0.1-0.4,0.2-0.8,0.3-1.1c0-0.4,0.1-0.7,0.1-1c0-0.3,0-0.6,0-0.9
			c0-0.3,0-0.5-0.1-0.7c-0.1-0.4-0.2-0.6-0.2-0.6s0.1,0.2,0.3,0.5c0.1,0.2,0.1,0.4,0.2,0.7c0.1,0.3,0.1,0.6,0.2,0.9
			c0,0.3,0,0.7,0,1.1c0,0.4,0,0.8-0.1,1.2c-0.1,0.4-0.1,0.8-0.3,1.3c-0.1,0.4-0.2,0.9-0.4,1.3c-0.3,0.9-0.6,1.7-1,2.5
			c-0.2,0.4-0.4,0.7-0.6,1.1c-0.2,0.3-0.4,0.7-0.6,0.9c-0.2,0.3-0.4,0.5-0.6,0.8c-0.2,0.2-0.4,0.5-0.5,0.6c-0.2,0.2-0.3,0.3-0.3,0.3
			c0,0,0,0,0,0c0.1-0.1,0.2-0.1,0.4-0.3c0.2-0.1,0.3-0.2,0.5-0.4c0.2-0.2,0.4-0.4,0.6-0.6c0.4-0.4,0.9-1,1.4-1.6
			c0.3-0.3,0.5-0.6,0.8-0.9c0.2-0.3,0.5-0.7,0.7-1c0.1-0.2,0.2-0.4,0.3-0.5c0.1-0.2,0.2-0.4,0.2-0.6c0.2-0.4,0.2-0.8,0.3-1.1
			c0-0.2,0-0.4,0.1-0.6c0-0.2,0-0.4,0-0.6c0-0.4-0.1-0.7-0.1-1c-0.1-0.6-0.2-1.1-0.3-1.5c-0.1-0.4-0.1-0.6-0.1-0.6s0.1,0.2,0.2,0.6
			c0.1,0.4,0.3,0.9,0.4,1.5c0.1,0.3,0.2,0.7,0.2,1c0,0.2,0,0.4,0,0.6c0,0.2,0,0.4,0,0.6c0,0.4-0.1,0.8-0.2,1.2
			c-0.1,0.2-0.1,0.4-0.2,0.6c-0.1,0.2-0.2,0.4-0.3,0.6c-0.2,0.4-0.4,0.8-0.6,1.1c-0.1,0.2-0.2,0.3-0.4,0.5l-0.2,0.3l-0.2,0.2
			c-0.5,0.6-0.9,1.3-1.3,1.8c-0.2,0.3-0.4,0.5-0.6,0.7c-0.2,0.2-0.4,0.4-0.5,0.5c-0.2,0.2-0.3,0.2-0.4,0.3c0.1,0.1,0.2,0.3,0.3,0.4
			c0,0,0.1,0,0.1-0.1c0.1-0.1,0.2-0.2,0.4-0.3c0.2-0.1,0.3-0.3,0.5-0.4c0.2-0.2,0.4-0.3,0.6-0.5c0.2-0.2,0.4-0.4,0.6-0.7
			c0.2-0.2,0.4-0.5,0.6-0.7c0.2-0.3,0.4-0.5,0.6-0.8c0.2-0.3,0.4-0.6,0.5-0.8c0.2-0.3,0.3-0.6,0.4-0.8c0.1-0.3,0.2-0.6,0.4-0.8
			c0.1-0.3,0.2-0.5,0.3-0.8c0.1-0.5,0.2-0.9,0.3-1.2c0-0.1,0.1-0.3,0.1-0.3c0-0.1,0-0.1,0-0.1s0,0,0,0.1c0,0.1,0,0.2,0,0.3
			c0,0.3-0.1,0.7-0.2,1.2c0,0.2-0.1,0.5-0.2,0.8c-0.1,0.3-0.2,0.6-0.3,0.9c-0.1,0.3-0.2,0.6-0.4,0.9c-0.1,0.3-0.3,0.6-0.4,0.9
			c-0.2,0.3-0.3,0.6-0.5,0.9c-0.2,0.3-0.4,0.6-0.5,0.8c-0.2,0.3-0.4,0.5-0.6,0.7c-0.2,0.2-0.4,0.4-0.5,0.6c-0.2,0.2-0.3,0.4-0.5,0.5
			c-0.1,0.1-0.3,0.3-0.4,0.4c-0.1,0.1-0.1,0.1-0.2,0.2c0.1,0.1,0.2,0.3,0.3,0.5c0.1,0,0.2-0.1,0.4-0.2c0,0,0.1,0,0.1-0.1
			c0,0,0.1,0,0.1-0.1c0.1-0.1,0.1-0.1,0.2-0.2c0.2-0.1,0.4-0.3,0.6-0.5c0.2-0.2,0.4-0.5,0.6-0.7c0.2-0.3,0.4-0.6,0.6-0.9
			c0.1-0.2,0.2-0.3,0.3-0.5c0.1-0.2,0.2-0.4,0.3-0.5c0.2-0.4,0.3-0.7,0.5-1.1c0.1-0.4,0.3-0.8,0.4-1.2c0.1-0.4,0.2-0.8,0.3-1.2
			c0.1-0.4,0.2-0.8,0.2-1.1c0-0.4,0.1-0.7,0.1-1c0-0.3,0.1-0.6,0-0.9c0-0.3,0-0.5,0-0.7c0-0.4-0.1-0.6-0.1-0.6s0.1,0.2,0.1,0.6
			c0.1,0.2,0.1,0.4,0.1,0.7c0.1,0.3,0.1,0.6,0.1,0.9c0,0.3,0,0.7,0,1.1c0,0.4,0,0.8-0.1,1.2c0,0.4-0.1,0.8-0.2,1.3
			c-0.1,0.4-0.2,0.9-0.3,1.3c-0.1,0.4-0.2,0.9-0.4,1.3c-0.1,0.2-0.1,0.4-0.2,0.6c-0.1,0.2-0.2,0.4-0.3,0.6c-0.2,0.4-0.4,0.8-0.6,1.1
			c-0.2,0.3-0.4,0.7-0.6,1c-0.2,0.3-0.4,0.5-0.7,0.8c-0.1,0.1-0.2,0.2-0.3,0.3c-0.1,0-0.1,0.1-0.2,0.1c0,0-0.1,0.1-0.1,0.1
			c-0.2,0.1-0.3,0.2-0.4,0.3c0,0,0,0.1,0,0.1c0,0,0.1,0,0.1,0c0.1,0,0.1-0.1,0.2-0.1c0.2-0.1,0.4-0.2,0.7-0.4
			c0.2-0.2,0.5-0.4,0.8-0.6c0.6-0.5,1.2-1.2,1.7-2.1c0.3-0.4,0.5-0.9,0.8-1.3c0.1-0.2,0.3-0.5,0.4-0.7c0.1-0.2,0.2-0.5,0.3-0.7
			c0.2-0.5,0.3-1,0.4-1.5c0.1-0.5,0.1-1,0.1-1.6c0-1-0.1-2-0.2-2.8c-0.1-0.8-0.1-1.5-0.1-2c0-0.5,0-0.8,0-0.8s0,0.3,0,0.8
			c0,0.5,0.1,1.2,0.2,2c0.1,0.8,0.3,1.8,0.4,2.8c0,0.5,0.1,1.1,0.1,1.6c0,0.6-0.1,1.1-0.3,1.7c-0.1,0.3-0.2,0.5-0.3,0.8
			c-0.1,0.3-0.2,0.5-0.3,0.8c-0.2,0.5-0.5,1-0.7,1.5c-0.5,0.9-1.1,1.8-1.7,2.4c-0.3,0.3-0.6,0.6-0.9,0.8c-0.1,0.1-0.2,0.2-0.4,0.3
			c0.1-0.1,0.3-0.1,0.4-0.2c0.3-0.2,0.6-0.4,0.9-0.6c0.3-0.3,0.6-0.6,1-0.9c0.3-0.3,0.7-0.7,1.1-1.1c0.3-0.4,0.7-0.8,1-1.3
			c0.2-0.2,0.3-0.4,0.5-0.7l0,0l0,0l0,0l0,0l0-0.1l0.1-0.2l0.2-0.4l0.2-0.4l0.1-0.4c0.1-0.3,0.2-0.5,0.3-0.8
			c0.1-0.3,0.1-0.5,0.2-0.8c0-0.1,0.1-0.3,0.1-0.4c0-0.1,0-0.3,0.1-0.4c0-0.3,0.1-0.5,0.1-0.8c0-0.3,0-0.5,0.1-0.8
			c0.1-0.5,0-1,0-1.4c0-0.4-0.1-0.8-0.1-1.2c0-0.2,0-0.3-0.1-0.5c0-0.2-0.1-0.3-0.1-0.4c-0.1-0.5-0.2-0.8-0.2-0.8s0.1,0.3,0.2,0.8
			c0,0.1,0.1,0.3,0.1,0.4c0,0.2,0.1,0.3,0.1,0.5c0.1,0.3,0.2,0.7,0.2,1.2c0.1,0.4,0.1,0.9,0.1,1.4c0,0.3,0,0.5,0,0.8
			c0,0.3,0,0.5,0,0.8c0,0.1,0,0.3,0,0.4c0,0.1,0,0.3-0.1,0.4c0,0.3-0.1,0.6-0.1,0.9c-0.1,0.3-0.2,0.6-0.2,0.9L52.2,66L52,66.4
			l-0.2,0.4L51.8,67l0,0.1l0,0.1l0,0l0,0l0,0.1l0,0c-0.2,0.3-0.3,0.5-0.5,0.8c-0.3,0.5-0.6,1-1,1.4c-0.3,0.4-0.6,0.7-0.8,1.1
			c0.5-0.5,1.1-1,1.6-1.5c0.2-0.2,0.3-0.3,0.5-0.5c0.2-0.2,0.3-0.3,0.5-0.5c0.3-0.3,0.5-0.7,0.8-1.1c0.4-0.7,0.8-1.5,1-2.1
			c0.2-0.7,0.3-1.2,0.4-1.6c0-0.2,0-0.4,0.1-0.5c0-0.1,0-0.2,0-0.2s0,0.1,0,0.2c0,0.1,0,0.3,0,0.5c0,0.4-0.1,1-0.3,1.7
			c-0.2,0.7-0.4,1.5-0.9,2.2c-0.2,0.4-0.5,0.8-0.7,1.2c-0.3,0.4-0.6,0.7-0.9,1c-0.6,0.7-1.3,1.3-1.9,2c0.2-0.1,0.4-0.3,0.6-0.4
			c0.4-0.3,0.8-0.6,1.2-0.9c0.4-0.3,0.9-0.5,1.3-0.8c0.4-0.3,0.8-0.6,1.2-0.9c0.4-0.3,0.7-0.7,1-1.1c0.3-0.4,0.5-0.8,0.7-1.2
			c0.2-0.4,0.3-0.8,0.4-1.2c0.1-0.4,0.1-0.7,0.1-1.1c0-0.3,0-0.6-0.1-0.8c0-0.2-0.1-0.4-0.1-0.5c0-0.1,0-0.2,0-0.2s0,0.1,0.1,0.2
			c0,0.1,0.1,0.3,0.1,0.5c0,0.2,0.1,0.5,0.1,0.8c0,0.3,0,0.7,0,1.1c0,0.4-0.2,0.8-0.3,1.2c-0.2,0.4-0.4,0.9-0.6,1.3
			c-0.3,0.4-0.6,0.8-1,1.2c-0.4,0.4-0.8,0.7-1.2,1c-0.4,0.3-0.9,0.6-1.3,0.9c-0.4,0.3-0.8,0.6-1.2,0.9c-0.7,0.6-1.4,1.2-2,1.8
			c-0.3,0.3-0.6,0.5-0.9,0.7c0.2-0.1,0.5-0.2,0.8-0.3c1.3-0.5,3.1-1.2,4.8-2.2c0.8-0.5,1.6-1,2.3-1.6c0.7-0.6,1.3-1.2,1.6-1.8
			c0.2-0.3,0.3-0.6,0.4-0.9c0.1-0.3,0.2-0.5,0.2-0.7c0.1-0.2,0.1-0.4,0.1-0.5c0-0.1,0-0.2,0-0.2s0,0.1,0,0.2c0,0.1,0,0.3,0,0.5
			c0,0.2,0,0.5-0.1,0.8c-0.1,0.3-0.2,0.6-0.3,1c-0.3,0.7-0.8,1.4-1.5,2.1c-0.6,0.7-1.4,1.3-2.2,1.9c-1.6,1.2-3.3,2.2-4.7,2.9
			c-0.2,0.1-0.3,0.2-0.5,0.2c0.2-0.1,0.4-0.2,0.7-0.3c0.4-0.2,0.8-0.3,1.2-0.5c0.4-0.1,0.9-0.3,1.3-0.5c0.9-0.3,1.9-0.7,2.8-1.2
			c0.9-0.5,1.8-1,2.5-1.7c0.7-0.6,1.3-1.4,1.7-2c0.4-0.7,0.7-1.3,1-1.6c0.1-0.2,0.3-0.3,0.4-0.4c0.1-0.1,0.1-0.1,0.1-0.1
			s0,0.1-0.1,0.1c-0.1,0.1-0.2,0.2-0.3,0.4c-0.3,0.4-0.5,1-0.9,1.7c-0.4,0.7-0.9,1.5-1.6,2.2c-0.7,0.7-1.6,1.4-2.5,2
			c-0.9,0.6-1.9,1.1-2.8,1.5c-0.5,0.2-0.9,0.4-1.3,0.6c-0.4,0.2-0.8,0.4-1.1,0.5c-0.3,0.2-0.7,0.3-1,0.5c-0.1,0.1-0.2,0.1-0.3,0.2
			c0.1,0,0.2,0,0.3-0.1c0.3-0.1,0.7-0.2,1-0.3c0.7-0.2,1.6-0.4,2.5-0.6c0.5-0.1,0.9-0.2,1.4-0.3c0.5-0.1,0.9-0.3,1.4-0.4
			c0.5-0.2,0.9-0.3,1.3-0.5c0.2-0.1,0.4-0.2,0.6-0.3c0.2-0.1,0.4-0.2,0.6-0.4c0.2-0.1,0.4-0.3,0.5-0.4c0.2-0.1,0.3-0.3,0.5-0.4
			c0.3-0.3,0.6-0.6,0.8-0.9c0.3-0.3,0.4-0.6,0.6-0.8c0.2-0.2,0.3-0.5,0.4-0.7c0.2-0.4,0.3-0.6,0.3-0.6s-0.1,0.2-0.2,0.6
			c-0.1,0.2-0.2,0.5-0.3,0.7c-0.1,0.3-0.3,0.6-0.5,0.9c-0.2,0.3-0.4,0.7-0.7,1c-0.1,0.2-0.3,0.3-0.4,0.5c-0.2,0.2-0.3,0.3-0.5,0.5
			c-0.2,0.2-0.4,0.3-0.6,0.5c-0.2,0.2-0.4,0.3-0.6,0.4c-0.4,0.3-0.9,0.5-1.3,0.7c-0.5,0.2-0.9,0.4-1.4,0.6c-0.5,0.2-0.9,0.3-1.4,0.5
			c-0.9,0.3-1.7,0.6-2.4,0.9c-0.4,0.1-0.6,0.2-0.9,0.4c-0.3,0.1-0.5,0.2-0.7,0.3c0,0,0,0-0.1,0c0,0,0.1,0,0.1,0
			c0.2,0,0.4-0.1,0.7-0.2c0.3-0.1,0.6-0.1,0.9-0.2c0.7-0.2,1.5-0.4,2.3-0.7c0.8-0.3,1.7-0.6,2.6-1c0.4-0.2,0.9-0.4,1.3-0.6
			c0.4-0.2,0.8-0.5,1.2-0.7c0.7-0.5,1.4-1,2-1.4c0.6-0.4,1.1-0.8,1.4-1.1c0.3-0.2,0.5-0.4,0.5-0.4s-0.2,0.2-0.5,0.4
			c-0.3,0.3-0.8,0.7-1.3,1.1c-0.5,0.5-1.2,1-1.9,1.6c-0.4,0.3-0.7,0.5-1.1,0.8c-0.4,0.3-0.8,0.5-1.3,0.7c-0.9,0.4-1.7,0.9-2.6,1.2
			c-0.8,0.4-1.6,0.7-2.3,0.9c-0.2,0.1-0.3,0.1-0.4,0.1c0.1,0,0.3-0.1,0.5-0.1c0.4-0.1,0.8-0.2,1.3-0.3c0.5-0.1,0.9-0.3,1.4-0.4
			c0.5-0.2,1-0.3,1.5-0.5c0.5-0.2,1-0.3,1.5-0.6c0.5-0.2,1-0.5,1.4-0.7c0.4-0.3,0.9-0.6,1.3-0.8c0.4-0.3,0.8-0.6,1.2-0.9
			c0.4-0.3,0.7-0.6,1-0.8c1.2-1.1,2-1.9,2-1.9s-0.7,0.8-1.8,2.1c-0.3,0.3-0.6,0.6-1,0.9c-0.3,0.3-0.7,0.7-1.1,1
			c-0.4,0.3-0.8,0.7-1.3,1c-0.5,0.3-0.9,0.6-1.4,0.9c-0.5,0.3-1,0.5-1.5,0.8c-0.5,0.3-1,0.5-1.5,0.7c-0.5,0.2-0.9,0.4-1.4,0.6
			c-0.4,0.2-0.9,0.3-1.2,0.5c-0.8,0.3-1.5,0.6-1.9,0.8c0.2,0,0.3,0,0.5,0c0.2,0,0.5-0.1,0.8-0.1c0.3-0.1,0.7-0.2,1-0.3
			c0.4-0.1,0.7-0.2,1.1-0.4c0.8-0.3,1.6-0.6,2.4-1c1.6-0.8,3.2-1.7,4.4-2.3c1.2-0.6,2-1,2-1s-0.8,0.5-1.9,1.2
			c-1.1,0.8-2.6,1.8-4.2,2.8c-0.8,0.5-1.6,0.9-2.4,1.3c-0.3,0.2-0.6,0.3-1,0.4c0.5-0.1,1-0.3,1.6-0.4c0.9-0.3,1.9-0.6,2.8-0.9
			c0.5-0.2,1-0.3,1.4-0.5c0.5-0.2,0.9-0.4,1.3-0.6c0.4-0.2,0.8-0.4,1.2-0.7c0.2-0.1,0.4-0.2,0.5-0.4c0.2-0.1,0.3-0.2,0.5-0.4
			c0.1-0.1,0.3-0.2,0.4-0.3c0.1-0.1,0.2-0.2,0.4-0.3c0.2-0.2,0.4-0.4,0.6-0.6c0.3-0.3,0.5-0.5,0.5-0.5s-0.1,0.2-0.4,0.6
			c-0.1,0.2-0.3,0.4-0.5,0.6c-0.1,0.1-0.2,0.3-0.3,0.4c-0.1,0.1-0.2,0.3-0.4,0.4c-0.1,0.1-0.3,0.3-0.4,0.4c-0.2,0.1-0.3,0.3-0.5,0.4
			c-0.3,0.3-0.7,0.6-1.1,0.9c-0.4,0.3-0.8,0.6-1.3,0.8c-0.4,0.3-0.9,0.5-1.4,0.7c-0.9,0.5-1.9,0.9-2.8,1.3c-0.9,0.4-1.7,0.7-2.4,1
			c-0.7,0.3-1.3,0.5-1.7,0.7c-0.1,0-0.2,0.1-0.3,0.1c0,0,0,0,0,0.1l0,0c0.2-0.1,0.4-0.2,0.6-0.2c0.2-0.1,0.5-0.2,0.8-0.3
			c0.6-0.2,1.3-0.4,2-0.5c0.7-0.2,1.5-0.3,2.3-0.6c0.4-0.1,0.7-0.2,1.1-0.4c0.3-0.2,0.7-0.3,1-0.5c0.3-0.2,0.6-0.4,0.9-0.5
			c0.3-0.2,0.5-0.4,0.8-0.6c0.2-0.2,0.4-0.4,0.6-0.5c0.2-0.2,0.3-0.3,0.5-0.4c0.2-0.2,0.4-0.4,0.4-0.4s-0.1,0.2-0.4,0.4
			c-0.1,0.1-0.2,0.3-0.4,0.5c-0.2,0.2-0.4,0.4-0.6,0.6c-0.2,0.2-0.5,0.4-0.7,0.6c-0.3,0.2-0.6,0.5-0.9,0.7c-0.3,0.2-0.7,0.4-1,0.6
			c-0.4,0.2-0.7,0.3-1.1,0.5c-0.8,0.3-1.5,0.5-2.2,0.8c-0.7,0.2-1.4,0.5-1.9,0.7c-0.3,0.1-0.5,0.2-0.7,0.3c-0.1,0-0.1,0.1-0.2,0.1
			c0,0,0,0,0,0c0.1,0,0.2,0,0.4,0c0.1,0,0.3,0,0.4,0c0.3,0,0.6,0,1-0.1c0.2,0,0.4-0.1,0.6-0.1c0.2,0,0.4-0.1,0.6-0.2
			c0.2-0.1,0.4-0.1,0.6-0.2c0.2-0.1,0.4-0.2,0.7-0.2c0.4-0.2,0.9-0.4,1.4-0.6c0.5-0.2,0.9-0.5,1.4-0.8c0.4-0.3,0.9-0.6,1.3-0.9
			c0.4-0.3,0.8-0.6,1.2-0.9c0.8-0.6,1.5-1.2,2.1-1.7c1.2-1,2.1-1.7,2.1-1.7s-0.7,0.8-1.9,1.9c-0.5,0.6-1.2,1.3-1.9,2
			c-0.4,0.4-0.7,0.7-1.1,1.1c-0.4,0.4-0.8,0.7-1.2,1.1c-0.4,0.3-0.9,0.7-1.3,1c-0.5,0.3-0.9,0.6-1.4,0.8c-0.2,0.1-0.5,0.2-0.7,0.3
			c-0.2,0.1-0.5,0.2-0.7,0.3C54.1,86.9,54,87,54,87c1.2-0.3,2.6-0.7,4-1.1c1.9-0.6,3.9-1.3,5.2-1.9c0.3-0.2,0.7-0.3,0.9-0.5
			c0.3-0.1,0.5-0.3,0.7-0.4c0.2-0.1,0.3-0.2,0.4-0.3c0.1-0.1,0.1-0.1,0.1-0.1s0,0-0.1,0.1c-0.1,0.1-0.2,0.2-0.4,0.4
			c-0.2,0.1-0.4,0.3-0.7,0.5c-0.3,0.2-0.6,0.3-0.9,0.5c-1.3,0.8-3.2,1.6-5.1,2.4c-1.9,0.8-3.8,1.5-5.3,2c-0.6,0.2-1.2,0.4-1.6,0.5
			c0.2,0,0.5-0.1,0.9-0.1c0.4-0.1,0.7-0.1,1.1-0.2c0.4-0.1,0.9-0.2,1.3-0.3c0.5-0.1,1-0.3,1.5-0.4c0.5-0.2,1.1-0.3,1.6-0.5
			c0.5-0.2,1.1-0.4,1.6-0.6c0.5-0.2,1.1-0.4,1.6-0.6c0.5-0.2,1.1-0.4,1.6-0.6c0.7-0.3,1.4-0.6,2-0.9l30.4-49.8
			c0.1-1.1,0.3-2.2,0.6-3.4C95.5,31.4,95.6,31.1,95.6,30.9z"/>
		<path id="XMLID_178_" class="st0" d="M44.9,80.8c0.1,0,0.1,0,0.2,0.1c-0.2-0.1-0.3-0.2-0.5-0.3c-0.6-0.4-1.2-0.8-1.8-1.2
			c-0.6-0.4-1.2-0.8-1.8-1.1c-0.6-0.3-1.2-0.6-1.7-0.8c-0.1,0-0.3-0.1-0.4-0.1l0.9,1.6c0.9,0.4,1.8,0.7,2.7,1.1
			C43.3,80.3,44.2,80.6,44.9,80.8z"/>
		<path id="XMLID_179_" class="st0" d="M35.2,61.1c-0.1,0-0.2,0-0.3,0c-0.1,0-0.2,0-0.3,0c-0.2,0-0.5,0-0.8-0.1
			c-0.1,0-0.3,0-0.4-0.1c-0.1,0-0.3-0.1-0.5-0.1c-0.3-0.1-0.6-0.2-1-0.3c-0.3-0.1-0.7-0.2-1-0.4c-0.1,0-0.2-0.1-0.3-0.1
			c0,0,0.1,0,0.1,0.1c0.3,0.2,0.6,0.5,1,0.6c0.4,0.2,0.8,0.3,1.3,0.4c0.5,0.1,0.9,0.2,1.3,0.3c0.4,0.1,0.8,0.1,1.2,0.1
			c0.2,0,0.3,0,0.5,0c0,0,0.1,0,0.1,0c0,0,0,0,0,0c-0.2-0.2-0.5-0.4-0.7-0.6C35.4,61.1,35.3,61.1,35.2,61.1z"/>
		<path id="XMLID_180_" class="st0" d="M41.9,82.1c-0.1-0.1-0.2-0.1-0.3-0.2l0.2,0.3c0.4,0.2,0.8,0.4,1.1,0.6
			c0.4,0.2,0.8,0.5,1.2,0.7c0.4,0.2,0.8,0.4,1.2,0.5c0.4,0.2,0.8,0.3,1.2,0.4c0.4,0.1,0.7,0.2,1.1,0.3c0.4,0.1,0.8,0.2,1.1,0.2
			c0,0-0.1,0-0.1,0c-0.3-0.1-0.8-0.3-1.4-0.5c-1.2-0.4-2.7-1-4.1-1.7C42.6,82.4,42.3,82.3,41.9,82.1z"/>
		<path id="XMLID_181_" class="st0" d="M55.4,98.4c-0.3-0.1-0.6-0.1-0.8-0.1c0.1,0.1,0.2,0.2,0.4,0.3c0.2,0.2,0.4,0.5,0.6,0.8
			l0.5-0.9C55.9,98.5,55.6,98.5,55.4,98.4z"/>
		<path id="XMLID_182_" class="st0" d="M55,96.9c-0.1,0-0.1,0-0.2,0c0.3,0.1,0.6,0.1,0.8,0.2c0.3,0.1,0.7,0.2,1,0.4l0.3-0.4
			c-0.1,0-0.3,0-0.4,0C56.1,97,55.5,97,55,96.9z"/>
		<path id="XMLID_183_" class="st0" d="M38.1,76l0.7,1.1c0.2,0,0.4,0.1,0.6,0.1c0.5,0.1,1.2,0.4,1.8,0.6c0.7,0.3,1.3,0.6,2,0.9
			c0.7,0.3,1.3,0.6,2,0.9c0.3,0.1,0.6,0.3,0.9,0.4c0.3,0.1,0.6,0.2,0.8,0.3c0.1,0,0.1,0,0.2,0.1c-0.2-0.1-0.5-0.3-0.8-0.5
			c-1-0.6-2.3-1.3-3.6-2c-1.3-0.7-2.7-1.3-3.7-1.7C38.6,76.1,38.3,76.1,38.1,76z"/>
		<path id="XMLID_184_" class="st0" d="M61.3,87c-0.5,0.3-1,0.5-1.6,0.8c-0.5,0.3-1.1,0.5-1.6,0.7c-0.5,0.3-1.1,0.5-1.6,0.7
			c-0.5,0.2-1,0.4-1.5,0.6c-0.5,0.2-1,0.3-1.4,0.5c-0.4,0.2-0.8,0.3-1.2,0.4c-0.3,0.1-0.6,0.1-0.8,0.2c0,0,0,0,0,0
			c0.3,0,0.6-0.1,1-0.1c0.4-0.1,0.8-0.1,1.2-0.2c0.4-0.1,0.8-0.2,1.3-0.3c0.4-0.1,0.9-0.3,1.4-0.4c0.5-0.2,0.9-0.3,1.4-0.5
			c1.9-0.7,3.7-1.5,5-2.2c0.1,0,0.1-0.1,0.2-0.1l0.9-1.5c-0.4,0.2-0.8,0.5-1.3,0.7C62.3,86.4,61.8,86.7,61.3,87z"/>
		<path id="XMLID_185_" class="st0" d="M59.4,91.7c-0.3,0.1-0.6,0.2-0.9,0.3c-0.3,0.1-0.6,0.2-0.9,0.3c-0.6,0.2-1.2,0.3-1.7,0.4
			c-0.6,0.1-1.1,0.2-1.6,0.3c-0.8,0.1-1.5,0.3-2,0.4c0.4,0,0.9,0,1.4-0.1c1.6-0.1,3.7,0,5.7-0.1l1.2-1.9l-0.2,0.1
			C60,91.5,59.7,91.6,59.4,91.7z"/>
		<path id="XMLID_186_" class="st0" d="M58.2,89.7c-0.5,0.2-0.9,0.4-1.4,0.6c-0.5,0.2-0.9,0.4-1.4,0.5c-0.5,0.1-0.9,0.3-1.3,0.4
			c-0.2,0.1-0.4,0.1-0.6,0.2c0.2,0,0.4,0,0.6,0c0.5,0,1-0.1,1.5-0.1c0.5-0.1,1.1-0.1,1.7-0.2c0.3,0,0.6-0.1,0.9-0.2
			c0.3-0.1,0.6-0.1,0.9-0.2c0.3-0.1,0.6-0.2,0.9-0.3l0.9-0.3c0.2-0.1,0.4-0.2,0.6-0.2l1.6-2.6l0,0C61.7,87.9,60,88.8,58.2,89.7z"/>
		<path id="XMLID_187_" class="st0" d="M41.2,80.9c0.3,0.1,0.7,0.3,1.1,0.4c0.4,0.1,0.7,0.3,1.1,0.4c1.1,0.3,2.2,0.6,3.1,0.8
			c-0.2-0.1-0.5-0.3-0.8-0.4c-0.3-0.2-0.7-0.3-1.1-0.5c-0.8-0.3-1.6-0.7-2.4-1.1c-0.7-0.4-1.4-0.7-2.1-1.1l0.8,1.4
			C41,80.9,41.1,80.9,41.2,80.9z"/>
		<path id="XMLID_188_" class="st0" d="M56.3,95.5c-0.2,0-0.4,0-0.6,0c0.4,0.1,0.7,0.1,1.1,0.2c0.3,0.1,0.6,0.1,0.9,0.2l0.2-0.4
			C57.4,95.5,56.9,95.5,56.3,95.5z"/>
		<path id="XMLID_189_" class="st0" d="M75.5,52.3C75.5,52.3,75.5,52.2,75.5,52.3C75.5,52.2,75.5,52.3,75.5,52.3z"/>
		<path id="XMLID_190_" class="st0" d="M10.7,30.1L10.7,30.1C10.7,30.1,10.7,30.1,10.7,30.1C10.7,30.1,10.7,30.1,10.7,30.1z"/>
		<path id="XMLID_191_" class="st0" d="M12.8,33.5L12.8,33.5C12.8,33.5,12.8,33.5,12.8,33.5C12.8,33.5,12.8,33.5,12.8,33.5z"/>
		<path id="XMLID_192_" class="st0" d="M13.2,28.3c-0.1-0.1-0.2-0.2-0.3-0.2c-0.1-0.1-0.3-0.2-0.5-0.3c-0.4-0.2-0.8-0.4-1.4-0.5
			c-0.3-0.1-0.5-0.1-0.8-0.2C9.9,27,9.6,27,9.3,27c-0.1,0-0.3,0-0.4,0l0.4,0.6c0.2,0,0.3,0.1,0.5,0.1c0.3,0.1,0.6,0.1,0.8,0.2
			c0.3,0.1,0.5,0.1,0.8,0.2c0.2,0,0.5,0.1,0.7,0.1c0.7,0.1,1.2,0.2,1.4,0.2C13.3,28.4,13.3,28.4,13.2,28.3z"/>
		<path id="XMLID_193_" class="st0" d="M11.1,28.9c-0.2-0.1-0.5-0.2-0.8-0.3c-0.2-0.1-0.4-0.2-0.6-0.2l0.2,0.4c0,0,0,0,0,0
			c0.6,0.2,1.1,0.3,1.5,0.5c0.2,0.1,0.4,0.1,0.6,0.2c0.2,0.1,0.3,0.1,0.4,0.1c0.1,0,0.2,0,0.2,0.1c0-0.1,0.1-0.1,0.1-0.2
			c-0.3-0.1-0.6-0.2-1-0.3C11.6,29.1,11.3,29,11.1,28.9z"/>
		<path id="XMLID_194_" class="st0" d="M12.1,31.8C12,31.9,12,32,11.9,32.1l0.4,0.6c0-0.2,0-0.5-0.1-0.7
			C12.2,31.9,12.1,31.8,12.1,31.8z"/>
		<path id="XMLID_195_" class="st0" d="M10.3,25.7c0.3,0,0.7,0,1,0c0.2,0,0.4,0,0.6,0.1c-0.2,0-0.4-0.1-0.6-0.1
			c-0.4-0.1-0.7-0.1-1.1-0.2c-0.4-0.1-0.8-0.1-1.1-0.1c-0.3,0-0.7,0-1.1,0L8.3,26c0.3-0.1,0.7-0.1,1-0.2
			C9.6,25.8,9.9,25.7,10.3,25.7z"/>
		<path id="XMLID_196_" class="st0" d="M17.2,23.8c0,0.1,0,0.2,0,0.3c0,0.1,0,0.2,0,0.3c0,0.1,0,0.3,0,0.4c0,0.3,0,0.6-0.1,0.9
			c0,0.2-0.1,0.3-0.1,0.5c0,0.2-0.1,0.3-0.1,0.5c-0.1,0.4-0.2,0.7-0.3,1.1c-0.1,0.4-0.3,0.8-0.5,1.1c-0.1,0.1-0.1,0.2-0.2,0.3
			c0,0,0.1-0.1,0.1-0.1c0.3-0.3,0.6-0.7,0.8-1.1c0.2-0.4,0.4-1,0.6-1.5c0.2-0.5,0.3-1,0.4-1.5c0.1-0.5,0.1-1,0.1-1.4
			c0-0.2,0-0.4,0-0.5c0,0,0-0.1,0-0.1c0,0,0,0,0,0C17.6,23.3,17.4,23.5,17.2,23.8z"/>
		<path id="XMLID_197_" class="st0" d="M12,12.9c0.3,0,0.7,0.1,1,0.2c0.4,0.1,0.8,0.1,1.1,0.2c0.4,0.1,0.8,0.2,1.2,0.3
			c0.4,0.1,0.8,0.3,1.2,0.5l0.3,0.1l0.3,0.2c0.2,0.1,0.4,0.2,0.6,0.3c0.4,0.2,0.7,0.5,1.1,0.7c0.3,0.2,0.6,0.5,0.9,0.7
			c0.3,0.2,0.6,0.5,0.8,0.7c0.3,0.2,0.5,0.5,0.7,0.7c0,0-0.1-0.1-0.1-0.1c-0.2-0.2-0.4-0.4-0.7-0.7c-0.2-0.3-0.6-0.5-0.9-0.8
			c-0.3-0.3-0.7-0.5-1-0.8c-0.7-0.6-1.6-1.1-2.4-1.6c-0.4-0.2-0.9-0.5-1.3-0.6c-0.1,0-0.2-0.1-0.3-0.1h-4.4c0.1,0,0.2,0,0.3,0.1
			C10.9,12.8,11.4,12.8,12,12.9z"/>
		<path id="XMLID_198_" class="st0" d="M20.8,14.4c0.4,0.3,0.7,0.5,1.1,0.7c0.3,0.3,0.6,0.5,0.9,0.7c0.3,0.2,0.5,0.5,0.7,0.6
			c0.2,0.2,0.3,0.3,0.4,0.4c0,0,0,0,0,0c-0.1-0.1-0.2-0.2-0.3-0.5c-0.1-0.2-0.3-0.4-0.4-0.6c-0.2-0.2-0.4-0.5-0.6-0.7
			c-0.5-0.5-1.1-1.1-1.8-1.7c-0.3-0.2-0.6-0.5-0.9-0.7h-2.3c0.7,0.3,1.4,0.6,2.1,1C20,13.9,20.4,14.1,20.8,14.4z"/>
		<path id="XMLID_199_" class="st0" d="M12.7,31c0,0.1,0.1,0.2,0.1,0.3c0,0.1,0.1,0.3,0.1,0.5c0.1,0.3,0.1,0.7,0,1.1
			c0,0,0-0.1,0-0.1c0.1-0.5,0.1-0.9,0.2-1.3c0.1-0.4,0.1-0.8,0-1.1c0-0.2,0-0.3-0.1-0.4c-0.2,0.3-0.3,0.5-0.4,0.8
			C12.6,30.9,12.7,30.9,12.7,31z"/>
		<path id="XMLID_200_" class="st0" d="M74.6,55.5L74.6,55.5C74.6,55.5,74.6,55.5,74.6,55.5C74.6,55.5,74.6,55.5,74.6,55.5z"/>
		<path id="XMLID_201_" class="st0" d="M98.4,28.9c0.1-0.4,0.2-0.7,0.3-1.1c0.1-0.3,0.1-0.7,0.2-0.9c0-0.1,0-0.2,0-0.2
			c-0.1,0.3-0.3,0.6-0.5,1c-0.5,1.2-1.2,2.7-1.8,4.3c0,0.1-0.1,0.2-0.1,0.3l1.6-2.6C98.3,29.3,98.4,29.1,98.4,28.9z"/>
		<path id="XMLID_202_" class="st0" d="M10.2,19.8c-0.2-0.1-0.4-0.1-0.7-0.2c-0.4-0.1-0.9-0.2-1.3-0.3c-0.4-0.1-0.8-0.1-1.2-0.2
			c-0.4,0-0.8,0-1.1,0c-0.4,0-0.7,0-1,0c-0.2,0-0.4,0-0.6,0.1l1.2,1.9c0.2,0,0.4,0,0.6,0c1.2,0,2.9,0,4.5,0.1c0.4,0,0.8,0.1,1.2,0.2
			c0.4,0.1,0.8,0.2,1.2,0.2c0.4,0.1,0.8,0.2,1.1,0.3c0.2,0.1,0.3,0.1,0.5,0.2c0.2,0.1,0.3,0.1,0.5,0.2c0.3,0.1,0.6,0.3,0.8,0.4
			c0.1,0.1,0.2,0.1,0.3,0.2c0.1,0.1,0.2,0.1,0.2,0.2c0.1,0.1,0.3,0.2,0.3,0.2c0.1-0.1,0.2-0.3,0.3-0.4c-0.1,0-0.1,0-0.1-0.1
			c-0.4-0.1-0.9-0.4-1.6-0.7c-0.6-0.3-1.4-0.7-2.2-1.1c-0.8-0.4-1.6-0.8-2.5-1.1L10.2,19.8z"/>
		<path id="XMLID_203_" class="st0" d="M54.7,100.5c-0.3-0.3-0.5-0.6-0.8-0.8c-0.3-0.2-0.5-0.4-0.8-0.5c-0.2-0.1-0.4-0.1-0.6-0.2
			c-0.2,0-0.4,0-0.4,0c0,0-0.1,0-0.2,0l1.9,3.2l1-1.7C54.8,100.6,54.7,100.6,54.7,100.5z"/>
		<path id="XMLID_204_" class="st0" d="M13.7,30.8c0-0.3,0-0.6,0-0.9c0-0.3,0-0.6,0-0.8c0-0.1,0-0.2,0-0.3c-0.1,0.2-0.2,0.4-0.3,0.5
			c0,0.1,0,0.1,0,0.2c0,0.2,0.1,0.5,0.1,0.9c0,0.4,0,0.8-0.1,1.2c-0.1,0.4-0.2,0.9-0.3,1.3c0.1-0.2,0.2-0.5,0.4-0.7
			c0-0.2,0.1-0.4,0.1-0.6C13.7,31.3,13.7,31,13.7,30.8z"/>
		<path id="XMLID_205_" class="st0" d="M15.1,28.6c0.1-0.4,0.2-0.7,0.3-1.1c0.1-0.4,0.1-0.7,0.2-1c0-0.2,0-0.3,0.1-0.5
			c0-0.1,0-0.1,0-0.2c-0.1,0.1-0.2,0.3-0.3,0.4c-0.2,0.3-0.3,0.6-0.5,0.8c0,0.2-0.1,0.7-0.3,1.4c0,0.2-0.1,0.5-0.1,0.7
			c0,0.2-0.1,0.5-0.1,0.8c0,0.3-0.1,0.5-0.1,0.8c0.1-0.3,0.3-0.7,0.4-1C14.8,29.3,15,29,15.1,28.6z"/>
		<path id="XMLID_206_" class="st0" d="M10.4,22.1c-1.6-0.3-3.2-0.5-4.4-0.7c-0.2,0-0.3,0-0.5-0.1l1.1,1.8c0,0,0,0,0,0
			c1.1-0.1,2.5-0.1,3.9,0c1.4,0.1,2.7,0.3,3.8,0.5c-0.1-0.1-0.2-0.1-0.3-0.2c-0.1-0.1-0.3-0.1-0.4-0.2c-0.3-0.2-0.6-0.3-0.9-0.4
			c-0.3-0.1-0.7-0.3-1.1-0.4C11.2,22.3,10.8,22.2,10.4,22.1z"/>
		<path id="XMLID_207_" class="st0" d="M7.7,24.9c0.1,0,0.1,0,0.2,0c0.4,0,0.8-0.1,1.2-0.1c0.4,0,0.8,0,1.2,0c0.4,0,0.8,0.1,1.1,0.1
			c0.4,0.1,0.7,0.1,1.1,0.1c0.3,0.1,0.7,0.1,0.9,0.2c0.6,0.1,1.1,0.2,1.4,0.3c0.2,0,0.3,0.1,0.4,0.1c0,0,0,0,0,0
			c-0.1-0.1-0.3-0.1-0.4-0.2c-0.2-0.1-0.4-0.2-0.6-0.3c-0.9-0.4-2.3-0.8-3.6-1.1c-1.3-0.3-2.6-0.5-3.7-0.6L7.7,24.9z"/>
		<path id="XMLID_208_" class="st0" d="M4.9,19.1c0.3,0,0.6-0.1,1-0.1c0.4,0,0.7-0.1,1.1-0.1c0.4,0,0.8,0,1.3,0.1
			c0.4,0,0.9,0.1,1.4,0.2c0.2,0.1,0.5,0.1,0.7,0.2l0.7,0.2c0.9,0.3,1.8,0.6,2.6,1c0.8,0.3,1.6,0.6,2.2,0.9c0.6,0.2,1.2,0.4,1.6,0.5
			c0.3,0.1,0.5,0.2,0.6,0.2c0,0,0,0,0,0c-0.1,0-0.2-0.1-0.3-0.2c-0.4-0.2-0.9-0.5-1.5-0.8c-0.6-0.3-1.4-0.7-2.2-1.1
			c-0.4-0.2-0.8-0.4-1.2-0.6c-0.4-0.2-0.9-0.4-1.3-0.5c-0.9-0.4-1.7-0.7-2.6-1c-0.8-0.2-1.7-0.3-2.4-0.3c-0.7,0.1-1.3,0.2-1.7,0.4
			c-0.4,0.1-0.6,0.2-0.6,0.2s0.2-0.1,0.6-0.3c0.4-0.2,0.9-0.4,1.7-0.5c0.7-0.1,1.6-0.1,2.5,0.1c0.9,0.2,1.8,0.5,2.7,0.8
			c0.5,0.2,0.9,0.3,1.4,0.4c0.4,0.2,0.9,0.3,1.3,0.5c0.8,0.3,1.6,0.6,2.3,0.9c0.6,0.3,1.1,0.5,1.5,0.7c0-0.1-0.1-0.1-0.1-0.2
			c-0.1-0.1-0.2-0.2-0.3-0.3c-0.2-0.2-0.4-0.4-0.6-0.6c-0.3-0.2-0.5-0.5-0.8-0.7c-0.3-0.2-0.7-0.5-1-0.7c-0.4-0.2-0.8-0.5-1.2-0.7
			c-0.4-0.2-0.8-0.4-1.3-0.6l-0.6-0.3c-0.2-0.1-0.4-0.2-0.7-0.2c-0.4-0.2-0.9-0.3-1.3-0.4C9.8,16.1,9.3,16,8.9,16
			c-0.4-0.1-0.8-0.1-1.1-0.1c-0.4,0-0.7,0-1,0.1c-0.3,0.1-0.5,0.1-0.7,0.2c-0.4,0.2-0.6,0.3-0.6,0.3s0.2-0.1,0.6-0.3
			c0.2-0.1,0.4-0.2,0.7-0.3c0.3-0.1,0.6-0.2,1-0.2c0.4,0,0.8-0.1,1.2-0.1c0.4,0,0.9,0,1.3,0c0.5,0.1,0.9,0.1,1.4,0.2
			c0.2,0,0.5,0.1,0.7,0.1l0.7,0.2c0.5,0.1,1,0.3,1.4,0.4c0.5,0.2,0.9,0.3,1.3,0.5c0.4,0.2,0.8,0.4,1.2,0.6c0.4,0.2,0.7,0.4,1.1,0.6
			c0.3,0.2,0.6,0.4,0.9,0.6c0.1,0.1,0.3,0.2,0.4,0.3c0.1,0.1,0.2,0.2,0.3,0.2c0.2,0.2,0.3,0.3,0.4,0.4c0,0,0.1-0.1,0.1-0.1
			c0,0,0,0,0,0c0,0,0,0,0-0.1c-0.1-0.1-0.1-0.2-0.2-0.3c-0.2-0.3-0.7-0.7-1.3-1.2c-0.6-0.5-1.3-1-2.1-1.5c-0.4-0.2-0.8-0.5-1.3-0.7
			c-0.5-0.2-0.9-0.4-1.4-0.6c-1-0.3-1.9-0.5-2.9-0.7c-0.9-0.2-1.8-0.3-2.6-0.4c-0.8-0.1-1.4-0.2-1.8-0.2C6.2,14,6,13.9,6,13.9
			S6.2,14,6.7,14c0.4,0,1.1,0.1,1.8,0.1c0.8,0,1.7,0.1,2.6,0.2c1,0.1,2,0.3,3,0.5c0.5,0.1,1,0.3,1.5,0.5c0.5,0.2,0.9,0.4,1.4,0.7
			c0.9,0.4,1.7,0.9,2.3,1.3c0.7,0.4,1.2,0.9,1.5,1.2c0.1,0.1,0.2,0.3,0.3,0.4c0,0,0,0,0.1-0.1c-0.1-0.1-0.1-0.2-0.3-0.3
			c-0.2-0.3-0.6-0.7-1-1.1c-0.2-0.2-0.5-0.5-0.7-0.7c-0.3-0.2-0.5-0.5-0.8-0.8c-0.3-0.3-0.6-0.5-0.9-0.7c-0.2-0.1-0.3-0.2-0.5-0.3
			l-0.3-0.2l-0.3-0.1c-0.4-0.2-0.8-0.4-1.1-0.6c-0.4-0.2-0.7-0.3-1.1-0.4c-0.4-0.1-0.7-0.2-1.1-0.3c-0.3-0.1-0.7-0.2-1-0.2
			c-0.6-0.1-1.1-0.2-1.5-0.3c-0.2,0-0.3-0.1-0.4-0.1H0.4l3.9,6.5C4.4,19.1,4.6,19.1,4.9,19.1z"/>
		<path id="XMLID_209_" class="st0" d="M106.3,16.4l0.3-0.6c-0.1-0.2-0.1-0.3-0.2-0.5c-0.2-0.6-0.5-1.2-0.8-1.8
			c-0.1-0.3-0.3-0.6-0.4-0.9h-0.9c0.1,0.2,0.2,0.3,0.3,0.5C105.2,14.2,105.8,15.3,106.3,16.4z"/>
		<path id="XMLID_210_" class="st0" d="M93.7,13.9c0.1,0.1,0.3,0.3,0.4,0.4c0.4,0.5,0.8,1,1.2,1.5c0.4,0.5,0.7,1.1,1.1,1.6
			c0.4,0.5,0.7,1.1,1,1.6c0.3,0.5,0.6,1,0.8,1.5c0.2,0.5,0.5,0.9,0.7,1.4c0.5,0.9,0.8,1.6,1.1,2.1c0-0.2-0.1-0.4-0.1-0.6
			c0-0.3-0.2-0.6-0.2-0.9c-0.1-0.3-0.3-0.7-0.4-1.1c-0.2-0.4-0.4-0.8-0.6-1.2c-0.4-0.8-0.9-1.7-1.5-2.6c-1-1.7-2.2-3.3-3.1-4.6
			L94,13.9C94,13.9,93.9,13.9,93.7,13.9z"/>
		<path id="XMLID_211_" class="st0" d="M107.6,14.2l0.4-0.6c-0.1-0.2-0.2-0.4-0.3-0.6c-0.1-0.1-0.1-0.3-0.2-0.4h-0.8
			c0.1,0.1,0.1,0.2,0.2,0.3C107.1,13.4,107.3,13.8,107.6,14.2z"/>
		<path id="XMLID_212_" class="st0" d="M108.1,12.8c0.1,0.1,0.1,0.2,0.2,0.3l0.2-0.4H108C108.1,12.7,108.1,12.7,108.1,12.8z"/>
		<path id="XMLID_213_" class="st0" d="M77.1,47.1c0.1-0.4,0.1-0.7,0.1-1.1c0-0.4,0-0.7,0-1c0-0.2,0-0.3,0-0.5c0,0,0-0.1,0-0.1
			c-0.1,0.1-0.1,0.3-0.2,0.4c-0.1,0.3-0.3,0.6-0.4,0.9c0,0.2,0,0.7-0.1,1.4c0,0.2,0,0.4,0,0.7c0,0.2,0,0.5,0,0.8c0,0.3,0,0.5,0,0.8
			c0.1-0.4,0.2-0.7,0.3-1.1C76.9,47.9,77,47.5,77.1,47.1z"/>
		<path id="XMLID_214_" class="st0" d="M26.4,14.5c0-0.1-0.1-0.1-0.1-0.2c0,0-0.1-0.1-0.1-0.1c-0.1-0.1-0.1-0.2-0.2-0.3
			c-0.1-0.2-0.3-0.4-0.5-0.7c-0.2-0.2-0.4-0.4-0.6-0.6h-1.6c0,0,0,0,0.1,0c0.3,0.2,0.6,0.5,0.8,0.7c0.3,0.2,0.5,0.5,0.7,0.7
			c0.2,0.2,0.4,0.4,0.6,0.6c0.2,0.2,0.3,0.3,0.4,0.4c0.1,0.1,0.1,0.1,0.2,0.2c0.2-0.1,0.4-0.2,0.5-0.3
			C26.6,14.8,26.5,14.7,26.4,14.5z"/>
		<path id="XMLID_215_" class="st0" d="M75.6,52.9c0,0.1,0,0.1,0,0.1C75.6,53,75.6,52.9,75.6,52.9C75.6,52.9,75.6,52.9,75.6,52.9z"
			/>
		<path id="XMLID_216_" class="st0" d="M76.1,49.4c0-0.3-0.1-0.6-0.1-0.8c0-0.3,0-0.5-0.1-0.8c0-0.1,0-0.2,0-0.3
			c-0.1,0.2-0.2,0.4-0.2,0.6c0,0.1,0,0.1,0.1,0.2c0.1,0.2,0.2,0.5,0.2,0.8c0.1,0.4,0.1,0.8,0.1,1.2c0,0.4-0.1,0.9-0.1,1.3
			c0.1-0.2,0.2-0.5,0.2-0.7c0-0.2,0-0.4,0-0.6C76.2,50,76.1,49.7,76.1,49.4z"/>
		<path id="XMLID_217_" class="st0" d="M99.4,15c0.6,1,1.2,2,1.8,3c0.5,1,1,1.9,1.4,2.7c0.2,0.3,0.3,0.6,0.5,0.8l0.1-0.2
			c0,0,0-0.1-0.1-0.1c-0.3-0.6-0.6-1.4-0.9-2.2c-0.3-0.8-0.6-1.7-0.9-2.5c-0.2-0.4-0.4-0.8-0.6-1.2c-0.2-0.4-0.4-0.8-0.7-1.1
			c-0.2-0.4-0.5-0.7-0.7-1c-0.2-0.2-0.3-0.4-0.5-0.6h-1.2c0.2,0.3,0.5,0.6,0.7,0.9C98.8,14,99.1,14.5,99.4,15z"/>
		<path id="XMLID_218_" class="st0" d="M28.6,13.4c-0.1-0.2-0.2-0.4-0.4-0.7h-0.4c0.1,0.1,0.2,0.3,0.3,0.4c0.1,0.1,0.1,0.1,0.2,0.2
			c0,0.1,0.1,0.1,0.1,0.1c0.1,0.2,0.2,0.3,0.3,0.4c0,0,0.1,0,0.1,0c0,0,0-0.1,0-0.1C28.6,13.5,28.6,13.5,28.6,13.4z"/>
		<path id="XMLID_219_" class="st0" d="M87.4,12.7c0.3,0.1,0.7,0.2,1.1,0.4c0.4,0.2,0.8,0.4,1.2,0.7c0.2,0.1,0.4,0.3,0.6,0.4
			c0.2,0.2,0.4,0.4,0.6,0.5c0.2,0.2,0.4,0.4,0.6,0.6c0.2,0.2,0.4,0.4,0.6,0.7c0.4,0.5,0.7,1,1,1.4c0.3,0.5,0.6,1,0.9,1.5
			c0.3,0.5,0.5,1,0.7,1.5c0.5,1,0.9,1.9,1.3,2.6c0.2,0.4,0.4,0.7,0.5,1c0.2,0.3,0.3,0.5,0.4,0.8c0,0,0,0,0,0.1c0,0,0-0.1,0-0.1
			c-0.1-0.2-0.2-0.5-0.3-0.8c-0.1-0.3-0.2-0.7-0.4-1c-0.3-0.8-0.7-1.6-1.1-2.6c-0.4-0.9-0.9-1.9-1.5-2.9c-0.3-0.5-0.6-0.9-0.9-1.4
			c-0.3-0.4-0.6-0.9-1-1.3c-0.7-0.8-1.3-1.5-1.9-2.1c0,0,0,0-0.1-0.1c-0.1,0-0.3-0.1-0.4-0.1c-0.1,0-0.1,0-0.2-0.1h-2.1
			C87.3,12.7,87.3,12.7,87.4,12.7z"/>
		<path id="XMLID_220_" class="st0" d="M94.3,27.9C94.2,27.9,94.2,27.9,94.3,27.9L94.3,27.9C94.3,27.9,94.3,27.9,94.3,27.9z"/>
		<path id="XMLID_221_" class="st0" d="M25.1,15.8c-0.1-0.1-0.2-0.3-0.4-0.5c-0.1-0.2-0.3-0.4-0.5-0.6c-0.2-0.2-0.4-0.4-0.6-0.7
			c-0.2-0.2-0.5-0.5-0.7-0.7c-0.2-0.2-0.5-0.4-0.8-0.7H21l0.1,0.1c0.7,0.6,1.4,1.1,2,1.6c0.3,0.3,0.5,0.5,0.7,0.7
			c0.2,0.2,0.4,0.5,0.5,0.6c0.2,0.2,0.3,0.4,0.3,0.5c0.2-0.1,0.3-0.2,0.5-0.3C25.1,15.8,25.1,15.8,25.1,15.8z"/>
		<path id="XMLID_222_" class="st0" d="M92.1,14.8c0.4,0.4,0.7,0.8,1.1,1.2c0.4,0.4,0.7,0.9,1,1.3c0.6,0.9,1.2,1.9,1.7,2.8
			c0.5,0.9,1,1.8,1.3,2.5c0.1,0.2,0.1,0.3,0.2,0.4c-0.1-0.1-0.1-0.3-0.2-0.5c-0.2-0.4-0.4-0.9-0.6-1.4c-0.2-0.5-0.4-1-0.6-1.6
			c-0.2-0.5-0.4-1.1-0.7-1.6c-0.3-0.5-0.5-1.1-0.9-1.6c-0.3-0.5-0.7-1-1-1.5c-0.4-0.5-0.7-0.9-1.1-1.4c-0.6-0.2-1.3-0.3-2.1-0.6
			C90.8,13.5,91.5,14.1,92.1,14.8z"/>
		<path id="XMLID_223_" class="st0" d="M98.1,16.9c0.6,0.8,1.3,1.7,1.8,2.5c0.2,0.3,0.4,0.7,0.6,1c-0.2-0.5-0.4-1.1-0.7-1.7
			c-0.4-1-0.9-2.1-1.4-3.1c-0.3-0.5-0.5-1-0.8-1.5c-0.3-0.5-0.6-1-0.9-1.4h-2.2C95.5,13.8,96.8,15.3,98.1,16.9z"/>
		<path id="XMLID_428_" class="st0" d="M99.6,13c0.3,0.3,0.6,0.6,0.8,0.9c0.3,0.3,0.5,0.7,0.8,1.1c0.2,0.4,0.5,0.8,0.7,1.2
			c0.4,0.8,0.8,1.7,1.2,2.5c0.3,0.6,0.5,1.1,0.7,1.6l0.4-0.7c0-0.2-0.1-0.3-0.1-0.5c-0.1-0.2-0.2-0.4-0.3-0.7
			c-0.1-0.2-0.2-0.5-0.3-0.7c-0.1-0.2-0.2-0.5-0.3-0.7c-0.3-0.5-0.5-1-0.9-1.5c-0.3-0.5-0.7-1-1-1.4c-0.4-0.5-0.8-0.9-1.2-1.4
			c0,0,0,0,0-0.1h-0.8C99.4,12.8,99.5,12.9,99.6,13z"/>
		<path id="XMLID_429_" class="st0" d="M103.4,14.7c0.4,0.5,0.8,1,1.1,1.5c0.2,0.3,0.3,0.5,0.5,0.8c0.2,0.2,0.3,0.5,0.4,0.7l0,0
			c-0.5-1.3-1.1-2.7-1.7-4.1c-0.1-0.3-0.3-0.6-0.4-0.8h-2c0.2,0.2,0.5,0.4,0.7,0.7C102.6,13.8,103,14.2,103.4,14.7z"/>
	</g>
	<g id="XMLID_430_">
		<path id="XMLID_431_" class="st0" d="M7.8,0.2h0.5L4.4,8.5H4.2L0.3,0.2h0.5l3.5,7.5L7.8,0.2z"/>
		<path id="XMLID_433_" class="st0" d="M12.6,8.5h-0.4V0.2h0.4V8.5z"/>
		<path id="XMLID_435_" class="st0" d="M20,8.5h-2.8V0.2h2.5c2.3,0,4.2,1.9,4.2,4.1C23.9,6.6,22.2,8.4,20,8.5z M20,8.1
			c1.9-0.2,3.5-1.8,3.5-3.7c0-2.1-1.7-3.7-3.7-3.7h-2.1v7.4H20z"/>
		<path id="XMLID_438_" class="st0" d="M32.9,6.1h-4.7l-1.1,2.4h-0.5l3.7-8.3h0.3l3.7,8.3h-0.5L32.9,6.1z M28.3,5.7h4.4l-2.2-5
			L28.3,5.7z"/>
		<path id="XMLID_441_" class="st0" d="M45.3,0.2v8.3h-0.8l-4.9-5.2v5.2h-1.7V0.2h0.8l4.9,5.2V0.2H45.3z"/>
		<path id="XMLID_443_" class="st0" d="M54.9,6.8h-3.7l-0.7,1.7h-1.8l3.9-8.3h0.8l4,8.3h-1.8L54.9,6.8z M51.8,5.4h2.5L53,2.7
			L51.8,5.4z"/>
		<path id="XMLID_446_" class="st0" d="M66.2,1.7h-2.6v6.8h-1.7V1.7h-2.6V0.2h7V1.7z"/>
		<path id="XMLID_448_" class="st0" d="M77,5.2c0,1.9-1.3,3.4-3.7,3.4c-2.4,0-3.6-1.5-3.6-3.4V0.2h1.6v4.5c0,1.6,0.7,2.3,2,2.3
			c1.3,0,2-0.8,2-2.3V0.2H77V5.2z"/>
		<path id="XMLID_450_" class="st0" d="M84.5,6.4c-0.1,0-0.2,0-0.3,0h-1.5v2.1H81V0.2h3.6c2.4,0,3.2,1.4,3.2,3
			c0,1.4-0.6,2.4-1.7,2.8l1.9,2.5h-2L84.5,6.4z M82.6,5h1.5c1.3,0,2-0.7,2-1.7c0-0.9-0.4-1.7-1.7-1.7h-1.7V5z"/>
		<path id="XMLID_453_" class="st0" d="M96.9,6.8h-3.7l-0.7,1.7h-1.8l3.9-8.3h0.8l4,8.3h-1.8L96.9,6.8z M93.8,5.4h2.5L95,2.7
			L93.8,5.4z"/>
		<path id="XMLID_456_" class="st0" d="M108.7,7.1v1.4h-5.9V0.2h1.7v6.9H108.7z"/>
	</g>
</g>
</svg>
