<?xml version="1.0" encoding="utf-8"?>
<!-- Generator: Adobe Illustrator 22.0.0, SVG Export Plug-In . SVG Version: 6.00 Build 0)  -->
<svg version="1.1" id="Camada_1" xmlns:figma="http://www.figma.com/figma/ns"
	 xmlns="http://www.w3.org/2000/svg" xmlns:xlink="http://www.w3.org/1999/xlink" x="0px" y="0px" viewBox="0 0 404.8 66.8"
	 style="enable-background:new 0 0 404.8 66.8;" xml:space="preserve">
<title>Logo</title>
<g>
	<g>
		<path d="M153.5,0.7c0.9,1.4,1.7,2.7,2.4,4.1c0.5,1.2,1.1,2.5,1.8,3.6c1.7,2.7,3.9,5.2,5.1,8.1c1.3,2.9,2.7,5.9,3.8,8.9
			c-1.3-3-3-5.8-4.3-8.8c-0.8-1.8-1.6-3.6-2.7-5.2c-1.2-1.9-2.8-3.4-3.9-5.3c-0.4-0.6-0.8-1.2-1.2-1.9c0.1-0.2,0.2-0.5,0.3-0.8
			c0.1-0.1-0.1-0.2-0.2-0.1c-0.2,0.1-0.3,0.2-0.5,0.4c-0.7-1-1.3-2-2-3c0.1,0.1,0.3,0.2,0.4,0.4C153,1.3,153.5,1,153.5,0.7"/>
		<path d="M188.6,44.2c-2,0.7-4.9-1.3-6.5-1.8c-3.1-0.9-6.1-2.3-8.4-4.7c-0.1-0.2-0.2-0.4-0.2-0.6c-0.8-1.8-1.7-3.5-2.5-5.2
			c2.2,1.5,5.5,2.6,7.8,3c1.3,0.3,2.9,0.2,4.2,0.1c1.5,0,3.1-0.8,4.7-0.5c0,0,0,0,0,0C188.5,37.7,188.7,40.9,188.6,44.2 M187.7,52.6
			c-0.1,0-0.2,0-0.2-0.1c-1.3-0.4-2.6-0.9-3.7-1.6c-2.3-1.4-5.1-2.8-6.7-4.9c-0.1-0.1-0.1-0.1-0.2-0.1c-0.2-0.5-0.4-1.1-0.6-1.6
			c0-0.2,0-0.4,0.1-0.6c0.1-0.4-0.2-0.6-0.5-0.7c-0.4-1-0.7-2-1.1-3c2.2,1.8,5.1,2.7,7.8,3.7c1.5,0.6,4.3,1.6,6.1,0.9
			c-0.1,1.9-0.3,3.8-0.5,5.7C187.9,51.1,187.8,51.8,187.7,52.6 M179.2,52.9c-0.5-1.6-1-3.1-1.6-4.7c0.5,0.5,1.1,0.8,1.8,1.2
			c1.5,0.9,3,2.1,4.6,2.7c1.1,0.5,2.3,0.9,3.5,1.1c-0.4,2.2-1,4.3-1.9,6.3c-0.6,1.2-1.3,2.4-1.6,3.7c-0.2,0.9-0.4,1.8-0.6,2.7
			C182.5,61.4,180.6,57.3,179.2,52.9 M175.3,58.9c0.8-1.7,0.6-3.6,0.5-5.4c-0.1-2.1-0.1-4.1,0.1-6.2c0.8,1.9,1.5,4,2.3,6
			c1.4,4.1,3.1,8,4.3,12.1c-0.1-0.1-0.2-0.2-0.2-0.4c-0.9-1.1-1.8-2.4-2.9-3.3C178,60.7,176.7,59.8,175.3,58.9 M169.5,51.4
			c0.3-1.3,0.4-2.6,0.7-3.9c0.6-3,0.7-6.4,2-9.3c1,2.3,2,4.7,2.9,7c-0.3,2.1-0.4,4.2-0.3,6.3c0.1,2.2,0.5,4.8,0,7
			c-1.1-0.8-2.3-1.5-3.4-2.3c-1-0.7-2-1.6-3-2.5c0.2-0.1,0.4-0.4,0.5-0.6C169.2,52.7,169.4,52,169.5,51.4 M167.9,29.2
			c0.2,0.5,0.4,1,0.6,1.5c0.9,2,1.9,3.9,2.9,5.9c0,0.1,0,0.2,0,0.3c0.2,0.5-0.9,2.5-1.1,3.1c-0.2,1.2-0.4,2.5-0.6,3.8
			c-0.5,3.2-0.7,6.6-1.8,9.6c-2.2-2.1-4.3-4.6-5.9-7.2C163.7,40.4,165.5,34.6,167.9,29.2 M164.2,16.8c-0.1-0.2-0.1-0.3-0.1-0.5
			c-0.1-0.8-0.1-1.8-0.4-2.5c-0.1-0.2-0.1-0.3-0.2-0.5c2.7,1.7,5.4,3.3,8.1,5c5.5,3.7,12.4,7.1,15.2,13.5c0.3,0.8,0.6,1.6,0.8,2.4
			c-1.2-0.6-2.4,0-3.7,0c-1.3,0-2.7,0-4.1-0.2c-3.4-0.4-6.2-2.6-9.4-3.5c-0.2-0.5-0.5-1.1-0.7-1.6c-0.2-0.6-0.5-1.3-0.7-2
			c0.1-0.2,0.2-0.4,0.3-0.6c0.6,0.1,1.1,0.2,1.4,0.3c1.5,0.2,3,0.4,4.5,0.3c2.2-0.2,4.2-2,6.5-1.1c0.1,0.1,0.2-0.1,0.1-0.2
			c-2.3-1.2-5,0.6-7.5,0.5c-1.5-0.1-3.1-0.2-4.6-0.6c0.1-0.1,0.1-0.1,0.2-0.2c0.4-0.8-0.7-1.3-1.1-0.7v0c-0.1,0.2-0.2,0.3-0.3,0.5
			c-0.1-0.1-0.2-0.1-0.4-0.2c-0.3-1-0.7-1.9-1.1-2.8c0,0,0,0,0.1,0c2.3-0.1,4.5-0.9,6.7-1.5c0.1,0,0.1-0.2,0-0.2
			c-1.7,0.2-3.3,0.5-5,0.7c-0.7,0-1.4,0.1-2.2,0.1c-0.1-0.2-0.2-0.4-0.3-0.6c-0.5-1-1.3-1.8-1.8-2.8 M159.5,35.8
			c-0.3-4.4,2.1-7.8,4-11.5c0.4-0.9,0.9-1.9,1-2.9c0.2,0.1,0.4,0.1,0.5,0.2c0.1,0.1,0.1,0.2,0.2,0.4c0.2,0.5,0.4,0.9,0.6,1.4
			c-0.1,0.6,0.1,1.2,0.6,1.6c0.3,0.9,0.6,1.7,0.9,2.6c-0.3,1-0.7,2-1.2,2.8c-1,1.7-1.7,3.3-2.1,5.2c-0.7,3.2-1.9,6.4-2.4,9.6
			c-0.9-1.6-1.6-3.3-2-5c-0.4-1.4-0.5-2.9-0.6-4.3C159.2,36.2,159.5,36.1,159.5,35.8 M158.9,9.8c0.1,0.1,0.2,0.2,0.2,0.3
			c0.2,0.2,0.2,0.3,0.3,0.3c0,0,0,0,0.1,0.1c0.7,0.9,1.3,1.8,2,2.8c0.9,1.2,0.7,2.2,0.9,3.4c-0.2,0-0.5,0-0.7,0
			c-0.4,0-0.5,0.5-0.1,0.6c0.3,0.1,0.6,0.2,1,0.3c0,0,0,0.1,0,0.1c0.1,0.4,0.3,0.7,0.4,1c-0.1,0.1-0.1,0.2,0,0.2
			c0.2,0.4,0.3,0.9,0.4,1.3c-0.1,0.2-0.1,0.4,0,0.6c-0.1,2.4-2.2,4.7-3,6.8c-0.6,1.5-1.2,3.1-1.5,4.6c0-3.1,0-6.2-0.5-9.4
			c0-0.3-0.1-0.5-0.1-0.7c0.6-1.3,1.1-2.6,1.5-4.1c0.5-2.2,0-4.2,0.4-6.3c0.1-0.3-0.4-0.4-0.5-0.2c-1.1,1.6-0.2,3.6-0.5,5.4
			c-0.2,1.4-0.6,2.6-1,3.9c-0.3-2.8,0-5.4,0.4-8.2C158.6,11.6,158.8,10.7,158.9,9.8 M156.2,6.9c0.4,0.3,0.8,0.6,1.1,1
			c0,0.4,0,0.8,0,1.3C157.2,8.5,156.6,7.8,156.2,6.9"/>
		<rect x="210.1" y="63.8" width="14.8" height="1.5"/>
		<rect x="230.9" y="63.8" width="14.8" height="1.5"/>
		<path d="M256.1,47.7c0,0.4,0.1,0.8,0.1,1.2c0,0.5,0,0.8,0,1.1h0.1c0.4-0.8,1-1.5,1.9-2c0.9-0.5,1.8-0.8,2.8-0.8
			c1.8,0,3.1,0.5,4,1.6c0.9,1,1.3,2.4,1.3,4.1v8.5h-2v-7.7c0-0.7-0.1-1.4-0.2-2c-0.1-0.6-0.3-1.1-0.6-1.5c-0.3-0.4-0.7-0.8-1.2-1
			c-0.5-0.2-1.1-0.4-1.8-0.4c-0.5,0-1.1,0.1-1.6,0.3c-0.5,0.2-1,0.5-1.3,1c-0.4,0.4-0.7,1-0.9,1.7c-0.2,0.7-0.4,1.5-0.4,2.4v7.1h-2
			V50.8c0-0.4,0-0.9,0-1.5c0-0.6,0-1.1-0.1-1.6H256.1z"/>
		<path d="M284.8,51c-0.3-0.6-0.7-1-1.3-1.4c-0.6-0.4-1.3-0.5-2.1-0.5c-0.4,0-0.7,0-1.1,0.1c-0.4,0.1-0.7,0.2-0.9,0.4
			c-0.3,0.2-0.5,0.4-0.7,0.7c-0.2,0.3-0.3,0.6-0.3,1c0,0.7,0.3,1.2,0.8,1.5c0.5,0.3,1.4,0.6,2.5,0.9c1.6,0.3,2.8,0.8,3.6,1.5
			c0.8,0.6,1.2,1.5,1.2,2.6c0,0.8-0.2,1.5-0.5,2c-0.3,0.5-0.7,1-1.2,1.3c-0.5,0.3-1.1,0.6-1.7,0.7c-0.6,0.1-1.2,0.2-1.9,0.2
			c-1,0-2.1-0.2-3.1-0.7c-1-0.4-1.8-1.1-2.4-2l1.6-1.2c0.4,0.6,0.9,1.1,1.6,1.5s1.5,0.6,2.3,0.6c0.4,0,0.8,0,1.2-0.1
			c0.4-0.1,0.7-0.2,1-0.4c0.3-0.2,0.5-0.5,0.7-0.8c0.2-0.3,0.3-0.7,0.3-1.1c0-0.7-0.4-1.3-1.1-1.6c-0.7-0.4-1.7-0.7-3-1
			c-0.4-0.1-0.9-0.2-1.3-0.4c-0.5-0.1-0.9-0.4-1.3-0.7c-0.4-0.3-0.7-0.6-1-1.1c-0.3-0.4-0.4-1-0.4-1.6c0-0.7,0.1-1.3,0.4-1.8
			c0.3-0.5,0.6-0.9,1.1-1.2c0.5-0.3,1-0.6,1.6-0.7c0.6-0.2,1.2-0.2,1.8-0.2c1,0,1.9,0.2,2.8,0.7c0.9,0.4,1.6,1,2,1.8L284.8,51z"/>
		<path d="M306.5,50.9c-0.3-0.5-0.8-1-1.5-1.3c-0.6-0.3-1.3-0.5-2.1-0.5c-0.8,0-1.5,0.1-2.2,0.4c-0.7,0.3-1.2,0.7-1.7,1.2
			c-0.5,0.5-0.8,1.1-1.1,1.8c-0.2,0.7-0.4,1.4-0.4,2.2c0,0.8,0.1,1.5,0.4,2.2c0.2,0.7,0.6,1.3,1.1,1.8c0.5,0.5,1,0.9,1.7,1.2
			c0.7,0.3,1.4,0.4,2.2,0.4c0.9,0,1.6-0.2,2.3-0.5s1.1-0.8,1.5-1.3l1.5,1.1c-0.6,0.7-1.3,1.3-2.2,1.7c-0.9,0.4-1.9,0.7-3.1,0.7
			c-1.1,0-2.1-0.2-3.1-0.5c-0.9-0.4-1.7-0.9-2.3-1.5c-0.6-0.7-1.1-1.4-1.5-2.3c-0.4-0.9-0.5-1.9-0.5-2.9c0-1,0.2-2,0.5-2.9
			c0.4-0.9,0.9-1.7,1.5-2.3c0.6-0.7,1.4-1.2,2.3-1.5c0.9-0.4,1.9-0.5,3.1-0.5c0.9,0,1.9,0.2,2.8,0.6c1,0.4,1.7,1,2.3,1.8L306.5,50.9
			z"/>
		<path d="M319.7,42.4c0,0.4-0.1,0.8-0.4,1c-0.3,0.3-0.6,0.4-1,0.4s-0.7-0.1-1-0.4c-0.3-0.3-0.4-0.6-0.4-1c0-0.4,0.1-0.8,0.4-1
			c0.3-0.3,0.6-0.4,1-0.4s0.7,0.1,1,0.4C319.5,41.7,319.7,42,319.7,42.4 M319.3,61.6h-2V47.7h2V61.6z"/>
		<path d="M343.2,54.3v0.4c0,0.2,0,0.3,0,0.5h-11.5c0,0.7,0.2,1.3,0.4,2c0.3,0.6,0.6,1.1,1.1,1.6c0.5,0.5,1,0.8,1.6,1.1
			c0.6,0.3,1.3,0.4,2,0.4c1,0,2-0.2,2.7-0.7c0.8-0.5,1.3-1,1.7-1.7l1.5,1.2c-0.8,1-1.7,1.8-2.7,2.3c-1,0.5-2.1,0.7-3.2,0.7
			c-1,0-2-0.2-2.9-0.5c-0.9-0.4-1.6-0.9-2.3-1.5c-0.6-0.7-1.1-1.4-1.5-2.3c-0.4-0.9-0.5-1.9-0.5-2.9c0-1,0.2-2,0.5-2.9
			c0.4-0.9,0.8-1.7,1.5-2.3c0.6-0.7,1.4-1.2,2.2-1.5c0.8-0.4,1.8-0.5,2.8-0.5c1.1,0,2,0.2,2.9,0.5c0.8,0.4,1.5,0.9,2.1,1.5
			c0.6,0.6,1,1.3,1.3,2.2C343,52.4,343.2,53.3,343.2,54.3 M341.1,53.6c-0.1-1.3-0.5-2.4-1.3-3.2c-0.8-0.9-1.9-1.3-3.3-1.3
			c-0.7,0-1.3,0.1-1.9,0.4c-0.6,0.2-1.1,0.6-1.5,1c-0.4,0.4-0.8,0.9-1,1.5c-0.3,0.5-0.4,1.1-0.4,1.7H341.1z"/>
		<path d="M355.2,47.7c0,0.4,0.1,0.8,0.1,1.2c0,0.5,0,0.8,0,1.1h0.1c0.4-0.8,1-1.5,1.9-2c0.9-0.5,1.8-0.8,2.8-0.8
			c1.8,0,3.1,0.5,4,1.6c0.9,1,1.3,2.4,1.3,4.1v8.5h-2v-7.7c0-0.7-0.1-1.4-0.2-2c-0.1-0.6-0.3-1.1-0.6-1.5c-0.3-0.4-0.7-0.8-1.2-1
			c-0.5-0.2-1.1-0.4-1.8-0.4c-0.5,0-1.1,0.1-1.6,0.3c-0.5,0.2-1,0.5-1.3,1c-0.4,0.4-0.7,1-0.9,1.7c-0.2,0.7-0.4,1.5-0.4,2.4v7.1h-2
			V50.8c0-0.4,0-0.9,0-1.5c0-0.6,0-1.1-0.1-1.6H355.2z"/>
		<path d="M382.8,49.4h-3.9v8.1c0,0.5,0,0.9,0.1,1.3c0.1,0.3,0.2,0.6,0.4,0.8c0.2,0.2,0.4,0.3,0.7,0.4c0.3,0.1,0.5,0.1,0.8,0.1
			c0.3,0,0.6,0,0.9-0.1c0.3-0.1,0.6-0.2,0.9-0.3l0.1,1.7c-0.4,0.1-0.7,0.2-1.1,0.3c-0.4,0.1-0.8,0.1-1.3,0.1c-0.4,0-0.8,0-1.2-0.1
			c-0.4-0.1-0.8-0.3-1.2-0.6c-0.4-0.3-0.6-0.7-0.9-1.1c-0.2-0.5-0.3-1.1-0.3-1.9v-8.7H374v-1.7h2.9v-3.9h2v3.9h3.9V49.4z"/>
		<path d="M404.5,54.3v0.4c0,0.2,0,0.3,0,0.5H393c0,0.7,0.2,1.3,0.4,2c0.3,0.6,0.6,1.1,1.1,1.6c0.5,0.5,1,0.8,1.6,1.1
			c0.6,0.3,1.3,0.4,2,0.4c1,0,2-0.2,2.7-0.7c0.8-0.5,1.3-1,1.7-1.7L404,59c-0.8,1-1.7,1.8-2.7,2.3c-1,0.5-2.1,0.7-3.2,0.7
			c-1,0-2-0.2-2.9-0.5c-0.9-0.4-1.6-0.9-2.3-1.5c-0.6-0.7-1.1-1.4-1.5-2.3c-0.4-0.9-0.5-1.9-0.5-2.9c0-1,0.2-2,0.5-2.9
			c0.4-0.9,0.8-1.7,1.5-2.3c0.6-0.7,1.4-1.2,2.2-1.5c0.8-0.4,1.8-0.5,2.8-0.5c1.1,0,2,0.2,2.9,0.5c0.8,0.4,1.5,0.9,2.1,1.5
			c0.6,0.6,1,1.3,1.3,2.2C404.4,52.4,404.5,53.3,404.5,54.3 M402.5,53.6c-0.1-1.3-0.5-2.4-1.3-3.2c-0.8-0.9-1.9-1.3-3.3-1.3
			c-0.7,0-1.3,0.1-1.9,0.4c-0.6,0.2-1.1,0.6-1.5,1c-0.4,0.4-0.8,0.9-1,1.5c-0.3,0.5-0.4,1.1-0.4,1.7H402.5z"/>
		<path d="M215.3,25.2c-0.4-0.6-0.9-1.1-1.6-1.4c-0.7-0.4-1.5-0.6-2.3-0.6c-0.9,0-1.7,0.2-2.4,0.5c-0.7,0.3-1.3,0.7-1.8,1.3
			c-0.5,0.6-0.9,1.2-1.2,1.9c-0.3,0.7-0.4,1.5-0.4,2.4c0,0.9,0.1,1.7,0.4,2.4c0.3,0.7,0.7,1.4,1.1,1.9c0.5,0.5,1.1,1,1.8,1.3
			c0.7,0.3,1.5,0.5,2.4,0.5c1,0,1.8-0.2,2.5-0.6c0.7-0.4,1.2-0.8,1.6-1.4l1.6,1.2c-0.6,0.8-1.4,1.4-2.4,1.9
			c-0.9,0.5-2.1,0.7-3.4,0.7c-1.2,0-2.3-0.2-3.3-0.6c-1-0.4-1.8-1-2.5-1.7c-0.7-0.7-1.2-1.6-1.6-2.5c-0.4-1-0.6-2-0.6-3.2
			c0-1.1,0.2-2.2,0.6-3.2s0.9-1.8,1.6-2.5c0.7-0.7,1.5-1.3,2.5-1.7c1-0.4,2.1-0.6,3.3-0.6c1,0,2,0.2,3.1,0.7c1,0.4,1.9,1.1,2.5,2
			L215.3,25.2z"/>
		<path d="M242,29.3c0,1.1-0.2,2.2-0.6,3.2c-0.4,1-1,1.8-1.7,2.5c-0.7,0.7-1.6,1.3-2.6,1.7c-1,0.4-2.1,0.6-3.3,0.6
			c-1.2,0-2.2-0.2-3.2-0.6c-1-0.4-1.8-1-2.6-1.7c-0.7-0.7-1.3-1.6-1.7-2.5c-0.4-1-0.6-2-0.6-3.2c0-1.1,0.2-2.2,0.6-3.2
			c0.4-1,1-1.8,1.7-2.5c0.7-0.7,1.6-1.3,2.6-1.7c1-0.4,2.1-0.6,3.2-0.6c1.2,0,2.3,0.2,3.3,0.6c1,0.4,1.8,1,2.6,1.7
			c0.7,0.7,1.3,1.6,1.7,2.5C241.8,27.1,242,28.2,242,29.3 M239.7,29.3c0-0.8-0.1-1.6-0.4-2.4c-0.3-0.7-0.7-1.4-1.1-1.9
			c-0.5-0.5-1.1-1-1.8-1.3c-0.7-0.3-1.5-0.5-2.4-0.5c-0.9,0-1.7,0.2-2.4,0.5c-0.7,0.3-1.3,0.8-1.8,1.3c-0.5,0.5-0.9,1.2-1.1,1.9
			c-0.3,0.7-0.4,1.5-0.4,2.4c0,0.8,0.1,1.6,0.4,2.4c0.3,0.7,0.7,1.4,1.1,1.9c0.5,0.6,1.1,1,1.8,1.3c0.7,0.3,1.5,0.5,2.4,0.5
			c0.9,0,1.7-0.2,2.4-0.5c0.7-0.3,1.3-0.7,1.8-1.3c0.5-0.5,0.9-1.2,1.1-1.9C239.6,31,239.7,30.2,239.7,29.3"/>
		<path d="M261.3,25.4c-0.3-0.6-0.8-1.1-1.5-1.5c-0.7-0.4-1.4-0.6-2.2-0.6c-0.4,0-0.8,0-1.2,0.1c-0.4,0.1-0.7,0.2-1,0.4
			c-0.3,0.2-0.5,0.4-0.7,0.7c-0.2,0.3-0.3,0.7-0.3,1.1c0,0.7,0.3,1.3,0.9,1.6c0.6,0.4,1.5,0.7,2.7,1c1.8,0.4,3.1,0.9,4,1.6
			c0.9,0.7,1.3,1.6,1.3,2.8c0,0.9-0.2,1.6-0.5,2.2c-0.3,0.6-0.8,1.1-1.3,1.5c-0.5,0.4-1.1,0.6-1.8,0.8c-0.7,0.2-1.4,0.2-2.1,0.2
			c-1.1,0-2.3-0.2-3.3-0.7c-1.1-0.5-2-1.2-2.7-2.2l1.7-1.3c0.4,0.7,1,1.2,1.7,1.7c0.8,0.5,1.6,0.7,2.5,0.7c0.5,0,0.9,0,1.4-0.1
			c0.4-0.1,0.8-0.2,1.1-0.5c0.3-0.2,0.6-0.5,0.8-0.8c0.2-0.3,0.3-0.7,0.3-1.2c0-0.8-0.4-1.4-1.1-1.8c-0.8-0.4-1.9-0.8-3.3-1.1
			c-0.5-0.1-0.9-0.2-1.4-0.4c-0.5-0.2-1-0.4-1.4-0.7c-0.4-0.3-0.8-0.7-1.1-1.2c-0.3-0.5-0.4-1.1-0.4-1.8c0-0.8,0.2-1.4,0.5-2
			c0.3-0.6,0.7-1,1.2-1.4c0.5-0.4,1.1-0.6,1.7-0.8c0.6-0.2,1.3-0.3,2-0.3c1.1,0,2.1,0.2,3.1,0.7c1,0.5,1.7,1.1,2.2,2L261.3,25.4z"/>
		<path d="M278.2,22.2c0.9-0.5,1.9-0.8,3-0.8c0.4,0,0.8,0,1.3,0.1c0.4,0.1,0.9,0.3,1.3,0.5c0.4,0.2,0.8,0.6,1.2,1
			c0.4,0.4,0.7,0.9,0.9,1.6c0.5-1,1.2-1.8,2.1-2.4c0.9-0.5,2-0.8,3.2-0.8c1.9,0,3.4,0.6,4.3,1.7c1,1.1,1.4,2.6,1.4,4.5v9.3h-2.2
			v-8.4c0-1.6-0.3-2.9-0.9-3.8c-0.6-1-1.6-1.5-3-1.5c-0.8,0-1.5,0.2-2,0.5c-0.5,0.3-1,0.7-1.3,1.3c-0.3,0.5-0.6,1.1-0.7,1.8
			c-0.2,0.7-0.2,1.4-0.2,2.1v8h-2.2v-8.8c0-0.7-0.1-1.4-0.2-2c-0.1-0.6-0.3-1.1-0.6-1.5c-0.3-0.4-0.6-0.7-1.1-1
			c-0.5-0.2-1.1-0.3-1.8-0.3c-0.5,0-1,0.1-1.6,0.4c-0.5,0.2-1,0.6-1.4,1.1c-0.4,0.5-0.8,1.1-1,1.8c-0.3,0.7-0.4,1.6-0.4,2.6v7.8H274
			V25.1c0-0.4,0-0.9,0-1.6c0-0.6-0.1-1.2-0.1-1.7h2.1c0,0.4,0.1,0.9,0.1,1.4c0,0.5,0,0.9,0,1.2h0.1
			C276.6,23.5,277.3,22.8,278.2,22.2"/>
		<path d="M322.8,28.9v0.5c0,0.2,0,0.4,0,0.5h-12.5c0,0.8,0.2,1.5,0.5,2.1c0.3,0.7,0.7,1.2,1.2,1.7c0.5,0.5,1.1,0.9,1.7,1.2
			c0.7,0.3,1.4,0.4,2.2,0.4c1.1,0,2.1-0.3,3-0.8c0.8-0.5,1.5-1.1,1.9-1.8l1.6,1.3c-0.9,1.1-1.9,2-3,2.5c-1.1,0.5-2.3,0.7-3.5,0.7
			c-1.1,0-2.2-0.2-3.1-0.6c-1-0.4-1.8-1-2.5-1.7c-0.7-0.7-1.2-1.6-1.6-2.5c-0.4-1-0.6-2-0.6-3.2c0-1.1,0.2-2.2,0.6-3.2
			c0.4-1,0.9-1.8,1.6-2.5c0.7-0.7,1.5-1.3,2.4-1.7c0.9-0.4,1.9-0.6,3-0.6c1.2,0,2.2,0.2,3.1,0.6c0.9,0.4,1.7,0.9,2.3,1.6
			c0.6,0.7,1.1,1.5,1.4,2.4C322.6,26.9,322.8,27.8,322.8,28.9 M320.6,28.2c-0.1-1.4-0.5-2.6-1.4-3.5c-0.9-0.9-2.1-1.4-3.6-1.4
			c-0.7,0-1.4,0.1-2,0.4c-0.6,0.3-1.2,0.6-1.6,1.1c-0.5,0.5-0.9,1-1.1,1.6c-0.3,0.6-0.4,1.2-0.5,1.9H320.6z M316.1,18.7h-1.9
			l3.2-4.7h2.9L316.1,18.7z"/>
		<path d="M340.8,23.6h-4.3v8.8c0,0.6,0.1,1,0.2,1.4c0.1,0.4,0.3,0.7,0.5,0.9c0.2,0.2,0.4,0.3,0.7,0.4c0.3,0.1,0.6,0.1,0.9,0.1
			c0.3,0,0.6,0,1-0.1c0.3-0.1,0.7-0.2,1-0.4l0.1,1.9c-0.4,0.2-0.8,0.3-1.2,0.3c-0.4,0.1-0.9,0.1-1.4,0.1c-0.4,0-0.8-0.1-1.3-0.2
			c-0.5-0.1-0.9-0.3-1.3-0.6c-0.4-0.3-0.7-0.7-1-1.2c-0.2-0.5-0.4-1.2-0.4-2v-9.4h-3.1v-1.8h3.1v-4.3h2.2v4.3h4.3V23.6z"/>
		<path d="M353.4,16c0,0.5-0.2,0.8-0.5,1.1s-0.7,0.4-1.1,0.4c-0.4,0-0.7-0.1-1.1-0.4s-0.5-0.7-0.5-1.1c0-0.5,0.2-0.8,0.5-1.1
			c0.3-0.3,0.7-0.4,1.1-0.4c0.4,0,0.7,0.1,1.1,0.4C353.2,15.1,353.4,15.5,353.4,16 M352.9,36.9h-2.2V21.8h2.2V36.9z"/>
		<path d="M376.1,25.2c-0.4-0.6-0.9-1.1-1.6-1.4c-0.7-0.4-1.5-0.6-2.3-0.6c-0.9,0-1.7,0.2-2.4,0.5c-0.7,0.3-1.3,0.7-1.8,1.3
			c-0.5,0.6-0.9,1.2-1.2,1.9c-0.3,0.7-0.4,1.5-0.4,2.4c0,0.9,0.1,1.7,0.4,2.4c0.3,0.7,0.7,1.4,1.1,1.9c0.5,0.5,1.1,1,1.8,1.3
			c0.7,0.3,1.5,0.5,2.4,0.5c1,0,1.8-0.2,2.5-0.6c0.7-0.4,1.2-0.8,1.6-1.4l1.6,1.2c-0.6,0.8-1.4,1.4-2.4,1.9
			c-0.9,0.5-2.1,0.7-3.4,0.7c-1.2,0-2.3-0.2-3.3-0.6c-1-0.4-1.8-1-2.5-1.7c-0.7-0.7-1.2-1.6-1.6-2.5c-0.4-1-0.6-2-0.6-3.2
			c0-1.1,0.2-2.2,0.6-3.2s0.9-1.8,1.6-2.5c0.7-0.7,1.5-1.3,2.5-1.7c1-0.4,2.1-0.6,3.3-0.6c1,0,2,0.2,3.1,0.7c1,0.4,1.9,1.1,2.5,2
			L376.1,25.2z"/>
		<path d="M397.4,27.1c0-1.3-0.3-2.3-1-2.9c-0.7-0.6-1.7-1-3-1c-0.9,0-1.7,0.2-2.5,0.5c-0.8,0.3-1.4,0.8-2,1.3l-1.2-1.5
			c0.6-0.6,1.4-1.1,2.5-1.6c1-0.4,2.2-0.6,3.5-0.6c0.8,0,1.6,0.1,2.3,0.3c0.7,0.2,1.3,0.6,1.9,1c0.5,0.5,1,1,1.3,1.7
			c0.3,0.7,0.5,1.5,0.5,2.4v6.6c0,0.6,0,1.2,0.1,1.8c0,0.6,0.1,1.2,0.2,1.6h-2c-0.1-0.4-0.1-0.8-0.2-1.2c0-0.4-0.1-0.9-0.1-1.3h-0.1
			c-0.7,1-1.5,1.7-2.3,2.2c-0.9,0.4-1.9,0.7-3.2,0.7c-0.6,0-1.2-0.1-1.8-0.2c-0.6-0.2-1.2-0.4-1.7-0.8c-0.5-0.4-0.9-0.8-1.3-1.4
			c-0.3-0.6-0.5-1.3-0.5-2.1c0-1.2,0.3-2.1,0.9-2.8c0.6-0.7,1.4-1.2,2.4-1.5c1-0.3,2.1-0.6,3.4-0.7c1.3-0.1,2.6-0.1,4-0.1V27.1z
			 M396.8,29.3c-0.9,0-1.8,0-2.7,0.1c-0.9,0.1-1.7,0.2-2.5,0.5c-0.7,0.2-1.4,0.6-1.8,1c-0.5,0.4-0.7,1-0.7,1.7c0,0.5,0.1,1,0.3,1.4
			c0.2,0.4,0.5,0.7,0.8,0.9c0.3,0.2,0.7,0.4,1.1,0.5c0.4,0.1,0.8,0.1,1.3,0.1c0.8,0,1.5-0.1,2.1-0.4c0.6-0.3,1.1-0.6,1.5-1.1
			c0.4-0.5,0.7-1,0.9-1.6c0.2-0.6,0.3-1.2,0.3-1.9v-1.1H396.8z"/>
		<path d="M19.7,28c-0.1,0.5-0.3,0.9-0.6,1.4c-2.1,3.7-4.9,6.9-8.3,10c-1.2,1.1-2.5,2.4-3.4,3.7c-0.6,0.9-0.6,2.1-0.6,3.2
			c0,1.6,1.4,3.9,3.2,4.9c0.7-0.6,2.3-1.6,3.1-2.3c3.1-2.7,6.5-4.9,8-6.5c0,0-0.4,2.7-1.4,4.4c-1.5,2.5-3.7,4-6.5,6
			c-1.6,1.1-3.2,1-5.4,0.4c-3.2-0.9-6.2-3.4-7.3-6.2c-0.1-0.4-0.2-0.8-0.4-1.4c-0.2-2-0.5-3.5,0.6-7.1c0.8-2.9,2.3-5.8,3.5-8.7
			c0.5-1.1,1.1-2.1,1.8-3.2C6.4,26,7,25.5,7.4,25c0.9-1,2.2-1.3,3.8-1c0.8,0.1,1.6,0.1,2.5,0.3c0.5,0.1,1,0.2,1.4,0.4
			c1,0.6,2.1,1.1,3.4,1.5C19.5,26.5,20,27.2,19.7,28 M15.3,27.3c-1.9-0.6-2-0.6-2.9,0.4c-2.1,2.2-3.3,4.7-3.9,7.4
			c0,0.1,0.2,0.4,0.4,0.6C12.2,32.3,14.4,29.3,15.3,27.3"/>
		<path d="M46.8,42.5c-1.6,4.6-2.3,5.6-3.4,7.5c-1.5,1.9-3.6,1.9-5.7,1.2c-1.9-0.6-2.9-1.9-3.2-3.9c-0.1-1-0.1-2-0.6-3
			c-0.3,0.5-0.6,1-0.8,1.6c-0.6,1.4-1.2,2.8-1.6,4.2c-1.1,4-7.4,5.7-11,2.4c-1.1-1.1-1.6-2.4-1.5-3.9c0.1-2.4,0.3-4.9,0.4-7.3
			c0.1-0.5,0.1-1.1,0.1-1.7l1.8-5.8c0.8-2.6,1.6-5.4,2.4-8c0.8-2.6,0.8-2.6,3.4-2.7c2.4-0.1,3.1,0,5.1,1.1l-0.6,1.2
			c-0.2,0.4-0.6,0.9-0.6,1.3c-0.6,4.3-2,8.4-3,12.7c-0.4,1.7-0.6,3.4-0.9,5.1c-0.1,0.6-0.1,1.3-0.4,1.9c-0.5,1.4-0.5,2.9,0.1,4.4
			c1-0.6,1.4-1.6,1.8-2.6c1.7-3.9,3.3-7.8,5-11.7c0.9-1.9,1.9-3.7,2-5.8c0.1-0.8,0.7-1.6,1.1-2.4c1.8,0.2,3.6-0.6,5.6,0.4l-0.9,2.4
			c-0.4,1.1-0.9,2.1-0.9,3.2c-0.1,3-0.2,6-0.2,9c0.1,1.4,0.4,2.9,0.6,4.4l-0.1,0.5c0.1-0.1,0.3-0.1,0.4-0.3
			C42.1,46.9,45.2,43.9,46.8,42.5"/>
		<path d="M88.5,42.5c-1.6,4.6-2.3,5.6-3.4,7.5c-1.5,1.9-3.6,1.9-5.7,1.2c-1.9-0.6-2.9-1.9-3.2-3.9c-0.1-1-0.1-2-0.6-3
			c-0.3,0.5-0.6,1-0.8,1.6c-0.6,1.4-1.2,2.8-1.6,4.2c-1.1,4-7.4,5.7-11,2.4c-1.1-1.1-1.6-2.4-1.5-3.9c0.1-2.4,0.3-4.9,0.4-7.3
			c0.1-0.5,0.1-1.1,0.1-1.7l1.8-5.8c0.8-2.6,1.6-5.4,2.4-8c0.8-2.6,0.8-2.6,3.4-2.7c2.4-0.1,3.1,0,5.1,1.1l-0.6,1.2
			c-0.2,0.4-0.6,0.9-0.6,1.3c-0.6,4.3-2,8.4-3,12.7c-0.4,1.7-0.6,3.4-0.9,5.1c-0.1,0.6-0.1,1.3-0.4,1.9c-0.5,1.4-0.5,2.9,0.1,4.4
			c1-0.6,1.4-1.6,1.8-2.6c1.7-3.9,3.3-7.8,5-11.7c0.9-1.9,1.9-3.7,2-5.8c0.1-0.8,0.7-1.6,1.1-2.4c1.8,0.2,3.6-0.6,5.6,0.4L83,31.2
			c-0.4,1.1-0.9,2.1-0.9,3.2c-0.1,3-0.2,6-0.2,9c0.1,1.4,0.4,2.9,0.6,4.4l-0.1,0.5c0.1-0.1,0.3-0.1,0.4-0.3
			C83.9,46.9,86.9,43.9,88.5,42.5"/>
		<path d="M110.4,42.5c0,4.9-3.9,7.6-6.7,8.3c-1.4,3.5-3.1,5.9-7.6,6.7c-5.5,0.9-7.7-0.4-8-4.6c-0.2-2.4,0.9-4.8,2.9-5.7
			c1.9-0.9,3.7,0.1,6.2-0.2c0.3-1.6,0.1-3.3,0-4.9c0-2.8-0.9-5.6-2.1-8c-0.3-0.4-0.6-0.9-0.9-1.3c-0.4,1.3-1.2,3.2-2.4,5.2
			c-1.4,2.4-2.7,5.2-5.4,8c0.4-0.9,0.6-2.3,1.2-4.6c0.9-2.7,2.2-6.4,4.2-11.4c0-0.1,0-0.1-0.1-0.1c1.4-0.9,2.9-0.6,4.3,0
			c3.6,1.6,6.4,4,7.5,8c0.6,2,1.1,5.1,0.5,9.2C106.2,46.9,107.6,45.2,110.4,42.5 M97.3,49.8c-1.4-0.3-3.6-0.4-4.7-0.6
			c-0.9-0.1-1.4,0.2-1.9,1.1c-1.4,2.6-0.2,5.2,1.4,5.4C94.5,56,97.2,53.9,97.3,49.8"/>
		<path d="M123,45.1c1.3,0.1,2.3-1.6,4.9-2.6c-0.2,1-0.5,2.4-2.1,3.6c-1.5,1.3-2.2,1.8-3.9,1.2c-0.1,0-0.1,0-0.2-0.1
			c-0.3,1.1-0.6,2.1-1,3.1c-0.7,1.9-1.8,3.9-4.4,3.9c-2.1,0.1-4.2-0.6-6.1-2c-1.2-0.9-1.9-2.2-1.9-3.7v-6.8c0-0.4-0.1-0.9-0.1-1.3
			l0.4-4.6c0.7-4.4,2.1-8.5,3.9-12.5l0.6-1.1c0.6-1.4,1.7-1.7,3.3-1.4c1.7,0.4,3.5,0.9,5.3,1.2c0,0.1,0.1,0.3,0.1,0.4
			c-1.1,0.8-2.4,1.4-3.4,2.3c-0.9,0.9-1.6,2.1-1.4,3.6c2.2,0.4,4.4,0.8,6.7,1.1l1.4,5.8c-0.1,1.9-1.2,2.8-1.9,5.9l-0.8,3.4
			C122.6,44.9,122.8,45.1,123,45.1 M119.3,43.7l-0.2-0.9c-0.5-1.6-0.7-5.1-0.2-8.4c-1.1-1.4-1.8-2.8-1.8-4.7c-0.2,0-0.4,0-0.6-0.1
			c-0.1,0.3-0.4,0.5-0.5,0.8c-1.7,5.1-2.5,10.5-2.7,16.1c-0.1,1.4,0.1,2.8,0.4,4.2c0.1,0.5,0.6,1.2,1,1.4c0.4,0.1,1-0.2,1.4-0.5
			c0.4-0.3,0.6-0.7,0.8-1.1C117.8,48.3,118.6,46,119.3,43.7"/>
	</g>
</g>
</svg>
