<svg xmlns="http://www.w3.org/2000/svg" viewBox="0 0 70 65.55"><defs><style>.a{fill:#fff;}</style></defs><title>anvisa</title><path class="a" d="M44,20.17Q44,12,44,3.75c0-.51,0-1,0-1.52H46.4a1.68,1.68,0,0,1,.3,1.32c0,4.87,0,9.74,0,14.61,0,.88.22,1.11,1.1,1.1,5.74,0,11.47,0,17.2-.05,1.41,0,1.08.78,1.15,1.55C66.23,21.69,66,22,65,22c-6.4,0-12.8,0-19.2,0Z" transform="translate(0 -2.23)"/><path class="a" d="M25.89,2.23a1.7,1.7,0,0,1,.26,1.21V13.52l-2.69-.18c0-3.7-.12-7.41.07-11.11Z" transform="translate(0 -2.23)"/><path class="a" d="M44,47.5a45.61,45.61,0,0,1-10.19-2.31,28.27,28.27,0,0,1-7.63-4.34L24.38,39a13.18,13.18,0,0,1-2.91-8.15c.5-.13.64.29.88.5a57.7,57.7,0,0,0,20.82,12.1c.26.08.54.12.81.18a10.63,10.63,0,0,0,2.7.75,26.79,26.79,0,0,0,10.12.72,15.14,15.14,0,0,0,8-3.23,4.62,4.62,0,0,0,1.33-1.16,19.21,19.21,0,0,0,3.68-5,1.83,1.83,0,0,1-.16,1.68,13.34,13.34,0,0,1-6.48,6.86c-4.64,2.51-9.68,3.27-14.87,3.41l-1.64,0A11.56,11.56,0,0,0,44,47.5Z" transform="translate(0 -2.23)"/><path class="a" d="M23.46,13.34l2.69.18a37.2,37.2,0,0,1,14.33,4.24c1.23.71,2.33,1.59,3.48,2.41L45.75,22a13,13,0,0,1,2.92,8.17c-.53.05-.72-.4-1-.66A57.52,57.52,0,0,0,27,17.59a7.16,7.16,0,0,0-.8-.19,11.21,11.21,0,0,0-2.72-.75,26.67,26.67,0,0,0-12.65-.29A1.45,1.45,0,0,0,8.92,17l-.24.07c-.72-.29-1.12.09-1.41.68-.61.62-1.68.56-2.13,1.41-.41.38-1,.6-1.17,1.17L2.67,21.6c-.47,0-.62-.31-.59-.73a5.51,5.51,0,0,1,1.56-1.7c.35,0,.55-.11.55-.48l.24-.2c.24,0,.42-.09.45-.36A6.83,6.83,0,0,1,7,16.83c.52,0,1,0,1.23-.65a28.41,28.41,0,0,1,10.31-2.61C20.16,13.42,21.81,13.41,23.46,13.34Z" transform="translate(0 -2.23)"/><path class="a" d="M24.38,39l1.81,1.88q0,8.3-.05,16.6c0,.4.27,1-.23,1.16a4,4,0,0,1-2.31,0c-.35-.12-.16-.64-.17-1,0-4.87,0-9.74,0-14.6,0-1-.25-1.24-1.23-1.23-5.69.05-11.38,0-17.08.05-1.41,0-1-.79-1.13-1.56S4.14,39,5.18,39C11.58,39,18,39,24.38,39Z" transform="translate(0 -2.23)"/><path class="a" d="M23.45,16.65a11.21,11.21,0,0,1,2.72.75c0,1.29,0,2.58,0,3.88,0,.55-.17.74-.74.74-6.89,0-13.79,0-20.68,0-1.37,0-.43-1.15-.78-1.66.21-.57.76-.79,1.17-1.17.43,0,.86.07,1.29.07H20.78C23.38,19.24,23.38,19.24,23.45,16.65Z" transform="translate(0 -2.23)"/><path class="a" d="M66.17,40.68a4.62,4.62,0,0,1-1.33,1.16l-15.49-.06c-2.62,0-2.62,0-2.67,2.57A10.63,10.63,0,0,1,44,43.6c0-1.26,0-2.51,0-3.76,0-.55.06-.86.74-.85q10.34,0,20.67,0c.58,0,.77.22.73.76A7.23,7.23,0,0,0,66.17,40.68Z" transform="translate(0 -2.23)"/><path class="a" d="M44,47.5a11.56,11.56,0,0,1,2.69.17c0,3.3-.07,6.6,0,9.9,0,1.31-.7,1.06-1.47,1.11S43.94,58.6,44,57.52C44.05,54.18,44,50.84,44,47.5Z" transform="translate(0 -2.23)"/><path class="a" d="M25.36,65.25c0-1.39,0-2.46,0-3.54,0-.52.1-.77.71-.77s.71.28.7.79c0,1.61,0,3.22,0,4.82,0,.34.24.88-.33,1a1.31,1.31,0,0,1-1.47-.41c-.92-1.27-1.9-2.49-3.06-4v3.55c0,.48.08.92-.67.92s-.74-.35-.73-.87c0-1.57,0-3.14,0-4.7,0-.35-.25-.89.29-1a1.32,1.32,0,0,1,1.57.43c.74,1.06,1.55,2.07,2.34,3.09C24.83,64.7,25,64.85,25.36,65.25Z" transform="translate(0 -2.23)"/><path class="a" d="M39.08,31.23a4,4,0,0,1-3.16,3.32A4.08,4.08,0,0,1,32,27.85l.21.42c1.47,3.08,2.94,3.77,6.3,3A2.89,2.89,0,0,1,39.08,31.23Z" transform="translate(0 -2.23)"/><path class="a" d="M10.3,67.45c.78-2,1.55-4,2.3-6,.21-.59.66-.43,1.06-.46a.82.82,0,0,1,1,.6c.71,1.95,1.48,3.88,2.27,5.89-.94.19-1.67.31-2-.86-.2-.67-2.52-.65-2.7,0C11.89,67.67,11.25,67.69,10.3,67.45Zm3.23-5-.62,1.86c0,.08-.05.15-.08.22-.2.4-.05.53.36.59,1.07.14,1.27-.06.92-1.05C13.94,63.56,13.75,63.06,13.53,62.45Z" transform="translate(0 -2.23)"/><path class="a" d="M59.85,67.46c-1,.19-1.7.25-2-.87-.19-.66-2.54-.65-2.71,0-.29,1.07-.93,1.1-1.88.85.77-2,1.55-4,2.29-6,.22-.59.66-.43,1.06-.47a.81.81,0,0,1,1,.59C58.29,63.5,59.06,65.43,59.85,67.46Zm-3.39-5.07c-.27.85-.44,1.49-.68,2.1s0,.59.45.63c.87.07,1.3-.1.82-1.07A16.45,16.45,0,0,1,56.46,62.39Z" transform="translate(0 -2.23)"/><path class="a" d="M36.52,61.05C35.76,63.1,35,65,34.33,67a.78.78,0,0,1-.87.58c-.48,0-.8-.08-1-.6-.6-1.7-1.26-3.38-1.85-5.08-.09-.26-.66-.76.08-.89.46-.08,1.11-.32,1.35.5.38,1.36.83,2.7,1.33,4.31.44-1.36.83-2.51,1.2-3.66S35,60.9,36.52,61.05Z" transform="translate(0 -2.23)"/><path class="a" d="M47.73,67.77A2.88,2.88,0,0,1,46,67.28c-.28-.22-.59-.46-.21-.85s.45-.71.89-.18a1.12,1.12,0,0,0,1.08.33.83.83,0,0,0,.78-.61.72.72,0,0,0-.44-.86c-.51-.28-1-.53-1.54-.84a1.72,1.72,0,0,1-.89-1.89,1.77,1.77,0,0,1,1.51-1.44,2.37,2.37,0,0,1,2.32.46c.21.2.24.39,0,.58s-.37.56-.77.3a1.72,1.72,0,0,0-.52-.27.83.83,0,0,0-1.08.45c-.18.43.08.75.47.94s.71.33,1.06.51a2,2,0,0,1,1.26,2.36A2.1,2.1,0,0,1,47.73,67.77Z" transform="translate(0 -2.23)"/><path class="a" d="M39.08,31.23a2.89,2.89,0,0,0-.59,0c-3.36.79-4.83.1-6.3-3L32,27.85a3,3,0,0,1,1.93-1.28v.35c0,2.65,1.9,3.79,4.25,2.54l.73-.37A3.1,3.1,0,0,1,39.08,31.23Z" transform="translate(0 -2.23)"/><path class="a" d="M38.89,29.09l-.73.37c-2.35,1.25-4.27.11-4.25-2.54v-.35C36.37,26.06,38.12,27,38.89,29.09Z" transform="translate(0 -2.23)"/><path class="a" d="M41.61,64.39c0,.78,0,1.57,0,2.35,0,.57-.11.85-.77.85s-.76-.31-.76-.87c0-1.64,0-3.29,0-4.94,0-.57.12-.85.77-.85s.77.32.76.87C41.59,62.66,41.61,63.52,41.61,64.39Z" transform="translate(0 -2.23)"/><path class="a" d="M2.08,20.87c0,.42.12.7.59.73A47.76,47.76,0,0,0,0,25.78,8.85,8.85,0,0,1,2.08,20.87Z" transform="translate(0 -2.23)"/><path class="a" d="M8.21,16.18c-.19.65-.71.65-1.23.65A2.67,2.67,0,0,1,8.21,16.18Z" transform="translate(0 -2.23)"/><path class="a" d="M4.19,18.69c0,.37-.2.51-.55.48A1,1,0,0,1,4.19,18.69Z" transform="translate(0 -2.23)"/><path class="a" d="M4.88,18.13c0,.27-.21.35-.45.36Z" transform="translate(0 -2.23)"/><path class="a" d="M10.8,16.36,8.92,17A1.45,1.45,0,0,1,10.8,16.36Z" transform="translate(0 -2.23)"/><path class="a" d="M8.68,17.08l-1.41.68C7.56,17.17,8,16.79,8.68,17.08Z" transform="translate(0 -2.23)"/><path class="a" d="M13.53,62.45c.22.61.41,1.11.58,1.62.35,1,.15,1.19-.92,1.05-.41-.06-.56-.19-.36-.59,0-.07.05-.14.08-.22Z" transform="translate(0 -2.23)"/><path class="a" d="M56.46,62.39a16.45,16.45,0,0,0,.59,1.66c.48,1,.05,1.14-.82,1.07-.46,0-.64-.13-.45-.63S56.19,63.24,56.46,62.39Z" transform="translate(0 -2.23)"/></svg>