<?xml version="1.0" encoding="utf-8"?>
<!-- Generator: Adobe Illustrator 22.0.0, SVG Export Plug-In . SVG Version: 6.00 Build 0)  -->
<svg version="1.1" id="Camada_1" xmlns="http://www.w3.org/2000/svg" xmlns:xlink="http://www.w3.org/1999/xlink" x="0px" y="0px"
	 viewBox="0 0 70 65.6" style="enable-background:new 0 0 70 65.6;" xml:space="preserve">
<style type="text/css">
	.st0{fill:#FFFFFF;}
</style>
<title>anvisa</title>
<g>
	<path class="st0" d="M25.9,62.1c-0.2-0.9,0.1-1.9,0.7-2.5c0.8-0.7,1.7-0.9,3.5-0.6c0.9,0.1,1.7,0.2,1.8,0.2c0.1,0,0.3-0.8,0.5-1.7
		l0.3-1.6l-0.6-0.2c-0.6-0.2-0.8-0.7-0.4-0.9c0.3-0.1,3,0.4,3.2,0.6c0,0.1,0.1,0.3,0,0.4c-0.1,0.3-0.7,0.5-0.9,0.2
		c-0.1-0.1-0.2-0.1-0.3,0c-0.2,0.2-1.7,7.2-1.7,7.6c0,0.2,0.2,0.5,0.5,0.6c0.6,0.3,0.7,0.7,0.2,0.8c-0.2,0.1-1.4-0.1-2.6-0.4
		C27.1,64.1,26.4,63.6,25.9,62.1 M29.5,63.5l1.5,0.3l0.4-1.5c0.2-0.8,0.3-1.7,0.3-1.8c0-0.2-0.4-0.3-1.7-0.5
		c-1.6-0.3-1.7-0.3-2.4,0.2c-0.8,0.5-1,1-0.8,1.9c0.1,0.8,0.8,1.2,2.3,1.5C29.2,63.5,29.4,63.5,29.5,63.5"/>
	<path class="st0" d="M27.3,54.2c-0.1,0.3-0.2,0.3-0.6,0.1c-0.2-0.1-0.5-0.2-0.6-0.1c-0.3,0.2-1.8,2.9-1.8,3.4c0,0.2,0,0.4,0.1,0.4
		c0.3,0,0.6,0.6,0.5,0.9c-0.1,0.2-0.2,0.3-0.3,0.2c-1.1-0.4-1.4-0.6-1.6-1c-0.2-0.5-0.3-0.6-0.9-0.5c-0.3,0-0.7-0.1-1.2-0.4
		c-0.9-0.6-1.3-1.5-0.9-2.1c0.4-0.6,0.8-0.3,0.8,0.4c0,0.4,0.2,0.7,0.5,0.9c0.9,0.7,1.5,0.4,2.8-1.3c0.5-0.6,0.9-1.3,0.9-1.4
		c0-0.1-0.2-0.3-0.4-0.5c-0.5-0.2-0.5-0.7-0.1-0.8c0.3-0.1,2.8,1.1,2.9,1.3C27.5,53.8,27.4,54,27.3,54.2"/>
	<path class="st0" d="M15.6,53c-0.7-1.6,0.8-4,2.7-4.3c1-0.1,1.7,0.2,2.4,1c1,1.2,0.9,2.3-0.3,3.7c-0.9,1-1.5,1.3-2.6,1.2
		c-0.5-0.1-1-0.3-1.5-0.7C16.1,53.7,15.8,53.3,15.6,53 M18.2,53.8c1.1-0.2,1.8-0.9,2.1-1.9c0.2-0.7,0.1-1.4-0.5-1.8
		c-0.2-0.2-0.7-0.4-0.9-0.4c-1-0.1-2.3,1-2.5,2.2c-0.1,0.7,0,1,0.7,1.6c0.1,0,0.1,0.1,0.1,0.1C17.6,53.8,17.8,53.8,18.2,53.8"/>
	<path class="st0" d="M7.2,49.4c0-0.2,0.6-0.7,3.5-2.8c1.9-1.4,3.5-2.7,3.6-2.8c0-0.1,0-0.3-0.1-0.5c-0.3-0.4,0-0.8,0.4-0.8
		c0.4,0,1.1,1.2,1.1,1.7c0,0.2,0.1,0.3,0.3,0.4c0.6,0.3,1.2,1.1,1.4,1.8c0.1,0.4,0.1,1,0,1.3c-0.3,1.1-1.6,2.3-2.8,2.5
		c-1.3,0.2-3-0.8-3.2-1.9c0-0.3-0.1-0.5-0.2-0.6c-0.2-0.1-1.9,1-2.4,1.5c-0.3,0.4-0.3,0.5-0.1,0.8c0.3,0.4,0.2,0.9-0.2,0.8
		c-0.2,0-0.7-0.5-1-1C7.3,49.7,7.2,49.5,7.2,49.4 M13.7,49.3c1.8,0.3,3.3-1.8,2.3-3.2c-0.3-0.3-0.5-0.5-1.1-0.6
		c-0.7-0.1-0.8-0.1-1.7,0.5c-0.8,0.6-0.9,0.7-1,1.3c-0.1,0.5,0,0.9,0.3,1.3C12.9,48.9,13.3,49.2,13.7,49.3"/>
	<path class="st0" d="M13.1,39.4c0.2,0.2,0.5,0.7,0.7,1.2c0.3,0.8,0.3,0.9,0,1.6c-0.3,0.6-0.4,0.7-1.3,1.1c-1,0.4-2.3,1-2.6,1.2
		c-0.1,0.1-0.1,0.3,0,0.6c0.2,0.5,0.2,0.5-0.1,0.6c-0.3,0.1-0.4,0-0.7-0.5c-0.2-0.3-0.4-0.7-0.4-1c0-0.4,0.1-0.4,1.2-0.9
		c0.6-0.3,1.4-0.6,1.6-0.7c0.8-0.3,1.5-0.9,1.5-1.4c0-0.6-0.6-1.4-1.2-1.5c-0.2,0-1,0.1-1.8,0.3c-1.6,0.4-1.8,0.6-1.6,1.4
		c0.1,0.5-0.1,0.7-0.5,0.5c-0.3-0.1-0.4-0.3-0.5-0.9c-0.1-0.4-0.2-0.8-0.2-0.8c0,0,1-0.5,2.2-1.1c1.2-0.6,2.2-1.1,2.3-1.2
		c0-0.1,0-0.3,0-0.6c-0.1-0.4,0.3-0.8,0.6-0.6c0.4,0.3,0.7,1.3,0.6,1.7C12.8,39,12.8,39.1,13.1,39.4"/>
	<path class="st0" d="M9.4,37.2l-1.8,0.5l-0.1,0.6c0,0.3-0.2,0.6-0.3,0.7c-0.3,0.1-0.3,0-0.6-0.7l-0.2-0.4l-1.8,0.3
		c-1.6,0.3-1.8,0.3-1.9,0c-0.2-0.5,0.1-0.6,1.9-1l1.6-0.3l0-0.6c0-0.3,0.1-0.6,0.2-0.7c0.2-0.1,0.8,0.3,0.9,0.8
		c0,0.3,0.2,0.2,1.8-0.1c2.3-0.5,2.9-1,1.8-1.9c-0.5-0.4-0.5-0.6-0.3-0.9c0.6-0.7,1.9,1.1,1.6,2.2C12,36.4,11.4,36.7,9.4,37.2"/>
	<path class="st0" d="M6,29.6c0.8-1.6,3.6-1.9,5-0.7c0.7,0.7,1,1.4,0.8,2.5c-0.3,1.5-1.2,2.2-3,2.1c-1.4,0-2-0.3-2.6-1.2
		c-0.3-0.4-0.4-1-0.4-1.6C5.7,30.4,5.8,30,6,29.6 M7,32.1c0.8,0.7,1.8,0.8,2.8,0.4c0.7-0.3,1.1-0.8,1.1-1.6c0-0.3-0.1-0.8-0.3-1
		c-0.6-0.8-2.3-1.1-3.3-0.5c-0.6,0.4-0.7,0.6-0.8,1.6c0,0.1,0,0.1,0,0.2C6.7,31.7,6.7,31.9,7,32.1"/>
	<path class="st0" d="M7.6,14.3c0.7,0.1,1.5,0.2,1.8,0.2c0.3,0,1.4,0.1,2.5,0.3c1.1,0.1,2.2,0.2,2.6,0.2c0.3,0,0.6,0.1,0.7,0.1
		c0.2,0.1,1.2-0.3,1.4-0.6c0.1-0.2,0.2-0.2,0.5-0.1c0.3,0.2,0.3,0.3-0.3,1.5c-0.5,1.1-0.7,1.3-0.9,1.3c-0.2,0-0.3-0.2-0.3-0.5
		c0-0.6-0.2-0.7-1.1-0.7l-0.6,0l-1.1,2c-0.6,1.1-1.1,2.1-1.2,2.3c-0.1,0.1,0,0.4,0.2,0.6c0.2,0.2,0.4,0.5,0.5,0.6
		c0.1,0.2,0.3,0.2,0.6-0.1c0.4-0.3,0.8-0.2,0.7,0.2c-0.1,0.4-1.1,2.3-1.3,2.3c-0.4,0.1-0.7-0.3-0.5-0.7c0.2-0.6,0.1-0.7-0.7-1.7
		c-0.6-0.7-1.9-2.4-3.3-4.3c-0.3-0.4-0.8-1-1.1-1.4c-0.6-0.7-0.8-1.1-0.6-1.3C6.2,14.3,6.7,14.2,7.6,14.3 M8.1,16.1
		c0.2,0.2,0.7,0.8,1,1.3c1,1.3,1.5,1.9,1.7,1.8c0.1-0.1,0.5-0.8,1-1.6c0.6-1.1,0.8-1.6,0.7-1.7c-0.1-0.1-0.8-0.2-1.5-0.3
		c-2.1-0.3-3-0.3-3.1,0C7.7,15.7,7.8,15.9,8.1,16.1"/>
	<path class="st0" d="M17,14.7c-0.2-0.2-0.2-0.3,0.1-0.6c0.2-0.2,0.3-0.4,0.3-0.5c-0.1-0.3-2.2-2.7-2.6-2.9c-0.2-0.1-0.4-0.1-0.4,0
		c-0.1,0.3-0.8,0.4-1,0.1c-0.1-0.1-0.2-0.3-0.1-0.3c0.7-0.9,1.1-1.1,1.5-1.1c0.5,0,0.7-0.1,0.8-0.7c0.1-0.3,0.3-0.6,0.8-1
		c0.9-0.6,1.9-0.7,2.3-0.1c0.4,0.5,0,0.9-0.7,0.6c-0.4-0.1-0.7-0.1-1,0.1c-1,0.6-0.9,1.3,0.2,3c0.4,0.7,0.9,1.2,1,1.3
		c0.1,0.1,0.4,0,0.6-0.2c0.4-0.4,0.9-0.3,0.8,0.2c0,0.3-2,2.3-2.2,2.3C17.4,15,17.2,14.9,17,14.7"/>
	<path class="st0" d="M21.2,7.8l-1-1.6l-0.6,0.1c-0.3,0.1-0.7,0-0.8-0.1c-0.2-0.2-0.1-0.3,0.5-0.8l0.3-0.3l-0.9-1.6
		c-0.8-1.4-0.9-1.6-0.7-1.8c0.4-0.3,0.6-0.1,1.5,1.5l0.9,1.4L21,4.4c0.3-0.1,0.6-0.1,0.7,0c0.2,0.2-0.1,0.9-0.4,1.1
		c-0.2,0.1-0.2,0.3,0.6,1.7c1.2,2,1.9,2.4,2.4,1.1c0.2-0.6,0.4-0.7,0.8-0.5C26,8,24.7,9.8,23.6,9.9C22.9,9.9,22.4,9.5,21.2,7.8"/>
	<path class="st0" d="M28,2c0.8,0.3,1.3,0.8,1.6,1.6c0.2,0.5,0.2,0.7-0.1,0.7c-0.3,0.1-2.2,0.9-3.1,1.2c-0.5,0.2-0.6,0.3-0.4,0.6
		c0.3,0.9,1.6,1.3,2.5,0.7c0.2-0.2,0.6-0.6,0.9-1c0.7-1.2,1.4-0.9,0.8,0.5c-0.4,0.9-0.5,1.1-1.5,1.5c-0.7,0.3-1,0.4-1.5,0.3
		c-0.4-0.1-0.9-0.3-1.4-0.7c-1.3-1.2-1.6-3.4-0.5-4.5c0.3-0.3,0.8-0.6,1.2-0.8C27,1.9,27.6,1.8,28,2 M26.3,3.1
		c-0.7,0.4-1,1.5-0.5,1.5c0.4,0,2.4-0.7,2.5-0.9c0.3-0.6-0.8-1-1.7-0.7C26.5,3,26.4,3,26.3,3.1"/>
	<path class="st0" d="M30.6,5.5c0-0.7,0.4-0.8,0.8-0.1C31.8,6,32.3,6.1,33,5.8c1.5-0.6,1-1.9-0.6-1.7c-1.3,0.2-2.6-1.3-2.1-2.3
		c0.5-0.9,0.9-1.1,3-1.3l0.8-0.1l0.2,0.8c0.2,1-0.1,1.2-0.8,0.7c-0.3-0.2-0.7-0.3-1.2-0.3c-0.7,0-0.8,0.1-0.9,0.5
		c-0.2,0.4-0.2,0.5,0.1,0.8c0.2,0.2,0.7,0.3,1.1,0.3c1.5,0,2.2,0.4,2.3,1.4c0.1,1-0.6,1.8-1.9,2.1c-0.4,0.1-1,0.1-1.2,0.1
		C31.2,6.7,30.6,6,30.6,5.5"/>
	<path class="st0" d="M39,0.7c1.1,0.5,1.2,0.9,1.1,3l-0.1,1.8L40.4,6c0.3,0.3,0.4,0.5,0.4,0.6c-0.2,0.2-1.3,0.2-1.5-0.1
		c-0.1-0.1-0.4-0.1-0.8,0c-0.8,0.3-1.9,0.2-2.5-0.3c-1-0.7-1.1-2-0.3-2.6C36.3,3.2,36.8,3.1,38,3l1.1,0l0-0.5
		c0.1-0.8-0.4-1.1-1.2-1.1c-0.7,0.1-1,0.2-1.5,0.9c-0.3,0.4-0.9,0.1-0.7-0.5c0.1-0.6,0.8-1.1,1.8-1.3c0.4-0.1,0.6-0.1,0.8-0.1
		C38.5,0.5,38.7,0.6,39,0.7 M36,4.8C36,5.5,37.4,6,38.4,5.6C39,5.3,39.2,4.9,39,4.4C38.9,4.1,38.5,4,38,4C37.2,3.9,36,4.3,36,4.8"/>
	<path class="st0" d="M41.5,6.1c0.6,0.1,0.5,0.2,1.4-2.3c0.5-1.5,0.5-1.4,0-1.8c-0.3-0.2-0.5-0.4-0.5-0.5c-0.1-0.3,0.5-0.5,1.1-0.3
		c0.5,0.1,0.7,0.2,0.9,0.7l0.3,0.6l0.7-0.1c1-0.2,2.2,0.4,2.7,1.2c0.3,0.7,0.3,1.1-0.3,3.1l-0.4,1.5l0.5,0.3
		c0.4,0.2,0.5,0.3,0.4,0.6c-0.1,0.3-0.3,0.3-1.4,0c-0.9-0.2-1.3-0.4-1.6-0.6c-0.4-0.4-0.2-0.8,0.4-0.7c0.5,0.1,0.5,0.1,1-1.1
		c0.8-2.1,0.7-2.9-0.5-3.3c-1-0.4-2.3,0.7-2.9,2.5C43,6.6,43,6.6,43.5,6.8c0.6,0.3,0.6,0.6,0.2,0.8C43.4,7.8,43,7.7,42,7.3
		c-0.9-0.3-1.3-0.6-1.3-0.7C40.7,6.2,41,6,41.5,6.1"/>
	<path class="st0" d="M53.8,6.3c0.7,1,0.6,1.4-0.6,3.1l-1,1.5l0.2,0.6c0.1,0.4,0.1,0.7,0,0.7c-0.3,0.1-1.2-0.5-1.3-0.8
		c0-0.2-0.2-0.3-0.7-0.4c-0.9-0.2-1.7-0.8-2-1.5c-0.5-1.1,0-2.3,1.1-2.4c0.8-0.1,1.3,0,2.3,0.6l1,0.6L53,7.9
		c0.4-0.6,0.3-1.2-0.5-1.5c-0.6-0.3-1-0.3-1.7,0c-0.5,0.2-0.8-0.4-0.4-0.8c0.4-0.4,1.2-0.5,2.1-0.2c0.4,0.1,0.6,0.2,0.7,0.3
		C53.5,5.9,53.6,6.1,53.8,6.3 M49.2,8.4c-0.4,0.6,0.7,1.7,1.7,1.9c0.6,0.1,1-0.2,1.1-0.7c0-0.3-0.2-0.6-0.6-0.9
		C50.6,8.2,49.5,7.9,49.2,8.4"/>
	<path class="st0" d="M52.4,12.2c0.2-0.2,0.4-0.2,0.4-0.1c0.3,0.3,0.7,0.5,0.8,0.5c0.2,0,5.3-5.1,5.5-5.4c0.1-0.2,0.1-0.5-0.1-0.7
		c-0.2-0.3-0.2-0.4-0.1-0.7c0.1-0.2,0.3-0.2,0.4-0.1c0.1,0.1,0.4,0.3,0.7,0.6c0.4,0.3,0.5,0.5,0.5,0.7c0,0.2-0.9,1.1-3,3.2
		c-1.6,1.6-3,3.1-3.1,3.2c-0.1,0.2,0,0.3,0.2,0.4c0.1,0.1,0.3,0.3,0.3,0.5c0,0.8-0.4,0.7-1.6-0.4c-0.5-0.5-1-1-1-1.1
		C52.1,12.5,52.2,12.3,52.4,12.2"/>
	<path class="st0" d="M36.6,59.2c-0.3,0-0.5-0.2-0.5-0.5c0-0.3,0.2-0.5,0.5-0.5C51.7,58.2,64,45.9,64,30.7c0-6.2-2-12-5.8-16.8
		c-0.2-0.2-0.1-0.5,0.1-0.7c0.2-0.2,0.5-0.1,0.7,0.1c3.9,5,6,11.1,6,17.4C65,46.4,52.2,59.2,36.6,59.2"/>
	<path class="st0" d="M36.5,9.8c-11.6,0-21,9.4-21,21s9.4,21,21,21c11.6,0,21-9.4,21-21S48.1,9.8,36.5,9.8 M46.2,36.2l4.6,6.5
		c0,0-0.7,0.9-2,0.4c0,0-0.9,1-2,0.2c0,0-0.7,0.5-1.4,0c0,0-0.6,0.9-1.2,0.1l-1.1-4.7c0,0-6.9-0.5-8.9-3.4c0,0-2.6-0.2-3.2-2.1
		c-0.1,0-0.2-0.1-0.3-0.1l-12.7,0.1L18,32.2l4,0.1L21.1,31l0.5-0.1l1.3,1.6l6.4-0.1c0.7-0.5,1.5-0.8,1.9-1c0.4-1.1,1.6-2.8,5.2-1.2
		c0,0,2.1-13,1.2-14.3c0,0,2.5,2.3,3.4,6.4c1.6-2.9,3-5.7,3.2-6.6c0,0,1.1,5.7-0.2,8c0,0,1.9-2.8,1.9-3.2c0,0,0.5,4.3-0.1,5.2
		c0,0,1.4-1.2,1.4-1.6c0-0.4,0.1-0.1,0.1-0.1s-0.1,3.1-1.9,4.5c0,0,1.6-0.2,2-0.5c0,0-1.6,2.9-4.5,3.6c0,0,0.2,0.2,0.5,0.5l7.4-0.1
		l0.1,0.6l-7,0.1C44.8,33.6,45.6,34.7,46.2,36.2"/>
</g>
</svg>
