<?xml version="1.0" encoding="utf-8"?>
<!-- Generator: Adobe Illustrator 22.0.0, SVG Export Plug-In . SVG Version: 6.00 Build 0)  -->
<svg version="1.1" id="Camada_1" xmlns:figma="http://www.figma.com/figma/ns"
	 xmlns="http://www.w3.org/2000/svg" xmlns:xlink="http://www.w3.org/1999/xlink" x="0px" y="0px" viewBox="0 0 109 102.6"
	 style="enable-background:new 0 0 109 102.6;" xml:space="preserve">
<style type="text/css">
	.st0{fill:#FFFFFF;}
</style>
<title>Logo</title>
<g>
	<path class="st0" d="M61.1,68.2c0.2-1.2,0.4-2.4,0.5-3.6c0.4-2.3,0.7-4.7,1.1-7c1.4-8.6,2.6-17.2,5.3-25.5c0.2-0.6,0.9-1.7,0.6-2.3
		c-0.4-0.7-1.7-0.6-2.4-0.6c-3,0.1-6,0.1-9,0.2c-4.5,0.1-8.9,0.1-13.4,0c-2.2,0-4.5-0.1-6.7-0.1c-1.1,0-2.2-0.1-3.4-0.1
		c-0.9,0-2-0.3-2.9,0c-0.1,0-0.2,0-0.2,0.1c-0.1,0.1-0.1,0.1-0.1,0.2c-0.1,0.5-0.4,1.1-0.3,1.7l0,0c0.1,0.6,0.6,1.1,0.8,1.7
		c0.3,0.7,0.4,1.6,0.5,2.4c0.4,1.7,0.8,3.5,1.1,5.2c1.7,8.6,3.1,17.3,4,26c0.1,1,0.2,2,0.6,2.9c0.1,0.3,0.2,0.6,0.3,0.9
		c3.8,0.3,7.8,0.5,11.8,0.5c3.7,0,7.3-0.1,10.9-0.4c0.1-0.3,0.3-0.5,0.4-0.8C61,69.2,61.1,68.7,61.1,68.2z"/>
	<path class="st0" d="M60.2,70.8c-3.5,0.3-7.1,0.4-10.7,0.4c-4,0-7.9-0.2-11.7-0.5c0.1,0.4,0.2,0.7,0.2,1.2c0.1,3.7-0.2,7.3,0,11
		c0.1,1.5,1.4,2.1,2.7,2.4c5.2,1.1,10.7,0.9,16,0.3c0.5-0.1,1-0.1,1.5-0.3c1.8-0.8,1.9-2.4,1.9-4.2c0-2,0-4,0-6c0-1,0.1-2,0.1-2.9
		C60.2,71.7,60.1,71.2,60.2,70.8z"/>
</g>
</svg>
