<?xml version="1.0" encoding="utf-8"?>
<!-- Generator: Adobe Illustrator 22.0.0, SVG Export Plug-In . SVG Version: 6.00 Build 0)  -->
<svg version="1.1" id="Camada_1" xmlns="http://www.w3.org/2000/svg" xmlns:xlink="http://www.w3.org/1999/xlink" x="0px" y="0px"
	 viewBox="0 0 70 65.6" style="enable-background:new 0 0 70 65.6;" xml:space="preserve">
<style type="text/css">
	.st0{fill:#FFFFFF;}
</style>
<title>anvisa</title>
<g>
	<path class="st0" d="M49.8,58.7c-0.2,0-0.4-0.1-0.5-0.3c-0.1-0.2,0-0.5,0.2-0.7c10.1-4.9,16.3-15,16.3-26.2c0-0.6,0-1.1,0-1.7
		c0-0.3,0.2-0.5,0.5-0.5c0.3,0,0.5,0.2,0.5,0.5c0,0.6,0,1.1,0,1.7c0,11.6-6.5,22-16.9,27.1C49.9,58.7,49.9,58.7,49.8,58.7"/>
	<path class="st0" d="M47.7,57.8c0.7,1,0.8,2,0.4,2.7c-0.3,0.5-0.9,1-1.4,1c-0.2,0-0.5,0.1-0.7,0.2c-0.5,0.2-0.7,0.1-0.8-0.5
		c-0.1-0.6,0.1-0.7,0.6-0.5c0.3,0.1,0.5,0.1,0.9,0c0.6-0.2,0.9-0.5,0.9-0.9c0.1-0.8-0.3-1.6-0.9-1.9c-0.8-0.4-1.6,0-1.9,1
		c-0.1,0.2-0.2,0.3-0.3,0.3c-0.6,0-0.2-1.2,0.6-1.8c0.5-0.4,0.6-0.4,1.1-0.4C46.8,57.1,47.3,57.3,47.7,57.8"/>
	<path class="st0" d="M43.7,58.2c0,0.2,0,0.3-0.1,0.3c-0.3,0.1-0.5,0.2-0.6,0.3c-0.1,0.1,1.1,5.2,1.2,5.4c0.1,0.1,0.3,0.2,0.5,0.2
		c0.2,0,0.4,0,0.4,0.2c0.1,0.1,0,0.3-0.1,0.3c-0.1,0-0.4,0.1-0.6,0.2c-0.3,0.1-0.5,0.1-0.6,0c-0.1-0.1-0.4-1-0.8-3.1
		c-0.4-1.6-0.7-3-0.8-3.1c-0.1-0.1-0.2-0.1-0.3-0.1c-0.1,0.1-0.3,0-0.4,0c-0.5-0.3-0.3-0.5,0.9-0.8c0.5-0.1,1-0.2,1.1-0.2
		C43.6,57.9,43.7,58,43.7,58.2"/>
	<path class="st0" d="M39.4,63c-0.8-0.2-1-0.5-1.2-2l-0.1-1.3l-0.4-0.3c-0.2-0.2-0.4-0.3-0.3-0.4c0.1-0.2,0.9-0.3,1.1-0.1
		c0.1,0.1,0.3,0,0.5-0.1c0.6-0.3,1.3-0.4,1.8-0.1c0.8,0.4,1.1,1.2,0.6,1.8c-0.4,0.4-0.7,0.6-1.6,0.8L39,61.4l0,0.4
		c0.1,0.5,0.4,0.8,1,0.6c0.5-0.1,0.7-0.3,0.9-0.8c0.2-0.3,0.6-0.2,0.6,0.2c0,0.4-0.4,0.9-1.1,1.1c-0.3,0.1-0.4,0.2-0.6,0.2
		C39.7,63.1,39.6,63.1,39.4,63 M40.9,59.7c-0.1-0.5-1.2-0.6-1.8-0.2c-0.4,0.3-0.5,0.6-0.3,0.9c0.1,0.2,0.4,0.2,0.7,0.2
		C40.2,60.5,41,60.1,40.9,59.7"/>
	<path class="st0" d="M37.3,59.2c0,0.2-0.1,0.3-0.4,0.3c-0.2,0-0.4,0-0.4,0.1c-0.1,0.2-0.3,2.5-0.2,2.8c0,0.2,0.1,0.3,0.2,0.2
		c0.2-0.1,0.6,0.2,0.6,0.4c0,0.1-0.1,0.2-0.1,0.2c-0.8,0.1-1.1,0-1.3-0.2c-0.3-0.3-0.4-0.3-0.8-0.1c-0.2,0.1-0.5,0.2-0.9,0.1
		c-0.8-0.1-1.3-0.6-1.2-1.2c0.1-0.5,0.4-0.5,0.7,0c0.1,0.2,0.3,0.4,0.6,0.5c0.8,0.2,1.1-0.2,1.4-1.7c0.1-0.6,0.2-1.1,0.2-1.2
		c0-0.1-0.2-0.2-0.4-0.2c-0.4,0-0.6-0.3-0.3-0.5c0.1-0.1,2.2-0.2,2.3,0C37.3,58.9,37.4,59.1,37.3,59.2"/>
	<path class="st0" d="M29.4,62.2c-1-0.8-0.9-2.8,0.2-3.6c0.6-0.4,1.1-0.5,1.9-0.2c1,0.4,1.4,1.2,1.1,2.4c-0.2,1-0.5,1.4-1.2,1.7
		c-0.3,0.1-0.8,0.2-1.2,0.1C29.9,62.5,29.6,62.4,29.4,62.2 M31.3,61.8c0.6-0.5,0.8-1.2,0.7-2c-0.1-0.5-0.4-0.9-1-1
		c-0.2,0-0.6,0-0.7,0.1c-0.7,0.3-1.1,1.5-0.8,2.2c0.2,0.5,0.3,0.6,1,0.8c0,0,0.1,0,0.1,0C30.9,62,31.1,62,31.3,61.8"/>
	<path class="st0" d="M21.6,59.4C21.3,59.1,21.2,59,21,59c-0.1,0-0.3,0-0.4-0.1c-0.1-0.1,0.1-0.5,1.4-3l1.5-2.8l-0.4-0.3
		c-0.4-0.3-0.4-0.5,0-0.7c0.2-0.1,2,0.8,2,1c0,0.1,0,0.2-0.1,0.3c-0.1,0.2-0.4,0.2-0.7,0c-0.1-0.1-0.2,0-0.3,0.1c-0.2,0.4-1,1.9-1,2
		c0,0,0.3,0.1,0.6,0.2c1.1,0.2,1.7,1,1.6,2.1c0,0.5-0.1,0.7-0.4,1.1c-0.4,0.6-1,1.1-1.5,1.2c-0.3,0-0.7-0.1-1.1-0.3
		C22,59.7,21.8,59.6,21.6,59.4 M24.5,58.2c0.2-0.7,0.1-1.1-0.4-1.5c-0.6-0.4-1-0.5-1.4-0.1c-1,0.7-1.1,2.1-0.2,2.6
		C23.4,59.6,24.1,59.3,24.5,58.2"/>
	<path class="st0" d="M19.7,53.2c0.2,0,0.6,0.3,0.9,0.5c0.5,0.4,0.6,0.5,0.6,1c0,0.5,0,0.6-0.4,1.2c-0.5,0.6-1,1.5-1.2,1.7
		c0,0.1,0.1,0.2,0.3,0.4c0.3,0.2,0.3,0.3,0.2,0.4c-0.1,0.1-0.3,0.1-0.6,0c-0.2-0.1-0.5-0.3-0.6-0.5c-0.1-0.2-0.1-0.3,0.4-1
		c0.3-0.4,0.6-0.9,0.7-1c0.4-0.4,0.6-1.1,0.4-1.4c-0.2-0.4-0.9-0.6-1.3-0.5c-0.2,0.1-0.6,0.4-1,0.8c-0.8,0.8-0.9,1-0.5,1.4
		c0.3,0.3,0.2,0.5-0.1,0.5c-0.2,0-0.4,0-0.7-0.4c-0.2-0.2-0.4-0.4-0.4-0.4c0,0,0.4-0.7,1-1.5c0.6-0.8,1-1.5,1-1.6
		c0-0.1-0.1-0.2-0.2-0.3C17.9,52.4,18,52,18.3,52c0.3,0,1,0.6,1,0.9C19.4,53.1,19.4,53.2,19.7,53.2"/>
	<path class="st0" d="M13.5,52.9c-0.1-0.6,0.1-1.1,0.5-1.5c0.3-0.3,0.4-0.3,0.5-0.2c0.2,0.2,1.3,1.2,1.8,1.7
		c0.3,0.3,0.3,0.3,0.5,0.1c0.5-0.5,0.3-1.4-0.3-1.8c-0.2-0.1-0.6-0.2-0.9-0.2c-1-0.1-1-0.6,0-0.7c0.7,0,0.9,0,1.5,0.5
		c0.4,0.3,0.5,0.5,0.7,0.9c0.1,0.3,0.1,0.7,0,1.1c-0.3,1.2-1.7,2.1-2.8,1.8c-0.3-0.1-0.6-0.3-0.9-0.5C13.8,53.6,13.6,53.2,13.5,52.9
		 M14.8,53.6c0.5,0.3,1.3,0.2,1.1-0.2c-0.1-0.3-1.2-1.3-1.4-1.3c-0.5,0-0.4,0.9,0.1,1.3C14.6,53.5,14.7,53.6,14.8,53.6"/>
	<path class="st0" d="M13,46.6c-0.3-0.3-0.2-0.3-1.9,0.5c-1,0.5-1,0.5-0.9,0.9c0.1,0.2,0.1,0.5,0.1,0.5c-0.1,0.2-0.5,0-0.8-0.4
		c-0.2-0.3-0.2-0.4-0.1-0.8L9.5,47l-0.4-0.3c-0.6-0.4-1-1.3-0.8-1.9c0.2-0.5,0.4-0.7,1.7-1.5l1-0.6l-0.1-0.4
		c-0.1-0.3-0.1-0.4,0.1-0.5c0.2-0.1,0.3,0,0.7,0.7c0.4,0.5,0.5,0.9,0.5,1.1c0,0.4-0.3,0.5-0.6,0.2c-0.2-0.3-0.2-0.3-1,0.1
		c-1.4,0.7-1.8,1.2-1.4,2c0.4,0.7,1.5,0.8,2.8,0.1c0.6-0.3,0.6-0.3,0.4-0.7c-0.2-0.4,0-0.6,0.3-0.5c0.2,0.1,0.3,0.3,0.7,1
		c0.3,0.6,0.4,1,0.3,1C13.5,47,13.2,46.9,13,46.6"/>
	<path class="st0" d="M5.2,41.9c0-0.1,0-0.1,0-0.3c0-0.1,0-0.1,0-0.1c0,0,0,0,0-0.1C5.1,41.4,5,41.3,5,41.2c0-0.1,0-0.1,0-0.1
		C5.1,41,5.1,41,5.1,41c0,0,0,0,0.1,0c0.1,0,0.1,0,0.1,0c0,0,0,0,0.1,0c0,0,0,0,0.1,0.1c0.1,0.1,0.1,0.1,0.1,0.2
		c0,0,0.1,0.2,0.1,0.3c0,0,0,0,0,0.1c0,0,0,0,0,0.1c0,0,0,0.1,0,0.1c0,0,0,0,0,0.1c0,0,0,0,0,0.1l0,0l0,0c0,0,0,0.1,0.1,0.1
		c0,0,0.1,0.1,0.1,0.2c0,0.1,0,0.1-0.1,0.2c0,0.1-0.1,0.1-0.2,0.1c-0.1,0-0.1,0-0.1,0c-0.1,0-0.1-0.1-0.1-0.1c0,0,0,0,0,0
		c0,0,0,0,0,0c0,0-0.1-0.2-0.1-0.3C5.2,41.9,5.2,41.9,5.2,41.9 M6.4,40.7c0.1-0.9,0.3-1.1,1.7-1.5l1.3-0.4l0.2-0.4
		c0.1-0.3,0.2-0.4,0.3-0.4c0.2,0,0.4,0.8,0.3,1c-0.1,0.1,0,0.3,0.2,0.5c0.4,0.5,0.6,1.2,0.5,1.8c-0.2,0.9-1,1.3-1.7,0.9
		c-0.5-0.3-0.7-0.6-1-1.4L7.9,40l-0.4,0.1c-0.5,0.2-0.7,0.5-0.4,1.1c0.2,0.4,0.4,0.6,1,0.8c0.4,0.1,0.3,0.6-0.1,0.6
		c-0.4,0.1-0.9-0.3-1.3-0.8c-0.1-0.2-0.2-0.4-0.3-0.5C6.4,41.1,6.4,40.9,6.4,40.7 M10,41.6c0.5-0.1,0.4-1.3-0.1-1.8
		c-0.3-0.3-0.7-0.4-1-0.1c-0.1,0.2-0.1,0.4,0,0.8C9.1,41.1,9.6,41.7,10,41.6"/>
	<path class="st0" d="M5.5,36.2C5.9,35,7.8,34.4,9,35.1c0.6,0.4,0.9,0.9,0.9,1.7c0,1.1-0.6,1.7-1.9,1.9c-1,0.2-1.5,0-2-0.5
		c-0.2-0.3-0.4-0.7-0.5-1.1C5.4,36.8,5.4,36.5,5.5,36.2 M6.6,37.8c0.7,0.4,1.4,0.4,2.1-0.1c0.5-0.3,0.7-0.7,0.6-1.3
		c0-0.2-0.2-0.5-0.3-0.7c-0.5-0.5-1.8-0.5-2.4,0c-0.4,0.3-0.4,0.5-0.3,1.3c0,0,0,0.1,0,0.1C6.3,37.6,6.4,37.7,6.6,37.8"/>
	<path class="st0" d="M7.2,29.9l-1.4-0.1l-0.2,0.4c-0.1,0.2-0.3,0.4-0.4,0.4c-0.2,0-0.2-0.1-0.3-0.6l0-0.3l-1.3-0.2
		c-1.2-0.2-1.3-0.2-1.3-0.4c0-0.4,0.2-0.4,1.5-0.3L5.1,29l0.1-0.4c0.1-0.2,0.2-0.4,0.3-0.4c0.2-0.1,0.5,0.4,0.5,0.7
		c0,0.2,0.1,0.2,1.2,0.3c1.7,0.2,2.2-0.1,1.7-0.9c-0.2-0.4-0.2-0.5,0-0.7c0.6-0.4,1.1,1.2,0.7,1.9C9.2,29.9,8.7,30,7.2,29.9"/>
	<path class="st0" d="M6.4,23.7c0.5-0.4,1-0.5,1.6-0.4c0.4,0.1,0.5,0.2,0.4,0.3c0,0.2-0.3,1.7-0.5,2.4c-0.1,0.4-0.1,0.4,0.2,0.5
		c0.7,0.2,1.4-0.5,1.4-1.3c0-0.2-0.1-0.6-0.3-0.9c-0.5-0.9,0-1.2,0.6-0.3c0.4,0.6,0.5,0.7,0.4,1.5c-0.1,0.5-0.1,0.7-0.4,1
		c-0.2,0.2-0.6,0.5-0.9,0.6c-1.2,0.4-2.7-0.3-3-1.4c-0.1-0.3-0.1-0.7,0-1C6,24.3,6.2,23.9,6.4,23.7 M6.5,25.1c0,0.6,0.5,1.2,0.7,0.9
		c0.2-0.3,0.5-1.8,0.4-1.9c-0.2-0.4-0.9,0.2-1.1,0.8C6.5,25,6.5,25.1,6.5,25.1"/>
	<path class="st0" d="M9.6,23.4c-0.5-0.2-0.4-0.6,0.2-0.6c0.5,0,0.8-0.3,0.8-0.9c0.1-1.1-0.9-1.3-1.3-0.2C9,22.7,7.7,23,7.2,22.4
		c-0.4-0.6-0.4-1,0.2-2.3l0.2-0.5l0.5,0.2c0.7,0.2,0.7,0.5,0.1,0.8c-0.3,0.1-0.5,0.3-0.6,0.7c-0.2,0.4-0.2,0.5,0,0.8
		C7.9,22.1,8,22.1,8.2,22c0.2-0.1,0.4-0.3,0.6-0.6c0.5-1,1-1.3,1.7-1c0.7,0.3,1,1,0.7,2c-0.1,0.3-0.2,0.7-0.3,0.8
		C10.6,23.5,9.9,23.6,9.6,23.4"/>
	<path class="st0" d="M10.2,18.9l-1.2-0.6l-0.3,0.3c-0.2,0.2-0.4,0.3-0.5,0.2c-0.2-0.1-0.2-0.1,0-0.7l0.1-0.3L7,17.3
		c-1-0.6-1.2-0.7-1.1-0.9c0.1-0.3,0.4-0.3,1.5,0.3l1.1,0.6L8.8,17c0.1-0.2,0.3-0.3,0.4-0.3c0.2,0,0.3,0.6,0.2,0.8
		c-0.1,0.2,0,0.2,1,0.8c1.5,0.8,2.1,0.7,1.9-0.2c-0.1-0.4,0-0.6,0.3-0.6c0.7-0.1,0.6,1.5-0.1,2C12,19.7,11.5,19.6,10.2,18.9"/>
	<path class="st0" d="M11.3,13.2c0.7-0.5,1-0.4,2.2,0.5l1.1,0.8l0.5-0.1c0.3-0.1,0.5-0.1,0.5,0c0.1,0.2-0.4,0.9-0.6,0.9
		c-0.1,0-0.2,0.2-0.3,0.5c-0.1,0.6-0.6,1.2-1.1,1.4c-0.8,0.3-1.6,0-1.7-0.8c-0.1-0.6,0-0.9,0.5-1.7l0.4-0.7l-0.3-0.2
		c-0.4-0.3-0.8-0.2-1.1,0.3c-0.2,0.4-0.2,0.7,0,1.2c0.1,0.4-0.3,0.6-0.6,0.3c-0.3-0.3-0.4-0.9-0.1-1.6c0.1-0.3,0.2-0.4,0.3-0.5
		C11,13.4,11.1,13.3,11.3,13.2 M12.7,16.5c0.4,0.3,1.3-0.4,1.4-1.2c0.1-0.4-0.1-0.8-0.5-0.8c-0.2,0-0.4,0.2-0.6,0.4
		C12.6,15.5,12.4,16.3,12.7,16.5"/>
	<path class="st0" d="M15.4,13.6c0.4-0.4,0.3-0.5-0.6-1.6c-0.9-1.1-1.1-1.1-1.5-0.8c-0.2,0.1-0.3,0.1-0.4,0
		c-0.1-0.2-0.1-0.2,0.3-0.6c0.3-0.3,0.5-0.4,0.7-0.4c0.2,0,0.3,0,0.6-0.6c0.4-0.7,0.6-0.8,1.4-0.8c0.3,0,0.5,0,0.5-0.2
		c0.2-1.1,0.3-1.3,0.7-1.5c0.8-0.5,1.4-0.2,2.8,1.1l0.8,0.7l0.3-0.2c0.2-0.2,0.3-0.1,0.5,0c0.2,0.2,0.2,0.2-0.6,1
		c-0.6,0.5-0.9,0.7-1,0.7c-0.3,0-0.3-0.4-0.1-0.7L20,9.5l-0.8-0.8c-1.2-1.3-1.6-1.4-2-0.7C17,8.3,17,8.5,17.3,9.1
		c0.2,0.5,0.4,0.9,0.8,1.3c0.4,0.5,0.5,0.5,0.7,0.4c0.1-0.1,0.3-0.1,0.4-0.1c0.3,0.1,0.2,0.5-0.4,1c-0.7,0.7-1.3,0.6-0.9-0.1
		c0.2-0.3,0.1-0.3-0.6-1.1C16,9.3,15.5,9.2,15,9.9c-0.2,0.3,0,1.1,0.6,2c0.5,0.7,0.7,0.8,1.1,0.6c0.3-0.2,0.5,0,0.5,0.3
		c0,0.2-0.9,0.9-1.5,1.4C15.4,14.4,15.1,14,15.4,13.6"/>
	<path class="st0" d="M21.7,4.4c1.3-0.1,2.5,1.5,2.2,2.9c-0.1,0.7-0.5,1.1-1.3,1.4c-1,0.4-1.8,0-2.4-1.1c-0.5-0.9-0.5-1.4-0.2-2.1
		c0.2-0.3,0.5-0.6,0.8-0.8C21.1,4.5,21.4,4.4,21.7,4.4 M20.5,5.9c-0.1,0.8,0.2,1.5,0.8,1.9c0.4,0.3,0.9,0.4,1.4,0.1
		c0.2-0.1,0.4-0.3,0.5-0.5c0.3-0.7-0.1-1.8-0.9-2.2C21.8,5,21.6,5,21,5.3c0,0-0.1,0-0.1,0.1C20.6,5.5,20.5,5.7,20.5,5.9"/>
	<path class="st0" d="M24.3,6.5c-0.2-0.5,0.2-0.7,0.6-0.3c0.4,0.4,0.8,0.4,1.2,0c0.9-0.7,0.3-1.5-0.7-1c-0.9,0.4-2.1-0.4-1.9-1.2
		c0.1-0.7,0.4-1,1.8-1.5l0.6-0.2l0.2,0.5c0.3,0.6,0.1,0.9-0.5,0.6c-0.3-0.1-0.6-0.1-0.9,0c-0.4,0.1-0.5,0.2-0.5,0.5
		c0,0.3,0,0.4,0.2,0.5c0.2,0.1,0.5,0.1,0.8,0c1.1-0.3,1.6-0.1,1.9,0.5c0.3,0.7-0.1,1.4-1,1.9c-0.3,0.2-0.6,0.3-0.8,0.3
		C24.9,7.2,24.4,6.8,24.3,6.5"/>
	<path class="st0" d="M33.4,0.9c0.5,0.3,0.8,0.8,0.9,1.4c0,0.4,0,0.5-0.1,0.5c-0.2,0-1.7,0.3-2.4,0.4c-0.4,0.1-0.4,0.1-0.4,0.4
		c0.1,0.7,0.9,1.1,1.7,0.8c0.2-0.1,0.5-0.3,0.8-0.6c0.7-0.8,1.1-0.4,0.5,0.4c-0.4,0.6-0.5,0.7-1.3,0.9c-0.5,0.1-0.7,0.1-1.1,0
		C31.6,5,31.3,4.7,31,4.4c-0.8-1-0.7-2.7,0.2-3.3c0.3-0.2,0.6-0.3,1-0.4C32.7,0.7,33.1,0.7,33.4,0.9 M32,1.5c-0.6,0.2-0.9,0.9-0.6,1
		c0.3,0.1,1.8-0.2,1.9-0.3c0.3-0.4-0.5-0.8-1.1-0.7C32.2,1.4,32.1,1.4,32,1.5"/>
	<path class="st0" d="M34.8,4.1c0.5,0,0.6-0.2,0.7-1.6C35.6,1.1,35.5,1,35,0.9c-0.2,0-0.3-0.1-0.3-0.3c0-0.2,0.1-0.2,0.7-0.2
		c0.5,0,0.7,0.1,0.8,0.2c0.1,0.2,0.2,0.2,0.9,0c0.8-0.2,1-0.2,1.6,0.4c0.2,0.2,0.4,0.3,0.5,0.2c1-0.6,1.1-0.7,1.6-0.6
		c0.9,0.2,1.2,0.9,1.2,2.8l0,1.1l0.3,0.1c0.3,0.1,0.3,0.1,0.3,0.4c0,0.3,0,0.3-1.1,0.2c-0.8,0-1.1-0.1-1.2-0.2
		c-0.2-0.3,0-0.5,0.4-0.5l0.4,0L41,3.3c0.1-1.8-0.1-2.1-1-1.9c-0.4,0.1-0.5,0.2-0.7,0.8c-0.2,0.4-0.3,1-0.4,1.4
		c-0.1,0.7,0,0.7,0.2,0.8c0.1,0,0.3,0.1,0.3,0.3c0.1,0.3-0.2,0.5-1,0.4c-1-0.1-1.3-0.5-0.5-0.8c0.3-0.1,0.3-0.1,0.3-1.2
		c0-1.6-0.2-2-1.1-1.9c-0.4,0.1-0.8,0.8-1,1.8c-0.2,0.9-0.1,1.1,0.4,1.2c0.3,0.1,0.4,0.3,0.1,0.5c-0.2,0.1-1.3,0.1-2.1-0.1
		C34.3,4.6,34.4,4.1,34.8,4.1"/>
	<path class="st0" d="M49.6,3.5c0.6,0.6,0.6,0.9,0,2.3L49.1,7l0.2,0.4c0.1,0.3,0.2,0.5,0.1,0.5c-0.2,0.1-0.9-0.2-1-0.4
		c0-0.1-0.2-0.2-0.5-0.2c-0.6,0-1.3-0.3-1.6-0.8c-0.5-0.7-0.3-1.6,0.4-1.8c0.6-0.2,0.9-0.2,1.7,0.1l0.8,0.3l0.2-0.3
		c0.2-0.5,0-0.9-0.6-1c-0.5-0.1-0.7-0.1-1.2,0.2c-0.3,0.2-0.6-0.2-0.4-0.5C47.4,3.1,48,2.9,48.6,3c0.3,0,0.4,0.1,0.6,0.1
		C49.4,3.2,49.5,3.3,49.6,3.5 M46.6,5.5c-0.2,0.5,0.7,1.1,1.4,1.1c0.5,0,0.7-0.3,0.7-0.7c0-0.2-0.2-0.4-0.5-0.5
		C47.6,5.2,46.8,5.2,46.6,5.5"/>
	<path class="st0" d="M50.1,7.8c0.4,0.2,0.3,0.2,1.4-1.4c0.7-0.9,0.6-0.9,0.3-1.2c-0.2-0.2-0.3-0.4-0.3-0.4c0-0.2,0.4-0.2,0.9,0
		c0.3,0.2,0.4,0.3,0.5,0.6L53,5.8l0.5,0c0.8,0.1,1.5,0.7,1.6,1.3c0.1,0.6,0,0.8-0.8,2.1l-0.6,1l0.3,0.3c0.2,0.2,0.3,0.3,0.2,0.5
		c-0.1,0.2-0.2,0.1-1-0.2c-0.6-0.3-0.9-0.5-1-0.7c-0.2-0.4,0-0.6,0.5-0.4c0.3,0.1,0.3,0.1,0.9-0.6c1-1.3,1-1.9,0.3-2.4
		c-0.7-0.5-1.7,0.1-2.5,1.2c-0.4,0.5-0.4,0.5-0.1,0.8c0.3,0.3,0.3,0.5,0,0.6c-0.2,0-0.4-0.1-1.1-0.5c-0.5-0.4-0.8-0.6-0.8-0.8
		C49.5,7.7,49.8,7.6,50.1,7.8"/>
	<path class="st0" d="M58,9.1c0,0.1-0.2,0.5-1.1,1.5c-0.6,0.7-1.2,1.3-1.2,1.4c0,0,0.1,0.2,0.2,0.3c0.3,0.3,0.3,0.6,0,0.7
		c-0.2,0.1-0.3,0-0.8-0.5c-0.3-0.3-0.7-0.7-0.8-0.9c-0.2-0.4,0.1-0.7,0.5-0.4c0.4,0.3,0.5,0.2,1.6-1l0.8-0.9L56.9,9
		c-0.2-0.3-0.2-0.7,0.1-0.7c0.1,0,0.6,0.3,0.8,0.5C57.9,9,58,9.1,58,9.1 M58.7,8.6c-0.2,0.2-0.4,0-0.4-0.2c0-0.2,0.1-0.2,0.2-0.2
		c0.1,0,0.1,0,0.2,0.1C58.8,8.3,58.8,8.5,58.7,8.6"/>
	<path class="st0" d="M56.7,12.8c0.4,0.4,0.5,0.4,1.7-0.5c1.2-0.8,1.2-0.9,1-1.4c-0.1-0.2-0.1-0.3,0.1-0.4c0.2-0.1,0.2-0.1,0.6,0.4
		c0.3,0.4,0.4,0.6,0.3,0.7c-0.1,0.2,0,0.3,0.5,0.7c0.7,0.5,0.8,0.7,0.6,1.5c0,0.3,0,0.5,0.1,0.5c1.1,0.4,1.2,0.4,1.4,0.8
		c0.4,0.8,0.1,1.5-1.4,2.7l-0.8,0.7l0.2,0.3c0.1,0.3,0.1,0.4-0.1,0.5c-0.2,0.2-0.2,0.2-0.9-0.7c-0.4-0.6-0.6-1-0.6-1.1
		c0.1-0.3,0.4-0.3,0.7,0l0.3,0.3l0.9-0.7c1.4-1.1,1.6-1.4,0.9-2c-0.3-0.2-0.4-0.2-1.1-0.1c-0.5,0.1-1,0.3-1.3,0.6
		c-0.5,0.4-0.6,0.4-0.5,0.6c0.1,0.1,0.1,0.3,0,0.4c-0.2,0.3-0.5,0.2-1-0.5c-0.6-0.8-0.4-1.4,0.2-0.9c0.3,0.2,0.3,0.2,1.1-0.5
		c1.3-1,1.4-1.5,0.7-2c-0.3-0.2-1.1-0.1-2,0.4c-0.8,0.4-0.9,0.6-0.7,1.1c0.1,0.3,0,0.5-0.3,0.4c-0.2-0.1-0.9-0.9-1.2-1.7
		C56,12.7,56.4,12.5,56.7,12.8"/>
	<path class="st0" d="M65.3,19.9c0,0.9-0.2,1.1-1.6,1.7l-1.2,0.5l-0.1,0.5c-0.1,0.3-0.2,0.5-0.3,0.4c-0.2,0-0.5-0.8-0.4-1
		c0-0.1,0-0.3-0.3-0.5c-0.5-0.4-0.7-1.2-0.7-1.7c0.1-0.9,0.9-1.4,1.6-1.1c0.5,0.2,0.8,0.5,1.2,1.3l0.4,0.7l0.3-0.1
		c0.5-0.2,0.6-0.6,0.3-1.1c-0.3-0.4-0.5-0.5-1-0.7c-0.4-0.1-0.3-0.5,0.1-0.6c0.4-0.1,1,0.2,1.4,0.7c0.2,0.2,0.3,0.4,0.3,0.5
		C65.3,19.6,65.3,19.7,65.3,19.9 M61.7,19.4c-0.5,0.2-0.3,1.3,0.3,1.8c0.3,0.3,0.7,0.3,1,0c0.1-0.2,0.1-0.5,0-0.8
		C62.7,19.9,62.1,19.2,61.7,19.4"/>
	<path class="st0" d="M66.6,23.3c0,0.1-0.5,0.3-1.7,0.7c-0.9,0.3-1.7,0.5-1.8,0.6c0,0,0,0.2,0,0.4c0.1,0.4,0,0.7-0.3,0.6
		c-0.2,0-0.3-0.2-0.5-0.9c-0.1-0.5-0.2-1-0.2-1.1c0-0.5,0.4-0.5,0.6-0.1c0.2,0.5,0.3,0.4,1.9,0l1.2-0.4l0-0.4c0-0.4,0.2-0.7,0.4-0.6
		c0.1,0.1,0.3,0.5,0.4,0.9C66.6,23.1,66.6,23.2,66.6,23.3 M67.5,23.1c-0.3,0-0.4-0.2-0.2-0.4c0.1-0.1,0.2-0.2,0.3-0.1
		c0.1,0,0.1,0.1,0.1,0.2C67.7,22.9,67.6,23.1,67.5,23.1"/>
	<path class="st0" d="M63.8,25.2c0.5,0,0.6,0.3,0.1,0.6c-0.4,0.3-0.5,0.7-0.3,1.2c0.5,1,1.4,0.6,1.2-0.5c-0.2-0.9,0.8-1.9,1.6-1.6
		c0.7,0.3,0.9,0.6,1,2.1l0.1,0.6l-0.5,0.1c-0.7,0.2-0.9,0-0.5-0.6c0.2-0.3,0.2-0.5,0.2-0.9c0-0.5-0.1-0.5-0.4-0.6
		c-0.3-0.1-0.4-0.1-0.5,0.1c-0.1,0.1-0.2,0.5-0.2,0.8c0,1.1-0.2,1.6-0.9,1.7c-0.7,0.1-1.3-0.4-1.6-1.3c-0.1-0.3-0.1-0.7-0.1-0.8
		C62.9,25.7,63.4,25.2,63.8,25.2"/>
	<path class="st0" d="M36.6,22.7c-0.2-0.9-0.5-2.1-1.3-2.9c-0.8-0.8-2.4-1.4-3.5-1.7c-0.3,1.1-0.5,3.3,0.7,6.5c1.3,3.6,4.4,6.7,6,8
		c-0.9-2.8-1.7-6.1-1.8-9.5C36.6,23,36.6,22.9,36.6,22.7"/>
	<path class="st0" d="M36.9,7.8c-13.2,0-24,10.7-24,24c0,13.2,10.7,24,24,24c13.2,0,24-10.7,24-24C60.9,18.6,50.1,7.8,36.9,7.8
		 M48.6,32.3c-0.4,5.1-1.4,10.1-1.5,10.3c-0.1,0.6-0.7,0.9-1.2,0.8c-0.6-0.1-0.9-0.7-0.8-1.2c0-0.1,1.1-5.1,1.4-10
		c0.4-5.1-4.8-17.2-6.3-19.2c-0.6,0.9-1.7,4.1-1.5,9.6c0.1,0.8,0.1,1.4,0.1,1.4c0,0.1,0,0.1,0,0.2c0.6,7,4,13.8,4.1,13.9
		c0.3,0.5,0.1,1.1-0.4,1.4c-0.5,0.3-1.1,0.2-1.4-0.3c0,0-2.1-2.9-4.9-3.7c-1.2-0.3-3.7,0.1-6.1,1.6c-1.4,0.9-3.9,2.8-4.5,5.9
		c-0.4,2.1-0.1,3.8,1,4.8c1.1,1.1,3.1,1.6,5,1.1c3.1-0.7,6.8-4.3,6.9-4.4c0.4-0.4,1.1-0.4,1.5,0c0.4,0.4,0.4,1.1,0,1.5
		c-0.2,0.2-4.2,4.1-7.9,4.9c-0.6,0.1-1.3,0.2-1.9,0.2c-2,0-3.8-0.7-5-1.9c-1.1-1.1-2.3-3.2-1.6-6.8c0.6-2.9,2.5-5.4,5.4-7.3
		c2.3-1.4,5-2.2,7-2c-1.8-1.7-4.3-4.6-5.5-7.9c-2-5.6-0.4-8.8-0.3-8.9c0.2-0.4,0.6-0.6,1.1-0.5c0.4,0.1,3.7,0.7,5.5,2.4
		c0.4-3.9,1.4-6.7,2.7-7.4c0.6-0.3,1.3-0.2,1.9,0.2C43.3,12.6,49,26.6,48.6,32.3 M31.3,39.8c0,0.1,0,0.2-0.1,0.3
		c-0.1,0.2-0.2,0.3-0.3,0.5c-0.1,0.2-0.3,0.4-0.4,0.6c-0.1,0.1-0.2,0.2-0.4,0.3c-0.1,0-0.2,0-0.2,0.1c-0.2,0-0.3,0-0.5-0.1
		c-0.1,0-0.1-0.1-0.2-0.1c-0.1-0.1-0.2-0.2-0.2-0.3c-0.1-0.1-0.1-0.2-0.1-0.3c0-0.1,0-0.2,0-0.3c0-0.1,0.1-0.2,0.2-0.3
		c0.1-0.1,0.2-0.2,0.2-0.3c0.1-0.1,0.1-0.2,0.2-0.4c0.1-0.1,0.2-0.3,0.3-0.3c0.1,0,0.1-0.1,0.2-0.1c0.2-0.1,0.3-0.1,0.5-0.1
		c0.1,0,0.2,0,0.2,0.1c0.1,0,0.2,0.1,0.3,0.2c0.1,0.1,0.2,0.2,0.2,0.3C31.3,39.5,31.3,39.7,31.3,39.8"/>
</g>
</svg>
