<?xml version="1.0" encoding="utf-8"?>
<!-- Generator: Adobe Illustrator 22.0.0, SVG Export Plug-In . SVG Version: 6.00 Build 0)  -->
<svg version="1.1" id="Camada_1" xmlns="http://www.w3.org/2000/svg" xmlns:xlink="http://www.w3.org/1999/xlink" x="0px" y="0px"
	 viewBox="0 0 70 65.6" style="enable-background:new 0 0 70 65.6;" xml:space="preserve">
<style type="text/css">
	.st0{fill:#FFFFFF;}
</style>
<title>anvisa</title>
<path class="st0" d="M44.6,64.5c0.1,0,0.2,0.1,0.2,0.2v0.1c0,0.1-0.1,0.2-0.2,0.2c-0.1,0-0.2-0.1-0.2-0.2v-0.1
	C44.5,64.5,44.5,64.5,44.6,64.5"/>
<path class="st0" d="M12.7,59.8c-1.6,0-3-1.3-3-3.2v0c0-1.8,1.2-3.2,2.9-3.2c1.7,0,2.8,1.4,2.8,3.2c0,0.1-0.1,0.3-0.3,0.3h-4.8
	c0.1,1.5,1.2,2.4,2.4,2.4c0.9,0,1.5-0.4,2-0.8c0,0,0.1-0.1,0.2-0.1c0.2,0,0.3,0.1,0.3,0.3c0,0.1,0,0.1-0.1,0.2
	C14.5,59.4,13.8,59.8,12.7,59.8 M14.8,56.3c-0.1-1.2-0.8-2.4-2.2-2.4c-1.2,0-2.2,1-2.3,2.4H14.8z"/>
<path class="st0" d="M21.7,59.4c0,0.2-0.1,0.3-0.3,0.3c-0.2,0-0.3-0.1-0.3-0.3v-0.9c-0.4,0.7-1.1,1.3-2.2,1.3
	c-1.5,0-2.4-1.1-2.4-2.5v-3.5c0-0.2,0.1-0.3,0.3-0.3c0.2,0,0.3,0.1,0.3,0.3v3.4c0,1.3,0.7,2.1,1.9,2.1c1.2,0,2.1-0.9,2.1-2.2v-3.3
	c0-0.2,0.1-0.3,0.3-0.3c0.2,0,0.3,0.1,0.3,0.3V59.4z"/>
<g>
	<path class="st0" d="M23,54.1c0-0.5,0.4-0.9,0.9-0.9c0.5,0,0.9,0.4,0.9,0.9v0.3c0.3-0.6,0.7-1.2,1.2-1.2c0.6,0,0.9,0.4,0.9,0.9
		c0,0.5-0.3,0.8-0.7,0.9c-0.9,0.2-1.4,0.9-1.4,2.2v1.7c0,0.5-0.4,0.9-0.9,0.9c-0.5,0-0.9-0.4-0.9-0.9V54.1z"/>
	<path class="st0" d="M30.3,59.8c-1.9,0-3.4-1.4-3.4-3.3v0c0-1.8,1.3-3.3,3.2-3.3c2.1,0,3.1,1.8,3.1,3.1c0,0.5-0.4,0.9-0.9,0.9h-3.6
		c0.2,0.8,0.8,1.3,1.6,1.3c0.5,0,0.9-0.2,1.3-0.4c0.1-0.1,0.3-0.1,0.4-0.1c0.4,0,0.7,0.3,0.7,0.7c0,0.2-0.1,0.4-0.2,0.5
		C32,59.5,31.2,59.8,30.3,59.8 M31.5,56c-0.1-0.8-0.6-1.4-1.4-1.4c-0.8,0-1.2,0.5-1.4,1.4H31.5z"/>
	<path class="st0" d="M33.7,56.5L33.7,56.5c0-1.9,1.4-3.4,3.4-3.4c1,0,1.7,0.3,2.2,0.7c0.1,0.1,0.3,0.3,0.3,0.6
		c0,0.5-0.4,0.8-0.8,0.8c-0.2,0-0.4-0.1-0.5-0.2c-0.3-0.3-0.7-0.4-1.1-0.4c-0.9,0-1.6,0.8-1.6,1.8v0c0,1,0.6,1.8,1.6,1.8
		c0.5,0,0.9-0.2,1.2-0.4c0.1-0.1,0.3-0.2,0.5-0.2c0.4,0,0.8,0.3,0.8,0.8c0,0.2-0.1,0.4-0.3,0.6c-0.5,0.5-1.2,0.8-2.3,0.8
		C35.1,59.8,33.7,58.3,33.7,56.5"/>
	<path class="st0" d="M40.2,51.7c0-0.5,0.4-0.9,1-0.9c0.6,0,1,0.3,1,0.9v0c0,0.5-0.4,0.9-1,0.9C40.7,52.6,40.2,52.3,40.2,51.7
		L40.2,51.7z M40.4,54.1c0-0.5,0.4-0.9,0.9-0.9s0.9,0.4,0.9,0.9v4.8c0,0.5-0.4,0.9-0.9,0.9s-0.9-0.4-0.9-0.9V54.1z"/>
	<path class="st0" d="M43,56.5L43,56.5c0-1.9,1.4-3.4,3.4-3.4c1,0,1.7,0.3,2.2,0.7c0.1,0.1,0.3,0.3,0.3,0.6c0,0.5-0.4,0.8-0.8,0.8
		c-0.2,0-0.4-0.1-0.5-0.2c-0.3-0.3-0.7-0.4-1.1-0.4c-0.9,0-1.6,0.8-1.6,1.8v0c0,1,0.6,1.8,1.6,1.8c0.5,0,0.9-0.2,1.2-0.4
		c0.1-0.1,0.3-0.2,0.5-0.2c0.4,0,0.8,0.3,0.8,0.8c0,0.2-0.1,0.4-0.3,0.6c-0.5,0.5-1.2,0.8-2.3,0.8C44.4,59.8,43,58.3,43,56.5"/>
	<path class="st0" d="M49.6,51.7c0-0.5,0.4-0.9,0.9-0.9c0.5,0,0.9,0.4,0.9,0.9v7.1c0,0.5-0.4,0.9-0.9,0.9c-0.5,0-0.9-0.4-0.9-0.9
		V51.7z"/>
	<path class="st0" d="M52.3,56.5L52.3,56.5c0-1.9,1.5-3.4,3.5-3.4c2,0,3.5,1.5,3.5,3.3v0c0,1.8-1.5,3.4-3.5,3.4
		C53.7,59.8,52.3,58.3,52.3,56.5 M57.4,56.5L57.4,56.5c0-1-0.7-1.8-1.7-1.8c-1,0-1.7,0.8-1.7,1.8v0c0,0.9,0.7,1.8,1.7,1.8
		C56.8,58.2,57.4,57.4,57.4,56.5"/>
</g>
<path class="st0" d="M43.1,64.5c0.1,0,0.2,0.1,0.2,0.2v0.1c0,0.1-0.1,0.2-0.2,0.2c-0.1,0-0.2-0.1-0.2-0.2v-0.1
	C43,64.5,43.1,64.5,43.1,64.5"/>
<path class="st0" d="M43.7,63.6L43.7,63.6c0-0.7,0.6-1.3,1.3-1.3c0.4,0,0.7,0.2,1,0.4c0,0,0,0.1,0,0.1c0,0.1-0.1,0.1-0.1,0.1
	c0,0-0.1,0-0.1,0c-0.2-0.2-0.4-0.4-0.8-0.4c-0.6,0-1,0.5-1,1.1v0c0,0.6,0.5,1.1,1.1,1.1c0.3,0,0.6-0.2,0.8-0.4c0,0,0,0,0.1,0
	c0.1,0,0.1,0.1,0.1,0.1c0,0,0,0.1,0,0.1c-0.3,0.3-0.6,0.4-1,0.4C44.2,65,43.7,64.4,43.7,63.6"/>
<path class="st0" d="M46.2,63.6L46.2,63.6c0-0.7,0.6-1.3,1.3-1.3c0.8,0,1.3,0.6,1.3,1.3v0c0,0.7-0.6,1.3-1.3,1.3
	C46.8,65,46.2,64.4,46.2,63.6 M48.6,63.6L48.6,63.6c0-0.6-0.5-1.1-1.1-1.1c-0.6,0-1,0.5-1,1.1v0c0,0.6,0.5,1.1,1.1,1.1
	C48.1,64.7,48.6,64.2,48.6,63.6"/>
<path class="st0" d="M49.3,62.5c0-0.1,0.1-0.1,0.1-0.1c0.1,0,0.1,0.1,0.1,0.1v0.4c0.2-0.3,0.4-0.5,0.9-0.5c0.4,0,0.7,0.3,0.9,0.6
	c0.2-0.3,0.4-0.6,0.9-0.6c0.6,0,1,0.4,1,1.1v1.4c0,0.1-0.1,0.1-0.1,0.1c-0.1,0-0.1,0-0.1-0.1v-1.4c0-0.6-0.3-0.9-0.8-0.9
	c-0.4,0-0.8,0.3-0.8,0.9v1.4c0,0.1-0.1,0.1-0.1,0.1c-0.1,0-0.1,0-0.1-0.1v-1.4c0-0.5-0.3-0.9-0.7-0.9c-0.5,0-0.8,0.4-0.8,0.9v1.4
	c0,0.1,0,0.1-0.1,0.1c-0.1,0-0.1,0-0.1-0.1V62.5z"/>
<path class="st0" d="M54,64.5c0.1,0,0.2,0.1,0.2,0.2v0.1c0,0.1-0.1,0.2-0.2,0.2c-0.1,0-0.2-0.1-0.2-0.2v-0.1
	C53.8,64.5,53.9,64.5,54,64.5"/>
<g>
	<g>
		<path class="st0" d="M32.6,21.8c0,1.9-1.6,3.5-3.5,3.5c-1.9,0-3.5-1.6-3.5-3.5c0-1.9,1.6-3.5,3.5-3.5C31,18.3,32.6,19.9,32.6,21.8
			"/>
		<path class="st0" d="M43.1,21.8c0,1.9-1.6,3.5-3.5,3.5c-1.9,0-3.5-1.6-3.5-3.5c0-1.9,1.6-3.5,3.5-3.5
			C41.5,18.3,43.1,19.9,43.1,21.8"/>
	</g>
	<path class="st0" d="M58.7,28.6l-4.1-5.4c-0.4-0.5-1.1-0.5-1.5,0L49,28.6c-0.4,0.5-0.2,0.9,0.5,0.9l1.8,0
		c-2.7,7-9.7,11.8-17.4,11.5c-8.8-0.4-16-7.3-16.8-16c-0.1-1.3-1.3-2.3-2.6-2.1c-1.3,0.1-2.3,1.3-2.1,2.6c0.5,5.4,2.9,10.4,6.8,14.1
		c3.9,3.8,9.1,6,14.5,6.3c5.5,0.3,10.8-1.5,15.1-4.9c3.7-2.9,6.3-6.8,7.6-11.3l0,0.1h0l1.9-0.1C58.9,29.6,59.1,29.1,58.7,28.6z"/>
</g>
<path class="st0" d="M56.8,18.3c-2-10.1-10.6-17.5-21-18.1c-10-0.6-19.9,5.9-23.6,14.2h-1.9c-0.7,0-0.9,0.4-0.5,0.9l4.2,5.4
	c0.4,0.5,1.1,0.5,1.5,0l4.2-5.4c0.4-0.5,0.2-1-0.5-1h-1.6c3.3-6.1,10.5-9.9,17.9-9.5c8.2,0.5,15,6.4,16.6,14.3
	c0.3,1.3,1.5,2.1,2.8,1.9C56.2,20.8,57,19.6,56.8,18.3z"/>
<path class="st0" d="M55.5,64.5c0.1,0,0.2,0.1,0.2,0.2v0.1c0,0.1-0.1,0.2-0.2,0.2c-0.1,0-0.2-0.1-0.2-0.2v-0.1
	C55.3,64.5,55.4,64.5,55.5,64.5"/>
<path class="st0" d="M54.8,61.3c0-0.1,0.1-0.1,0.1-0.1c0.1,0,0.1,0,0.1,0.1v1.6c0.2-0.3,0.5-0.6,1.1-0.6c0.6,0,1.2,0.5,1.2,1.3v0
	c0,0.8-0.6,1.3-1.2,1.3c-0.5,0-0.8-0.3-1.1-0.6v0.4c0,0.1,0,0.1-0.1,0.1c-0.1,0-0.1-0.1-0.1-0.1V61.3z M57,63.6L57,63.6
	c0-0.7-0.5-1.1-1-1.1c-0.5,0-1,0.4-1,1.1v0c0,0.7,0.5,1.1,1,1.1C56.6,64.7,57,64.3,57,63.6"/>
<path class="st0" d="M57.8,62.5c0-0.1,0.1-0.1,0.1-0.1c0.1,0,0.1,0,0.1,0.1v0.6c0.2-0.5,0.7-0.8,1-0.8c0.1,0,0.1,0.1,0.1,0.1
	c0,0.1-0.1,0.1-0.1,0.1c-0.5,0-1,0.5-1,1.3v0.9c0,0.1-0.1,0.1-0.1,0.1c-0.1,0-0.1,0-0.1-0.1V62.5z"/>
</svg>
