<?xml version="1.0" encoding="utf-8"?>
<!-- Generator: Adobe Illustrator 22.0.0, SVG Export Plug-In . SVG Version: 6.00 Build 0)  -->
<svg version="1.1" id="Camada_1" xmlns="http://www.w3.org/2000/svg" xmlns:xlink="http://www.w3.org/1999/xlink" x="0px" y="0px"
	 viewBox="0 0 70 65.6" style="enable-background:new 0 0 70 65.6;" xml:space="preserve">
<style type="text/css">
	.st0{fill:#FFFFFF;}
</style>
<title>anvisa</title>
<g>
	<path class="st0" d="M32.8,61.2c-0.2,0.2-0.5-0.1-0.5-0.6c-0.1-0.9-0.6-1.4-1.6-1.6c-0.9-0.2-1.5,0.1-1.9,0.8
		c-0.2,0.5-0.2,0.6-0.1,0.9c0.1,0.4,0.8,1,1.3,1.1c1.4,0.3,2.2,1.1,2,2.1c-0.1,0.7-0.5,1.1-1.2,1.3c-0.6,0.2-1.3,0.1-2-0.4
		c-0.4-0.2-0.4-0.3-0.6-0.1c-0.1,0.1-0.3,0.1-0.4,0.1c-0.2-0.1-0.2-0.2-0.1-0.9c0.2-1.1,0.3-1.4,0.6-1.3c0.2,0.1,0.2,0.2,0.3,0.6
		c0.1,0.7,0.4,1.1,1.1,1.4c0.7,0.2,1.3,0.1,1.6-0.4c0.4-0.7-0.2-1.4-1.2-1.6c-1-0.2-1.9-1.2-1.9-2c0-0.2,0.1-0.6,0.2-0.9
		c0.2-0.6,0.9-1.2,1.7-1.3c0.6-0.1,1.7,0.2,2.2,0.6c0.3,0.3,0.3,0.3,0.6,0.1c0.2-0.2,0.5-0.2,0.6,0C33.3,59.2,32.9,61.1,32.8,61.2"
		/>
	<path class="st0" d="M24.4,60.6c-0.3-0.5-0.3-1-0.1-1.6c0.1-0.3,0.2-0.4,0.4-0.4c0.2,0.1,1.6,0.5,2.2,0.7c0.4,0.1,0.4,0.1,0.5-0.1
		c0.2-0.6-0.3-1.4-1-1.5c-0.2,0-0.6,0-0.9,0.2c-0.9,0.4-1.1-0.1-0.2-0.6c0.6-0.3,0.8-0.3,1.5-0.1c0.5,0.1,0.7,0.2,0.9,0.5
		c0.2,0.2,0.4,0.6,0.4,1c0.2,1.2-0.7,2.6-1.7,2.7c-0.3,0-0.7,0-1-0.1C24.9,61.1,24.5,60.9,24.4,60.6 M25.8,60.7
		c0.6,0.1,1.2-0.3,0.9-0.6c-0.2-0.2-1.6-0.7-1.8-0.6c-0.4,0.2,0,0.9,0.6,1.1C25.6,60.7,25.7,60.7,25.8,60.7"/>
	<path class="st0" d="M24.7,57.3c-0.5-0.2-0.6-0.1-1.3,1c-0.7,1.1-0.8,1.3-0.4,1.6c0.2,0.1,0.2,0.2,0.1,0.4
		c-0.1,0.2-0.2,0.1-0.7-0.1c-0.4-0.2-0.5-0.4-0.6-0.5c0-0.2-0.1-0.2-0.7-0.4c-0.8-0.2-0.9-0.3-1.1-1.1c-0.1-0.3-0.2-0.4-0.3-0.4
		c-1.1,0.1-1.3,0-1.6-0.2c-0.7-0.6-0.6-1.3,0.3-2.9l0.5-0.9l-0.3-0.2c-0.2-0.2-0.2-0.3-0.1-0.5c0.2-0.2,0.2-0.2,1,0.3
		c0.6,0.4,0.9,0.6,0.9,0.8c0,0.3-0.2,0.4-0.6,0.2l-0.3-0.2L19,55c-0.9,1.5-0.9,1.8-0.1,2.1c0.3,0.1,0.5,0,1-0.3c0.4-0.3,0.7-0.6,1-1
		c0.3-0.5,0.4-0.6,0.2-0.7c-0.1-0.1-0.2-0.2-0.2-0.4c0-0.3,0.4-0.3,1,0.1c0.8,0.5,0.9,1.1,0.1,0.9c-0.3-0.1-0.3-0.1-0.8,0.9
		c-0.8,1.4-0.8,1.8,0,2.1c0.3,0.1,1-0.3,1.7-1.1c0.6-0.7,0.6-0.8,0.2-1.2c-0.2-0.3-0.2-0.5,0.2-0.5c0.2,0,1.1,0.5,1.7,1.1
		C25.3,57.1,25,57.4,24.7,57.3"/>
	<path class="st0" d="M16,50.5c-0.3-0.5-0.4-0.5-2.7,1.2c-1.2,0.9-2.2,1.6-2.2,1.7c0,0.1,0,0.3,0.1,0.4c0.2,0.3,0,0.7-0.3,0.6
		c-0.1,0-0.8-1-1.6-2.1c-1.7-2.3-1.6-2.2-0.6-2.9c0.4-0.3,0.8-0.5,1-0.5c0.5,0,0.4,0.3-0.3,0.9c-0.3,0.2-0.6,0.5-0.6,0.5
		c0,0.1,0.4,0.6,0.8,1.3c0.6,0.9,0.9,1.2,1,1.2c0.3,0,1.6-1,1.8-1.3c0.1-0.2,0-0.3-0.3-0.8L11.6,50l-0.5,0.2c-0.5,0.2-0.7,0-0.5-0.3
		c0.2-0.3,1.4-1.2,1.7-1.2c0.4,0,0.4,0.4,0.1,0.6c-0.3,0.2-0.3,0.2,0.3,1.1c0.2,0.2,0.4,0.5,0.5,0.5c0.2,0.1,2-1.2,1.9-1.4
		c0-0.1-0.1-0.3-0.2-0.5c-0.1-0.2-0.1-0.3,0.1-0.4c0.2-0.1,0.3-0.1,0.9,0.8c0.5,0.7,0.7,1,0.6,1.1C16.4,50.7,16.2,50.7,16,50.5"/>
	<path class="st0" d="M13.4,46.5c-0.2,0.1-0.3,0.1-0.4-0.2c-0.1-0.2-0.2-0.3-0.3-0.3c-0.2,0-2.2,0.9-2.4,1.2
		c-0.1,0.1-0.1,0.2-0.1,0.3c0.2,0.1,0.1,0.6-0.1,0.7c-0.1,0.1-0.2,0.1-0.2,0c-0.4-0.7-0.5-1-0.5-1.2c0.1-0.4,0.1-0.5-0.3-0.7
		c-0.2-0.1-0.3-0.3-0.5-0.7C8.4,44.9,8.5,44.2,9,44c0.4-0.2,0.6,0.2,0.3,0.6c-0.1,0.2-0.2,0.4-0.1,0.7c0.2,0.7,0.7,0.9,2.1,0.4
		c0.5-0.2,1-0.3,1.1-0.4c0.1-0.1,0.1-0.3,0-0.4c-0.2-0.3,0-0.6,0.3-0.5c0.2,0.1,1.2,1.8,1.1,1.9C13.7,46.4,13.5,46.5,13.4,46.5"/>
	<path class="st0" d="M7.3,41.9c0.1-0.8,0.3-1,1.6-1.5l1.2-0.4l0.2-0.4c0.1-0.3,0.2-0.4,0.3-0.4c0.2,0,0.4,0.8,0.3,1
		c-0.1,0.1,0,0.3,0.2,0.5c0.4,0.5,0.6,1.2,0.5,1.7c-0.2,0.8-1,1.2-1.6,0.9c-0.5-0.3-0.7-0.5-1-1.3l-0.3-0.7l-0.3,0.1
		c-0.5,0.2-0.6,0.5-0.4,1.1c0.2,0.4,0.4,0.6,0.9,0.7c0.4,0.1,0.3,0.5-0.1,0.6c-0.4,0.1-0.9-0.2-1.3-0.8c-0.1-0.2-0.2-0.4-0.3-0.5
		C7.3,42.2,7.3,42.1,7.3,41.9 M10.7,42.7c0.5-0.1,0.4-1.2-0.1-1.7c-0.3-0.3-0.7-0.3-0.9-0.1c-0.1,0.1-0.1,0.4,0,0.7
		C9.8,42.2,10.3,42.8,10.7,42.7"/>
	<path class="st0" d="M5.6,35.8c0.1,0,0.2,0.2,0.2,0.5c0,0.5,0.4,0.6,0.7,0.1c0.7-1.1,2.4-1.1,3.1,0c0.3,0.5,0.4,1.1,0.2,1.8
		c-0.1,0.5-0.1,0.5,0.3,0.5c0.4-0.1,0.5-0.3,0.4-1.3c-0.2-1.3-0.1-1.9,0.3-2.3c0.2-0.1,0.4-0.3,0.6-0.3c0.4-0.1,1,0.2,1.3,0.5
		c0.3,0.3,0.6,1.7,0.5,2.4c0,0.3-0.2,0.6-0.4,0.9c-0.3,0.4-0.4,0.4-0.9,0.4c-0.6,0-1,0.1-1.5,0.2c-0.3,0.1-0.5,0.1-0.9,0
		c-0.3-0.1-0.5-0.1-0.7,0c-0.3,0.2-1,0.3-1.3,0.2c-0.8-0.3-1.3-0.9-1.4-1.4c0-0.2-0.2-0.4-0.5-0.6c-0.4-0.2-0.5-0.4-0.5-0.7
		C5.1,36.1,5.3,35.7,5.6,35.8 M7.4,38.5c0.7,0.4,1.6,0.1,1.8-0.7c0.2-0.5,0.1-0.8-0.2-1.2c-0.7-0.8-2-0.4-2.2,0.7c0,0.2,0,0.3,0,0.4
		C6.9,38,7.1,38.2,7.4,38.5 M11.5,38.1c0.3,0.4,1.1,0.1,1.1-0.6c0.1-0.6-0.2-1.6-0.4-1.9c-0.3-0.4-0.7-0.4-0.9,0
		c-0.1,0.2-0.1,1,0,1.7C11.3,37.7,11.4,38,11.5,38.1"/>
	<path class="st0" d="M9.8,35.1c-0.2,0-0.3-0.1-0.3-0.3c0-0.2-0.1-0.4-0.1-0.4c-0.2-0.1-2.4-0.2-2.7,0c-0.1,0.1-0.2,0.2-0.2,0.2
		C6.6,34.7,6.3,35,6.1,35C6,35,5.9,35,5.9,35c-0.1-0.8-0.1-1.1,0.1-1.3c0.3-0.3,0.3-0.4,0-0.7c-0.1-0.2-0.2-0.4-0.1-0.9
		C6,31.3,6.5,30.8,7,30.9c0.5,0,0.5,0.4,0,0.7c-0.2,0.1-0.4,0.3-0.4,0.6c-0.2,0.8,0.3,1.1,1.7,1.3c0.5,0.1,1.1,0.1,1.1,0.1
		c0.1,0,0.2-0.2,0.2-0.4c0-0.4,0.3-0.6,0.5-0.3c0.1,0.1,0.2,2.1,0.1,2.2C10.1,35,9.9,35.1,9.8,35.1"/>
	<path class="st0" d="M4.7,28.4c0,0,0.1-0.1,0.2-0.1C5,28.2,5,28.1,5,28.1c0,0,0.2-0.2,0.3-0.2c0.1,0,0.1,0,0.2,0
		c0,0,0.1,0.1,0.1,0.1c0,0,0,0.1,0,0.2c0,0.1,0,0.1-0.2,0.3c-0.2,0.1-0.2,0.1-0.2,0.2c0,0,0.2,0.2,0.2,0.2c0,0,0,0,0,0.1
		c0,0,0,0,0,0.1c0,0.1,0,0.1,0,0.2c0,0,0,0.1-0.1,0.1c0,0-0.1,0.1-0.1,0.1c0,0-0.1,0-0.1,0c-0.1,0-0.1,0-0.1,0c0,0-0.1-0.1-0.1-0.2
		C4.9,29.1,4.8,29,4.8,29c-0.1-0.1-0.2-0.3-0.2-0.3c0,0,0-0.1,0-0.1C4.6,28.5,4.7,28.4,4.7,28.4 M6.4,28.1c0.4-0.7,0.7-0.8,2.1-0.6
		l1.3,0.2l0.3-0.3c0.2-0.2,0.4-0.3,0.5-0.2c0.1,0.1,0,0.9-0.1,1c-0.1,0.1-0.1,0.2,0,0.5c0.2,0.6,0,1.3-0.3,1.7
		c-0.5,0.7-1.4,0.7-1.8,0.1C8,30.1,7.9,29.8,7.9,29L8,28.2l-0.4-0.1c-0.5-0.1-0.8,0.2-0.8,0.8c0,0.5,0.1,0.7,0.5,1.1
		c0.3,0.3,0,0.6-0.4,0.5c-0.4-0.1-0.7-0.6-0.8-1.3c0-0.3,0-0.4,0-0.6C6.2,28.5,6.3,28.3,6.4,28.1 M9.1,30.4c0.5,0.1,0.9-0.9,0.7-1.6
		c-0.1-0.4-0.4-0.6-0.8-0.5c-0.2,0.1-0.3,0.3-0.3,0.6C8.5,29.5,8.7,30.3,9.1,30.4"/>
	<path class="st0" d="M10.2,26.6c0.1-0.4,0.1-0.3-1.6-0.9c-1-0.4-1-0.4-1.2,0C7.2,25.8,7.1,26,7,26c-0.2,0-0.3-0.3-0.2-0.8
		c0.1-0.4,0.1-0.5,0.5-0.6l0.4-0.2l-0.1-0.5c-0.1-0.7,0.2-1.6,0.8-1.9c0.5-0.2,0.8-0.2,2.2,0.2l1,0.3l0.2-0.4
		c0.1-0.3,0.2-0.3,0.4-0.3c0.2,0.1,0.2,0.2,0,0.9c-0.1,0.6-0.3,0.9-0.4,1.1c-0.3,0.3-0.6,0.1-0.5-0.3c0.1-0.3,0.1-0.3-0.8-0.7
		c-1.4-0.6-2-0.5-2.3,0.4c-0.3,0.7,0.5,1.6,1.7,2c0.6,0.2,0.6,0.2,0.8-0.1c0.2-0.4,0.4-0.4,0.6-0.1c0.1,0.2,0,0.4-0.2,1.1
		c-0.2,0.6-0.4,0.9-0.5,0.9C10.3,27.1,10.1,26.9,10.2,26.6"/>
	<path class="st0" d="M11.3,21.7c-1.1-0.3-1.9-0.9-2-1.7c-0.1-0.5,0-1.3,0.3-1.6c0.1-0.1,0.3-0.4,0.4-0.6c0.2-0.5,0.5-0.5,0.9-0.2
		c0.4,0.3,0.4,0.6-0.1,0.7c-0.3,0.1-0.5,0.2-0.7,0.6c-0.3,0.6-0.3,0.9-0.1,1.3c0.4,0.7,1.2,1,1.9,0.8c0.8-0.2,1.1-1,0.7-2
		c-0.1-0.2-0.1-0.4,0-0.5c0.5-0.4,1,0.8,0.7,1.7c-0.2,0.6-0.2,0.7-0.6,1C12.4,21.7,11.9,21.9,11.3,21.7"/>
	<path class="st0" d="M10.8,15c0.2,0.2,0.1,0.4-0.2,0.4c-0.2,0-0.2,0-0.3-0.2c0-0.1,0-0.1,0-0.2C10.6,14.9,10.7,14.9,10.8,15
		 M11.5,15.5c0.1-0.1,0.5,0.2,1.6,0.9c0.8,0.5,1.4,1,1.5,1c0,0,0.2-0.1,0.3-0.2c0.2-0.3,0.5-0.4,0.7-0.1c0.1,0.2,0,0.3-0.4,0.9
		c-0.3,0.4-0.6,0.7-0.7,0.9c-0.4,0.3-0.6,0-0.4-0.4c0.2-0.4,0.1-0.5-1.1-1.4l-1-0.7l-0.3,0.3c-0.3,0.3-0.6,0.3-0.7,0
		c0-0.1,0.2-0.6,0.4-0.9C11.3,15.7,11.4,15.6,11.5,15.5"/>
	<path class="st0" d="M13.9,12.6c0.8-0.4,1-0.3,2.1,0.7l0.9,0.8l0.5-0.1c0.3,0,0.5,0,0.5,0.1c0.1,0.2-0.5,0.8-0.7,0.8
		c-0.1,0-0.2,0.1-0.3,0.4c-0.2,0.6-0.7,1.1-1.2,1.3c-0.8,0.2-1.6-0.2-1.6-0.9c0-0.6,0.1-0.9,0.6-1.5l0.5-0.6L15,13.3
		c-0.4-0.4-0.8-0.3-1.1,0.2c-0.3,0.4-0.3,0.6-0.2,1.2c0.1,0.4-0.3,0.5-0.6,0.2c-0.3-0.3-0.3-0.9,0.1-1.5c0.1-0.2,0.2-0.4,0.3-0.5
		C13.6,12.8,13.8,12.7,13.9,12.6 M14.9,16c0.4,0.3,1.3-0.3,1.4-1c0.1-0.4,0-0.7-0.4-0.8c-0.2,0-0.4,0.1-0.6,0.3
		C15,15,14.7,15.7,14.9,16"/>
	<path class="st0" d="M17.3,13.6c-0.3-0.4-0.1-0.6,0.4-0.4c0.4,0.2,0.8,0.1,1.1-0.3c0.6-0.9-0.1-1.5-1-0.7c-0.7,0.6-2,0.3-2.1-0.5
		c-0.1-0.7,0.1-1,1.3-1.9l0.5-0.3l0.4,0.4c0.5,0.5,0.4,0.7-0.2,0.7c-0.3,0-0.5,0.1-0.8,0.3c-0.4,0.3-0.4,0.3-0.3,0.6
		c0.1,0.3,0.1,0.3,0.4,0.4c0.2,0,0.5-0.1,0.8-0.2c0.9-0.6,1.4-0.6,1.9-0.1c0.5,0.5,0.3,1.3-0.3,2c-0.2,0.2-0.5,0.5-0.6,0.5
		C18.1,14.1,17.5,13.9,17.3,13.6"/>
	<path class="st0" d="M22,8.5c0.1-0.3,0.4-0.2,0.7,0.2C23.4,9.3,24.1,9.4,25,9c0.8-0.4,1.2-1,1-1.8c-0.1-0.5-0.2-0.6-0.4-0.8
		c-0.4-0.3-1.2-0.4-1.7-0.1c-1.3,0.6-2.4,0.4-2.8-0.5c-0.3-0.6-0.2-1.2,0.2-1.8c0.4-0.6,1-0.8,1.9-0.9c0.4,0,0.5,0,0.5-0.2
		c0-0.1,0.1-0.3,0.3-0.3c0.2,0,0.3,0,0.6,0.7c0.5,1,0.6,1.3,0.3,1.4c-0.2,0.1-0.3,0-0.6-0.3c-0.5-0.6-1-0.7-1.6-0.5
		c-0.7,0.2-1.1,0.7-1,1.3c0.1,0.8,0.9,1,1.9,0.6c0.9-0.4,2.3-0.2,2.8,0.5c0.1,0.2,0.3,0.6,0.4,0.8c0.2,0.6-0.1,1.5-0.6,2.1
		c-0.5,0.5-1.4,0.9-2.1,0.8c-0.4,0-0.4,0-0.5,0.3c0,0.3-0.2,0.5-0.4,0.4C22.8,10.4,22,8.6,22,8.5"/>
	<path class="st0" d="M27.2,4.2c0.1,0,0.3,0.4,0.7,1.6c0.3,0.9,0.6,1.6,0.6,1.7c0,0,0.2,0,0.3,0c0.4-0.1,0.6,0,0.6,0.3
		c0,0.2-0.2,0.3-0.8,0.5c-0.4,0.1-0.9,0.2-1.1,0.2C27,8.5,27,8.2,27.4,8c0.4-0.2,0.4-0.3-0.1-1.8L27,5.1l-0.4,0
		c-0.4,0-0.7-0.2-0.5-0.4c0.1-0.1,0.5-0.3,0.8-0.4C27,4.2,27.1,4.2,27.2,4.2 M27.1,3.4c0,0.3-0.2,0.4-0.4,0.2
		c-0.1-0.1-0.2-0.2-0.1-0.3c0-0.1,0.1-0.1,0.2-0.1C26.9,3.1,27,3.2,27.1,3.4"/>
	<path class="st0" d="M29.9,7.1C30.2,7,30.2,7.1,30,5.2c-0.2-1.1-0.1-1.1-0.6-1.1c-0.2,0-0.4-0.1-0.5-0.1c-0.1-0.2,0.1-0.4,0.6-0.6
		c0.4-0.1,0.5-0.1,0.8,0.1l0.3,0.2L31,3.5c0.6-0.4,1.5-0.5,2-0.1c0.4,0.3,0.6,0.6,0.9,2l0.2,1.1l0.4,0c0.3,0,0.4,0.1,0.4,0.2
		c0,0.2-0.1,0.3-0.8,0.5c-0.6,0.2-0.9,0.2-1.2,0.1c-0.4-0.1-0.4-0.5,0-0.6c0.3-0.1,0.3-0.1,0.2-1c-0.2-1.5-0.5-2-1.4-1.9
		c-0.8,0.1-1.2,1.2-1,2.5c0.1,0.6,0.1,0.6,0.5,0.6c0.5,0,0.6,0.2,0.4,0.5c-0.1,0.2-0.4,0.2-1.1,0.3c-0.6,0.1-1,0.1-1,0
		C29.4,7.4,29.5,7.2,29.9,7.1"/>
	<path class="st0" d="M34.9,4.9l-0.1-1.3l-0.4-0.1c-0.2-0.1-0.4-0.2-0.4-0.3c0-0.2,0-0.2,0.6-0.4l0.3-0.1l0-1.3c0-1.1,0-1.3,0.2-1.3
		c0.3-0.1,0.4,0.2,0.4,1.4l0,1.2l0.4,0.1c0.2,0,0.4,0.1,0.5,0.2c0.1,0.2-0.3,0.5-0.6,0.5c-0.2,0-0.2,0.1-0.2,1.2
		c0,1.7,0.3,2.1,1.1,1.5C36.9,6,37.1,6,37.2,6.2c0.4,0.5-1,1.2-1.7,0.8C35.1,6.8,35,6.4,34.9,4.9"/>
	<path class="st0" d="M40.8,3.5C41.2,4,41.4,4.5,41.3,5c0,0.4-0.1,0.5-0.3,0.4c-0.2,0-1.7-0.1-2.3-0.2c-0.4,0-0.4,0-0.5,0.2
		c-0.1,0.7,0.6,1.3,1.4,1.2c0.2,0,0.6-0.2,0.8-0.4c0.8-0.6,1.1-0.1,0.4,0.5c-0.5,0.5-0.7,0.5-1.4,0.5c-0.5,0-0.7-0.1-1-0.3
		c-0.2-0.2-0.5-0.5-0.6-0.8c-0.5-1.1,0-2.6,1-3c0.3-0.1,0.7-0.2,1-0.1c0,0,0.1,0,0.1,0C40.2,3.2,40.6,3.3,40.8,3.5 M39.4,3.7
		c-0.6,0.1-1.1,0.6-0.8,0.8c0.3,0.1,1.7,0.3,1.9,0.2c0.4-0.3-0.2-0.9-0.9-1C39.6,3.7,39.5,3.7,39.4,3.7 M40.1,1.5
		c0.1,0,0.2,0.1,0.2,0.2c0,0,0,0.1,0,0.1l0,0.1l0,0c0,0-0.1,0.1-0.3,0.3c-0.1,0.1-0.1,0.1-0.2,0.1c0,0-0.1,0-0.1,0.1
		c-0.1,0.1-0.1,0.1-0.2,0.1c-0.1,0-0.1,0-0.1,0c-0.1,0-0.1-0.1-0.1-0.2c0,0,0-0.1,0-0.1c0-0.1,0.1-0.2,0.1-0.2c0,0,0,0,0.1,0
		c0,0,0,0,0.1-0.1c0.2-0.1,0.3-0.2,0.3-0.2c0.1-0.1,0.2-0.1,0.2-0.1C40,1.5,40,1.5,40.1,1.5C40.1,1.5,40.1,1.5,40.1,1.5"/>
	<path class="st0" d="M42.1,5.6l0.2-1.3L42,4.1c-0.2-0.1-0.4-0.3-0.3-0.4c0-0.2,0.1-0.2,0.6-0.2l0.3,0L43,2.2
		C43.3,1.1,43.4,1,43.5,1c0.3,0,0.4,0.3,0.1,1.5l-0.3,1.1l0.4,0.2c0.2,0.1,0.4,0.2,0.4,0.3c0,0.2-0.5,0.4-0.7,0.3
		c-0.2,0-0.2,0.1-0.5,1.1c-0.4,1.6-0.2,2.1,0.7,1.7c0.4-0.2,0.5-0.2,0.6,0.1c0.3,0.6-1.3,0.9-1.9,0.4C41.9,7.4,41.9,7,42.1,5.6"/>
	<path class="st0" d="M46.7,4.8c0.1,0.1,0,0.5-0.4,1.7c-0.3,0.9-0.6,1.6-0.6,1.7c0,0,0.1,0.1,0.3,0.2c0.4,0.1,0.5,0.4,0.3,0.6
		c-0.1,0.1-0.3,0.1-0.9-0.1c-0.4-0.2-0.9-0.4-1-0.5c-0.4-0.3-0.2-0.6,0.3-0.5c0.5,0.1,0.5,0,1-1.5L46,5.4l-0.3-0.2
		c-0.3-0.2-0.4-0.6-0.2-0.6c0.1-0.1,0.6,0,0.9,0.2C46.6,4.7,46.7,4.8,46.7,4.8 M47.1,4.1C47,4.3,46.8,4.3,46.7,4
		c-0.1-0.2,0-0.2,0.1-0.3c0.1,0,0.1,0,0.2,0C47.1,3.8,47.2,3.9,47.1,4.1"/>
	<path class="st0" d="M46.7,8c0.3-1.1,0.9-1.9,1.7-2.1c0.5-0.1,1.3,0,1.6,0.3c0.1,0.1,0.4,0.3,0.6,0.4c0.5,0.2,0.5,0.5,0.2,0.9
		c-0.3,0.5-0.6,0.4-0.7-0.1c-0.1-0.3-0.2-0.5-0.6-0.7c-0.6-0.3-0.9-0.3-1.3,0c-0.6,0.5-0.9,1.3-0.7,1.9c0.3,0.8,1.1,1.1,2,0.7
		c0.2-0.1,0.4-0.1,0.5,0c0.4,0.4-0.7,1-1.6,0.8c-0.6-0.1-0.7-0.2-1-0.5C46.7,9.1,46.6,8.5,46.7,8"/>
	<path class="st0" d="M53.8,8.7c0.5,0.7,0.4,1-0.4,2.2l-0.7,1l0.1,0.4c0.1,0.3,0.1,0.5,0,0.5c-0.2,0.1-0.8-0.4-0.9-0.6
		c0-0.1-0.2-0.2-0.5-0.3c-0.6-0.1-1.2-0.6-1.4-1.1c-0.3-0.8,0-1.6,0.8-1.7c0.6-0.1,0.9,0,1.6,0.4l0.7,0.4l0.2-0.3
		c0.3-0.4,0.2-0.8-0.3-1.1c-0.4-0.2-0.7-0.2-1.2,0c-0.4,0.1-0.5-0.3-0.3-0.6c0.3-0.3,0.9-0.4,1.5-0.1c0.2,0.1,0.4,0.2,0.5,0.2
		C53.6,8.4,53.7,8.5,53.8,8.7 M50.6,10.1c-0.3,0.4,0.4,1.2,1.2,1.3c0.4,0.1,0.7-0.1,0.8-0.5c0-0.2-0.2-0.4-0.4-0.6
		C51.6,10,50.8,9.8,50.6,10.1"/>
	<path class="st0" d="M53.2,12.1c0.4-0.3,0.6-0.1,0.4,0.4c-0.2,0.5,0,0.8,0.5,1.1c1,0.5,1.4-0.3,0.6-1.1c-0.7-0.6-0.5-1.9,0.3-2.1
		c0.7-0.2,1,0,2,1l0.4,0.4l-0.3,0.4c-0.4,0.5-0.7,0.5-0.7-0.1c0-0.3-0.1-0.5-0.4-0.8c-0.3-0.3-0.4-0.4-0.7-0.3
		C55,11.1,55,11.1,55,11.4c0,0.2,0.1,0.5,0.3,0.7c0.7,0.8,0.8,1.4,0.3,1.9c-0.5,0.5-1.2,0.5-2-0.1c-0.3-0.2-0.5-0.4-0.6-0.6
		C52.8,13,52.9,12.4,53.2,12.1"/>
	<path class="st0" d="M36.6,61.8c-0.3,0-0.5-0.2-0.5-0.5c0-0.3,0.2-0.5,0.5-0.5c15.3,0,27.8-12.5,27.8-27.8c0-6.2-2-12.1-5.8-17
		c-0.2-0.2-0.1-0.5,0.1-0.7c0.2-0.2,0.5-0.1,0.7,0.1c4,5.1,6,11.2,6,17.7C65.4,48.9,52.5,61.8,36.6,61.8"/>
	<path class="st0" d="M31.4,22.1c-0.3-0.1-0.4-0.4-0.3-0.7c0.1-0.3,0.4-0.4,0.7-0.3c1.3,0.6,2.3,1.4,3.2,2.6c0.4-1.2,0.4-2.2-0.1-3
		c-1.1-1.7-4.3-2-6-2c0,2.6,0.5,4.3,1.8,5.2c1.2,0.9,2.7,0.7,3.6,0.5C33.6,23.5,32.7,22.6,31.4,22.1"/>
	<path class="st0" d="M41.6,27.7c0.3-0.1,0.6-0.1,0.7,0.2c0.1,0.3,0.1,0.6-0.2,0.7c0,0-1.3,0.8-2.4,2.7c1.1,0.4,1.9,0.4,2.6-0.1
		c1.5-1,1.8-3.8,1.8-5.3c-2.3-0.1-3.9,0.5-4.7,1.5c-0.8,1-0.7,2.3-0.5,3.1C40.2,28.5,41.5,27.7,41.6,27.7"/>
	<path class="st0" d="M36.5,9.9C23.8,9.9,13.4,20.3,13.4,33c0,12.7,10.3,23.1,23.1,23.1S59.6,45.8,59.6,33
		C59.6,20.3,49.3,9.9,36.5,9.9 M52.5,33.4l-3.9,8.8c-0.8,1.9-2.6,3.4-4.6,3.9l-0.7,0.2l-4,1.6c-1,0.4-2,0.6-3,0.6
		c-1.1,0-2.2-0.2-3.3-0.7l-5-2.2c-1.8-0.8-3.7-1.3-5.6-1.5L20.9,44c-0.3,0-0.5-0.3-0.5-0.5v-5.1c0-0.1,0-0.2,0.1-0.3
		c0.1-0.2,3-4,7.5-3c2.5,0.6,4.5,1.6,5.8,2.4c0.8,0.5,1.8,0.8,2.8,0.8c0-0.5,0.1-1,0.1-1.4c0.2-2.6,0.1-7.8-1.9-11.4
		c-0.4,0.1-1.1,0.2-1.9,0.2c-0.9,0-2-0.2-2.9-0.9c-1.6-1.2-2.3-3.4-2.2-6.6c0-0.3,0.2-0.5,0.5-0.5c0.2,0,5.6-0.3,7.4,2.4
		c0.8,1.2,0.8,2.8-0.1,4.6c1,1.7,1.6,3.9,1.9,6.5c0.1,0.5,0.1,0.9,0.1,1.4c0.1-0.3,0.3-0.6,0.4-0.9c-0.1-0.1-0.1-0.1-0.1-0.2
		c0-0.1-1-2.8,0.5-4.8c1.1-1.4,3.1-2.1,6-1.9c0.3,0,0.5,0.2,0.5,0.5c0,0.2,0.2,5.1-2.3,6.8c-0.5,0.3-1.1,0.5-1.8,0.5
		c-0.6,0-1.2-0.1-1.9-0.4c-0.6,1.2-1.1,2.7-1.4,4.7c0,0.6-0.1,1.1-0.1,1.4h4.1c0.9,0,1.6,0.5,2,1.1l4.3-4.9c0.8-1.1,2.2-1.8,3.6-1.8
		h0.3c0.2,0,0.3,0.1,0.4,0.2C52.6,33.1,52.6,33.3,52.5,33.4"/>
	<path class="st0" d="M49,35.1l-4.7,5.4c0,0,0,0,0,0.1c0,1.3-1.1,2.4-2.4,2.4h-6.9c-0.9,0-1.8,0.1-2.6,0.4L32.1,43l-0.2-0.5l0,0
		c1-0.3,2-0.5,3-0.5h6.9c0.7,0,1.3-0.6,1.3-1.3s-0.6-1.3-1.3-1.3h-5c-1.3,0-2.6-0.4-3.6-1c-1.2-0.7-3.1-1.7-5.4-2.2
		c-3.4-0.7-5.8,1.8-6.3,2.5V43l1.2,0.1c2.1,0.2,4.1,0.7,5.9,1.5l5,2.2c1.7,0.8,3.8,0.8,5.5,0.1l4-1.6c0,0,0,0,0.1,0l0.7-0.2
		c1.7-0.4,3.2-1.7,3.9-3.3l3.5-8C50.3,33.9,49.5,34.4,49,35.1"/>
</g>
</svg>
