<?xml version="1.0" encoding="utf-8"?>
<!-- Generator: Adobe Illustrator 22.0.0, SVG Export Plug-In . SVG Version: 6.00 Build 0)  -->
<svg version="1.1" id="Camada_1" xmlns:figma="http://www.figma.com/figma/ns"
	 xmlns="http://www.w3.org/2000/svg" xmlns:xlink="http://www.w3.org/1999/xlink" x="0px" y="0px" viewBox="0 0 109 102.6"
	 style="enable-background:new 0 0 109 102.6;" xml:space="preserve">
<style type="text/css">
	.st0{fill:#FFFFFF;}
</style>
<title>Logo</title>
<g>
	<path class="st0" d="M64.4,23.9C64.4,23.9,64.4,23.8,64.4,23.9c0.3-0.2,0.4-0.4,0.4-0.6c0.1-0.6-0.1-1.3-0.1-1.9
		c-0.1-1.1-0.4-2.2-0.5-3.3c-0.2-1.8,0.4-4.3-0.5-6c-0.5-1-1.6-1.3-2.7-1.5c-2.8-0.4-5.7-0.6-8.5-0.5c-1.8,0.1-4.1-0.2-5.7,0.9
		c-1,0.8-1.2,1.8-1.3,3c-0.1,1.5,0,3.1-0.1,4.6c0,1.1-0.1,2.1-0.2,3.2c-0.1,0.6-0.4,1.5,0.2,1.9c0.4,0.3,1,0.2,1.5,0.3
		c0.6,0,1.2,0.1,1.8,0.1c2.7,0.1,5.4,0.1,8,0.1c1.3,0,2.7,0,4-0.1c0.7,0,1.4,0,2.1-0.1C63.2,24,63.9,24.1,64.4,23.9z"/>
	<path class="st0" d="M74.1,68c0-5,0-10,0-15c0-2.5,0-5,0-7.5c0-2.4,0.1-4.7-0.4-7.1c-0.6-2.5-2.1-4-3.7-5.8c-1.4-1.5-2.8-3-4.2-4.4
		c-0.7-0.7-1.4-1.5-2.1-2.2c-0.2-0.2-1.2-1.1-1.2-1.6c-2.6,0.1-5.3,0.1-8,0.1c-2.6,0-5.2,0-7.7-0.1c-0.1,0.3-0.5,0.6-0.7,0.8
		c-0.7,0.7-1.3,1.3-2,2c-1.3,1.3-2.6,2.6-3.9,3.9c-2,2-3.9,4.2-4.8,6.9c0,0.6-0.4,1.3-0.4,1.9c-0.4,2.5-0.2,5.1-0.2,7.6
		c0,9.8,0.1,19.6,0,29.5c0,2.3-0.1,4.6,0.4,6.9c0.4,1.9,1.3,3.7,2.9,5c2.4,1.9,5.5,2.6,8.4,2.9c4.5,0.6,9.1,0.8,13.7,0.3
		c4.2-0.5,9.8-1.1,12.2-5.1c1.5-2.6,2-5.8,1.8-8.8C73.9,75,74.1,71.5,74.1,68z"/>
</g>
</svg>
