<svg xmlns="http://www.w3.org/2000/svg" viewBox="0 0 70 70"><defs><style>.a{fill:#fff;}</style></defs><title>hazard</title><path class="a" d="M14.81,35.74H27.6a.7.7,0,0,0,.7-.71,6.76,6.76,0,0,1,3.57-6,.72.72,0,0,0,.35-.43.73.73,0,0,0-.07-.54l-6.45-11a.71.71,0,0,0-1-.25A21,21,0,0,0,14.11,35,.7.7,0,0,0,14.81,35.74Z"/><path class="a" d="M35,0A35,35,0,1,0,70,35,35,35,0,0,0,35,0ZM5,35A29.94,29.94,0,0,1,54.89,12.62L12.62,54.89A29.82,29.82,0,0,1,5,35ZM35,65a29.84,29.84,0,0,1-19.59-7.31L57.65,15.41A29.94,29.94,0,0,1,35,65Z"/><path class="a" d="M45.35,16.81a.7.7,0,0,0-1,.25L38,28.11a.65.65,0,0,0-.1.36l10-10A20.07,20.07,0,0,0,45.35,16.81Z"/><path class="a" d="M51.78,22.46,41.42,32.82A6.83,6.83,0,0,1,41.79,35a.71.71,0,0,0,.71.71H55.3A.71.71,0,0,0,56,35s0-.09,0-.14A21,21,0,0,0,51.78,22.46Z"/><path class="a" d="M29.93,35a4.83,4.83,0,0,0,.15,1.21l6.18-6.18a5.42,5.42,0,0,0-1.21-.15A5.12,5.12,0,0,0,29.93,35Z"/><path class="a" d="M40.17,35a5.14,5.14,0,0,0-.08-.88l-5.92,5.92a5.05,5.05,0,0,0,.88.08A5.12,5.12,0,0,0,40.17,35Z"/><path class="a" d="M39.4,41.11a.64.64,0,0,0-.43-.32.7.7,0,0,0-.53.07,6.86,6.86,0,0,1-5.6.54L27,47.23l-2.79,4.93a.7.7,0,0,0,.26,1,21,21,0,0,0,21.11,0,.7.7,0,0,0,.25-1Z"/></svg>