<?xml version="1.0" encoding="utf-8"?>
<!-- Generator: Adobe Illustrator 22.0.0, SVG Export Plug-In . SVG Version: 6.00 Build 0)  -->
<svg version="1.1" id="Camada_1" xmlns:figma="http://www.figma.com/figma/ns"
	 xmlns="http://www.w3.org/2000/svg" xmlns:xlink="http://www.w3.org/1999/xlink" x="0px" y="0px" viewBox="0 0 109 102.6"
	 style="enable-background:new 0 0 109 102.6;" xml:space="preserve">
<style type="text/css">
	.st0{fill:#FFFFFF;}
</style>
<title>Logo</title>
<g>
	<path class="st0" d="M50.1,43L50.1,43c0-0.2,0-0.4,0-0.6c-0.1-0.7,0-1.7-0.3-2.3c-0.2-0.3-0.5-0.6-0.7-0.9
		c-0.3-0.5-0.3-1.2-0.3-1.8c0-1.6,0-3.1,0-4.7c0-0.8,0-1.6,0-2.4c0-0.7,0-1.8-0.8-2.1c-0.3-0.1-0.6,0-0.9-0.1
		c-0.8-0.2-0.9-1.1-1.1-1.8c-0.2-1.1,0-2.3,0-3.6s0.1-2.7,0.2-4c0-1.1-0.1-2.3-0.7-3.2c-0.7-1.2-2.2-1.8-3.6-1.9c-1,0-2.1,0.3-2.8,1
		c-0.6,0.6-1,1.4-1.2,2.3c-0.4,2-0.1,4.1-0.2,6.1c0,0.9,0,1.8-0.1,2.6c-0.1,0.7-0.3,2.3-1.1,2.5c-0.3,0.1-0.6,0.1-1,0.2
		c-0.8,0.1-0.9,1.4-0.9,2.1c0,1.2-0.1,2.4-0.1,3.6c0,0.9,0,1.8,0,2.7c0,0.7,0.2,1.5,0,2.2c-0.1,0.4-0.6,0.6-0.8,1s-0.3,0.8-0.3,1.2
		c-0.1,0.5-0.3,1.1-0.1,1.7c0.2,0.7,0.9,0.8,1.5,0.8c4.7,0.4,9.7,0.7,14.4,0.2C49.6,43.7,50,43.5,50.1,43z"/>
	<path class="st0" d="M49.8,44.7c-0.2-0.1-0.5-0.3-0.6-0.5c-1.9,0.1-3.8,0.2-5.8,0.2c-3.2,0-6.4-0.2-9.5-0.5
		c-0.2,0.3-0.6,0.4-0.9,0.7c-0.5,0.4-1,0.9-1.4,1.4c-0.8,1.1-1.4,2.4-1.5,3.7c-0.2,2.2-0.1,4.4-0.1,6.6c0,0.3,0.1,23.1,0.2,25.1
		c0,1.7-0.2,3.6,0.8,5.1c1.2,1.7,3.9,1.9,5.8,2.2c2.3,0.3,4.6,0.4,6.8,0.2c1.9-0.1,3.7-0.4,5.6-0.9c1.4-0.4,2.7-1.1,3.4-2.4
		c0.7-1.3,0.6-2.9,0.6-4.3s0-2.9,0-4.3c0-8.7,0.2-17.3,0-26C52.9,48.3,51.9,46.3,49.8,44.7z"/>
</g>
</svg>
