<svg xmlns="http://www.w3.org/2000/svg" viewBox="0 0 70 68.36"><defs><style>.a{fill:#fff;}</style></defs><title>rabbit</title><path class="a" d="M33.3.82c-.64,0-.74.11-.86.47a3.73,3.73,0,0,0,.62,2.64c1.35,2.46,5,6.12,12.12,10A11.12,11.12,0,0,1,49,11.3a54.36,54.36,0,0,1-9.08-6.49C37,2.33,35.07.82,33.3.82ZM23.09,9.24c-.59,0-.72.13-.78.21a1,1,0,0,0-.08.79A9.75,9.75,0,0,0,25,14.7a19.58,19.58,0,0,0,16.88,5.35,1.54,1.54,0,0,1,1.94,1.47A2.68,2.68,0,0,1,43.4,23c-.37.82-.67,1.8-.67,1.77h0c.31,2.31,2.22,4,5,5.33a29.27,29.27,0,0,0,9.07,2.27,24,24,0,0,0,6.3-.21,4.69,4.69,0,0,1-.51-1.31,5.12,5.12,0,0,1,.63-3.6,7.6,7.6,0,0,1,5-3.51,34.61,34.61,0,0,0-2.62-3.79c-3.07-3.85-7.31-7.24-10.48-7.3s-6.79.93-8.83,3.73a1.78,1.78,0,0,1-1.24.69A3.47,3.47,0,0,1,44,17a14.53,14.53,0,0,1-2.4-.7c-1.82-.66-4.1-1.68-6.49-2.74s-4.88-2.17-7-3a18.54,18.54,0,0,0-4.93-1.35Zm34.57,9.54a2.51,2.51,0,1,1-.07,0ZM2.1,26a1.51,1.51,0,0,0-.62.19h0A3.11,3.11,0,0,0,.11,28.71,15.12,15.12,0,0,0,.4,33.88a21.71,21.71,0,0,0,1.87,5.34,11,11,0,0,0,1.47,2.17A18.13,18.13,0,0,1,8,33.93a6.42,6.42,0,0,1-1.28-1.09A16.14,16.14,0,0,1,4.31,29,13,13,0,0,0,2.67,26.3.88.88,0,0,0,2.21,26Zm67.42.32a5.15,5.15,0,0,0-3.9,2.3,2.27,2.27,0,0,0-.33,1.62A2.16,2.16,0,0,0,66,31.38a7.3,7.3,0,0,0,4-3.23c0,.06,0-.2-.08-.64a7.53,7.53,0,0,0-.4-1.19ZM38.94,27.52H37.82c-11,.12-18.58,2.08-23.52,5C8.66,35.77,6.34,40.2,5.85,45s1,10.09,3.39,14.56a27.46,27.46,0,0,0,8,9.59H44.07a2,2,0,0,0-.24-.8,4,4,0,0,0-1.54-1.49,22.71,22.71,0,0,0-6.9-2.23c-2.73-.52-5.58-.86-7.8-1.23a19.08,19.08,0,0,1-2.86-.63,3.85,3.85,0,0,1-1.13-.56,2,2,0,0,1-.81-1.53,1.51,1.51,0,0,1,.36-1,1.33,1.33,0,0,1,.43-.33,1.63,1.63,0,0,1,.48-.18,6.23,6.23,0,0,1,.79-.12c.58-.07,1.34-.12,2.26-.19,1.85-.13,4.33-.32,6.93-.72,5.2-.79,10.69-2.58,12.5-5.61a4.3,4.3,0,0,0-.08-4.8A11.09,11.09,0,0,0,41,43.58c-5.21-2-13-1.92-20.45,3.46l-1.62-2.25a26.23,26.23,0,0,1,15.25-5.2A21.12,21.12,0,0,1,42,41a13.61,13.61,0,0,1,6.87,5.38A7.34,7.34,0,0,1,48.92,54c-2.71,4.54-9,6.1-14.46,6.93-.91.14-1.74.23-2.59.32,1.29.2,2.66.41,4,.67a24.22,24.22,0,0,1,7.83,2.58,6.66,6.66,0,0,1,2.56,2.6,4.76,4.76,0,0,1,.52,2.06H67a2.84,2.84,0,0,0,.6-.63.3.3,0,0,0,0-.31,7.2,7.2,0,0,0-1.19-1.72,7.4,7.4,0,0,0-3.34-1.63,14.9,14.9,0,0,0-5.28-.34l-.36,0-.34-.13a3.11,3.11,0,0,1-1.89-2.52,5.78,5.78,0,0,1,.73-2.84c.87-1.89,2.28-4.06,3.42-6.58a17.58,17.58,0,0,0,1.8-8.3c-.18-2.88-1.3-6-4.29-9.38l-.28,0h0a31.49,31.49,0,0,1-9.88-2.49,11.73,11.73,0,0,1-5.61-4.79l-2.13,0Z" transform="translate(0 -0.82)"/></svg>