<?xml version="1.0" encoding="utf-8"?>
<!-- Generator: Adobe Illustrator 22.0.0, SVG Export Plug-In . SVG Version: 6.00 Build 0)  -->
<svg version="1.1" id="Camada_1" xmlns:figma="http://www.figma.com/figma/ns"
	 xmlns="http://www.w3.org/2000/svg" xmlns:xlink="http://www.w3.org/1999/xlink" x="0px" y="0px" viewBox="0 0 109 102.6"
	 style="enable-background:new 0 0 109 102.6;" xml:space="preserve">
<style type="text/css">
	.st0{fill:#FFFFFF;}
</style>
<title>Logo</title>
<g>
	<path class="st0" d="M67.1,40.3c0.3-6.5,0.7-13.4-0.6-19.8c-0.5-2.5-1.4-5-2.7-7.3c-1.1-1.9-2.2-3.9-4.2-5
		c-1.1-0.6-2.5-0.8-3.7-0.9c-4.5-0.5-9-0.5-13.4,0.1c-2.9,0.4-4.3,1.5-5.8,4C35,14,33.7,16.9,33,20c-0.9,4.2-0.8,8.9-1,13.2
		c-0.1,2.2-0.1,4.3-0.1,6.5c6.5,0.7,13.4,1.1,20.5,1.1C57.3,40.9,62.3,40.7,67.1,40.3z"/>
	<path class="st0" d="M67.1,40.8C67.1,40.8,67.1,40.7,67.1,40.8C67.1,40.7,67.1,40.7,67.1,40.8c-4.8,0.3-9.8,0.5-14.8,0.5
		c-7.1,0-13.9-0.4-20.5-1.1c0,1.7-0.5,3.6,0.7,5.1c0.7,0.8,1.3,1.7,1.6,2.8c0.4,1.1,0.6,2.2,0.5,3.4c0,0.4,0,0.8,0,1.2
		c0.1,3.2-0.4,6.4-0.7,9.6c-0.3,3.3-0.5,6.6-0.8,9.9c-0.3,3.2-0.5,6.3-0.8,9.5c-0.2,2.7-0.9,5.7-0.5,8.4c0.5,3.3,2.6,4.8,5.8,5.1
		c5.1,0.4,10.3,0.7,15.4,0.5c2.6-0.1,5.2-0.2,7.8-0.5c2.1-0.2,3.9-0.5,5-2.5c0.5-1,0.7-2,0.8-3c0-6.7-0.8-13.6-1.3-20.3
		c-0.2-3.3-0.5-6.6-0.8-9.9c-0.2-3-0.7-6-0.5-9c0.1-1.3,0.6-2.5,1.3-3.7c0.6-1,1.3-1.6,1.7-2.7C67.4,42.7,67,41.9,67.1,40.8z"/>
</g>
</svg>
