<?xml version="1.0" encoding="utf-8"?>
<!-- Generator: Adobe Illustrator 22.0.0, SVG Export Plug-In . SVG Version: 6.00 Build 0)  -->
<svg version="1.1" id="Camada_1" xmlns:figma="http://www.figma.com/figma/ns"
	 xmlns="http://www.w3.org/2000/svg" xmlns:xlink="http://www.w3.org/1999/xlink" x="0px" y="0px" viewBox="0 0 109 102.6"
	 style="enable-background:new 0 0 109 102.6;" xml:space="preserve">
<style type="text/css">
	.st0{fill:#FFFFFF;}
</style>
<title>Logo</title>
<g>
	<path class="st0" d="M60.7,41.8c0.3-5.6,0.6-11.6-0.5-17.1c-0.4-2.2-1.2-4.3-2.3-6.3c-1-1.6-1.9-3.4-3.6-4.3
		c-1-0.5-2.2-0.7-3.2-0.8c-3.9-0.4-7.8-0.4-11.6,0.1c-2.5,0.3-3.7,1.3-5,3.5c-1.5,2.2-2.6,4.8-3.2,7.4c-0.8,3.6-0.7,7.7-0.9,11.4
		c-0.1,1.9-0.1,3.7-0.1,5.6c5.6,0.6,11.6,1,17.7,1C52.2,42.3,56.6,42.1,60.7,41.8z"/>
	<path class="st0" d="M60.7,42.2C60.7,42.2,60.7,42.1,60.7,42.2C60.7,42.1,60.7,42.1,60.7,42.2c-4.1,0.3-8.5,0.4-12.8,0.4
		c-6.1,0-12-0.3-17.7-1c0,1.5-0.4,3.1,0.6,4.4c0.6,0.7,1.1,1.5,1.4,2.4c0.3,1,0.5,1.9,0.4,2.9c0,0.3,0,0.7,0,1
		c0.1,2.8-0.3,5.5-0.6,8.3c-0.3,2.9-0.4,5.7-0.7,8.6c-0.3,2.8-0.4,5.4-0.7,8.2c-0.2,2.3-0.8,4.9-0.4,7.3c0.4,2.9,2.2,4.1,5,4.4
		c4.4,0.3,8.9,0.6,13.3,0.4c2.2-0.1,4.5-0.2,6.7-0.4c1.8-0.2,3.4-0.4,4.3-2.2c0.4-0.9,0.6-1.7,0.7-2.6c0-5.8-0.7-11.8-1.1-17.5
		c-0.2-2.9-0.4-5.7-0.7-8.6c-0.2-2.6-0.6-5.2-0.4-7.8c0.1-1.1,0.5-2.2,1.1-3.2c0.5-0.9,1.1-1.4,1.5-2.3C61,43.9,60.6,43.2,60.7,42.2
		z"/>
</g>
</svg>
