<svg xmlns="http://www.w3.org/2000/svg" viewBox="0 0 70 68.48"><defs><style>.a{fill:#fff;}</style></defs><title>transgenic</title><path class="a" d="M44.47,23.15l2.26-2.07L41.8,12.53a27,27,0,0,0-3.89-.75Z" transform="translate(0 -0.76)"/><polygon class="a" points="48.27 22.98 47.5 21.65 45.24 23.72 46 25.05 48.27 22.98"/><path class="a" d="M52.5,58.39a26.88,26.88,0,0,1-4.38,3h6.64a31.64,31.64,0,0,0,3.14-3Z" transform="translate(0 -0.76)"/><path class="a" d="M17.51,58.39H12.1a31.64,31.64,0,0,0,3.14,3h6.67A27.73,27.73,0,0,1,17.51,58.39Z" transform="translate(0 -0.76)"/><path class="a" d="M44.63,61.38a25.81,25.81,0,0,0,5.43-3H20a25.84,25.84,0,0,0,5.45,3Z" transform="translate(0 -0.76)"/><path class="a" d="M32.09,11.78a25.1,25.1,0,0,0-3.88.75L10,44a26.28,26.28,0,0,0,1.3,3.74Z" transform="translate(0 -0.76)"/><path class="a" d="M49,25.06l-2.26,2.07,11.9,20.61A26.53,26.53,0,0,0,60,44Z" transform="translate(0 -0.76)"/><path class="a" d="M35,4.88c.82,0,1.63,0,2.43.1L35,.76,32.57,5C33.37,4.92,34.18,4.88,35,4.88Z" transform="translate(0 -0.76)"/><path class="a" d="M10.11,58.39H5.18l2.18-3.78a33.41,33.41,0,0,1-1.69-3L0,61.38H13A31.18,31.18,0,0,1,10.11,58.39Z" transform="translate(0 -0.76)"/><path class="a" d="M64.33,51.56a33.41,33.41,0,0,1-1.69,3l2.18,3.78H59.89a31.18,31.18,0,0,1-2.87,3H70Z" transform="translate(0 -0.76)"/><path class="a" d="M31.65,6.56l-2.41,4.17A27.59,27.59,0,0,1,33,10.2l2-3.45,2,3.44a28.07,28.07,0,0,1,3.77.55L38.35,6.56a29.63,29.63,0,0,0-6.7,0Z" transform="translate(0 -0.76)"/><path class="a" d="M10.42,49.32A26.7,26.7,0,0,1,9,45.8L6.59,50a30.4,30.4,0,0,0,1.63,3.16Z" transform="translate(0 -0.76)"/><path class="a" d="M61,45.8a27.63,27.63,0,0,1-1.41,3.53l2.19,3.8A30.4,30.4,0,0,0,63.41,50Z" transform="translate(0 -0.76)"/><path class="a" d="M35,5.62A31.81,31.81,0,1,0,66.81,37.43,31.85,31.85,0,0,0,35,5.62Zm0,5.24a26.44,26.44,0,0,1,17.14,6.29L13.26,52.68A26.55,26.55,0,0,1,35,10.86ZM35,64a26.52,26.52,0,0,1-19.88-9l39.2-35.82A26.55,26.55,0,0,1,35,64Z" transform="translate(0 -0.76)"/><polygon class="a" points="30.42 55.33 39.23 55.33 39.23 33.26 30.42 41.31 30.42 55.33"/><polygon class="a" points="39.82 32.72 45.95 32.72 45.95 27.12 39.82 32.72"/><polygon class="a" points="45.02 25.94 42.8 25.94 30.42 37.26 30.42 39.28 45.02 25.94"/><polygon class="a" points="40.58 25.94 23.71 25.94 23.71 32.72 30.42 32.72 30.42 35.23 40.58 25.94"/></svg>