<svg xmlns="http://www.w3.org/2000/svg" viewBox="0 0 65.92 70"><defs><style>.a{fill:#fff;}</style></defs><title>vegan</title><path class="a" d="M64.29.74c-1.57.42-4.9,1.17-7.39,1.66C50.58,3.64,49.57,4,46.75,6.1a18.3,18.3,0,0,0-6.77,14c0,2,.31,3.41.65,3a9.49,9.49,0,0,0,.59-1.26,30.13,30.13,0,0,1,7.66-9.7c1.52-1.22,4.57-2.42,4.57-1.79a13.71,13.71,0,0,1-2.28,2.82,34,34,0,0,0-3.75,4.92,78.83,78.83,0,0,0-7.21,14.58c-1.93,5.15-3.35,9.25-4.29,12.32-1.6,5.26-3,9.42-3.29,9.5s-1.19-2.7-3-9.7c-2.82-11-4-14.72-6.9-21.57-2-4.67-4.57-8.42-9.85-14.15-2.89-3.17-7-6.21-9.5-7-1.61-.55-1.75-.27-.53,1.09A79.81,79.81,0,0,1,15.46,21.24c3,5.81,5,11.58,8.75,24.82.95,3.39,3,12,3.71,15.37.75,3.73,1.57,7.37,1.79,7.94a1.13,1.13,0,0,0,.67.5,20.72,20.72,0,0,0,4.59,0c1-.3,1.22-1.11,2.64-10.41A108.88,108.88,0,0,1,41,43.8c2.74-9.58,5.66-16.59,7.43-17.74a14.54,14.54,0,0,1,2.84-.69A19,19,0,0,0,63.4,18.65c2-2.4,2.47-4.17,3-10.08a21.43,21.43,0,0,1,1-5.9A12.89,12.89,0,0,0,68,.21C67.82-.14,67.5-.1,64.29.74Z" transform="translate(-2.04)"/></svg>