<?xml version="1.0" encoding="utf-8"?>
<!-- Generator: Adobe Illustrator 22.0.0, SVG Export Plug-In . SVG Version: 6.00 Build 0)  -->
<svg version="1.1" id="Camada_1" xmlns="http://www.w3.org/2000/svg" xmlns:xlink="http://www.w3.org/1999/xlink" x="0px" y="0px"
	 viewBox="0 0 70 65.6" style="enable-background:new 0 0 70 65.6;" xml:space="preserve">
<style type="text/css">
	.st0{fill:#4B5563;}
</style>
<title>anvisa</title>
<path class="st0" d="M44,17.9c0-5.4,0-10.9,0-16.4c0-0.5,0-1,0-1.5h2.4c0.3,0.4,0.4,0.9,0.3,1.3c0,4.9,0,9.7,0,14.6
	c0,0.9,0.2,1.1,1.1,1.1c5.7,0,11.5,0,17.2,0c1.4,0,1.1,0.8,1.2,1.5c0.1,0.9-0.2,1.2-1.2,1.2c-6.4,0-12.8,0-19.2,0L44,17.9z"/>
<path class="st0" d="M25.9,0c0.2,0.4,0.3,0.8,0.3,1.2v10.1l-2.7-0.2c0-3.7-0.1-7.4,0.1-11.1L25.9,0z"/>
<path class="st0" d="M44,45.3c-3.5-0.4-6.9-1.2-10.2-2.3c-2.8-1-5.3-2.5-7.6-4.3l-1.8-1.8c-1.9-2.3-2.9-5.2-2.9-8.1
	c0.5-0.1,0.6,0.3,0.9,0.5c6,5.5,13.1,9.6,20.8,12.1c0.3,0.1,0.5,0.1,0.8,0.2c0.9,0.4,1.8,0.6,2.7,0.8c3.3,0.9,6.7,1.1,10.1,0.7
	c2.9-0.3,5.7-1.4,8-3.2c0.5-0.3,1-0.7,1.3-1.2c1.5-1.5,2.7-3.1,3.7-5c0.2,0.6,0.2,1.2-0.2,1.7c-1.3,3-3.6,5.4-6.5,6.9
	c-4.6,2.5-9.7,3.3-14.9,3.4h-1.6C45.8,45.3,44.9,45.2,44,45.3z"/>
<path class="st0" d="M23.5,11.1l2.7,0.2c5,0.4,9.9,1.9,14.3,4.2c1.2,0.7,2.3,1.6,3.5,2.4l1.8,1.8c1.9,2.3,2.9,5.2,2.9,8.2
	c-0.5,0-0.7-0.4-1-0.7c-6-5.4-13-9.4-20.7-11.9c-0.3-0.1-0.5-0.1-0.8-0.2c-0.9-0.4-1.8-0.6-2.7-0.8c-4.1-1.1-8.5-1.2-12.6-0.3
	c-0.7-0.3-1.5-0.1-1.9,0.6l-0.2,0.1c-0.7-0.3-1.1,0.1-1.4,0.7c-0.6,0.6-1.7,0.6-2.1,1.4c-0.4,0.4-1,0.6-1.2,1.2l-1.3,1.3
	c-0.5,0-0.6-0.3-0.6-0.7C2.5,18,3,17.4,3.6,16.9c0.3,0,0.5-0.1,0.5-0.5l0.2-0.2c0.2,0,0.4-0.1,0.4-0.4c0.6-0.6,1.3-1,2.1-1.3
	c0.5,0,1,0,1.2-0.6c3.2-1.5,6.7-2.4,10.3-2.6C20.2,11.2,21.8,11.2,23.5,11.1z"/>
<path class="st0" d="M24.4,36.8l1.8,1.9c0,5.5,0,11.1,0,16.6c0,0.4,0.3,1-0.2,1.2c-0.8,0.2-1.6,0.2-2.3,0c-0.4-0.1-0.2-0.6-0.2-1
	c0-4.9,0-9.7,0-14.6c0-1-0.2-1.2-1.2-1.2c-5.7,0-11.4,0-17.1,0c-1.4,0-1-0.8-1.1-1.6s0.1-1.3,1.2-1.3C11.6,36.8,18,36.8,24.4,36.8z"
	/>
<path class="st0" d="M23.5,14.4c0.9,0.1,1.8,0.4,2.7,0.8c0,1.3,0,2.6,0,3.9c0,0.5-0.2,0.7-0.7,0.7c-6.9,0-13.8,0-20.7,0
	c-1.4,0-0.4-1.1-0.8-1.7c0.2-0.6,0.8-0.8,1.2-1.2C5.6,17,6,17,6.4,17h14.4C23.4,17,23.4,17,23.5,14.4z"/>
<path class="st0" d="M66.2,38.4c-0.4,0.5-0.8,0.9-1.3,1.2l-15.5-0.1c-2.6,0-2.6,0-2.7,2.6c-0.9-0.1-1.8-0.4-2.7-0.8
	c0-1.3,0-2.5,0-3.8c0-0.5,0.1-0.9,0.7-0.8c6.9,0,13.8,0,20.7,0c0.6,0,0.8,0.2,0.7,0.8C66.1,37.8,66.1,38.1,66.2,38.4z"/>
<path class="st0" d="M44,45.3c0.9,0,1.8,0,2.7,0.2c0,3.3-0.1,6.6,0,9.9c0,1.3-0.7,1.1-1.5,1.1s-1.3-0.1-1.2-1.2
	C44,51.9,44,48.6,44,45.3z"/>
<path class="st0" d="M25.4,63c0-1.4,0-2.5,0-3.5c0-0.5,0.1-0.8,0.7-0.8s0.7,0.3,0.7,0.8c0,1.6,0,3.2,0,4.8c0,0.3,0.2,0.9-0.3,1
	c-0.5,0.2-1.1,0-1.5-0.4c-0.9-1.3-1.9-2.5-3.1-4v3.6c0,0.5,0.1,0.9-0.7,0.9s-0.7-0.3-0.7-0.9c0-1.6,0-3.1,0-4.7c0-0.3-0.2-0.9,0.3-1
	c0.6-0.2,1.2-0.1,1.6,0.4c0.7,1.1,1.5,2.1,2.3,3.1C24.8,62.5,25,62.6,25.4,63z"/>
<path class="st0" d="M39.1,29c-0.3,1.7-1.5,3-3.2,3.3c-2.2,0.5-4.4-0.9-4.9-3.1c-0.3-1.3,0.1-2.6,0.9-3.6l0.2,0.4
	c1.5,3.1,2.9,3.8,6.3,3C38.7,29,38.9,29,39.1,29z"/>
<path class="st0" d="M10.3,65.2c0.8-2,1.6-4,2.3-6c0.2-0.6,0.7-0.4,1.1-0.5c0.4-0.1,0.9,0.2,1,0.6c0,0,0,0,0,0
	c0.7,2,1.5,3.9,2.3,5.9c-0.9,0.2-1.7,0.3-2-0.9c-0.2-0.7-2.5-0.7-2.7,0C11.9,65.4,11.2,65.5,10.3,65.2z M13.5,60.2l-0.6,1.9
	c0,0.1-0.1,0.2-0.1,0.2c-0.2,0.4-0.1,0.5,0.4,0.6c1.1,0.1,1.3-0.1,0.9-1.1C13.9,61.3,13.8,60.8,13.5,60.2z"/>
<path class="st0" d="M59.8,65.2c-1,0.2-1.7,0.2-2-0.9c-0.2-0.7-2.5-0.7-2.7,0c-0.3,1.1-0.9,1.1-1.9,0.8c0.8-2,1.5-4,2.3-6
	c0.2-0.6,0.7-0.4,1.1-0.5c0.4-0.1,0.9,0.1,1,0.6c0,0,0,0,0,0C58.3,61.3,59.1,63.2,59.8,65.2z M56.5,60.2c-0.3,0.8-0.4,1.5-0.7,2.1
	c-0.2,0.6,0,0.6,0.5,0.6c0.9,0.1,1.3-0.1,0.8-1.1C56.8,61.3,56.6,60.7,56.5,60.2z"/>
<path class="st0" d="M36.5,58.8c-0.8,2-1.5,4-2.2,6c-0.1,0.4-0.5,0.6-0.9,0.6c-0.5,0-0.8-0.1-1-0.6c-0.6-1.7-1.3-3.4-1.9-5.1
	c-0.1-0.3-0.7-0.8,0.1-0.9c0.5-0.1,1.1-0.3,1.3,0.5c0.4,1.4,0.8,2.7,1.3,4.3c0.4-1.4,0.8-2.5,1.2-3.7S35,58.7,36.5,58.8z"/>
<path class="st0" d="M47.7,65.5c-0.6,0-1.2-0.1-1.7-0.5c-0.3-0.2-0.6-0.5-0.2-0.8c0.4-0.4,0.5-0.7,0.9-0.2c0.3,0.3,0.7,0.4,1.1,0.3
	c0.4,0,0.7-0.3,0.8-0.6c0.1-0.4-0.1-0.7-0.4-0.9c-0.5-0.3-1-0.5-1.5-0.8c-0.7-0.4-1.1-1.1-0.9-1.9c0.1-0.8,0.7-1.3,1.5-1.4
	c0.8-0.3,1.7-0.1,2.3,0.5c0.2,0.2,0.2,0.4,0,0.6s-0.4,0.6-0.8,0.3c-0.2-0.1-0.3-0.2-0.5-0.3c-0.4-0.2-0.9,0-1.1,0.5
	c-0.2,0.4,0.1,0.8,0.5,0.9s0.7,0.3,1.1,0.5c1,0.3,1.5,1.4,1.3,2.4C49.6,65,48.7,65.6,47.7,65.5z"/>
<path class="st0" d="M39.1,29c-0.2,0-0.4,0-0.6,0c-3.4,0.8-4.8,0.1-6.3-3L32,25.6c0.4-0.7,1.1-1.1,1.9-1.3v0.4
	c0,2.6,1.9,3.8,4.2,2.5l0.7-0.4C39.2,27.5,39.3,28.3,39.1,29z"/>
<path class="st0" d="M38.9,26.9l-0.7,0.4c-2.3,1.2-4.3,0.1-4.2-2.5v-0.4C36.4,23.8,38.1,24.8,38.9,26.9z"/>
<path class="st0" d="M41.6,62.2c0,0.8,0,1.6,0,2.4c0,0.6-0.1,0.8-0.8,0.8s-0.8-0.3-0.8-0.9c0-1.6,0-3.3,0-4.9c0-0.6,0.1-0.8,0.8-0.8
	s0.8,0.3,0.8,0.9C41.6,60.4,41.6,61.3,41.6,62.2z"/>
<path class="st0" d="M2.1,18.6c0,0.4,0.1,0.7,0.6,0.7c-1,1.3-1.9,2.7-2.7,4.2C0.2,21.7,0.9,20,2.1,18.6z"/>
<path class="st0" d="M8.2,13.9C8,14.6,7.5,14.6,7,14.6C7.3,14.3,7.7,14.1,8.2,13.9z"/>
<path class="st0" d="M4.2,16.5c0,0.4-0.2,0.5-0.5,0.5C3.8,16.7,4,16.5,4.2,16.5z"/>
<path class="st0" d="M4.9,15.9c0,0.3-0.2,0.4-0.4,0.4L4.9,15.9z"/>
<path class="st0" d="M10.8,14.1l-1.9,0.6C9.3,14.1,10.1,13.8,10.8,14.1z"/>
<path class="st0" d="M8.7,14.8l-1.4,0.7C7.6,14.9,8,14.6,8.7,14.8z"/>
<path class="st0" d="M13.5,60.2c0.2,0.6,0.4,1.1,0.6,1.6c0.4,1,0.1,1.2-0.9,1.1c-0.4-0.1-0.6-0.2-0.4-0.6c0-0.1,0.1-0.1,0.1-0.2
	L13.5,60.2z"/>
<path class="st0" d="M56.5,60.2c0.2,0.6,0.4,1.1,0.6,1.7c0.5,1,0,1.1-0.8,1.1c-0.5,0-0.6-0.1-0.5-0.6S56.2,61,56.5,60.2z"/>
</svg>
