<?xml version="1.0" encoding="utf-8"?>
<!-- Generator: Adobe Illustrator 22.0.0, SVG Export Plug-In . SVG Version: 6.00 Build 0)  -->
<svg version="1.1" id="Camada_1" xmlns="http://www.w3.org/2000/svg" xmlns:xlink="http://www.w3.org/1999/xlink" x="0px" y="0px"
	 viewBox="0 0 70 65.6" style="enable-background:new 0 0 70 65.6;" xml:space="preserve">
<style type="text/css">
	.st0{fill:#4B5563;}
</style>
<title>anvisa</title>
<g>
	<path class="st0" d="M23.9,62.1c-0.2-0.9,0.1-1.9,0.7-2.5c0.8-0.7,1.7-0.9,3.5-0.6c0.9,0.1,1.7,0.2,1.8,0.2c0.1,0,0.3-0.8,0.5-1.7
		l0.3-1.6l-0.6-0.2c-0.6-0.2-0.8-0.7-0.4-0.9c0.3-0.1,3,0.4,3.2,0.6c0,0.1,0.1,0.3,0,0.4c-0.1,0.3-0.7,0.5-0.9,0.2
		c-0.1-0.1-0.2-0.1-0.3,0c-0.2,0.2-1.7,7.2-1.7,7.6c0,0.2,0.2,0.5,0.5,0.6c0.6,0.3,0.7,0.7,0.2,0.8c-0.2,0.1-1.4-0.1-2.6-0.4
		C25.1,64.1,24.4,63.6,23.9,62.1 M27.5,63.5l1.5,0.3l0.4-1.5c0.2-0.8,0.3-1.7,0.3-1.8c0-0.2-0.4-0.3-1.7-0.5
		c-1.6-0.3-1.7-0.3-2.4,0.2c-0.8,0.5-1,1-0.8,1.9c0.1,0.8,0.8,1.2,2.3,1.5C27.2,63.5,27.4,63.5,27.5,63.5"/>
	<path class="st0" d="M25.3,54.2c-0.1,0.3-0.2,0.3-0.6,0.1c-0.2-0.1-0.5-0.2-0.6-0.1c-0.3,0.2-1.8,2.9-1.8,3.4c0,0.2,0,0.4,0.1,0.4
		c0.3,0,0.6,0.6,0.5,0.9c-0.1,0.2-0.2,0.3-0.3,0.2c-1.1-0.4-1.4-0.6-1.6-1c-0.2-0.5-0.3-0.6-0.9-0.5c-0.3,0-0.7-0.1-1.2-0.4
		c-0.9-0.6-1.3-1.5-0.9-2.1s0.8-0.3,0.8,0.4c0,0.4,0.2,0.7,0.5,0.9c0.9,0.7,1.5,0.4,2.8-1.3c0.5-0.6,0.9-1.3,0.9-1.4
		c0-0.1-0.2-0.3-0.4-0.5c-0.5-0.2-0.5-0.7-0.1-0.8c0.3-0.1,2.8,1.1,2.9,1.3C25.5,53.8,25.4,54,25.3,54.2"/>
	<path class="st0" d="M13.6,53c-0.7-1.6,0.8-4,2.7-4.3c1-0.1,1.7,0.2,2.4,1c1,1.2,0.9,2.3-0.3,3.7c-0.9,1-1.5,1.3-2.6,1.2
		c-0.5-0.1-1-0.3-1.5-0.7C14.1,53.7,13.8,53.3,13.6,53 M16.2,53.8c1.1-0.2,1.8-0.9,2.1-1.9c0.2-0.7,0.1-1.4-0.5-1.8
		c-0.2-0.2-0.7-0.4-0.9-0.4c-1-0.1-2.3,1-2.5,2.2c-0.1,0.7,0,1,0.7,1.6c0.1,0,0.1,0.1,0.1,0.1C15.6,53.8,15.8,53.8,16.2,53.8"/>
	<path class="st0" d="M5.2,49.4c0-0.2,0.6-0.7,3.5-2.8c1.9-1.4,3.5-2.7,3.6-2.8c0-0.1,0-0.3-0.1-0.5c-0.3-0.4,0-0.8,0.4-0.8
		s1.1,1.2,1.1,1.7c0,0.2,0.1,0.3,0.3,0.4c0.6,0.3,1.2,1.1,1.4,1.8c0.1,0.4,0.1,1,0,1.3c-0.3,1.1-1.6,2.3-2.8,2.5
		c-1.3,0.2-3-0.8-3.2-1.9c0-0.3-0.1-0.5-0.2-0.6c-0.2-0.1-1.9,1-2.4,1.5c-0.3,0.4-0.3,0.5-0.1,0.8c0.3,0.4,0.2,0.9-0.2,0.8
		c-0.2,0-0.7-0.5-1-1C5.3,49.7,5.2,49.5,5.2,49.4 M11.7,49.3c1.8,0.3,3.3-1.8,2.3-3.2c-0.3-0.3-0.5-0.5-1.1-0.6
		c-0.7-0.1-0.8-0.1-1.7,0.5c-0.8,0.6-0.9,0.7-1,1.3c-0.1,0.5,0,0.9,0.3,1.3C10.9,48.9,11.3,49.2,11.7,49.3"/>
	<path class="st0" d="M11.1,39.4c0.2,0.2,0.5,0.7,0.7,1.2c0.3,0.8,0.3,0.9,0,1.6c-0.3,0.6-0.4,0.7-1.3,1.1c-1,0.4-2.3,1-2.6,1.2
		c-0.1,0.1-0.1,0.3,0,0.6c0.2,0.5,0.2,0.5-0.1,0.6s-0.4,0-0.7-0.5c-0.2-0.3-0.4-0.7-0.4-1c0-0.4,0.1-0.4,1.2-0.9
		c0.6-0.3,1.4-0.6,1.6-0.7c0.8-0.3,1.5-0.9,1.5-1.4c0-0.6-0.6-1.4-1.2-1.5c-0.2,0-1,0.1-1.8,0.3c-1.6,0.4-1.8,0.6-1.6,1.4
		c0.1,0.5-0.1,0.7-0.5,0.5c-0.3-0.1-0.4-0.3-0.5-0.9c-0.1-0.4-0.2-0.8-0.2-0.8s1-0.5,2.2-1.1s2.2-1.1,2.3-1.2c0-0.1,0-0.3,0-0.6
		c-0.1-0.4,0.3-0.8,0.6-0.6c0.4,0.3,0.7,1.3,0.6,1.7C10.8,39,10.8,39.1,11.1,39.4"/>
	<path class="st0" d="M7.4,37.2l-1.8,0.5l-0.1,0.6c0,0.3-0.2,0.6-0.3,0.7c-0.3,0.1-0.3,0-0.6-0.7l-0.2-0.4l-1.8,0.3
		c-1.6,0.3-1.8,0.3-1.9,0c-0.2-0.5,0.1-0.6,1.9-1l1.6-0.3v-0.6c0-0.3,0.1-0.6,0.2-0.7c0.2-0.1,0.8,0.3,0.9,0.8
		c0,0.3,0.2,0.2,1.8-0.1c2.3-0.5,2.9-1,1.8-1.9c-0.5-0.4-0.5-0.6-0.3-0.9c0.6-0.7,1.9,1.1,1.6,2.2C10,36.4,9.4,36.7,7.4,37.2"/>
	<path class="st0" d="M4,29.6c0.8-1.6,3.6-1.9,5-0.7c0.7,0.7,1,1.4,0.8,2.5c-0.3,1.5-1.2,2.2-3,2.1c-1.4,0-2-0.3-2.6-1.2
		c-0.3-0.4-0.4-1-0.4-1.6C3.7,30.4,3.8,30,4,29.6 M5,32.1c0.8,0.7,1.8,0.8,2.8,0.4c0.7-0.3,1.1-0.8,1.1-1.6c0-0.3-0.1-0.8-0.3-1
		c-0.6-0.8-2.3-1.1-3.3-0.5C4.7,29.8,4.6,30,4.5,31c0,0.1,0,0.1,0,0.2C4.7,31.7,4.7,31.9,5,32.1"/>
	<path class="st0" d="M5.6,14.3c0.7,0.1,1.5,0.2,1.8,0.2c0.3,0,1.4,0.1,2.5,0.3c1.1,0.1,2.2,0.2,2.6,0.2c0.3,0,0.6,0.1,0.7,0.1
		c0.2,0.1,1.2-0.3,1.4-0.6c0.1-0.2,0.2-0.2,0.5-0.1c0.3,0.2,0.3,0.3-0.3,1.5c-0.5,1.1-0.7,1.3-0.9,1.3s-0.3-0.2-0.3-0.5
		c0-0.6-0.2-0.7-1.1-0.7h-0.6l-1.1,2c-0.6,1.1-1.1,2.1-1.2,2.3c-0.1,0.1,0,0.4,0.2,0.6s0.4,0.5,0.5,0.6c0.1,0.2,0.3,0.2,0.6-0.1
		c0.4-0.3,0.8-0.2,0.7,0.2c-0.1,0.4-1.1,2.3-1.3,2.3c-0.4,0.1-0.7-0.3-0.5-0.7c0.2-0.6,0.1-0.7-0.7-1.7c-0.6-0.7-1.9-2.4-3.3-4.3
		c-0.3-0.4-0.8-1-1.1-1.4c-0.6-0.7-0.8-1.1-0.6-1.3C4.2,14.3,4.7,14.2,5.6,14.3 M6.1,16.1c0.2,0.2,0.7,0.8,1,1.3
		c1,1.3,1.5,1.9,1.7,1.8c0.1-0.1,0.5-0.8,1-1.6c0.6-1.1,0.8-1.6,0.7-1.7c-0.1-0.1-0.8-0.2-1.5-0.3c-2.1-0.3-3-0.3-3.1,0
		C5.7,15.7,5.8,15.9,6.1,16.1"/>
	<path class="st0" d="M15,14.7c-0.2-0.2-0.2-0.3,0.1-0.6c0.2-0.2,0.3-0.4,0.3-0.5c-0.1-0.3-2.2-2.7-2.6-2.9c-0.2-0.1-0.4-0.1-0.4,0
		c-0.1,0.3-0.8,0.4-1,0.1c-0.1-0.1-0.2-0.3-0.1-0.3c0.7-0.9,1.1-1.1,1.5-1.1c0.5,0,0.7-0.1,0.8-0.7c0.1-0.3,0.3-0.6,0.8-1
		c0.9-0.6,1.9-0.7,2.3-0.1c0.4,0.5,0,0.9-0.7,0.6c-0.4-0.1-0.7-0.1-1,0.1c-1,0.6-0.9,1.3,0.2,3c0.4,0.7,0.9,1.2,1,1.3s0.4,0,0.6-0.2
		c0.4-0.4,0.9-0.3,0.8,0.2c0,0.3-2,2.3-2.2,2.3C15.4,15,15.2,14.9,15,14.7"/>
	<path class="st0" d="M19.2,7.8l-1-1.6l-0.6,0.1c-0.3,0.1-0.7,0-0.8-0.1c-0.2-0.2-0.1-0.3,0.5-0.8l0.3-0.3l-0.9-1.6
		c-0.8-1.4-0.9-1.6-0.7-1.8c0.4-0.3,0.6-0.1,1.5,1.5l0.9,1.4L19,4.4c0.3-0.1,0.6-0.1,0.7,0c0.2,0.2-0.1,0.9-0.4,1.1
		c-0.2,0.1-0.2,0.3,0.6,1.7c1.2,2,1.9,2.4,2.4,1.1c0.2-0.6,0.4-0.7,0.8-0.5c0.9,0.2-0.4,2-1.5,2.1C20.9,9.9,20.4,9.5,19.2,7.8"/>
	<path class="st0" d="M26,2c0.8,0.3,1.3,0.8,1.6,1.6c0.2,0.5,0.2,0.7-0.1,0.7c-0.3,0.1-2.2,0.9-3.1,1.2c-0.5,0.2-0.6,0.3-0.4,0.6
		c0.3,0.9,1.6,1.3,2.5,0.7c0.2-0.2,0.6-0.6,0.9-1c0.7-1.2,1.4-0.9,0.8,0.5c-0.4,0.9-0.5,1.1-1.5,1.5c-0.7,0.3-1,0.4-1.5,0.3
		c-0.4-0.1-0.9-0.3-1.4-0.7c-1.3-1.2-1.6-3.4-0.5-4.5c0.3-0.3,0.8-0.6,1.2-0.8C25,1.9,25.6,1.8,26,2 M24.3,3.1
		c-0.7,0.4-1,1.5-0.5,1.5c0.4,0,2.4-0.7,2.5-0.9c0.3-0.6-0.8-1-1.7-0.7C24.5,3,24.4,3,24.3,3.1"/>
	<path class="st0" d="M28.6,5.5c0-0.7,0.4-0.8,0.8-0.1C29.8,6,30.3,6.1,31,5.8c1.5-0.6,1-1.9-0.6-1.7c-1.3,0.2-2.6-1.3-2.1-2.3
		c0.5-0.9,0.9-1.1,3-1.3l0.8-0.1l0.2,0.8c0.2,1-0.1,1.2-0.8,0.7c-0.3-0.2-0.7-0.3-1.2-0.3c-0.7,0-0.8,0.1-0.9,0.5
		c-0.2,0.4-0.2,0.5,0.1,0.8c0.2,0.2,0.7,0.3,1.1,0.3c1.5,0,2.2,0.4,2.3,1.4S32.3,6.4,31,6.7c-0.4,0.1-1,0.1-1.2,0.1
		C29.2,6.7,28.6,6,28.6,5.5"/>
	<path class="st0" d="M37,0.7c1.1,0.5,1.2,0.9,1.1,3L38,5.5L38.4,6c0.3,0.3,0.4,0.5,0.4,0.6c-0.2,0.2-1.3,0.2-1.5-0.1
		c-0.1-0.1-0.4-0.1-0.8,0c-0.8,0.3-1.9,0.2-2.5-0.3c-1-0.7-1.1-2-0.3-2.6C34.3,3.2,34.8,3.1,36,3h1.1V2.5c0.1-0.8-0.4-1.1-1.2-1.1
		c-0.7,0.1-1,0.2-1.5,0.9c-0.3,0.4-0.9,0.1-0.7-0.5c0.1-0.6,0.8-1.1,1.8-1.3c0.4-0.1,0.6-0.1,0.8-0.1C36.5,0.5,36.7,0.6,37,0.7
		 M34,4.8c0,0.7,1.4,1.2,2.4,0.8C37,5.3,37.2,4.9,37,4.4C36.9,4.1,36.5,4,36,4C35.2,3.9,34,4.3,34,4.8"/>
	<path class="st0" d="M39.5,6.1c0.6,0.1,0.5,0.2,1.4-2.3c0.5-1.5,0.5-1.4,0-1.8c-0.3-0.2-0.5-0.4-0.5-0.5c-0.1-0.3,0.5-0.5,1.1-0.3
		c0.5,0.1,0.7,0.2,0.9,0.7l0.3,0.6l0.7-0.1c1-0.2,2.2,0.4,2.7,1.2c0.3,0.7,0.3,1.1-0.3,3.1l-0.4,1.5l0.5,0.3
		c0.4,0.2,0.5,0.3,0.4,0.6s-0.3,0.3-1.4,0c-0.9-0.2-1.3-0.4-1.6-0.6c-0.4-0.4-0.2-0.8,0.4-0.7c0.5,0.1,0.5,0.1,1-1.1
		c0.8-2.1,0.7-2.9-0.5-3.3c-1-0.4-2.3,0.7-2.9,2.5C41,6.6,41,6.6,41.5,6.8c0.6,0.3,0.6,0.6,0.2,0.8C41.4,7.8,41,7.7,40,7.3
		c-0.9-0.3-1.3-0.6-1.3-0.7C38.7,6.2,39,6,39.5,6.1"/>
	<path class="st0" d="M51.8,6.3c0.7,1,0.6,1.4-0.6,3.1l-1,1.5l0.2,0.6c0.1,0.4,0.1,0.7,0,0.7c-0.3,0.1-1.2-0.5-1.3-0.8
		c0-0.2-0.2-0.3-0.7-0.4c-0.9-0.2-1.7-0.8-2-1.5c-0.5-1.1,0-2.3,1.1-2.4c0.8-0.1,1.3,0,2.3,0.6l1,0.6L51,7.9
		c0.4-0.6,0.3-1.2-0.5-1.5c-0.6-0.3-1-0.3-1.7,0C48.3,6.6,48,6,48.4,5.6s1.2-0.5,2.1-0.2c0.4,0.1,0.6,0.2,0.7,0.3
		C51.5,5.9,51.6,6.1,51.8,6.3 M47.2,8.4c-0.4,0.6,0.7,1.7,1.7,1.9c0.6,0.1,1-0.2,1.1-0.7c0-0.3-0.2-0.6-0.6-0.9
		C48.6,8.2,47.5,7.9,47.2,8.4"/>
	<path class="st0" d="M50.4,12.2c0.2-0.2,0.4-0.2,0.4-0.1c0.3,0.3,0.7,0.5,0.8,0.5c0.2,0,5.3-5.1,5.5-5.4C57.2,7,57.2,6.7,57,6.5
		c-0.2-0.3-0.2-0.4-0.1-0.7c0.1-0.2,0.3-0.2,0.4-0.1C57.4,5.8,57.7,6,58,6.3c0.4,0.3,0.5,0.5,0.5,0.7s-0.9,1.1-3,3.2
		c-1.6,1.6-3,3.1-3.1,3.2c-0.1,0.2,0,0.3,0.2,0.4c0.1,0.1,0.3,0.3,0.3,0.5c0,0.8-0.4,0.7-1.6-0.4c-0.5-0.5-1-1-1-1.1
		C50.1,12.5,50.2,12.3,50.4,12.2"/>
	<path class="st0" d="M34.6,59.2c-0.3,0-0.5-0.2-0.5-0.5s0.2-0.5,0.5-0.5C49.7,58.2,62,45.9,62,30.7c0-6.2-2-12-5.8-16.8
		c-0.2-0.2-0.1-0.5,0.1-0.7c0.2-0.2,0.5-0.1,0.7,0.1c3.9,5,6,11.1,6,17.4C63,46.4,50.2,59.2,34.6,59.2"/>
	<path class="st0" d="M34.5,9.8c-11.6,0-21,9.4-21,21s9.4,21,21,21s21-9.4,21-21S46.1,9.8,34.5,9.8 M44.2,36.2l4.6,6.5
		c0,0-0.7,0.9-2,0.4c0,0-0.9,1-2,0.2c0,0-0.7,0.5-1.4,0c0,0-0.6,0.9-1.2,0.1l-1.1-4.7c0,0-6.9-0.5-8.9-3.4c0,0-2.6-0.2-3.2-2.1
		c-0.1,0-0.2-0.1-0.3-0.1L16,33.2v-1l4,0.1L19.1,31l0.5-0.1l1.3,1.6l6.4-0.1c0.7-0.5,1.5-0.8,1.9-1c0.4-1.1,1.6-2.8,5.2-1.2
		c0,0,2.1-13,1.2-14.3c0,0,2.5,2.3,3.4,6.4c1.6-2.9,3-5.7,3.2-6.6c0,0,1.1,5.7-0.2,8c0,0,1.9-2.8,1.9-3.2c0,0,0.5,4.3-0.1,5.2
		c0,0,1.4-1.2,1.4-1.6s0.1-0.1,0.1-0.1s-0.1,3.1-1.9,4.5c0,0,1.6-0.2,2-0.5c0,0-1.6,2.9-4.5,3.6c0,0,0.2,0.2,0.5,0.5l7.4-0.1
		l0.1,0.6l-7,0.1C42.8,33.6,43.6,34.7,44.2,36.2"/>
</g>
</svg>
