<?xml version="1.0" encoding="utf-8"?>
<!-- Generator: Adobe Illustrator 22.0.0, SVG Export Plug-In . SVG Version: 6.00 Build 0)  -->
<svg version="1.1" id="Camada_1" xmlns:figma="http://www.figma.com/figma/ns"
	 xmlns="http://www.w3.org/2000/svg" xmlns:xlink="http://www.w3.org/1999/xlink" x="0px" y="0px" viewBox="0 0 109 8.5"
	 style="enable-background:new 0 0 109 8.5;" xml:space="preserve">
<style type="text/css">
	.st0{fill:#FFFFFF;}
</style>
<title>Logo</title>
<g id="XMLID_152_">
	<g id="XMLID_430_">
		<path id="XMLID_431_" class="st0" d="M7.8,0.2h0.5L4.4,8.5H4.2L0.3,0.2h0.5l3.5,7.5L7.8,0.2z"/>
		<path id="XMLID_433_" class="st0" d="M12.6,8.5h-0.4V0.2h0.4V8.5z"/>
		<path id="XMLID_435_" class="st0" d="M20,8.5h-2.8V0.2h2.5c2.3,0,4.2,1.9,4.2,4.1C23.9,6.6,22.2,8.4,20,8.5z M20,8.1
			c1.9-0.2,3.5-1.8,3.5-3.7c0-2.1-1.7-3.7-3.7-3.7h-2.1v7.4H20z"/>
		<path id="XMLID_438_" class="st0" d="M32.9,6.1h-4.7l-1.1,2.4h-0.5l3.7-8.3h0.3l3.7,8.3h-0.5L32.9,6.1z M28.3,5.7h4.4l-2.2-5
			L28.3,5.7z"/>
		<path id="XMLID_441_" class="st0" d="M45.3,0.2v8.3h-0.8l-4.9-5.2v5.2h-1.7V0.2h0.8l4.9,5.2V0.2H45.3z"/>
		<path id="XMLID_443_" class="st0" d="M54.9,6.8h-3.7l-0.7,1.7h-1.8l3.9-8.3h0.8l4,8.3h-1.8L54.9,6.8z M51.8,5.4h2.5L53,2.7
			L51.8,5.4z"/>
		<path id="XMLID_446_" class="st0" d="M66.2,1.7h-2.6v6.8h-1.7V1.7h-2.6V0.2h7v1.5H66.2z"/>
		<path id="XMLID_448_" class="st0" d="M77,5.2c0,1.9-1.3,3.4-3.7,3.4c-2.4,0-3.6-1.5-3.6-3.4v-5h1.6v4.5c0,1.6,0.7,2.3,2,2.3
			s2-0.8,2-2.3V0.2H77V5.2z"/>
		<path id="XMLID_450_" class="st0" d="M84.5,6.4c-0.1,0-0.2,0-0.3,0h-1.5v2.1H81V0.2h3.6c2.4,0,3.2,1.4,3.2,3
			c0,1.4-0.6,2.4-1.7,2.8L88,8.5h-2L84.5,6.4z M82.6,5h1.5c1.3,0,2-0.7,2-1.7c0-0.9-0.4-1.7-1.7-1.7h-1.7V5H82.6z"/>
		<path id="XMLID_453_" class="st0" d="M96.9,6.8h-3.7l-0.7,1.7h-1.8l3.9-8.3h0.8l4,8.3h-1.8L96.9,6.8z M93.8,5.4h2.5L95,2.7
			L93.8,5.4z"/>
		<path id="XMLID_456_" class="st0" d="M108.7,7.1v1.4h-5.9V0.2h1.7v6.9H108.7z"/>
	</g>
</g>
</svg>
