<?xml version="1.0" encoding="utf-8"?>
<!-- Generator: Adobe Illustrator 22.0.0, SVG Export Plug-In . SVG Version: 6.00 Build 0)  -->
<svg version="1.1" id="Camada_1" xmlns:figma="http://www.figma.com/figma/ns"
	 xmlns="http://www.w3.org/2000/svg" xmlns:xlink="http://www.w3.org/1999/xlink" x="0px" y="0px" viewBox="0 0 107 8.5"
	 style="enable-background:new 0 0 107 8.5;" xml:space="preserve">
<style type="text/css">
	.st0{fill:#161E2E;}
</style>
<title>Logo</title>
<g>
	<polygon class="st0" points="4.5,7.1 1.2,0 0.2,0 4.2,8.6 4.8,8.6 8.8,0 7.8,0 	"/>
	<rect x="12" class="st0" width="0.9" height="8.6"/>
	<path class="st0" d="M19.6,0h-2.7v8.6h3l0,0c2.3-0.2,4-2,4-4.3C24,1.9,22,0,19.6,0z M17.8,7.7V0.9h1.8c1.9,0,3.4,1.5,3.4,3.4
		c0,1.7-1.4,3.2-3.2,3.4H17.8z"/>
	<path class="st0" d="M29.9,0L26,8.6h1l1-2.3h4.3l1,2.3h1L30.5,0H29.9z M28.4,5.4l1.8-4l1.8,4H28.4z"/>
	<polygon class="st0" points="43.1,5.3 38.2,0.2 37.4,0.2 37.4,8.3 39.1,8.3 39.1,3.2 43.9,8.3 44.7,8.3 44.7,0.2 43.1,0.2 	"/>
	<path class="st0" d="M51.8,0.2L48,8.3h1.7l0.7-1.6h3.6l0.7,1.6h1.7l-3.9-8.1H51.8z M51,5.3l1.2-2.7l1.2,2.7H51z"/>
	<polygon class="st0" points="58.3,1.7 60.9,1.7 60.9,8.3 62.6,8.3 62.6,1.7 65.2,1.7 65.2,0.2 58.3,0.2 	"/>
	<path class="st0" d="M74.2,4.7c0,1.5-0.7,2.3-2,2.3c-1.3,0-2-0.7-2-2.3V0.2h-1.6v4.9c0,1.9,1.2,3.3,3.6,3.3c2.4,0,3.6-1.5,3.6-3.3
		V0.2h-1.6V4.7z"/>
	<path class="st0" d="M86.4,3.2c0-1.5-0.8-2.9-3.2-2.9h-3.6v8.1h1.6V6.3h1.5c0.1,0,0.2,0,0.3,0l1.6,2.1h2l-1.9-2.4
		C85.8,5.5,86.4,4.6,86.4,3.2z M82.8,4.9h-1.4V1.7H83c1.3,0,1.7,0.8,1.7,1.6C84.7,4.2,84.1,4.9,82.8,4.9z"/>
	<path class="st0" d="M93,0.2l-3.9,8.1h1.7l0.7-1.6h3.6L96,8.3h1.7l-3.9-8.1H93z M92.2,5.3l1.2-2.7l1.2,2.7H92.2z"/>
	<polygon class="st0" points="102.7,7 102.7,0.2 101,0.2 101,8.3 106.8,8.3 106.8,7 	"/>
</g>
</svg>
