<?xml version="1.0" encoding="utf-8"?>
<!-- Generator: Adobe Illustrator 22.0.0, SVG Export Plug-In . SVG Version: 6.00 Build 0)  -->
<svg version="1.1" id="Camada_1" xmlns="http://www.w3.org/2000/svg" xmlns:xlink="http://www.w3.org/1999/xlink" x="0px" y="0px"
	 viewBox="0 0 70 65.6" style="enable-background:new 0 0 70 65.6;" xml:space="preserve">
<style type="text/css">
	.st0{fill:#4B5563;}
</style>
<title>anvisa</title>
<g>
	<path class="st0" d="M47.8,58.7c-0.2,0-0.4-0.1-0.5-0.3s0-0.5,0.2-0.7c10.1-4.9,16.3-15,16.3-26.2c0-0.6,0-1.1,0-1.7
		c0-0.3,0.2-0.5,0.5-0.5s0.5,0.2,0.5,0.5c0,0.6,0,1.1,0,1.7c0,11.6-6.5,22-16.9,27.1C47.9,58.7,47.9,58.7,47.8,58.7"/>
	<path class="st0" d="M45.7,57.8c0.7,1,0.8,2,0.4,2.7c-0.3,0.5-0.9,1-1.4,1c-0.2,0-0.5,0.1-0.7,0.2c-0.5,0.2-0.7,0.1-0.8-0.5
		s0.1-0.7,0.6-0.5c0.3,0.1,0.5,0.1,0.9,0c0.6-0.2,0.9-0.5,0.9-0.9c0.1-0.8-0.3-1.6-0.9-1.9c-0.8-0.4-1.6,0-1.9,1
		c-0.1,0.2-0.2,0.3-0.3,0.3c-0.6,0-0.2-1.2,0.6-1.8c0.5-0.4,0.6-0.4,1.1-0.4C44.8,57.1,45.3,57.3,45.7,57.8"/>
	<path class="st0" d="M41.7,58.2c0,0.2,0,0.3-0.1,0.3c-0.3,0.1-0.5,0.2-0.6,0.3s1.1,5.2,1.2,5.4c0.1,0.1,0.3,0.2,0.5,0.2
		s0.4,0,0.4,0.2c0.1,0.1,0,0.3-0.1,0.3s-0.4,0.1-0.6,0.2c-0.3,0.1-0.5,0.1-0.6,0s-0.4-1-0.8-3.1c-0.4-1.6-0.7-3-0.8-3.1
		s-0.2-0.1-0.3-0.1c-0.1,0.1-0.3,0-0.4,0c-0.5-0.3-0.3-0.5,0.9-0.8c0.5-0.1,1-0.2,1.1-0.2C41.6,57.9,41.7,58,41.7,58.2"/>
	<path class="st0" d="M37.4,63c-0.8-0.2-1-0.5-1.2-2l-0.1-1.3l-0.4-0.3c-0.2-0.2-0.4-0.3-0.3-0.4c0.1-0.2,0.9-0.3,1.1-0.1
		c0.1,0.1,0.3,0,0.5-0.1c0.6-0.3,1.3-0.4,1.8-0.1c0.8,0.4,1.1,1.2,0.6,1.8c-0.4,0.4-0.7,0.6-1.6,0.8L37,61.4v0.4
		c0.1,0.5,0.4,0.8,1,0.6c0.5-0.1,0.7-0.3,0.9-0.8c0.2-0.3,0.6-0.2,0.6,0.2s-0.4,0.9-1.1,1.1c-0.3,0.1-0.4,0.2-0.6,0.2
		C37.7,63.1,37.6,63.1,37.4,63 M38.9,59.7c-0.1-0.5-1.2-0.6-1.8-0.2c-0.4,0.3-0.5,0.6-0.3,0.9c0.1,0.2,0.4,0.2,0.7,0.2
		C38.2,60.5,39,60.1,38.9,59.7"/>
	<path class="st0" d="M35.3,59.2c0,0.2-0.1,0.3-0.4,0.3c-0.2,0-0.4,0-0.4,0.1c-0.1,0.2-0.3,2.5-0.2,2.8c0,0.2,0.1,0.3,0.2,0.2
		c0.2-0.1,0.6,0.2,0.6,0.4c0,0.1-0.1,0.2-0.1,0.2c-0.8,0.1-1.1,0-1.3-0.2c-0.3-0.3-0.4-0.3-0.8-0.1C32.7,63,32.4,63.1,32,63
		c-0.8-0.1-1.3-0.6-1.2-1.2c0.1-0.5,0.4-0.5,0.7,0c0.1,0.2,0.3,0.4,0.6,0.5c0.8,0.2,1.1-0.2,1.4-1.7c0.1-0.6,0.2-1.1,0.2-1.2
		c0-0.1-0.2-0.2-0.4-0.2c-0.4,0-0.6-0.3-0.3-0.5c0.1-0.1,2.2-0.2,2.3,0C35.3,58.9,35.4,59.1,35.3,59.2"/>
	<path class="st0" d="M27.4,62.2c-1-0.8-0.9-2.8,0.2-3.6c0.6-0.4,1.1-0.5,1.9-0.2c1,0.4,1.4,1.2,1.1,2.4c-0.2,1-0.5,1.4-1.2,1.7
		c-0.3,0.1-0.8,0.2-1.2,0.1C27.9,62.5,27.6,62.4,27.4,62.2 M29.3,61.8c0.6-0.5,0.8-1.2,0.7-2c-0.1-0.5-0.4-0.9-1-1
		c-0.2,0-0.6,0-0.7,0.1c-0.7,0.3-1.1,1.5-0.8,2.2c0.2,0.5,0.3,0.6,1,0.8h0.1C28.9,62,29.1,62,29.3,61.8"/>
	<path class="st0" d="M19.6,59.4C19.3,59.1,19.2,59,19,59c-0.1,0-0.3,0-0.4-0.1s0.1-0.5,1.4-3l1.5-2.8l-0.4-0.3
		c-0.4-0.3-0.4-0.5,0-0.7c0.2-0.1,2,0.8,2,1c0,0.1,0,0.2-0.1,0.3c-0.1,0.2-0.4,0.2-0.7,0c-0.1-0.1-0.2,0-0.3,0.1c-0.2,0.4-1,1.9-1,2
		c0,0,0.3,0.1,0.6,0.2c1.1,0.2,1.7,1,1.6,2.1c0,0.5-0.1,0.7-0.4,1.1c-0.4,0.6-1,1.1-1.5,1.2c-0.3,0-0.7-0.1-1.1-0.3
		C20,59.7,19.8,59.6,19.6,59.4 M22.5,58.2c0.2-0.7,0.1-1.1-0.4-1.5c-0.6-0.4-1-0.5-1.4-0.1c-1,0.7-1.1,2.1-0.2,2.6
		C21.4,59.6,22.1,59.3,22.5,58.2"/>
	<path class="st0" d="M17.7,53.2c0.2,0,0.6,0.3,0.9,0.5c0.5,0.4,0.6,0.5,0.6,1s0,0.6-0.4,1.2c-0.5,0.6-1,1.5-1.2,1.7
		c0,0.1,0.1,0.2,0.3,0.4c0.3,0.2,0.3,0.3,0.2,0.4c-0.1,0.1-0.3,0.1-0.6,0c-0.2-0.1-0.5-0.3-0.6-0.5s-0.1-0.3,0.4-1
		c0.3-0.4,0.6-0.9,0.7-1c0.4-0.4,0.6-1.1,0.4-1.4c-0.2-0.4-0.9-0.6-1.3-0.5c-0.2,0.1-0.6,0.4-1,0.8c-0.8,0.8-0.9,1-0.5,1.4
		c0.3,0.3,0.2,0.5-0.1,0.5c-0.2,0-0.4,0-0.7-0.4c-0.2-0.2-0.4-0.4-0.4-0.4s0.4-0.7,1-1.5c0.6-0.8,1-1.5,1-1.6s-0.1-0.2-0.2-0.3
		C15.9,52.4,16,52,16.3,52s1,0.6,1,0.9C17.4,53.1,17.4,53.2,17.7,53.2"/>
	<path class="st0" d="M11.5,52.9c-0.1-0.6,0.1-1.1,0.5-1.5c0.3-0.3,0.4-0.3,0.5-0.2c0.2,0.2,1.3,1.2,1.8,1.7
		c0.3,0.3,0.3,0.3,0.5,0.1c0.5-0.5,0.3-1.4-0.3-1.8c-0.2-0.1-0.6-0.2-0.9-0.2c-1-0.1-1-0.6,0-0.7c0.7,0,0.9,0,1.5,0.5
		c0.4,0.3,0.5,0.5,0.7,0.9c0.1,0.3,0.1,0.7,0,1.1c-0.3,1.2-1.7,2.1-2.8,1.8c-0.3-0.1-0.6-0.3-0.9-0.5C11.8,53.6,11.6,53.2,11.5,52.9
		 M12.8,53.6c0.5,0.3,1.3,0.2,1.1-0.2c-0.1-0.3-1.2-1.3-1.4-1.3c-0.5,0-0.4,0.9,0.1,1.3C12.6,53.5,12.7,53.6,12.8,53.6"/>
	<path class="st0" d="M11,46.6c-0.3-0.3-0.2-0.3-1.9,0.5c-1,0.5-1,0.5-0.9,0.9c0.1,0.2,0.1,0.5,0.1,0.5c-0.1,0.2-0.5,0-0.8-0.4
		c-0.2-0.3-0.2-0.4-0.1-0.8L7.5,47l-0.4-0.3c-0.6-0.4-1-1.3-0.8-1.9c0.2-0.5,0.4-0.7,1.7-1.5l1-0.6l-0.1-0.4C8.8,42,8.8,41.9,9,41.8
		c0.2-0.1,0.3,0,0.7,0.7c0.4,0.5,0.5,0.9,0.5,1.1c0,0.4-0.3,0.5-0.6,0.2c-0.2-0.3-0.2-0.3-1,0.1c-1.4,0.7-1.8,1.2-1.4,2
		c0.4,0.7,1.5,0.8,2.8,0.1c0.6-0.3,0.6-0.3,0.4-0.7c-0.2-0.4,0-0.6,0.3-0.5c0.2,0.1,0.3,0.3,0.7,1c0.3,0.6,0.4,1,0.3,1
		C11.5,47,11.2,46.9,11,46.6"/>
	<path class="st0" d="M3.2,41.9c0-0.1,0-0.1,0-0.3c0-0.1,0-0.1,0-0.1s0,0,0-0.1c-0.1,0-0.2-0.1-0.2-0.2s0-0.1,0-0.1
		C3.1,41,3.1,41,3.1,41s0,0,0.1,0s0.1,0,0.1,0s0,0,0.1,0c0,0,0,0,0.1,0.1s0.1,0.1,0.1,0.2c0,0,0.1,0.2,0.1,0.3c0,0,0,0,0,0.1
		c0,0,0,0,0,0.1v0.1c0,0,0,0,0,0.1c0,0,0,0,0,0.1l0,0l0,0c0,0,0,0.1,0.1,0.1c0,0,0.1,0.1,0.1,0.2c0,0.1,0,0.1-0.1,0.2
		c0,0.1-0.1,0.1-0.2,0.1s-0.1,0-0.1,0c-0.1,0-0.1-0.1-0.1-0.1l0,0l0,0c0,0-0.1-0.2-0.1-0.3C3.2,41.9,3.2,41.9,3.2,41.9 M4.4,40.7
		c0.1-0.9,0.3-1.1,1.7-1.5l1.3-0.4l0.2-0.4C7.7,38.1,7.8,38,7.9,38c0.2,0,0.4,0.8,0.3,1c-0.1,0.1,0,0.3,0.2,0.5
		C8.8,40,9,40.7,8.9,41.3c-0.2,0.9-1,1.3-1.7,0.9c-0.5-0.3-0.7-0.6-1-1.4L5.9,40l-0.4,0.1c-0.5,0.2-0.7,0.5-0.4,1.1
		c0.2,0.4,0.4,0.6,1,0.8c0.4,0.1,0.3,0.6-0.1,0.6c-0.4,0.1-0.9-0.3-1.3-0.8c-0.1-0.2-0.2-0.4-0.3-0.5C4.4,41.1,4.4,40.9,4.4,40.7
		 M8,41.6c0.5-0.1,0.4-1.3-0.1-1.8c-0.3-0.3-0.7-0.4-1-0.1c-0.1,0.2-0.1,0.4,0,0.8C7.1,41.1,7.6,41.7,8,41.6"/>
	<path class="st0" d="M3.5,36.2C3.9,35,5.8,34.4,7,35.1c0.6,0.4,0.9,0.9,0.9,1.7c0,1.1-0.6,1.7-1.9,1.9c-1,0.2-1.5,0-2-0.5
		c-0.2-0.3-0.4-0.7-0.5-1.1C3.4,36.8,3.4,36.5,3.5,36.2 M4.6,37.8c0.7,0.4,1.4,0.4,2.1-0.1c0.5-0.3,0.7-0.7,0.6-1.3
		c0-0.2-0.2-0.5-0.3-0.7c-0.5-0.5-1.8-0.5-2.4,0C4.2,36,4.2,36.2,4.3,37v0.1C4.3,37.6,4.4,37.7,4.6,37.8"/>
	<path class="st0" d="M5.2,29.9l-1.4-0.1l-0.2,0.4c-0.1,0.2-0.3,0.4-0.4,0.4C3,30.6,3,30.5,2.9,30v-0.3l-1.3-0.2
		c-1.2-0.2-1.3-0.2-1.3-0.4c0-0.4,0.2-0.4,1.5-0.3L3.1,29l0.1-0.4c0.1-0.2,0.2-0.4,0.3-0.4C3.7,28.1,4,28.6,4,28.9
		c0,0.2,0.1,0.2,1.2,0.3c1.7,0.2,2.2-0.1,1.7-0.9c-0.2-0.4-0.2-0.5,0-0.7c0.6-0.4,1.1,1.2,0.7,1.9C7.2,29.9,6.7,30,5.2,29.9"/>
	<path class="st0" d="M4.4,23.7c0.5-0.4,1-0.5,1.6-0.4c0.4,0.1,0.5,0.2,0.4,0.3c0,0.2-0.3,1.7-0.5,2.4c-0.1,0.4-0.1,0.4,0.2,0.5
		c0.7,0.2,1.4-0.5,1.4-1.3c0-0.2-0.1-0.6-0.3-0.9c-0.5-0.9,0-1.2,0.6-0.3c0.4,0.6,0.5,0.7,0.4,1.5c-0.1,0.5-0.1,0.7-0.4,1
		c-0.2,0.2-0.6,0.5-0.9,0.6c-1.2,0.4-2.7-0.3-3-1.4c-0.1-0.3-0.1-0.7,0-1C4,24.3,4.2,23.9,4.4,23.7 M4.5,25.1c0,0.6,0.5,1.2,0.7,0.9
		c0.2-0.3,0.5-1.8,0.4-1.9c-0.2-0.4-0.9,0.2-1.1,0.8C4.5,25,4.5,25.1,4.5,25.1"/>
	<path class="st0" d="M7.6,23.4c-0.5-0.2-0.4-0.6,0.2-0.6c0.5,0,0.8-0.3,0.8-0.9c0.1-1.1-0.9-1.3-1.3-0.2c-0.3,1-1.6,1.3-2.1,0.7
		c-0.4-0.6-0.4-1,0.2-2.3l0.2-0.5l0.5,0.2c0.7,0.2,0.7,0.5,0.1,0.8c-0.3,0.1-0.5,0.3-0.6,0.7c-0.2,0.4-0.2,0.5,0,0.8
		c0.3,0,0.4,0,0.6-0.1s0.4-0.3,0.6-0.6c0.5-1,1-1.3,1.7-1s1,1,0.7,2c-0.1,0.3-0.2,0.7-0.3,0.8C8.6,23.5,7.9,23.6,7.6,23.4"/>
	<path class="st0" d="M8.2,18.9L7,18.3l-0.3,0.3c-0.2,0.2-0.4,0.3-0.5,0.2c-0.2-0.1-0.2-0.1,0-0.7l0.1-0.3L5,17.3
		c-1-0.6-1.2-0.7-1.1-0.9c0.1-0.3,0.4-0.3,1.5,0.3l1.1,0.6L6.8,17c0.1-0.2,0.3-0.3,0.4-0.3c0.2,0,0.3,0.6,0.2,0.8
		c-0.1,0.2,0,0.2,1,0.8c1.5,0.8,2.1,0.7,1.9-0.2c-0.1-0.4,0-0.6,0.3-0.6c0.7-0.1,0.6,1.5-0.1,2C10,19.7,9.5,19.6,8.2,18.9"/>
	<path class="st0" d="M9.3,13.2c0.7-0.5,1-0.4,2.2,0.5l1.1,0.8l0.5-0.1c0.3-0.1,0.5-0.1,0.5,0c0.1,0.2-0.4,0.9-0.6,0.9
		c-0.1,0-0.2,0.2-0.3,0.5c-0.1,0.6-0.6,1.2-1.1,1.4c-0.8,0.3-1.6,0-1.7-0.8c-0.1-0.6,0-0.9,0.5-1.7l0.4-0.7l-0.3-0.2
		c-0.4-0.3-0.8-0.2-1.1,0.3c-0.2,0.4-0.2,0.7,0,1.2c0.1,0.4-0.3,0.6-0.6,0.3S8.4,14.7,8.7,14c0.1-0.3,0.2-0.4,0.3-0.5
		C9,13.4,9.1,13.3,9.3,13.2 M10.7,16.5c0.4,0.3,1.3-0.4,1.4-1.2c0.1-0.4-0.1-0.8-0.5-0.8c-0.2,0-0.4,0.2-0.6,0.4
		C10.6,15.5,10.4,16.3,10.7,16.5"/>
	<path class="st0" d="M13.4,13.6c0.4-0.4,0.3-0.5-0.6-1.6c-0.9-1.1-1.1-1.1-1.5-0.8c-0.2,0.1-0.3,0.1-0.4,0
		c-0.1-0.2-0.1-0.2,0.3-0.6c0.3-0.3,0.5-0.4,0.7-0.4s0.3,0,0.6-0.6c0.4-0.7,0.6-0.8,1.4-0.8c0.3,0,0.5,0,0.5-0.2
		c0.2-1.1,0.3-1.3,0.7-1.5c0.8-0.5,1.4-0.2,2.8,1.1l0.8,0.7L19,8.7c0.2-0.2,0.3-0.1,0.5,0c0.2,0.2,0.2,0.2-0.6,1
		c-0.6,0.5-0.9,0.7-1,0.7c-0.3,0-0.3-0.4-0.1-0.7L18,9.5l-0.8-0.8c-1.2-1.3-1.6-1.4-2-0.7C15,8.3,15,8.5,15.3,9.1
		c0.2,0.5,0.4,0.9,0.8,1.3c0.4,0.5,0.5,0.5,0.7,0.4c0.1-0.1,0.3-0.1,0.4-0.1c0.3,0.1,0.2,0.5-0.4,1c-0.7,0.7-1.3,0.6-0.9-0.1
		c0.2-0.3,0.1-0.3-0.6-1.1C14,9.3,13.5,9.2,13,9.9c-0.2,0.3,0,1.1,0.6,2c0.5,0.7,0.7,0.8,1.1,0.6c0.3-0.2,0.5,0,0.5,0.3
		c0,0.2-0.9,0.9-1.5,1.4C13.4,14.4,13.1,14,13.4,13.6"/>
	<path class="st0" d="M19.7,4.4c1.3-0.1,2.5,1.5,2.2,2.9c-0.1,0.7-0.5,1.1-1.3,1.4c-1,0.4-1.8,0-2.4-1.1c-0.5-0.9-0.5-1.4-0.2-2.1
		c0.2-0.3,0.5-0.6,0.8-0.8C19.1,4.5,19.4,4.4,19.7,4.4 M18.5,5.9c-0.1,0.8,0.2,1.5,0.8,1.9c0.4,0.3,0.9,0.4,1.4,0.1
		c0.2-0.1,0.4-0.3,0.5-0.5c0.3-0.7-0.1-1.8-0.9-2.2C19.8,5,19.6,5,19,5.3c0,0-0.1,0-0.1,0.1C18.6,5.5,18.5,5.7,18.5,5.9"/>
	<path class="st0" d="M22.3,6.5c-0.2-0.5,0.2-0.7,0.6-0.3c0.4,0.4,0.8,0.4,1.2,0c0.9-0.7,0.3-1.5-0.7-1c-0.9,0.4-2.1-0.4-1.9-1.2
		c0.1-0.7,0.4-1,1.8-1.5l0.6-0.2l0.2,0.5c0.3,0.6,0.1,0.9-0.5,0.6c-0.3-0.1-0.6-0.1-0.9,0c-0.4,0.1-0.5,0.2-0.5,0.5s0,0.4,0.2,0.5
		s0.5,0.1,0.8,0c1.1-0.3,1.6-0.1,1.9,0.5c0.3,0.7-0.1,1.4-1,1.9c-0.3,0.2-0.6,0.3-0.8,0.3C22.9,7.2,22.4,6.8,22.3,6.5"/>
	<path class="st0" d="M31.4,0.9c0.5,0.3,0.8,0.8,0.9,1.4c0,0.4,0,0.5-0.1,0.5c-0.2,0-1.7,0.3-2.4,0.4c-0.4,0.1-0.4,0.1-0.4,0.4
		c0.1,0.7,0.9,1.1,1.7,0.8c0.2-0.1,0.5-0.3,0.8-0.6C32.6,3,33,3.4,32.4,4.2c-0.4,0.6-0.5,0.7-1.3,0.9c-0.5,0.1-0.7,0.1-1.1,0
		s-0.7-0.4-1-0.7c-0.8-1-0.7-2.7,0.2-3.3c0.3-0.2,0.6-0.3,1-0.4C30.7,0.7,31.1,0.7,31.4,0.9 M30,1.5c-0.6,0.2-0.9,0.9-0.6,1
		s1.8-0.2,1.9-0.3c0.3-0.4-0.5-0.8-1.1-0.7C30.2,1.4,30.1,1.4,30,1.5"/>
	<path class="st0" d="M32.8,4.1c0.5,0,0.6-0.2,0.7-1.6c0.1-1.4,0-1.5-0.5-1.6c-0.2,0-0.3-0.1-0.3-0.3s0.1-0.2,0.7-0.2
		c0.5,0,0.7,0.1,0.8,0.2c0.1,0.2,0.2,0.2,0.9,0c0.8-0.2,1-0.2,1.6,0.4c0.2,0.2,0.4,0.3,0.5,0.2c1-0.6,1.1-0.7,1.6-0.6
		C39.7,0.8,40,1.5,40,3.4v1.1l0.3,0.1c0.3,0.1,0.3,0.1,0.3,0.4s0,0.3-1.1,0.2c-0.8,0-1.1-0.1-1.2-0.2c-0.2-0.3,0-0.5,0.4-0.5h0.4
		L39,3.3c0.1-1.8-0.1-2.1-1-1.9c-0.4,0.1-0.5,0.2-0.7,0.8c-0.2,0.4-0.3,1-0.4,1.4c-0.1,0.7,0,0.7,0.2,0.8c0.1,0,0.3,0.1,0.3,0.3
		c0.1,0.3-0.2,0.5-1,0.4c-1-0.1-1.3-0.5-0.5-0.8c0.3-0.1,0.3-0.1,0.3-1.2c0-1.6-0.2-2-1.1-1.9c-0.4,0.1-0.8,0.8-1,1.8
		c-0.2,0.9-0.1,1.1,0.4,1.2c0.3,0.1,0.4,0.3,0.1,0.5c-0.2,0.1-1.3,0.1-2.1-0.1C32.3,4.6,32.4,4.1,32.8,4.1"/>
	<path class="st0" d="M47.6,3.5c0.6,0.6,0.6,0.9,0,2.3L47.1,7l0.2,0.4c0.1,0.3,0.2,0.5,0.1,0.5c-0.2,0.1-0.9-0.2-1-0.4
		c0-0.1-0.2-0.2-0.5-0.2c-0.6,0-1.3-0.3-1.6-0.8c-0.5-0.7-0.3-1.6,0.4-1.8c0.6-0.2,0.9-0.2,1.7,0.1l0.8,0.3l0.2-0.3
		c0.2-0.5,0-0.9-0.6-1c-0.5-0.1-0.7-0.1-1.2,0.2c-0.3,0.2-0.6-0.2-0.4-0.5C45.4,3.1,46,2.9,46.6,3c0.3,0,0.4,0.1,0.6,0.1
		C47.4,3.2,47.5,3.3,47.6,3.5 M44.6,5.5C44.4,6,45.3,6.6,46,6.6c0.5,0,0.7-0.3,0.7-0.7c0-0.2-0.2-0.4-0.5-0.5
		C45.6,5.2,44.8,5.2,44.6,5.5"/>
	<path class="st0" d="M48.1,7.8C48.5,8,48.4,8,49.5,6.4c0.7-0.9,0.6-0.9,0.3-1.2c-0.2-0.2-0.3-0.4-0.3-0.4c0-0.2,0.4-0.2,0.9,0
		c0.3,0.2,0.4,0.3,0.5,0.6L51,5.8h0.5c0.8,0.1,1.5,0.7,1.6,1.3s0,0.8-0.8,2.1l-0.6,1l0.3,0.3c0.2,0.2,0.3,0.3,0.2,0.5
		s-0.2,0.1-1-0.2c-0.6-0.3-0.9-0.5-1-0.7c-0.2-0.4,0-0.6,0.5-0.4C51,9.8,51,9.8,51.6,9.1c1-1.3,1-1.9,0.3-2.4s-1.7,0.1-2.5,1.2
		C49,8.4,49,8.4,49.3,8.7s0.3,0.5,0,0.6c-0.2,0-0.4-0.1-1.1-0.5c-0.5-0.4-0.8-0.6-0.8-0.8C47.5,7.7,47.8,7.6,48.1,7.8"/>
	<path class="st0" d="M56,9.1c0,0.1-0.2,0.5-1.1,1.5c-0.6,0.7-1.2,1.3-1.2,1.4c0,0,0.1,0.2,0.2,0.3c0.3,0.3,0.3,0.6,0,0.7
		c-0.2,0.1-0.3,0-0.8-0.5c-0.3-0.3-0.7-0.7-0.8-0.9c-0.2-0.4,0.1-0.7,0.5-0.4s0.5,0.2,1.6-1l0.8-0.9L54.9,9
		c-0.2-0.3-0.2-0.7,0.1-0.7c0.1,0,0.6,0.3,0.8,0.5C55.9,9,56,9.1,56,9.1 M56.7,8.6c-0.2,0.2-0.4,0-0.4-0.2s0.1-0.2,0.2-0.2
		c0.1,0,0.1,0,0.2,0.1C56.8,8.3,56.8,8.5,56.7,8.6"/>
	<path class="st0" d="M54.7,12.8c0.4,0.4,0.5,0.4,1.7-0.5c1.2-0.8,1.2-0.9,1-1.4c-0.1-0.2-0.1-0.3,0.1-0.4c0.2-0.1,0.2-0.1,0.6,0.4
		c0.3,0.4,0.4,0.6,0.3,0.7c-0.1,0.2,0,0.3,0.5,0.7c0.7,0.5,0.8,0.7,0.6,1.5c0,0.3,0,0.5,0.1,0.5c1.1,0.4,1.2,0.4,1.4,0.8
		c0.4,0.8,0.1,1.5-1.4,2.7l-0.8,0.7l0.2,0.3c0.1,0.3,0.1,0.4-0.1,0.5c-0.2,0.2-0.2,0.2-0.9-0.7c-0.4-0.6-0.6-1-0.6-1.1
		c0.1-0.3,0.4-0.3,0.7,0l0.3,0.3l0.9-0.7c1.4-1.1,1.6-1.4,0.9-2c-0.3-0.2-0.4-0.2-1.1-0.1c-0.5,0.1-1,0.3-1.3,0.6
		c-0.5,0.4-0.6,0.4-0.5,0.6c0.1,0.1,0.1,0.3,0,0.4c-0.2,0.3-0.5,0.2-1-0.5c-0.6-0.8-0.4-1.4,0.2-0.9c0.3,0.2,0.3,0.2,1.1-0.5
		c1.3-1,1.4-1.5,0.7-2c-0.3-0.2-1.1-0.1-2,0.4c-0.8,0.4-0.9,0.6-0.7,1.1c0.1,0.3,0,0.5-0.3,0.4c-0.2-0.1-0.9-0.9-1.2-1.7
		C54,12.7,54.4,12.5,54.7,12.8"/>
	<path class="st0" d="M63.3,19.9c0,0.9-0.2,1.1-1.6,1.7l-1.2,0.5l-0.1,0.5c-0.1,0.3-0.2,0.5-0.3,0.4c-0.2,0-0.5-0.8-0.4-1
		c0-0.1,0-0.3-0.3-0.5c-0.5-0.4-0.7-1.2-0.7-1.7c0.1-0.9,0.9-1.4,1.6-1.1c0.5,0.2,0.8,0.5,1.2,1.3l0.4,0.7l0.3-0.1
		c0.5-0.2,0.6-0.6,0.3-1.1c-0.3-0.4-0.5-0.5-1-0.7c-0.4-0.1-0.3-0.5,0.1-0.6c0.4-0.1,1,0.2,1.4,0.7c0.2,0.2,0.3,0.4,0.3,0.5
		C63.3,19.6,63.3,19.7,63.3,19.9 M59.7,19.4c-0.5,0.2-0.3,1.3,0.3,1.8c0.3,0.3,0.7,0.3,1,0c0.1-0.2,0.1-0.5,0-0.8
		C60.7,19.9,60.1,19.2,59.7,19.4"/>
	<path class="st0" d="M64.6,23.3c0,0.1-0.5,0.3-1.7,0.7c-0.9,0.3-1.7,0.5-1.8,0.6c0,0,0,0.2,0,0.4c0.1,0.4,0,0.7-0.3,0.6
		c-0.2,0-0.3-0.2-0.5-0.9c-0.1-0.5-0.2-1-0.2-1.1c0-0.5,0.4-0.5,0.6-0.1c0.2,0.5,0.3,0.4,1.9,0l1.2-0.4v-0.4c0-0.4,0.2-0.7,0.4-0.6
		c0.1,0.1,0.3,0.5,0.4,0.9C64.6,23.1,64.6,23.2,64.6,23.3 M65.5,23.1c-0.3,0-0.4-0.2-0.2-0.4c0.1-0.1,0.2-0.2,0.3-0.1
		c0.1,0,0.1,0.1,0.1,0.2C65.7,22.9,65.6,23.1,65.5,23.1"/>
	<path class="st0" d="M61.8,25.2c0.5,0,0.6,0.3,0.1,0.6c-0.4,0.3-0.5,0.7-0.3,1.2c0.5,1,1.4,0.6,1.2-0.5c-0.2-0.9,0.8-1.9,1.6-1.6
		c0.7,0.3,0.9,0.6,1,2.1l0.1,0.6L65,27.7c-0.7,0.2-0.9,0-0.5-0.6c0.2-0.3,0.2-0.5,0.2-0.9c0-0.5-0.1-0.5-0.4-0.6s-0.4-0.1-0.5,0.1
		c-0.1,0.1-0.2,0.5-0.2,0.8c0,1.1-0.2,1.6-0.9,1.7s-1.3-0.4-1.6-1.3C61,26.6,61,26.2,61,26.1C60.9,25.7,61.4,25.2,61.8,25.2"/>
	<path class="st0" d="M34.6,22.7c-0.2-0.9-0.5-2.1-1.3-2.9s-2.4-1.4-3.5-1.7c-0.3,1.1-0.5,3.3,0.7,6.5c1.3,3.6,4.4,6.7,6,8
		c-0.9-2.8-1.7-6.1-1.8-9.5C34.6,23,34.6,22.9,34.6,22.7"/>
	<path class="st0" d="M34.9,7.8c-13.2,0-24,10.7-24,24c0,13.2,10.7,24,24,24c13.2,0,24-10.7,24-24C58.9,18.6,48.1,7.8,34.9,7.8
		 M46.6,32.3c-0.4,5.1-1.4,10.1-1.5,10.3c-0.1,0.6-0.7,0.9-1.2,0.8c-0.6-0.1-0.9-0.7-0.8-1.2c0-0.1,1.1-5.1,1.4-10
		c0.4-5.1-4.8-17.2-6.3-19.2c-0.6,0.9-1.7,4.1-1.5,9.6c0.1,0.8,0.1,1.4,0.1,1.4c0,0.1,0,0.1,0,0.2c0.6,7,4,13.8,4.1,13.9
		c0.3,0.5,0.1,1.1-0.4,1.4c-0.5,0.3-1.1,0.2-1.4-0.3c0,0-2.1-2.9-4.9-3.7c-1.2-0.3-3.7,0.1-6.1,1.6c-1.4,0.9-3.9,2.8-4.5,5.9
		c-0.4,2.1-0.1,3.8,1,4.8c1.1,1.1,3.1,1.6,5,1.1c3.1-0.7,6.8-4.3,6.9-4.4c0.4-0.4,1.1-0.4,1.5,0s0.4,1.1,0,1.5
		c-0.2,0.2-4.2,4.1-7.9,4.9c-0.6,0.1-1.3,0.2-1.9,0.2c-2,0-3.8-0.7-5-1.9c-1.1-1.1-2.3-3.2-1.6-6.8c0.6-2.9,2.5-5.4,5.4-7.3
		c2.3-1.4,5-2.2,7-2c-1.8-1.7-4.3-4.6-5.5-7.9c-2-5.6-0.4-8.8-0.3-8.9c0.2-0.4,0.6-0.6,1.1-0.5c0.4,0.1,3.7,0.7,5.5,2.4
		c0.4-3.9,1.4-6.7,2.7-7.4c0.6-0.3,1.3-0.2,1.9,0.2C41.3,12.6,47,26.6,46.6,32.3 M29.3,39.8c0,0.1,0,0.2-0.1,0.3
		c-0.1,0.2-0.2,0.3-0.3,0.5c-0.1,0.2-0.3,0.4-0.4,0.6c-0.1,0.1-0.2,0.2-0.4,0.3c-0.1,0-0.2,0-0.2,0.1c-0.2,0-0.3,0-0.5-0.1
		c-0.1,0-0.1-0.1-0.2-0.1c-0.1-0.1-0.2-0.2-0.2-0.3c-0.1-0.1-0.1-0.2-0.1-0.3s0-0.2,0-0.3s0.1-0.2,0.2-0.3s0.2-0.2,0.2-0.3
		c0.1-0.1,0.1-0.2,0.2-0.4c0.1-0.1,0.2-0.3,0.3-0.3c0.1,0,0.1-0.1,0.2-0.1c0.2-0.1,0.3-0.1,0.5-0.1c0.1,0,0.2,0,0.2,0.1
		c0.1,0,0.2,0.1,0.3,0.2c0.1,0.1,0.2,0.2,0.2,0.3C29.3,39.5,29.3,39.7,29.3,39.8"/>
</g>
</svg>
