<?xml version="1.0" encoding="utf-8"?>
<!-- Generator: Adobe Illustrator 22.0.0, SVG Export Plug-In . SVG Version: 6.00 Build 0)  -->
<svg version="1.1" id="Camada_1" xmlns:figma="http://www.figma.com/figma/ns"
	 xmlns="http://www.w3.org/2000/svg" xmlns:xlink="http://www.w3.org/1999/xlink" x="0px" y="0px" viewBox="0 0 420.8 66.8"
	 style="enable-background:new 0 0 420.8 66.8;" xml:space="preserve">
<style type="text/css">
	.st0{fill:#FFFFFF;}
</style>
<title>Logo</title>
<g>
	<g>
		<path class="st0" d="M169.5,0.7c0.9,1.4,1.7,2.7,2.4,4.1c0.5,1.2,1.1,2.5,1.8,3.6c1.7,2.7,3.9,5.2,5.1,8.1
			c1.3,2.9,2.7,5.9,3.8,8.9c-1.3-3-3-5.8-4.3-8.8c-0.8-1.8-1.6-3.6-2.7-5.2c-1.2-1.9-2.8-3.4-3.9-5.3c-0.4-0.6-0.8-1.2-1.2-1.9
			c0.1-0.2,0.2-0.5,0.3-0.8c0.1-0.1-0.1-0.2-0.2-0.1c-0.2,0.1-0.3,0.2-0.5,0.4c-0.7-1-1.3-2-2-3c0.1,0.1,0.3,0.2,0.4,0.4
			C169,1.3,169.5,1,169.5,0.7"/>
		<path class="st0" d="M204.6,44.2c-2,0.7-4.9-1.3-6.5-1.8c-3.1-0.9-6.1-2.3-8.4-4.7c-0.1-0.2-0.2-0.4-0.2-0.6
			c-0.8-1.8-1.7-3.5-2.5-5.2c2.2,1.5,5.5,2.6,7.8,3c1.3,0.3,2.9,0.2,4.2,0.1c1.5,0,3.1-0.8,4.7-0.5l0,0
			C204.5,37.7,204.7,40.9,204.6,44.2 M203.7,52.6c-0.1,0-0.2,0-0.2-0.1c-1.3-0.4-2.6-0.9-3.7-1.6c-2.3-1.4-5.1-2.8-6.7-4.9
			c-0.1-0.1-0.1-0.1-0.2-0.1c-0.2-0.5-0.4-1.1-0.6-1.6c0-0.2,0-0.4,0.1-0.6c0.1-0.4-0.2-0.6-0.5-0.7c-0.4-1-0.7-2-1.1-3
			c2.2,1.8,5.1,2.7,7.8,3.7c1.5,0.6,4.3,1.6,6.1,0.9c-0.1,1.9-0.3,3.8-0.5,5.7C203.9,51.1,203.8,51.8,203.7,52.6 M195.2,52.9
			c-0.5-1.6-1-3.1-1.6-4.7c0.5,0.5,1.1,0.8,1.8,1.2c1.5,0.9,3,2.1,4.6,2.7c1.1,0.5,2.3,0.9,3.5,1.1c-0.4,2.2-1,4.3-1.9,6.3
			c-0.6,1.2-1.3,2.4-1.6,3.7c-0.2,0.9-0.4,1.8-0.6,2.7C198.5,61.4,196.6,57.3,195.2,52.9 M191.3,58.9c0.8-1.7,0.6-3.6,0.5-5.4
			c-0.1-2.1-0.1-4.1,0.1-6.2c0.8,1.9,1.5,4,2.3,6c1.4,4.1,3.1,8,4.3,12.1c-0.1-0.1-0.2-0.2-0.2-0.4c-0.9-1.1-1.8-2.4-2.9-3.3
			C194,60.7,192.7,59.8,191.3,58.9 M185.5,51.4c0.3-1.3,0.4-2.6,0.7-3.9c0.6-3,0.7-6.4,2-9.3c1,2.3,2,4.7,2.9,7
			c-0.3,2.1-0.4,4.2-0.3,6.3c0.1,2.2,0.5,4.8,0,7c-1.1-0.8-2.3-1.5-3.4-2.3c-1-0.7-2-1.6-3-2.5c0.2-0.1,0.4-0.4,0.5-0.6
			C185.2,52.7,185.4,52,185.5,51.4 M183.9,29.2c0.2,0.5,0.4,1,0.6,1.5c0.9,2,1.9,3.9,2.9,5.9c0,0.1,0,0.2,0,0.3
			c0.2,0.5-0.9,2.5-1.1,3.1c-0.2,1.2-0.4,2.5-0.6,3.8c-0.5,3.2-0.7,6.6-1.8,9.6c-2.2-2.1-4.3-4.6-5.9-7.2
			C179.7,40.4,181.5,34.6,183.9,29.2 M180.2,16.8c-0.1-0.2-0.1-0.3-0.1-0.5c-0.1-0.8-0.1-1.8-0.4-2.5c-0.1-0.2-0.1-0.3-0.2-0.5
			c2.7,1.7,5.4,3.3,8.1,5c5.5,3.7,12.4,7.1,15.2,13.5c0.3,0.8,0.6,1.6,0.8,2.4c-1.2-0.6-2.4,0-3.7,0s-2.7,0-4.1-0.2
			c-3.4-0.4-6.2-2.6-9.4-3.5c-0.2-0.5-0.5-1.1-0.7-1.6c-0.2-0.6-0.5-1.3-0.7-2c0.1-0.2,0.2-0.4,0.3-0.6c0.6,0.1,1.1,0.2,1.4,0.3
			c1.5,0.2,3,0.4,4.5,0.3c2.2-0.2,4.2-2,6.5-1.1c0.1,0.1,0.2-0.1,0.1-0.2c-2.3-1.2-5,0.6-7.5,0.5c-1.5-0.1-3.1-0.2-4.6-0.6
			c0.1-0.1,0.1-0.1,0.2-0.2c0.4-0.8-0.7-1.3-1.1-0.7l0,0c-0.1,0.2-0.2,0.3-0.3,0.5c-0.1-0.1-0.2-0.1-0.4-0.2c-0.3-1-0.7-1.9-1.1-2.8
			c0,0,0,0,0.1,0c2.3-0.1,4.5-0.9,6.7-1.5c0.1,0,0.1-0.2,0-0.2c-1.7,0.2-3.3,0.5-5,0.7c-0.7,0-1.4,0.1-2.2,0.1
			c-0.1-0.2-0.2-0.4-0.3-0.6c-0.5-1-1.3-1.8-1.8-2.8 M175.5,35.8c-0.3-4.4,2.1-7.8,4-11.5c0.4-0.9,0.9-1.9,1-2.9
			c0.2,0.1,0.4,0.1,0.5,0.2s0.1,0.2,0.2,0.4c0.2,0.5,0.4,0.9,0.6,1.4c-0.1,0.6,0.1,1.2,0.6,1.6c0.3,0.9,0.6,1.7,0.9,2.6
			c-0.3,1-0.7,2-1.2,2.8c-1,1.7-1.7,3.3-2.1,5.2c-0.7,3.2-1.9,6.4-2.4,9.6c-0.9-1.6-1.6-3.3-2-5c-0.4-1.4-0.5-2.9-0.6-4.3
			C175.2,36.2,175.5,36.1,175.5,35.8 M174.9,9.8c0.1,0.1,0.2,0.2,0.2,0.3c0.2,0.2,0.2,0.3,0.3,0.3c0,0,0,0,0.1,0.1
			c0.7,0.9,1.3,1.8,2,2.8c0.9,1.2,0.7,2.2,0.9,3.4c-0.2,0-0.5,0-0.7,0c-0.4,0-0.5,0.5-0.1,0.6c0.3,0.1,0.6,0.2,1,0.3v0.1
			c0.1,0.4,0.3,0.7,0.4,1c-0.1,0.1-0.1,0.2,0,0.2c0.2,0.4,0.3,0.9,0.4,1.3c-0.1,0.2-0.1,0.4,0,0.6c-0.1,2.4-2.2,4.7-3,6.8
			c-0.6,1.5-1.2,3.1-1.5,4.6c0-3.1,0-6.2-0.5-9.4c0-0.3-0.1-0.5-0.1-0.7c0.6-1.3,1.1-2.6,1.5-4.1c0.5-2.2,0-4.2,0.4-6.3
			c0.1-0.3-0.4-0.4-0.5-0.2c-1.1,1.6-0.2,3.6-0.5,5.4c-0.2,1.4-0.6,2.6-1,3.9c-0.3-2.8,0-5.4,0.4-8.2
			C174.6,11.6,174.8,10.7,174.9,9.8 M172.2,6.9c0.4,0.3,0.8,0.6,1.1,1c0,0.4,0,0.8,0,1.3C173.2,8.5,172.6,7.8,172.2,6.9"/>
		<rect x="226.1" y="63.8" class="st0" width="14.8" height="1.5"/>
		<rect x="246.9" y="63.8" class="st0" width="14.8" height="1.5"/>
		<path class="st0" d="M272.1,47.7c0,0.4,0.1,0.8,0.1,1.2c0,0.5,0,0.8,0,1.1h0.1c0.4-0.8,1-1.5,1.9-2s1.8-0.8,2.8-0.8
			c1.8,0,3.1,0.5,4,1.6c0.9,1,1.3,2.4,1.3,4.1v8.5h-2v-7.7c0-0.7-0.1-1.4-0.2-2s-0.3-1.1-0.6-1.5c-0.3-0.4-0.7-0.8-1.2-1
			s-1.1-0.4-1.8-0.4c-0.5,0-1.1,0.1-1.6,0.3s-1,0.5-1.3,1c-0.4,0.4-0.7,1-0.9,1.7c-0.2,0.7-0.4,1.5-0.4,2.4v7.1h-2V50.8
			c0-0.4,0-0.9,0-1.5s0-1.1-0.1-1.6H272.1z"/>
		<path class="st0" d="M300.8,51c-0.3-0.6-0.7-1-1.3-1.4c-0.6-0.4-1.3-0.5-2.1-0.5c-0.4,0-0.7,0-1.1,0.1s-0.7,0.2-0.9,0.4
			c-0.3,0.2-0.5,0.4-0.7,0.7s-0.3,0.6-0.3,1c0,0.7,0.3,1.2,0.8,1.5s1.4,0.6,2.5,0.9c1.6,0.3,2.8,0.8,3.6,1.5
			c0.8,0.6,1.2,1.5,1.2,2.6c0,0.8-0.2,1.5-0.5,2s-0.7,1-1.2,1.3s-1.1,0.6-1.7,0.7c-0.6,0.1-1.2,0.2-1.9,0.2c-1,0-2.1-0.2-3.1-0.7
			c-1-0.4-1.8-1.1-2.4-2l1.6-1.2c0.4,0.6,0.9,1.1,1.6,1.5s1.5,0.6,2.3,0.6c0.4,0,0.8,0,1.2-0.1c0.4-0.1,0.7-0.2,1-0.4
			s0.5-0.5,0.7-0.8s0.3-0.7,0.3-1.1c0-0.7-0.4-1.3-1.1-1.6c-0.7-0.4-1.7-0.7-3-1c-0.4-0.1-0.9-0.2-1.3-0.4c-0.5-0.1-0.9-0.4-1.3-0.7
			s-0.7-0.6-1-1.1c-0.3-0.4-0.4-1-0.4-1.6c0-0.7,0.1-1.3,0.4-1.8s0.6-0.9,1.1-1.2s1-0.6,1.6-0.7c0.6-0.2,1.2-0.2,1.8-0.2
			c1,0,1.9,0.2,2.8,0.7c0.9,0.4,1.6,1,2,1.8L300.8,51z"/>
		<path class="st0" d="M322.5,50.9c-0.3-0.5-0.8-1-1.5-1.3c-0.6-0.3-1.3-0.5-2.1-0.5c-0.8,0-1.5,0.1-2.2,0.4
			c-0.7,0.3-1.2,0.7-1.7,1.2s-0.8,1.1-1.1,1.8c-0.2,0.7-0.4,1.4-0.4,2.2s0.1,1.5,0.4,2.2c0.2,0.7,0.6,1.3,1.1,1.8s1,0.9,1.7,1.2
			s1.4,0.4,2.2,0.4c0.9,0,1.6-0.2,2.3-0.5s1.1-0.8,1.5-1.3l1.5,1.1c-0.6,0.7-1.3,1.3-2.2,1.7c-0.9,0.4-1.9,0.7-3.1,0.7
			c-1.1,0-2.1-0.2-3.1-0.5c-0.9-0.4-1.7-0.9-2.3-1.5c-0.6-0.7-1.1-1.4-1.5-2.3c-0.4-0.9-0.5-1.9-0.5-2.9s0.2-2,0.5-2.9
			c0.4-0.9,0.9-1.7,1.5-2.3c0.6-0.7,1.4-1.2,2.3-1.5c0.9-0.4,1.9-0.5,3.1-0.5c0.9,0,1.9,0.2,2.8,0.6c1,0.4,1.7,1,2.3,1.8L322.5,50.9
			z"/>
		<path class="st0" d="M335.7,42.4c0,0.4-0.1,0.8-0.4,1c-0.3,0.3-0.6,0.4-1,0.4s-0.7-0.1-1-0.4c-0.3-0.3-0.4-0.6-0.4-1
			s0.1-0.8,0.4-1c0.3-0.3,0.6-0.4,1-0.4s0.7,0.1,1,0.4C335.5,41.7,335.7,42,335.7,42.4 M335.3,61.6h-2V47.7h2V61.6z"/>
		<path class="st0" d="M359.2,54.3v0.4c0,0.2,0,0.3,0,0.5h-11.5c0,0.7,0.2,1.3,0.4,2c0.3,0.6,0.6,1.1,1.1,1.6s1,0.8,1.6,1.1
			s1.3,0.4,2,0.4c1,0,2-0.2,2.7-0.7c0.8-0.5,1.3-1,1.7-1.7l1.5,1.2c-0.8,1-1.7,1.8-2.7,2.3s-2.1,0.7-3.2,0.7c-1,0-2-0.2-2.9-0.5
			c-0.9-0.4-1.6-0.9-2.3-1.5c-0.6-0.7-1.1-1.4-1.5-2.3c-0.4-0.9-0.5-1.9-0.5-2.9s0.2-2,0.5-2.9c0.4-0.9,0.8-1.7,1.5-2.3
			c0.6-0.7,1.4-1.2,2.2-1.5c0.8-0.4,1.8-0.5,2.8-0.5c1.1,0,2,0.2,2.9,0.5c0.8,0.4,1.5,0.9,2.1,1.5s1,1.3,1.3,2.2
			C359,52.4,359.2,53.3,359.2,54.3 M357.1,53.6c-0.1-1.3-0.5-2.4-1.3-3.2c-0.8-0.9-1.9-1.3-3.3-1.3c-0.7,0-1.3,0.1-1.9,0.4
			c-0.6,0.2-1.1,0.6-1.5,1s-0.8,0.9-1,1.5c-0.3,0.5-0.4,1.1-0.4,1.7h9.4L357.1,53.6L357.1,53.6z"/>
		<path class="st0" d="M371.2,47.7c0,0.4,0.1,0.8,0.1,1.2c0,0.5,0,0.8,0,1.1h0.1c0.4-0.8,1-1.5,1.9-2s1.8-0.8,2.8-0.8
			c1.8,0,3.1,0.5,4,1.6c0.9,1,1.3,2.4,1.3,4.1v8.5h-2v-7.7c0-0.7-0.1-1.4-0.2-2s-0.3-1.1-0.6-1.5c-0.3-0.4-0.7-0.8-1.2-1
			s-1.1-0.4-1.8-0.4c-0.5,0-1.1,0.1-1.6,0.3s-1,0.5-1.3,1c-0.4,0.4-0.7,1-0.9,1.7c-0.2,0.7-0.4,1.5-0.4,2.4v7.1h-2V50.8
			c0-0.4,0-0.9,0-1.5s0-1.1-0.1-1.6H371.2z"/>
		<path class="st0" d="M398.8,49.4h-3.9v8.1c0,0.5,0,0.9,0.1,1.3c0.1,0.3,0.2,0.6,0.4,0.8c0.2,0.2,0.4,0.3,0.7,0.4
			c0.3,0.1,0.5,0.1,0.8,0.1s0.6,0,0.9-0.1s0.6-0.2,0.9-0.3l0.1,1.7c-0.4,0.1-0.7,0.2-1.1,0.3s-0.8,0.1-1.3,0.1c-0.4,0-0.8,0-1.2-0.1
			c-0.4-0.1-0.8-0.3-1.2-0.6c-0.4-0.3-0.6-0.7-0.9-1.1c-0.2-0.5-0.3-1.1-0.3-1.9v-8.7H390v-1.7h2.9v-3.9h2v3.9h3.9V49.4z"/>
		<path class="st0" d="M420.5,54.3v0.4c0,0.2,0,0.3,0,0.5H409c0,0.7,0.2,1.3,0.4,2c0.3,0.6,0.6,1.1,1.1,1.6s1,0.8,1.6,1.1
			s1.3,0.4,2,0.4c1,0,2-0.2,2.7-0.7c0.8-0.5,1.3-1,1.7-1.7L420,59c-0.8,1-1.7,1.8-2.7,2.3s-2.1,0.7-3.2,0.7c-1,0-2-0.2-2.9-0.5
			c-0.9-0.4-1.6-0.9-2.3-1.5c-0.6-0.7-1.1-1.4-1.5-2.3c-0.4-0.9-0.5-1.9-0.5-2.9s0.2-2,0.5-2.9c0.4-0.9,0.8-1.7,1.5-2.3
			c0.6-0.7,1.4-1.2,2.2-1.5c0.8-0.4,1.8-0.5,2.8-0.5c1.1,0,2,0.2,2.9,0.5c0.8,0.4,1.5,0.9,2.1,1.5s1,1.3,1.3,2.2
			C420.4,52.4,420.5,53.3,420.5,54.3 M418.5,53.6c-0.1-1.3-0.5-2.4-1.3-3.2c-0.8-0.9-1.9-1.3-3.3-1.3c-0.7,0-1.3,0.1-1.9,0.4
			c-0.6,0.2-1.1,0.6-1.5,1s-0.8,0.9-1,1.5c-0.3,0.5-0.4,1.1-0.4,1.7h9.4L418.5,53.6L418.5,53.6z"/>
		<path class="st0" d="M231.3,25.2c-0.4-0.6-0.9-1.1-1.6-1.4c-0.7-0.4-1.5-0.6-2.3-0.6c-0.9,0-1.7,0.2-2.4,0.5s-1.3,0.7-1.8,1.3
			c-0.5,0.6-0.9,1.2-1.2,1.9c-0.3,0.7-0.4,1.5-0.4,2.4s0.1,1.7,0.4,2.4c0.3,0.7,0.7,1.4,1.1,1.9c0.5,0.5,1.1,1,1.8,1.3
			s1.5,0.5,2.4,0.5c1,0,1.8-0.2,2.5-0.6c0.7-0.4,1.2-0.8,1.6-1.4l1.6,1.2c-0.6,0.8-1.4,1.4-2.4,1.9c-0.9,0.5-2.1,0.7-3.4,0.7
			c-1.2,0-2.3-0.2-3.3-0.6c-1-0.4-1.8-1-2.5-1.7s-1.2-1.6-1.6-2.5c-0.4-1-0.6-2-0.6-3.2c0-1.1,0.2-2.2,0.6-3.2s0.9-1.8,1.6-2.5
			c0.7-0.7,1.5-1.3,2.5-1.7c1-0.4,2.1-0.6,3.3-0.6c1,0,2,0.2,3.1,0.7c1,0.4,1.9,1.1,2.5,2L231.3,25.2z"/>
		<path class="st0" d="M258,29.3c0,1.1-0.2,2.2-0.6,3.2c-0.4,1-1,1.8-1.7,2.5c-0.7,0.7-1.6,1.3-2.6,1.7s-2.1,0.6-3.3,0.6
			s-2.2-0.2-3.2-0.6c-1-0.4-1.8-1-2.6-1.7c-0.7-0.7-1.3-1.6-1.7-2.5c-0.4-1-0.6-2-0.6-3.2c0-1.1,0.2-2.2,0.6-3.2
			c0.4-1,1-1.8,1.7-2.5s1.6-1.3,2.6-1.7c1-0.4,2.1-0.6,3.2-0.6c1.2,0,2.3,0.2,3.3,0.6s1.8,1,2.6,1.7c0.7,0.7,1.3,1.6,1.7,2.5
			C257.8,27.1,258,28.2,258,29.3 M255.7,29.3c0-0.8-0.1-1.6-0.4-2.4c-0.3-0.7-0.7-1.4-1.1-1.9c-0.5-0.5-1.1-1-1.8-1.3
			s-1.5-0.5-2.4-0.5s-1.7,0.2-2.4,0.5s-1.3,0.8-1.8,1.3s-0.9,1.2-1.1,1.9c-0.3,0.7-0.4,1.5-0.4,2.4c0,0.8,0.1,1.6,0.4,2.4
			c0.3,0.7,0.7,1.4,1.1,1.9c0.5,0.6,1.1,1,1.8,1.3s1.5,0.5,2.4,0.5s1.7-0.2,2.4-0.5s1.3-0.7,1.8-1.3c0.5-0.5,0.9-1.2,1.1-1.9
			C255.6,31,255.7,30.2,255.7,29.3"/>
		<path class="st0" d="M277.3,25.4c-0.3-0.6-0.8-1.1-1.5-1.5s-1.4-0.6-2.2-0.6c-0.4,0-0.8,0-1.2,0.1c-0.4,0.1-0.7,0.2-1,0.4
			c-0.3,0.2-0.5,0.4-0.7,0.7c-0.2,0.3-0.3,0.7-0.3,1.1c0,0.7,0.3,1.3,0.9,1.6c0.6,0.4,1.5,0.7,2.7,1c1.8,0.4,3.1,0.9,4,1.6
			s1.3,1.6,1.3,2.8c0,0.9-0.2,1.6-0.5,2.2c-0.3,0.6-0.8,1.1-1.3,1.5s-1.1,0.6-1.8,0.8c-0.7,0.2-1.4,0.2-2.1,0.2
			c-1.1,0-2.3-0.2-3.3-0.7c-1.1-0.5-2-1.2-2.7-2.2l1.7-1.3c0.4,0.7,1,1.2,1.7,1.7c0.8,0.5,1.6,0.7,2.5,0.7c0.5,0,0.9,0,1.4-0.1
			c0.4-0.1,0.8-0.2,1.1-0.5c0.3-0.2,0.6-0.5,0.8-0.8c0.2-0.3,0.3-0.7,0.3-1.2c0-0.8-0.4-1.4-1.1-1.8c-0.8-0.4-1.9-0.8-3.3-1.1
			c-0.5-0.1-0.9-0.2-1.4-0.4c-0.5-0.2-1-0.4-1.4-0.7c-0.4-0.3-0.8-0.7-1.1-1.2c-0.3-0.5-0.4-1.1-0.4-1.8c0-0.8,0.2-1.4,0.5-2
			s0.7-1,1.2-1.4s1.1-0.6,1.7-0.8c0.6-0.2,1.3-0.3,2-0.3c1.1,0,2.1,0.2,3.1,0.7s1.7,1.1,2.2,2L277.3,25.4z"/>
		<path class="st0" d="M294.2,22.2c0.9-0.5,1.9-0.8,3-0.8c0.4,0,0.8,0,1.3,0.1c0.4,0.1,0.9,0.3,1.3,0.5s0.8,0.6,1.2,1
			c0.4,0.4,0.7,0.9,0.9,1.6c0.5-1,1.2-1.8,2.1-2.4c0.9-0.5,2-0.8,3.2-0.8c1.9,0,3.4,0.6,4.3,1.7c1,1.1,1.4,2.6,1.4,4.5v9.3h-2.2
			v-8.4c0-1.6-0.3-2.9-0.9-3.8c-0.6-1-1.6-1.5-3-1.5c-0.8,0-1.5,0.2-2,0.5s-1,0.7-1.3,1.3c-0.3,0.5-0.6,1.1-0.7,1.8
			c-0.2,0.7-0.2,1.4-0.2,2.1v8h-2.2v-8.8c0-0.7-0.1-1.4-0.2-2s-0.3-1.1-0.6-1.5c-0.3-0.4-0.6-0.7-1.1-1c-0.5-0.2-1.1-0.3-1.8-0.3
			c-0.5,0-1,0.1-1.6,0.4c-0.5,0.2-1,0.6-1.4,1.1s-0.8,1.1-1,1.8c-0.3,0.7-0.4,1.6-0.4,2.6V37H290V25.1c0-0.4,0-0.9,0-1.6
			c0-0.6-0.1-1.2-0.1-1.7h2.1c0,0.4,0.1,0.9,0.1,1.4s0,0.9,0,1.2h0.1C292.6,23.5,293.3,22.8,294.2,22.2"/>
		<path class="st0" d="M338.8,28.9v0.5c0,0.2,0,0.4,0,0.5h-12.5c0,0.8,0.2,1.5,0.5,2.1c0.3,0.7,0.7,1.2,1.2,1.7s1.1,0.9,1.7,1.2
			c0.7,0.3,1.4,0.4,2.2,0.4c1.1,0,2.1-0.3,3-0.8c0.8-0.5,1.5-1.1,1.9-1.8l1.6,1.3c-0.9,1.1-1.9,2-3,2.5s-2.3,0.7-3.5,0.7
			c-1.1,0-2.2-0.2-3.1-0.6c-1-0.4-1.8-1-2.5-1.7s-1.2-1.6-1.6-2.5c-0.4-1-0.6-2-0.6-3.2c0-1.1,0.2-2.2,0.6-3.2s0.9-1.8,1.6-2.5
			s1.5-1.3,2.4-1.7c0.9-0.4,1.9-0.6,3-0.6c1.2,0,2.2,0.2,3.1,0.6s1.7,0.9,2.3,1.6c0.6,0.7,1.1,1.5,1.4,2.4
			C338.6,26.9,338.8,27.8,338.8,28.9 M336.6,28.2c-0.1-1.4-0.5-2.6-1.4-3.5s-2.1-1.4-3.6-1.4c-0.7,0-1.4,0.1-2,0.4s-1.2,0.6-1.6,1.1
			c-0.5,0.5-0.9,1-1.1,1.6c-0.3,0.6-0.4,1.2-0.5,1.9h10.2V28.2z M332.1,18.7h-1.9l3.2-4.7h2.9L332.1,18.7z"/>
		<path class="st0" d="M356.8,23.6h-4.3v8.8c0,0.6,0.1,1,0.2,1.4s0.3,0.7,0.5,0.9s0.4,0.3,0.7,0.4c0.3,0.1,0.6,0.1,0.9,0.1
			s0.6,0,1-0.1c0.3-0.1,0.7-0.2,1-0.4l0.1,1.9c-0.4,0.2-0.8,0.3-1.2,0.3c-0.4,0.1-0.9,0.1-1.4,0.1c-0.4,0-0.8-0.1-1.3-0.2
			c-0.5-0.1-0.9-0.3-1.3-0.6s-0.7-0.7-1-1.2c-0.2-0.5-0.4-1.2-0.4-2v-9.4h-3.1v-1.8h3.1v-4.3h2.2v4.3h4.3L356.8,23.6L356.8,23.6z"/>
		<path class="st0" d="M369.4,16c0,0.5-0.2,0.8-0.5,1.1s-0.7,0.4-1.1,0.4s-0.7-0.1-1.1-0.4s-0.5-0.7-0.5-1.1c0-0.5,0.2-0.8,0.5-1.1
			s0.7-0.4,1.1-0.4s0.7,0.1,1.1,0.4C369.2,15.1,369.4,15.5,369.4,16 M368.9,36.9h-2.2V21.8h2.2V36.9z"/>
		<path class="st0" d="M392.1,25.2c-0.4-0.6-0.9-1.1-1.6-1.4c-0.7-0.4-1.5-0.6-2.3-0.6c-0.9,0-1.7,0.2-2.4,0.5
			c-0.7,0.3-1.3,0.7-1.8,1.3c-0.5,0.6-0.9,1.2-1.2,1.9c-0.3,0.7-0.4,1.5-0.4,2.4s0.1,1.7,0.4,2.4s0.7,1.4,1.1,1.9
			c0.5,0.5,1.1,1,1.8,1.3c0.7,0.3,1.5,0.5,2.4,0.5c1,0,1.8-0.2,2.5-0.6c0.7-0.4,1.2-0.8,1.6-1.4l1.6,1.2c-0.6,0.8-1.4,1.4-2.4,1.9
			c-0.9,0.5-2.1,0.7-3.4,0.7c-1.2,0-2.3-0.2-3.3-0.6c-1-0.4-1.8-1-2.5-1.7s-1.2-1.6-1.6-2.5c-0.4-1-0.6-2-0.6-3.2
			c0-1.1,0.2-2.2,0.6-3.2s0.9-1.8,1.6-2.5s1.5-1.3,2.5-1.7c1-0.4,2.1-0.6,3.3-0.6c1,0,2,0.2,3.1,0.7c1,0.4,1.9,1.1,2.5,2L392.1,25.2
			z"/>
		<path class="st0" d="M413.4,27.1c0-1.3-0.3-2.3-1-2.9s-1.7-1-3-1c-0.9,0-1.7,0.2-2.5,0.5s-1.4,0.8-2,1.3l-1.2-1.5
			c0.6-0.6,1.4-1.1,2.5-1.6c1-0.4,2.2-0.6,3.5-0.6c0.8,0,1.6,0.1,2.3,0.3c0.7,0.2,1.3,0.6,1.9,1c0.5,0.5,1,1,1.3,1.7
			s0.5,1.5,0.5,2.4v6.6c0,0.6,0,1.2,0.1,1.8c0,0.6,0.1,1.2,0.2,1.6h-2c-0.1-0.4-0.1-0.8-0.2-1.2c0-0.4-0.1-0.9-0.1-1.3h-0.1
			c-0.7,1-1.5,1.7-2.3,2.2c-0.9,0.4-1.9,0.7-3.2,0.7c-0.6,0-1.2-0.1-1.8-0.2c-0.6-0.2-1.2-0.4-1.7-0.8c-0.5-0.4-0.9-0.8-1.3-1.4
			c-0.3-0.6-0.5-1.3-0.5-2.1c0-1.2,0.3-2.1,0.9-2.8c0.6-0.7,1.4-1.2,2.4-1.5s2.1-0.6,3.4-0.7s2.6-0.1,4-0.1L413.4,27.1L413.4,27.1z
			 M412.8,29.3c-0.9,0-1.8,0-2.7,0.1c-0.9,0.1-1.7,0.2-2.5,0.5c-0.7,0.2-1.4,0.6-1.8,1c-0.5,0.4-0.7,1-0.7,1.7c0,0.5,0.1,1,0.3,1.4
			c0.2,0.4,0.5,0.7,0.8,0.9s0.7,0.4,1.1,0.5s0.8,0.1,1.3,0.1c0.8,0,1.5-0.1,2.1-0.4c0.6-0.3,1.1-0.6,1.5-1.1s0.7-1,0.9-1.6
			c0.2-0.6,0.3-1.2,0.3-1.9v-1.1h-0.6L412.8,29.3L412.8,29.3z"/>
		<g>
			<path class="st0" d="M32.2,47c-0.1,0.1-0.2,0.2-0.3,0.2l0.1-0.4c-0.2-1.2-0.4-2.4-0.5-3.5c0-2.4,0.1-4.7,0.2-7.1
				c0.1-0.8,0.4-1.7,0.7-2.5l0.7-1.9c-1.6-0.7-3-0.1-4.4-0.3c-0.3,0.6-0.8,1.2-0.9,1.9c-0.1,1.7-0.9,3.1-1.6,4.5
				c-1.3,3-2.6,6.1-3.9,9.1c-0.3,0.7-0.6,1.6-1.4,2c-0.4-1.2-0.4-2.4-0.1-3.5c0.2-0.5,0.2-1,0.3-1.5c0.2-1.3,0.4-2.6,0.7-4
				c0.8-3.3,1.9-6.6,2.4-9.9c0.1-0.3,0.3-0.7,0.5-1l0.5-1c-1.6-0.8-2.1-1-4-0.8c-2,0.1-2,0.1-2.6,2.1c-0.7,2.1-1.3,4.2-1.9,6.3
				l-1.4,4.5c0,0.5,0,1-0.1,1.3c0,0.7-0.1,1.3-0.1,2c-1.3,1.1-3.1,2.3-4.8,3.8c-0.6,0.5-1.9,1.3-2.4,1.8c-1.3-0.8-2.5-2.5-2.5-3.8
				c0-0.8,0.1-1.7,0.5-2.5c0.7-1.1,1.7-2,2.6-2.9c2.7-2.4,4.9-5,6.5-7.9c0.2-0.3,0.3-0.7,0.4-1.1c0.2-0.6-0.2-1.2-1-1.4
				c-1-0.3-1.9-0.7-2.6-1.2c-0.3-0.2-0.7-0.3-1.1-0.3c-0.7-0.1-1.3-0.1-2-0.2c-1.2-0.2-2.2,0-3,0.8c-0.3,0.4-0.8,0.8-1.1,1.2
				c-0.5,0.8-1,1.6-1.4,2.5c-1,2.2-2.1,4.5-2.7,6.8c-0.8,2.8-0.6,4-0.4,5.6c0.1,0.5,0.2,0.8,0.3,1.1c0.9,2.2,3.2,4.2,5.7,4.9
				c1.7,0.4,2.9,0.6,4.2-0.3c1.9-1.3,3.4-2.4,4.5-3.9c0,0.3,0,0.5,0,0.8c-0.1,1.2,0.3,2.2,1.2,3c2.8,2.5,7.7,1.2,8.6-1.9
				c0.3-1.1,0.8-2.2,1.3-3.3c0.2-0.4,0.4-0.8,0.6-1.2c0.4,0.8,0.4,1.6,0.5,2.4c0.2,1.6,1,2.6,2.5,3c1.7,0.5,3.3,0.5,4.5-1
				c0.9-1.5,1.4-2.3,2.7-5.9C35.4,43.7,33,46.1,32.2,47z M9.7,31c0.7-0.8,0.8-0.8,2.3-0.3c-0.7,1.6-2.5,4-5,6.6
				c-0.1-0.2-0.3-0.3-0.3-0.4C7.1,34.7,8,32.8,9.7,31z"/>
			<path class="st0" d="M143.1,44.7c-0.2,0-0.3-0.1-0.4-0.2l0.6-2.7c0.6-2.5,1.5-3.1,1.5-4.7l-1.1-4.5c-1.9-0.3-3.5-0.6-5.3-0.9
				c-0.2-1.1,0.4-2.1,1.1-2.8c0.7-0.7,1.7-1.2,2.6-1.8c0-0.1-0.1-0.2-0.1-0.3c-1.4-0.3-2.8-0.6-4.2-1c-1.2-0.3-2.1,0-2.6,1.1
				l-0.5,0.8c-1.4,3.1-2.5,6.3-3,9.8l-0.3,3.6c0,0.3,0.1,0.7,0.1,1v2.2c-0.9,0.8-1.9,1.6-2.9,2.5c-0.2,0.4-0.6,0.7-1.1,1.1
				c-0.7-1.5-1.1-2.9-1-4.3c0.1-1.5,0.4-3.1,0.7-4.6c0.1-0.3,0.1-0.6-0.1-0.8c-0.4-1.2,0.8-6.1,1.5-8.8c0.5-1.7,1-3.4,1.5-5.1
				c0.1-0.1,0.1-0.1,0.2-0.1c2.2-0.4,4.9-0.7,6.9-1.9c0.8-0.5,1.6-1,0.6-1.8c-0.4-0.3-1.8-1.2-1.8-0.1c-1.7,0.1-3.4,0.6-5.2,0.7
				l0.1-0.9c0.4-3.5,1-7,1.5-10.4c0.1-0.3,0.1-0.7,0-1c-0.1-0.7-0.4-1.2-1.1-1.4c-1.3-0.3-2.7-0.6-4.2-0.2c-0.3,1.1-0.7,2.1-1,3.2
				c-0.2,0.5-0.1,1.1-0.2,1.6c-0.1,0.3-0.1,0.6-0.2,0.8c-0.7,1.1-1,2.2-0.8,3.5c0.1,0.2,0,0.5-0.1,0.7c-0.2,0.4-0.3,2.6-0.5,5
				c-0.2,0-0.3,0.1-0.4,0.1c-1.2,0.2-2.4,0.6-3.6,0.8c-0.8,0.1-3-0.1-3.6,0.4c-0.8,0.8,0.9,1.3,1.5,1.4c1.9,0.1,3.8,0,5.7,0h0.2
				c-0.1,1-0.2,2-0.3,2.7c-0.5,3.7-0.5,7.6-0.6,10c0,1.7,0.1,3.6-0.1,5.3c0,0.4-0.1,0.7-0.1,1c-1.3,1.4-2.3,2.9-3.5,4
				c-0.3,0.5-2.7,3.6-3.4,4.2c-0.6-1-1.1-1.7-1.5-2.5c-0.7-1.2-0.8-2.6-0.7-4c0.2-1.9,0-3.8,0.2-5.7c0.3-2.3,0.8-4.5,1.3-6.8
				c0.2-0.8,0.6-1.6,1.1-2.2c0.3-0.4,1-0.6,1.8-1c-0.1,1-0.1,1.6-0.2,2.2c-0.1,1.4-0.3,2.8-0.4,4.2c-0.2,1.6,0.3,2.3,1.7,2.7
				c0.3-0.8,0.7-1.7,0.9-2.6c0.6-2.3,0.8-4.7,2.5-6.6c-0.2-0.2-0.3-0.3-0.4-0.4c-2.8-0.8-5.7-1.5-8.6-1.4c-0.3,0-0.7,0.3-0.9,0.6
				c-1,1.7-2.2,3.3-2.9,5.1c-1.2,3.3-1.6,6.7-1.7,10.2c-1.3,1-3,2.3-4.6,3.7c-0.6,0.5-1.9,1.3-2.4,1.8c-1.3-0.8-2.5-2.5-2.5-3.8
				c0-0.8,0.1-1.7,0.5-2.5c0.7-1.1,1.7-2,2.6-2.9c2.7-2.4,4.9-5,6.5-7.9c0.2-0.3,0.3-0.7,0.4-1.1c0.2-0.6-0.2-1.2-1-1.4
				c-1-0.3-1.9-0.7-2.6-1.2c-0.3-0.2-0.7-0.3-1.1-0.3c-0.7-0.1-1.3-0.1-2-0.2c-1.2-0.2-2.2,0-3,0.8c-0.3,0.4-0.8,0.8-1.1,1.2
				c-0.5,0.8-1,1.6-1.4,2.5c-1,2.2-2.1,4.5-2.7,6.8c-0.8,2.5-0.7,3.7-0.5,5.1c-1.1,1.3-2.2,2.6-3.2,3.3c-1.1-1.1-0.8-2.1-0.4-2.9
				c1-2.6,1.2-5.5,1.8-8.2c0.3-1.2,0.1-2.2-0.7-3.3c-0.7-0.9-1.2-1.3-2.3-1.1c-0.7,0.2-1.3,0.5-1.9,1c-2.4,2-4.5,4.3-6.3,6.9
				c-0.2,0.3-0.6,0.5-0.8,0.8l-0.3-0.2c0.2-0.9,0.4-1.7,0.5-2.6c0.1-1-0.2-2.2,0.2-3.1l-0.1-2.2c-0.2-1.3-2.7-1.4-3.1-1.1
				c-0.3,0.3-0.6,2-0.5,2.6c-0.1,0.5,0,1.1-0.3,1.4c0,0-0.6,4.3-0.9,7.7c-1,0.7-1.6,1.3-2.3,1.3c-0.2,0-0.3-0.1-0.4-0.2l0.6-2.7
				c0.6-2.5,1.5-3.1,1.5-4.7l-1.1-4.5c-1.9-0.3-3.5-0.6-5.3-0.9c-0.2-1.1,0.4-2.1,1.1-2.8c0.7-0.7,1.7-1.2,2.6-1.8
				c0-0.1-0.1-0.2-0.1-0.3c-1.4-0.3-2.8-0.6-4.2-1c-1.2-0.3-2.1,0-2.6,1.1l-0.5,0.8c-1.4,3.1-2.5,6.3-3,9.8L61.7,41
				c0,0.3,0.1,0.7,0.1,1v2.2c-1.1,1.3-2.2,2.7-3.2,3.7c-0.3,0.5-2.7,3.6-3.4,4.2c-0.6-1-1.1-1.7-1.5-2.5c-0.7-1.2-0.8-2.6-0.7-4
				c0.2-1.9,0-3.8,0.2-5.7c0.3-2.3,0.8-4.5,1.3-6.8c0.2-0.8,0.6-1.6,1.1-2.2c0.3-0.4,1-0.6,1.8-1c-0.1,1-0.1,1.6-0.2,2.2
				c-0.1,1.4-0.3,2.8-0.4,4.2c-0.2,1.6,0.3,2.3,1.7,2.7c0.3-0.8,0.7-1.7,0.9-2.6c0.6-2.3,0.8-4.7,2.5-6.6c-0.2-0.2-0.3-0.3-0.4-0.4
				C58.9,28.6,56,28,53,28c-0.3,0-0.7,0.3-0.9,0.6c-1,1.7-2.2,3.3-2.9,5.1c-1.5,4-1.8,8.2-1.7,12.5l1.1,3.4l2.2,2.2
				c2.2,2.3,5.9,3.9,9-2.2c1-1.5,1.5-2.4,2-3.5v1.3c0.1,1.1,0.6,2.2,1.5,2.9c1.5,1.1,3.1,1.6,4.8,1.6c2-0.1,2.9-1.6,3.4-3.1
				c0.3-0.8,0.6-1.6,0.8-2.4c0.1,0.1,0.1,0.1,0.2,0.1c1.3,0.4,1.8,0.1,3-0.9c0,0.5,0,1,0,1.3c0.1,1.9,1.7,3.1,3.8,3.1
				c0.3-0.6,0.7-1.2,1-1.8c1.9-4.5,4.8-8.4,7.4-12.5c0.3-0.4,0.7-0.7,1.3-1.2c0.3,1.8-0.1,3.1-0.6,4.3l-1.5,3.2
				c-1,1.7-0.6,3.6-0.2,5.5c0.1,0.4,0.4,1,0.8,1.3c2,1.6,3.9,2.3,5.9,0.4c0.5-0.5,0.9-1.2,1.3-2c1.1,1.8,3.1,3.4,5.3,3.9
				c1.7,0.4,2.9,0.6,4.2-0.3c1.9-1.4,3.5-2.4,4.6-4l0.9,2.9l2.2,2.2c2.2,2.3,5.9,3.9,9-2.2c1.2-1.9,1.7-2.7,2.4-4.3
				c0.1,0.9,0.4,1.7,0.8,2.6c0.2,0.4,0.9,2.8,1.3,3.1c2.1,1.3,4.8-1.5,5.9-3.6c0.1-0.2,0.3-0.4,0.4-0.6v0.6c0.1,1.1,0.6,2.2,1.5,2.9
				c1.5,1.1,3.1,1.6,4.8,1.6c2-0.1,2.9-1.6,3.4-3.1c0.3-0.8,0.6-1.6,0.8-2.4c0.1,0.1,0.1,0.1,0.2,0.1c1.3,0.4,1.9,0.1,3-1
				c1.2-1,1.5-2,1.6-2.8C144.9,43.4,144.2,44.7,143.1,44.7z M103.4,31c0.7-0.8,0.8-0.8,2.3-0.3c-0.7,1.6-2.5,4-5,6.6
				c-0.1-0.2-0.3-0.3-0.3-0.4C100.9,34.7,101.8,32.8,103.4,31z M68.4,48.9c-0.1,0.3-0.3,0.7-0.6,0.9c-0.3,0.2-0.8,0.5-1.1,0.4
				c-0.3-0.1-0.7-0.7-0.8-1.1c-0.2-1.1-0.4-2.2-0.3-3.3c0.2-4.4,0.8-8.6,2.1-12.6c0.1-0.2,0.3-0.4,0.4-0.6c0.2,0.1,0.3,0.1,0.4,0.1
				c0,1.5,0.6,2.6,1.4,3.6c-0.4,2.6-0.2,5.3,0.2,6.6l0.2,0.7C69.8,45.4,69.2,47.2,68.4,48.9z M138.3,48.9c-0.1,0.3-0.3,0.7-0.6,0.9
				c-0.3,0.2-0.8,0.5-1.1,0.4c-0.3-0.1-0.7-0.7-0.8-1.1c-0.2-1.1-0.4-2.2-0.3-3.3c0.2-4.4,0.8-8.6,2.1-12.6c0.1-0.2,0.3-0.4,0.4-0.6
				c0.2,0.1,0.3,0.1,0.4,0.1c0,1.5,0.6,2.6,1.4,3.6c-0.4,2.6-0.2,5.3,0.2,6.6l0.2,0.7C139.7,45.4,139.1,47.2,138.3,48.9z"/>
		</g>
	</g>
</g>
</svg>
