<?xml version="1.0" encoding="utf-8"?>
<!-- Generator: Adobe Illustrator 22.0.0, SVG Export Plug-In . SVG Version: 6.00 Build 0)  -->
<svg version="1.1" id="Camada_1" xmlns:figma="http://www.figma.com/figma/ns"
	 xmlns="http://www.w3.org/2000/svg" xmlns:xlink="http://www.w3.org/1999/xlink" x="0px" y="0px" viewBox="0 0 415.7 71.8"
	 style="enable-background:new 0 0 415.7 71.8;" xml:space="preserve">
<style type="text/css">
	.st0{fill:#FFFFFF;}
</style>
<title>Logo</title>
<g>
	<g>
		<path class="st0" d="M164.4,0.7c0.9,1.4,1.7,2.7,2.4,4.1c0.5,1.2,1.1,2.5,1.8,3.6c1.7,2.7,3.9,5.2,5.1,8.1
			c1.3,2.9,2.7,5.9,3.8,8.9c-1.3-3-3-5.8-4.3-8.8c-0.8-1.8-1.6-3.6-2.7-5.2c-1.2-1.9-2.8-3.4-3.9-5.3c-0.4-0.6-0.8-1.2-1.2-1.9
			c0.1-0.2,0.2-0.5,0.3-0.8c0.1-0.1-0.1-0.2-0.2-0.1c-0.2,0.1-0.3,0.2-0.5,0.4c-0.7-1-1.3-2-2-3c0.1,0.1,0.3,0.2,0.4,0.4
			C163.9,1.3,164.4,1,164.4,0.7"/>
		<path class="st0" d="M199.5,44.2c-2,0.7-4.9-1.3-6.5-1.8c-3.1-0.9-6.1-2.3-8.4-4.7c-0.1-0.2-0.2-0.4-0.2-0.6
			c-0.8-1.8-1.7-3.5-2.5-5.2c2.2,1.5,5.5,2.6,7.8,3c1.3,0.3,2.9,0.2,4.2,0.1c1.5,0,3.1-0.8,4.7-0.5l0,0
			C199.4,37.7,199.6,40.9,199.5,44.2 M198.6,52.6c-0.1,0-0.2,0-0.2-0.1c-1.3-0.4-2.6-0.9-3.7-1.6c-2.3-1.4-5.1-2.8-6.7-4.9
			c-0.1-0.1-0.1-0.1-0.2-0.1c-0.2-0.5-0.4-1.1-0.6-1.6c0-0.2,0-0.4,0.1-0.6c0.1-0.4-0.2-0.6-0.5-0.7c-0.4-1-0.7-2-1.1-3
			c2.2,1.8,5.1,2.7,7.8,3.7c1.5,0.6,4.3,1.6,6.1,0.9c-0.1,1.9-0.3,3.8-0.5,5.7C198.8,51.1,198.7,51.8,198.6,52.6 M190.1,52.9
			c-0.5-1.6-1-3.1-1.6-4.7c0.5,0.5,1.1,0.8,1.8,1.2c1.5,0.9,3,2.1,4.6,2.7c1.1,0.5,2.3,0.9,3.5,1.1c-0.4,2.2-1,4.3-1.9,6.3
			c-0.6,1.2-1.3,2.4-1.6,3.7c-0.2,0.9-0.4,1.8-0.6,2.7C193.4,61.4,191.5,57.3,190.1,52.9 M186.2,58.9c0.8-1.7,0.6-3.6,0.5-5.4
			c-0.1-2.1-0.1-4.1,0.1-6.2c0.8,1.9,1.5,4,2.3,6c1.4,4.1,3.1,8,4.3,12.1c-0.1-0.1-0.2-0.2-0.2-0.4c-0.9-1.1-1.8-2.4-2.9-3.3
			C188.9,60.7,187.6,59.8,186.2,58.9 M180.4,51.4c0.3-1.3,0.4-2.6,0.7-3.9c0.6-3,0.7-6.4,2-9.3c1,2.3,2,4.7,2.9,7
			c-0.3,2.1-0.4,4.2-0.3,6.3c0.1,2.2,0.5,4.8,0,7c-1.1-0.8-2.3-1.5-3.4-2.3c-1-0.7-2-1.6-3-2.5c0.2-0.1,0.4-0.4,0.5-0.6
			C180.1,52.7,180.3,52,180.4,51.4 M178.8,29.2c0.2,0.5,0.4,1,0.6,1.5c0.9,2,1.9,3.9,2.9,5.9c0,0.1,0,0.2,0,0.3
			c0.2,0.5-0.9,2.5-1.1,3.1c-0.2,1.2-0.4,2.5-0.6,3.8c-0.5,3.2-0.7,6.6-1.8,9.6c-2.2-2.1-4.3-4.6-5.9-7.2
			C174.6,40.4,176.4,34.6,178.8,29.2 M175.1,16.8c-0.1-0.2-0.1-0.3-0.1-0.5c-0.1-0.8-0.1-1.8-0.4-2.5c-0.1-0.2-0.1-0.3-0.2-0.5
			c2.7,1.7,5.4,3.3,8.1,5c5.5,3.7,12.4,7.1,15.2,13.5c0.3,0.8,0.6,1.6,0.8,2.4c-1.2-0.6-2.4,0-3.7,0s-2.7,0-4.1-0.2
			c-3.4-0.4-6.2-2.6-9.4-3.5c-0.2-0.5-0.5-1.1-0.7-1.6c-0.2-0.6-0.5-1.3-0.7-2c0.1-0.2,0.2-0.4,0.3-0.6c0.6,0.1,1.1,0.2,1.4,0.3
			c1.5,0.2,3,0.4,4.5,0.3c2.2-0.2,4.2-2,6.5-1.1c0.1,0.1,0.2-0.1,0.1-0.2c-2.3-1.2-5,0.6-7.5,0.5c-1.5-0.1-3.1-0.2-4.6-0.6
			c0.1-0.1,0.1-0.1,0.2-0.2c0.4-0.8-0.7-1.3-1.1-0.7l0,0c-0.1,0.2-0.2,0.3-0.3,0.5c-0.1-0.1-0.2-0.1-0.4-0.2c-0.3-1-0.7-1.9-1.1-2.8
			c0,0,0,0,0.1,0c2.3-0.1,4.5-0.9,6.7-1.5c0.1,0,0.1-0.2,0-0.2c-1.7,0.2-3.3,0.5-5,0.7c-0.7,0-1.4,0.1-2.2,0.1
			c-0.1-0.2-0.2-0.4-0.3-0.6c-0.5-1-1.3-1.8-1.8-2.8 M170.4,35.8c-0.3-4.4,2.1-7.8,4-11.5c0.4-0.9,0.9-1.9,1-2.9
			c0.2,0.1,0.4,0.1,0.5,0.2s0.1,0.2,0.2,0.4c0.2,0.5,0.4,0.9,0.6,1.4c-0.1,0.6,0.1,1.2,0.6,1.6c0.3,0.9,0.6,1.7,0.9,2.6
			c-0.3,1-0.7,2-1.2,2.8c-1,1.7-1.7,3.3-2.1,5.2c-0.7,3.2-1.9,6.4-2.4,9.6c-0.9-1.6-1.6-3.3-2-5c-0.4-1.4-0.5-2.9-0.6-4.3
			C170.1,36.2,170.4,36.1,170.4,35.8 M169.8,9.8c0.1,0.1,0.2,0.2,0.2,0.3c0.2,0.2,0.2,0.3,0.3,0.3c0,0,0,0,0.1,0.1
			c0.7,0.9,1.3,1.8,2,2.8c0.9,1.2,0.7,2.2,0.9,3.4c-0.2,0-0.5,0-0.7,0c-0.4,0-0.5,0.5-0.1,0.6c0.3,0.1,0.6,0.2,1,0.3v0.1
			c0.1,0.4,0.3,0.7,0.4,1c-0.1,0.1-0.1,0.2,0,0.2c0.2,0.4,0.3,0.9,0.4,1.3c-0.1,0.2-0.1,0.4,0,0.6c-0.1,2.4-2.2,4.7-3,6.8
			c-0.6,1.5-1.2,3.1-1.5,4.6c0-3.1,0-6.2-0.5-9.4c0-0.3-0.1-0.5-0.1-0.7c0.6-1.3,1.1-2.6,1.5-4.1c0.5-2.2,0-4.2,0.4-6.3
			c0.1-0.3-0.4-0.4-0.5-0.2c-1.1,1.6-0.2,3.6-0.5,5.4c-0.2,1.4-0.6,2.6-1,3.9c-0.3-2.8,0-5.4,0.4-8.2
			C169.5,11.6,169.7,10.7,169.8,9.8 M167.1,6.9c0.4,0.3,0.8,0.6,1.1,1c0,0.4,0,0.8,0,1.3C168.1,8.5,167.5,7.8,167.1,6.9"/>
		<rect x="221" y="63.8" class="st0" width="14.8" height="1.5"/>
		<rect x="241.8" y="63.8" class="st0" width="14.8" height="1.5"/>
		<path class="st0" d="M267,47.7c0,0.4,0.1,0.8,0.1,1.2c0,0.5,0,0.8,0,1.1h0.1c0.4-0.8,1-1.5,1.9-2s1.8-0.8,2.8-0.8
			c1.8,0,3.1,0.5,4,1.6c0.9,1,1.3,2.4,1.3,4.1v8.5h-2v-7.7c0-0.7-0.1-1.4-0.2-2s-0.3-1.1-0.6-1.5c-0.3-0.4-0.7-0.8-1.2-1
			s-1.1-0.4-1.8-0.4c-0.5,0-1.1,0.1-1.6,0.3s-1,0.5-1.3,1c-0.4,0.4-0.7,1-0.9,1.7c-0.2,0.7-0.4,1.5-0.4,2.4v7.1h-2V50.8
			c0-0.4,0-0.9,0-1.5s0-1.1-0.1-1.6H267z"/>
		<path class="st0" d="M295.7,51c-0.3-0.6-0.7-1-1.3-1.4c-0.6-0.4-1.3-0.5-2.1-0.5c-0.4,0-0.7,0-1.1,0.1s-0.7,0.2-0.9,0.4
			c-0.3,0.2-0.5,0.4-0.7,0.7s-0.3,0.6-0.3,1c0,0.7,0.3,1.2,0.8,1.5s1.4,0.6,2.5,0.9c1.6,0.3,2.8,0.8,3.6,1.5
			c0.8,0.6,1.2,1.5,1.2,2.6c0,0.8-0.2,1.5-0.5,2s-0.7,1-1.2,1.3s-1.1,0.6-1.7,0.7c-0.6,0.1-1.2,0.2-1.9,0.2c-1,0-2.1-0.2-3.1-0.7
			c-1-0.4-1.8-1.1-2.4-2l1.6-1.2c0.4,0.6,0.9,1.1,1.6,1.5s1.5,0.6,2.3,0.6c0.4,0,0.8,0,1.2-0.1c0.4-0.1,0.7-0.2,1-0.4
			s0.5-0.5,0.7-0.8s0.3-0.7,0.3-1.1c0-0.7-0.4-1.3-1.1-1.6c-0.7-0.4-1.7-0.7-3-1c-0.4-0.1-0.9-0.2-1.3-0.4c-0.5-0.1-0.9-0.4-1.3-0.7
			s-0.7-0.6-1-1.1c-0.3-0.4-0.4-1-0.4-1.6c0-0.7,0.1-1.3,0.4-1.8s0.6-0.9,1.1-1.2s1-0.6,1.6-0.7c0.6-0.2,1.2-0.2,1.8-0.2
			c1,0,1.9,0.2,2.8,0.7c0.9,0.4,1.6,1,2,1.8L295.7,51z"/>
		<path class="st0" d="M317.4,50.9c-0.3-0.5-0.8-1-1.5-1.3c-0.6-0.3-1.3-0.5-2.1-0.5c-0.8,0-1.5,0.1-2.2,0.4
			c-0.7,0.3-1.2,0.7-1.7,1.2s-0.8,1.1-1.1,1.8c-0.2,0.7-0.4,1.4-0.4,2.2s0.1,1.5,0.4,2.2c0.2,0.7,0.6,1.3,1.1,1.8s1,0.9,1.7,1.2
			s1.4,0.4,2.2,0.4c0.9,0,1.6-0.2,2.3-0.5s1.1-0.8,1.5-1.3l1.5,1.1c-0.6,0.7-1.3,1.3-2.2,1.7c-0.9,0.4-1.9,0.7-3.1,0.7
			c-1.1,0-2.1-0.2-3.1-0.5c-0.9-0.4-1.7-0.9-2.3-1.5c-0.6-0.7-1.1-1.4-1.5-2.3c-0.4-0.9-0.5-1.9-0.5-2.9s0.2-2,0.5-2.9
			c0.4-0.9,0.9-1.7,1.5-2.3c0.6-0.7,1.4-1.2,2.3-1.5c0.9-0.4,1.9-0.5,3.1-0.5c0.9,0,1.9,0.2,2.8,0.6c1,0.4,1.7,1,2.3,1.8L317.4,50.9
			z"/>
		<path class="st0" d="M330.6,42.4c0,0.4-0.1,0.8-0.4,1c-0.3,0.3-0.6,0.4-1,0.4s-0.7-0.1-1-0.4c-0.3-0.3-0.4-0.6-0.4-1
			s0.1-0.8,0.4-1c0.3-0.3,0.6-0.4,1-0.4s0.7,0.1,1,0.4C330.4,41.7,330.6,42,330.6,42.4 M330.2,61.6h-2V47.7h2V61.6z"/>
		<path class="st0" d="M354.1,54.3v0.4c0,0.2,0,0.3,0,0.5h-11.5c0,0.7,0.2,1.3,0.4,2c0.3,0.6,0.6,1.1,1.1,1.6s1,0.8,1.6,1.1
			s1.3,0.4,2,0.4c1,0,2-0.2,2.7-0.7c0.8-0.5,1.3-1,1.7-1.7l1.5,1.2c-0.8,1-1.7,1.8-2.7,2.3s-2.1,0.7-3.2,0.7c-1,0-2-0.2-2.9-0.5
			c-0.9-0.4-1.6-0.9-2.3-1.5c-0.6-0.7-1.1-1.4-1.5-2.3c-0.4-0.9-0.5-1.9-0.5-2.9s0.2-2,0.5-2.9c0.4-0.9,0.8-1.7,1.5-2.3
			c0.6-0.7,1.4-1.2,2.2-1.5c0.8-0.4,1.8-0.5,2.8-0.5c1.1,0,2,0.2,2.9,0.5c0.8,0.4,1.5,0.9,2.1,1.5s1,1.3,1.3,2.2
			C353.9,52.4,354.1,53.3,354.1,54.3 M352,53.6c-0.1-1.3-0.5-2.4-1.3-3.2c-0.8-0.9-1.9-1.3-3.3-1.3c-0.7,0-1.3,0.1-1.9,0.4
			c-0.6,0.2-1.1,0.6-1.5,1s-0.8,0.9-1,1.5c-0.3,0.5-0.4,1.1-0.4,1.7h9.4L352,53.6L352,53.6z"/>
		<path class="st0" d="M366.1,47.7c0,0.4,0.1,0.8,0.1,1.2c0,0.5,0,0.8,0,1.1h0.1c0.4-0.8,1-1.5,1.9-2s1.8-0.8,2.8-0.8
			c1.8,0,3.1,0.5,4,1.6c0.9,1,1.3,2.4,1.3,4.1v8.5h-2v-7.7c0-0.7-0.1-1.4-0.2-2s-0.3-1.1-0.6-1.5c-0.3-0.4-0.7-0.8-1.2-1
			s-1.1-0.4-1.8-0.4c-0.5,0-1.1,0.1-1.6,0.3s-1,0.5-1.3,1c-0.4,0.4-0.7,1-0.9,1.7c-0.2,0.7-0.4,1.5-0.4,2.4v7.1h-2V50.8
			c0-0.4,0-0.9,0-1.5s0-1.1-0.1-1.6H366.1z"/>
		<path class="st0" d="M393.7,49.4h-3.9v8.1c0,0.5,0,0.9,0.1,1.3c0.1,0.3,0.2,0.6,0.4,0.8c0.2,0.2,0.4,0.3,0.7,0.4
			c0.3,0.1,0.5,0.1,0.8,0.1s0.6,0,0.9-0.1s0.6-0.2,0.9-0.3l0.1,1.7c-0.4,0.1-0.7,0.2-1.1,0.3s-0.8,0.1-1.3,0.1c-0.4,0-0.8,0-1.2-0.1
			c-0.4-0.1-0.8-0.3-1.2-0.6c-0.4-0.3-0.6-0.7-0.9-1.1c-0.2-0.5-0.3-1.1-0.3-1.9v-8.7h-2.8v-1.7h2.9v-3.9h2v3.9h3.9V49.4z"/>
		<path class="st0" d="M415.4,54.3v0.4c0,0.2,0,0.3,0,0.5h-11.5c0,0.7,0.2,1.3,0.4,2c0.3,0.6,0.6,1.1,1.1,1.6s1,0.8,1.6,1.1
			s1.3,0.4,2,0.4c1,0,2-0.2,2.7-0.7c0.8-0.5,1.3-1,1.7-1.7l1.5,1.1c-0.8,1-1.7,1.8-2.7,2.3S410.1,62,409,62c-1,0-2-0.2-2.9-0.5
			c-0.9-0.4-1.6-0.9-2.3-1.5c-0.6-0.7-1.1-1.4-1.5-2.3c-0.4-0.9-0.5-1.9-0.5-2.9s0.2-2,0.5-2.9c0.4-0.9,0.8-1.7,1.5-2.3
			c0.6-0.7,1.4-1.2,2.2-1.5c0.8-0.4,1.8-0.5,2.8-0.5c1.1,0,2,0.2,2.9,0.5c0.8,0.4,1.5,0.9,2.1,1.5s1,1.3,1.3,2.2
			C415.3,52.4,415.4,53.3,415.4,54.3 M413.4,53.6c-0.1-1.3-0.5-2.4-1.3-3.2c-0.8-0.9-1.9-1.3-3.3-1.3c-0.7,0-1.3,0.1-1.9,0.4
			c-0.6,0.2-1.1,0.6-1.5,1s-0.8,0.9-1,1.5c-0.3,0.5-0.4,1.1-0.4,1.7h9.4L413.4,53.6L413.4,53.6z"/>
		<path class="st0" d="M226.2,25.2c-0.4-0.6-0.9-1.1-1.6-1.4c-0.7-0.4-1.5-0.6-2.3-0.6c-0.9,0-1.7,0.2-2.4,0.5s-1.3,0.7-1.8,1.3
			c-0.5,0.6-0.9,1.2-1.2,1.9c-0.3,0.7-0.4,1.5-0.4,2.4s0.1,1.7,0.4,2.4c0.3,0.7,0.7,1.4,1.1,1.9c0.5,0.5,1.1,1,1.8,1.3
			s1.5,0.5,2.4,0.5c1,0,1.8-0.2,2.5-0.6c0.7-0.4,1.2-0.8,1.6-1.4l1.6,1.2c-0.6,0.8-1.4,1.4-2.4,1.9c-0.9,0.5-2.1,0.7-3.4,0.7
			c-1.2,0-2.3-0.2-3.3-0.6c-1-0.4-1.8-1-2.5-1.7s-1.2-1.6-1.6-2.5c-0.4-1-0.6-2-0.6-3.2c0-1.1,0.2-2.2,0.6-3.2s0.9-1.8,1.6-2.5
			c0.7-0.7,1.5-1.3,2.5-1.7c1-0.4,2.1-0.6,3.3-0.6c1,0,2,0.2,3.1,0.7c1,0.4,1.9,1.1,2.5,2L226.2,25.2z"/>
		<path class="st0" d="M252.9,29.3c0,1.1-0.2,2.2-0.6,3.2c-0.4,1-1,1.8-1.7,2.5s-1.6,1.3-2.6,1.7s-2.1,0.6-3.3,0.6s-2.2-0.2-3.2-0.6
			c-1-0.4-1.8-1-2.6-1.7c-0.7-0.7-1.3-1.6-1.7-2.5c-0.4-1-0.6-2-0.6-3.2c0-1.1,0.2-2.2,0.6-3.2c0.4-1,1-1.8,1.7-2.5s1.6-1.3,2.6-1.7
			c1-0.4,2.1-0.6,3.2-0.6c1.2,0,2.3,0.2,3.3,0.6s1.8,1,2.6,1.7c0.7,0.7,1.3,1.6,1.7,2.5C252.7,27.1,252.9,28.2,252.9,29.3
			 M250.6,29.3c0-0.8-0.1-1.6-0.4-2.4c-0.3-0.7-0.7-1.4-1.1-1.9c-0.5-0.5-1.1-1-1.8-1.3s-1.5-0.5-2.4-0.5s-1.7,0.2-2.4,0.5
			s-1.3,0.8-1.8,1.3s-0.9,1.2-1.1,1.9c-0.3,0.7-0.4,1.5-0.4,2.4c0,0.8,0.1,1.6,0.4,2.4c0.3,0.7,0.7,1.4,1.1,1.9
			c0.5,0.6,1.1,1,1.8,1.3s1.5,0.5,2.4,0.5s1.7-0.2,2.4-0.5s1.3-0.7,1.8-1.3c0.5-0.5,0.9-1.2,1.1-1.9C250.5,31,250.6,30.2,250.6,29.3
			"/>
		<path class="st0" d="M272.2,25.4c-0.3-0.6-0.8-1.1-1.5-1.5s-1.4-0.6-2.2-0.6c-0.4,0-0.8,0-1.2,0.1c-0.4,0.1-0.7,0.2-1,0.4
			c-0.3,0.2-0.5,0.4-0.7,0.7c-0.2,0.3-0.3,0.7-0.3,1.1c0,0.7,0.3,1.3,0.9,1.6c0.6,0.4,1.5,0.7,2.7,1c1.8,0.4,3.1,0.9,4,1.6
			s1.3,1.6,1.3,2.8c0,0.9-0.2,1.6-0.5,2.2c-0.3,0.6-0.8,1.1-1.3,1.5s-1.1,0.6-1.8,0.8c-0.7,0.2-1.4,0.2-2.1,0.2
			c-1.1,0-2.3-0.2-3.3-0.7c-1.1-0.5-2-1.2-2.7-2.2l1.7-1.3c0.4,0.7,1,1.2,1.7,1.7c0.8,0.5,1.6,0.7,2.5,0.7c0.5,0,0.9,0,1.4-0.1
			c0.4-0.1,0.8-0.2,1.1-0.5c0.3-0.2,0.6-0.5,0.8-0.8c0.2-0.3,0.3-0.7,0.3-1.2c0-0.8-0.4-1.4-1.1-1.8c-0.8-0.4-1.9-0.8-3.3-1.1
			c-0.5-0.1-0.9-0.2-1.4-0.4c-0.5-0.2-1-0.4-1.4-0.7c-0.4-0.3-0.8-0.7-1.1-1.2s-0.4-1.1-0.4-1.8c0-0.8,0.2-1.4,0.5-2s0.7-1,1.2-1.4
			s1.1-0.6,1.7-0.8c0.6-0.2,1.3-0.3,2-0.3c1.1,0,2.1,0.2,3.1,0.7s1.7,1.1,2.2,2L272.2,25.4z"/>
		<path class="st0" d="M289.1,22.2c0.9-0.5,1.9-0.8,3-0.8c0.4,0,0.8,0,1.3,0.1c0.4,0.1,0.9,0.3,1.3,0.5s0.8,0.6,1.2,1
			c0.4,0.4,0.7,0.9,0.9,1.6c0.5-1,1.2-1.8,2.1-2.4c0.9-0.5,2-0.8,3.2-0.8c1.9,0,3.4,0.6,4.3,1.7c1,1.1,1.4,2.6,1.4,4.5v9.3h-2.2
			v-8.4c0-1.6-0.3-2.9-0.9-3.8c-0.6-1-1.6-1.5-3-1.5c-0.8,0-1.5,0.2-2,0.5s-1,0.7-1.3,1.3c-0.3,0.5-0.6,1.1-0.7,1.8
			c-0.2,0.7-0.2,1.4-0.2,2.1v8h-2.2v-8.8c0-0.7-0.1-1.4-0.2-2s-0.3-1.1-0.6-1.5c-0.3-0.4-0.6-0.7-1.1-1c-0.5-0.2-1.1-0.3-1.8-0.3
			c-0.5,0-1,0.1-1.6,0.4c-0.5,0.2-1,0.6-1.4,1.1s-0.8,1.1-1,1.8c-0.3,0.7-0.4,1.6-0.4,2.6V37h-2.3V25.1c0-0.4,0-0.9,0-1.6
			c0-0.6-0.1-1.2-0.1-1.7h2.1c0,0.4,0.1,0.9,0.1,1.4s0,0.9,0,1.2h0.1C287.5,23.5,288.2,22.8,289.1,22.2"/>
		<path class="st0" d="M333.7,28.9v0.5c0,0.2,0,0.4,0,0.5h-12.5c0,0.8,0.2,1.5,0.5,2.1c0.3,0.7,0.7,1.2,1.2,1.7s1.1,0.9,1.7,1.2
			c0.7,0.3,1.4,0.4,2.2,0.4c1.1,0,2.1-0.3,3-0.8c0.8-0.5,1.5-1.1,1.9-1.8l1.6,1.3c-0.9,1.1-1.9,2-3,2.5s-2.3,0.7-3.5,0.7
			c-1.1,0-2.2-0.2-3.1-0.6c-1-0.4-1.8-1-2.5-1.7s-1.2-1.6-1.6-2.5c-0.4-1-0.6-2-0.6-3.2c0-1.1,0.2-2.2,0.6-3.2s0.9-1.8,1.6-2.5
			s1.5-1.3,2.4-1.7c0.9-0.4,1.9-0.6,3-0.6c1.2,0,2.2,0.2,3.1,0.6s1.7,0.9,2.3,1.6c0.6,0.7,1.1,1.5,1.4,2.4
			C333.5,26.9,333.7,27.8,333.7,28.9 M331.5,28.2c-0.1-1.4-0.5-2.6-1.4-3.5s-2.1-1.4-3.6-1.4c-0.7,0-1.4,0.1-2,0.4s-1.2,0.6-1.6,1.1
			c-0.5,0.5-0.9,1-1.1,1.6c-0.3,0.6-0.4,1.2-0.5,1.9h10.2V28.2z M327,18.7h-1.9l3.2-4.7h2.9L327,18.7z"/>
		<path class="st0" d="M351.7,23.6h-4.3v8.8c0,0.6,0.1,1,0.2,1.4s0.3,0.7,0.5,0.9s0.4,0.3,0.7,0.4c0.3,0.1,0.6,0.1,0.9,0.1
			s0.6,0,1-0.1c0.3-0.1,0.7-0.2,1-0.4l0.1,1.9c-0.4,0.2-0.8,0.3-1.2,0.3c-0.4,0.1-0.9,0.1-1.4,0.1c-0.4,0-0.8-0.1-1.3-0.2
			c-0.5-0.1-0.9-0.3-1.3-0.6s-0.7-0.7-1-1.2c-0.2-0.5-0.4-1.2-0.4-2v-9.4h-3.1v-1.8h3.1v-4.3h2.2v4.3h4.3L351.7,23.6L351.7,23.6z"/>
		<path class="st0" d="M364.3,16c0,0.5-0.2,0.8-0.5,1.1s-0.7,0.4-1.1,0.4s-0.7-0.1-1.1-0.4s-0.5-0.7-0.5-1.1c0-0.5,0.2-0.8,0.5-1.1
			s0.7-0.4,1.1-0.4s0.7,0.1,1.1,0.4C364.1,15.1,364.3,15.5,364.3,16 M363.8,36.9h-2.2V21.8h2.2V36.9z"/>
		<path class="st0" d="M387,25.2c-0.4-0.6-0.9-1.1-1.6-1.4c-0.7-0.4-1.5-0.6-2.3-0.6c-0.9,0-1.7,0.2-2.4,0.5
			c-0.7,0.3-1.3,0.7-1.8,1.3c-0.5,0.6-0.9,1.2-1.2,1.9c-0.3,0.7-0.4,1.5-0.4,2.4s0.1,1.7,0.4,2.4s0.7,1.4,1.1,1.9
			c0.5,0.5,1.1,1,1.8,1.3c0.7,0.3,1.5,0.5,2.4,0.5c1,0,1.8-0.2,2.5-0.6c0.7-0.4,1.2-0.8,1.6-1.4l1.6,1.2c-0.6,0.8-1.4,1.4-2.4,1.9
			c-0.9,0.5-2.1,0.7-3.4,0.7c-1.2,0-2.3-0.2-3.3-0.6c-1-0.4-1.8-1-2.5-1.7s-1.2-1.6-1.6-2.5c-0.4-1-0.6-2-0.6-3.2
			c0-1.1,0.2-2.2,0.6-3.2s0.9-1.8,1.6-2.5s1.5-1.3,2.5-1.7c1-0.4,2.1-0.6,3.3-0.6c1,0,2,0.2,3.1,0.7c1,0.4,1.9,1.1,2.5,2L387,25.2z"
			/>
		<path class="st0" d="M408.3,27.1c0-1.3-0.3-2.3-1-2.9s-1.7-1-3-1c-0.9,0-1.7,0.2-2.5,0.5s-1.4,0.8-2,1.3l-1.2-1.5
			c0.6-0.6,1.4-1.1,2.5-1.6c1-0.4,2.2-0.6,3.5-0.6c0.8,0,1.6,0.1,2.3,0.3c0.7,0.2,1.3,0.6,1.9,1c0.5,0.5,1,1,1.3,1.7
			s0.5,1.5,0.5,2.4v6.6c0,0.6,0,1.2,0.1,1.8c0,0.6,0.1,1.2,0.2,1.6h-2c-0.1-0.4-0.1-0.8-0.2-1.2c0-0.4-0.1-0.9-0.1-1.3h-0.1
			c-0.7,1-1.5,1.7-2.3,2.2c-0.9,0.4-1.9,0.7-3.2,0.7c-0.6,0-1.2-0.1-1.8-0.2c-0.6-0.2-1.2-0.4-1.7-0.8c-0.5-0.4-0.9-0.8-1.3-1.4
			c-0.3-0.6-0.5-1.3-0.5-2.1c0-1.2,0.3-2.1,0.9-2.8c0.6-0.7,1.4-1.2,2.4-1.5s2.1-0.6,3.4-0.7s2.6-0.1,4-0.1L408.3,27.1L408.3,27.1z
			 M407.7,29.3c-0.9,0-1.8,0-2.7,0.1c-0.9,0.1-1.7,0.2-2.5,0.5c-0.7,0.2-1.4,0.6-1.8,1c-0.5,0.4-0.7,1-0.7,1.7c0,0.5,0.1,1,0.3,1.4
			c0.2,0.4,0.5,0.7,0.8,0.9s0.7,0.4,1.1,0.5s0.8,0.1,1.3,0.1c0.8,0,1.5-0.1,2.1-0.4c0.6-0.3,1.1-0.6,1.5-1.1s0.7-1,0.9-1.6
			c0.2-0.6,0.3-1.2,0.3-1.9v-1.1h-0.6L407.7,29.3L407.7,29.3z"/>
		<g>
			<path class="st0" d="M20.1,27.9c-0.1,0.5-0.3,0.9-0.6,1.4c-2.1,3.7-4.9,7-8.3,10.1c-1.2,1.2-2.5,2.4-3.4,3.7
				c-0.6,0.9-0.6,2.1-0.6,3.2c0,1.7,1.4,3.9,3.2,4.9c0.7-0.6,2.3-1.7,3.1-2.3c3.1-2.7,6.5-5,8.1-6.5c0,0-0.4,2.7-1.4,4.4
				c-1.5,2.5-3.7,4-6.5,6c-1.7,1.2-3.2,1-5.4,0.4c-3.2-0.9-6.2-3.4-7.3-6.3c-0.1-0.4-0.2-0.8-0.4-1.4c-0.2-2-0.5-3.5,0.6-7.1
				c0.8-3,2.3-5.8,3.5-8.7c0.5-1.1,1.2-2.2,1.8-3.2c0.4-0.6,0.9-1.1,1.4-1.6c0.9-1,2.2-1.3,3.8-1c0.8,0.1,1.7,0.1,2.5,0.3
				c0.5,0.1,1,0.2,1.4,0.4c1,0.6,2.1,1.2,3.4,1.5C19.8,26.4,20.3,27.1,20.1,27.9z M15.6,27.2c-1.9-0.6-2-0.6-3,0.4
				c-2.1,2.2-3.3,4.7-3.9,7.4c0,0.1,0.2,0.4,0.4,0.6C12.4,32.3,14.7,29.2,15.6,27.2z"/>
			<path class="st0" d="M47.3,42.5c-1.7,4.6-2.3,5.6-3.5,7.6C42.3,52,40.2,52,38,51.3c-1.9-0.6-3-1.9-3.2-3.9c-0.1-1-0.1-2-0.6-3
				c-0.3,0.5-0.6,1-0.8,1.6c-0.6,1.4-1.2,2.8-1.7,4.2c-1.2,4-7.4,5.7-11,2.4c-1.2-1.1-1.6-2.4-1.5-3.9c0.1-2.4,0.3-4.9,0.4-7.3
				c0.1-0.5,0.1-1.1,0.1-1.7l1.8-5.8c0.8-2.7,1.6-5.4,2.4-8.1c0.8-2.6,0.8-2.6,3.4-2.7c2.4-0.1,3.1,0,5.1,1.1l-0.6,1.2
				c-0.2,0.4-0.6,0.9-0.6,1.3c-0.6,4.3-2,8.5-3,12.7c-0.4,1.7-0.6,3.5-0.9,5.1c-0.1,0.6-0.1,1.3-0.4,1.9c-0.5,1.4-0.5,2.9,0.1,4.5
				c1-0.6,1.4-1.7,1.8-2.6c1.7-3.9,3.3-7.8,5-11.7c0.9-1.9,1.9-3.7,2-5.8c0.1-0.8,0.7-1.6,1.2-2.4c1.8,0.2,3.6-0.6,5.6,0.4l-0.9,2.4
				c-0.4,1.1-0.9,2.2-0.9,3.2c-0.1,3-0.2,6-0.2,9.1c0.1,1.4,0.4,3,0.6,4.5l-0.1,0.5c0.1-0.1,0.3-0.1,0.4-0.3
				C42.6,46.9,45.6,43.9,47.3,42.5z"/>
			<path class="st0" d="M82.5,10.1c-0.8,2.8-0.4,4-2.4,8.1c-1.4,1.6-2.3,3.8-4.7,7.2c-0.6,1-3.2,4.2-3.2,4.6
				c-0.2,1.9-0.3,7.2-0.4,9.2c1.3,0.5,2.9-0.7,4.4,0.6l-2.7,0.9c-1.4,0.6-2.1,1.4-2.1,3c-0.1,2.3,0,4.6-0.2,6.8c-0.2,2-0.8,4-1,6
				c-0.3,2.5-0.4,5.1-0.5,7.6l-0.2,3c-1.5-0.1-1.1-0.2-2.3-0.4c-1.5-0.3-2.2-1.3-2.2-2.8c0-1.9-0.1-3.9-0.1-5.8
				c-0.1-3.6-0.1-7.1-0.1-10.7v-2.2c-1.9,0.4-4,1.7-4.9-1.4c1-0.4,2.1-0.9,3.2-1.2c2-0.4,2.4-1.7,2.6-3.6c0.3-5.1,0.4-10.4,1.2-15.4
				c0.8-5.4,1.9-10.7,3.3-15.8c0.8-3.1,3.9-8,8.9-8.1C81.2-0.3,83,8.3,82.5,10.1z M78.9,3.4c-1.4-0.6-2.6,0.6-2.7,1.4
				c-1.4,2.4-1.7,6.3-2.8,10c-0.1,0.1-0.1,0.4-0.1,0.6L72,24c-0.1,0.6-0.3,1.2,0.5,1.9c0.4-0.6,0.8-1.2,1-1.7c4.2-5,6.3-10.9,6.5-17
				C80,5.8,79.9,4.8,78.9,3.4z"/>
			<path class="st0" d="M103.8,42.5c-2.4,5.8-4.3,8.1-5.9,10.7c-1.9,2.4-5.5,1.9-6.8-0.9c-0.6-1.1-0.9-2.2-1.4-3.7
				c-0.9,1.4-1.6,2.7-2.2,3.9c-1.4,2.9-2.9,3-5.3,2.7c-1.9-0.1-3.6-0.9-4.7-2.7c-0.2-0.4-0.7-5.4-0.1-8.5c1.1-4.5,2.4-6.9,3.7-9.5
				c0.4-0.9,0.9-1.9,1.5-2.8c0.5-0.8,1.2-1.2,2.2-1.1c1.6,0.2,3.2,0,4.7,0.2c1.1,0.1,2.1,0.4,3.1,0.8c0.3,0.1,0.5,0.6,0.9,1.3
				c-1.2,0.1-2.1,0.4-3,0.4c-1.2-0.1-1.9,0.4-2.7,1.4c-1.4,2-2.2,4.2-3,6.6s-1.3,4.7-1.4,7.2v2.1c0.6-0.6,1-0.9,1.2-1.2
				c1.3-2.2,2.4-4.5,3.7-6.5c1.2-1.8,2.4-3.5,3.7-5.1c0.5-0.7,1.2-1.1,2-0.9c0.4,0.1,0.7,0,1.1,0.1c3,0.2,3.4,0.8,2.4,3.7
				c-0.9,2.6-1.3,5.3-1.4,8.1c0,0.3,0.1,0.6,0.1,1.1C98,47.4,100.9,44.4,103.8,42.5z"/>
			<g id="XMLID_1_">
				<g>
					<path class="st0" d="M108.6,23.7c3.8-0.1,7.5,0.7,11.1,1.8c0.1,0.1,0.3,0.3,0.5,0.5c-2.1,2.5-2.5,5.5-3.2,8.5
						c-0.3,1.2-0.8,2.3-1.2,3.4c-1.8-0.5-2.4-1.5-2.2-3.5c0.2-1.7,0.5-3.5,0.6-5.3c0.1-0.8,0.1-1.5,0.2-2.8
						c-1.1,0.5-1.9,0.7-2.3,1.2c-0.6,0.8-1.2,1.8-1.4,2.8c-0.7,2.9-1.3,5.7-1.7,8.7c-0.3,2.4,0,4.9-0.3,7.3c-0.2,1.9,0,3.6,0.9,5.2
						c0.5,1,1.2,2,1.8,3.1c0,0-0.1-0.1-0.1-0.1c-1.6-1.2-2.4-1.1-3.6,0.6c-0.1,0.2-0.2,0.4-0.3,0.5c-0.6-0.4-1.2-0.9-1.7-1.4
						l-2.8-2.9l-1.4-4.3c-0.1-5.5,0.3-10.9,2.2-16c0.8-2.3,2.4-4.3,3.7-6.5C107.7,24.1,108.2,23.7,108.6,23.7z"/>
				</g>
				<g>
				</g>
			</g>
			<path class="st0" d="M112,56.7c1.8-0.5,3.6-2,5.2-5.4c2.2-3.5,2.4-4.2,4.7-8.9c-2.4,2-4.2,4.9-6.2,6.8c-0.3,0.8-3.2,4.5-4.1,5.4
				c-0.8-0.6-1.7-1.1-2.1-1.1c-0.7,0-2.3,1.2-2.2,2.1c-0.8,1.2-1.5,2.4-2.2,3.7c-1.3,2.2-0.5,4.2,1.9,5.1c0.4,0.2,0.8,0.4,1.7,0.8
				l-10.1,3c-0.4,1.7,1,2.5,1.7,3.6c0.1,0.2,0.6,0.2,1,0.1c1.9-0.4,3.8-1.2,5.8-1.3c2.6-0.1,4.6-1.6,6.5-3c1.3-0.9,1.4-2.2,0.4-3.4
				c-1.1-1.3-2.5-1.9-4.2-1.7c-0.9,0.1-1.8,0.1-2.7,0.2l-0.2-0.5C108.3,60.2,109.9,58.3,112,56.7z"/>
			<path class="st0" d="M134.6,45.1c1.3,0.1,2.3-1.6,4.9-2.7c-0.2,1-0.5,2.4-2.1,3.6c-1.5,1.3-2.2,1.8-3.9,1.2c-0.1,0-0.1,0-0.2-0.1
				c-0.3,1.1-0.6,2.1-1,3.1c-0.7,1.9-1.8,3.9-4.4,4c-2.2,0.1-4.2-0.6-6.1-2c-1.2-0.9-1.9-2.2-1.9-3.7v-6.8c0-0.4-0.1-0.9-0.1-1.3
				l0.4-4.6c0.7-4.4,2.1-8.6,3.9-12.5l0.6-1.1c0.6-1.4,1.7-1.7,3.3-1.4c1.7,0.4,3.5,0.9,5.3,1.2c0,0.1,0.1,0.3,0.1,0.4
				c-1.2,0.8-2.4,1.4-3.4,2.3c-0.9,0.9-1.7,2.2-1.4,3.6c2.2,0.4,4.4,0.8,6.8,1.2l1.4,5.8c-0.1,1.9-1.2,2.8-1.9,6l-0.8,3.5
				C134.2,44.9,134.4,45.1,134.6,45.1z M130.9,43.7l-0.2-0.9c-0.5-1.7-0.7-5.1-0.2-8.4c-1.1-1.4-1.8-2.8-1.8-4.7
				c-0.2,0-0.4,0-0.6-0.1c-0.1,0.3-0.4,0.5-0.5,0.8c-1.7,5.1-2.5,10.6-2.7,16.2c-0.1,1.4,0.1,2.8,0.4,4.2c0.1,0.5,0.6,1.2,1,1.4
				c0.4,0.1,1-0.2,1.4-0.5c0.4-0.3,0.6-0.7,0.8-1.2C129.4,48.3,130.2,46,130.9,43.7z"/>
		</g>
	</g>
</g>
</svg>
