<?xml version="1.0" encoding="utf-8"?>
<!-- Generator: Adobe Illustrator 22.0.0, SVG Export Plug-In . SVG Version: 6.00 Build 0)  -->
<svg version="1.1" id="Camada_1" xmlns="http://www.w3.org/2000/svg" xmlns:xlink="http://www.w3.org/1999/xlink" x="0px" y="0px"
	 viewBox="0 0 70 65.6" style="enable-background:new 0 0 70 65.6;" xml:space="preserve">
<style type="text/css">
	.st0{fill:#4B5563;}
</style>
<title>anvisa</title>
<path class="st0" d="M46.6,64.5c0.1,0,0.2,0.1,0.2,0.2v0.1c0,0.1-0.1,0.2-0.2,0.2c-0.1,0-0.2-0.1-0.2-0.2v-0.1
	C46.5,64.5,46.5,64.5,46.6,64.5"/>
<path class="st0" d="M14.7,59.8c-1.6,0-3-1.3-3-3.2l0,0c0-1.8,1.2-3.2,2.9-3.2s2.8,1.4,2.8,3.2c0,0.1-0.1,0.3-0.3,0.3h-4.8
	c0.1,1.5,1.2,2.4,2.4,2.4c0.9,0,1.5-0.4,2-0.8c0,0,0.1-0.1,0.2-0.1c0.2,0,0.3,0.1,0.3,0.3c0,0.1,0,0.1-0.1,0.2
	C16.5,59.4,15.8,59.8,14.7,59.8 M16.8,56.3c-0.1-1.2-0.8-2.4-2.2-2.4c-1.2,0-2.2,1-2.3,2.4H16.8z"/>
<path class="st0" d="M23.7,59.4c0,0.2-0.1,0.3-0.3,0.3c-0.2,0-0.3-0.1-0.3-0.3v-0.9c-0.4,0.7-1.1,1.3-2.2,1.3
	c-1.5,0-2.4-1.1-2.4-2.5v-3.5c0-0.2,0.1-0.3,0.3-0.3c0.2,0,0.3,0.1,0.3,0.3v3.4c0,1.3,0.7,2.1,1.9,2.1c1.2,0,2.1-0.9,2.1-2.2v-3.3
	c0-0.2,0.1-0.3,0.3-0.3c0.2,0,0.3,0.1,0.3,0.3C23.7,53.8,23.7,59.4,23.7,59.4z"/>
<g>
	<path class="st0" d="M25,54.1c0-0.5,0.4-0.9,0.9-0.9s0.9,0.4,0.9,0.9v0.3c0.3-0.6,0.7-1.2,1.2-1.2c0.6,0,0.9,0.4,0.9,0.9
		s-0.3,0.8-0.7,0.9c-0.9,0.2-1.4,0.9-1.4,2.2v1.7c0,0.5-0.4,0.9-0.9,0.9S25,59.4,25,58.9V54.1z"/>
	<path class="st0" d="M32.3,59.8c-1.9,0-3.4-1.4-3.4-3.3l0,0c0-1.8,1.3-3.3,3.2-3.3c2.1,0,3.1,1.8,3.1,3.1c0,0.5-0.4,0.9-0.9,0.9
		h-3.6c0.2,0.8,0.8,1.3,1.6,1.3c0.5,0,0.9-0.2,1.3-0.4C33.7,58,33.9,58,34,58c0.4,0,0.7,0.3,0.7,0.7c0,0.2-0.1,0.4-0.2,0.5
		C34,59.5,33.2,59.8,32.3,59.8 M33.5,56c-0.1-0.8-0.6-1.4-1.4-1.4c-0.8,0-1.2,0.5-1.4,1.4H33.5z"/>
	<path class="st0" d="M35.7,56.5L35.7,56.5c0-1.9,1.4-3.4,3.4-3.4c1,0,1.7,0.3,2.2,0.7c0.1,0.1,0.3,0.3,0.3,0.6
		c0,0.5-0.4,0.8-0.8,0.8c-0.2,0-0.4-0.1-0.5-0.2c-0.3-0.3-0.7-0.4-1.1-0.4c-0.9,0-1.6,0.8-1.6,1.8l0,0c0,1,0.6,1.8,1.6,1.8
		c0.5,0,0.9-0.2,1.2-0.4c0.1-0.1,0.3-0.2,0.5-0.2c0.4,0,0.8,0.3,0.8,0.8c0,0.2-0.1,0.4-0.3,0.6c-0.5,0.5-1.2,0.8-2.3,0.8
		C37.1,59.8,35.7,58.3,35.7,56.5"/>
	<path class="st0" d="M42.2,51.7c0-0.5,0.4-0.9,1-0.9s1,0.3,1,0.9l0,0c0,0.5-0.4,0.9-1,0.9C42.7,52.6,42.2,52.3,42.2,51.7L42.2,51.7
		z M42.4,54.1c0-0.5,0.4-0.9,0.9-0.9s0.9,0.4,0.9,0.9v4.8c0,0.5-0.4,0.9-0.9,0.9s-0.9-0.4-0.9-0.9V54.1z"/>
	<path class="st0" d="M45,56.5L45,56.5c0-1.9,1.4-3.4,3.4-3.4c1,0,1.7,0.3,2.2,0.7c0.1,0.1,0.3,0.3,0.3,0.6c0,0.5-0.4,0.8-0.8,0.8
		c-0.2,0-0.4-0.1-0.5-0.2c-0.3-0.3-0.7-0.4-1.1-0.4c-0.9,0-1.6,0.8-1.6,1.8l0,0c0,1,0.6,1.8,1.6,1.8c0.5,0,0.9-0.2,1.2-0.4
		c0.1-0.1,0.3-0.2,0.5-0.2c0.4,0,0.8,0.3,0.8,0.8c0,0.2-0.1,0.4-0.3,0.6c-0.5,0.5-1.2,0.8-2.3,0.8C46.4,59.8,45,58.3,45,56.5"/>
	<path class="st0" d="M51.6,51.7c0-0.5,0.4-0.9,0.9-0.9s0.9,0.4,0.9,0.9v7.1c0,0.5-0.4,0.9-0.9,0.9s-0.9-0.4-0.9-0.9V51.7z"/>
	<path class="st0" d="M54.3,56.5L54.3,56.5c0-1.9,1.5-3.4,3.5-3.4s3.5,1.5,3.5,3.3l0,0c0,1.8-1.5,3.4-3.5,3.4
		C55.7,59.8,54.3,58.3,54.3,56.5 M59.4,56.5L59.4,56.5c0-1-0.7-1.8-1.7-1.8S56,55.5,56,56.5l0,0c0,0.9,0.7,1.8,1.7,1.8
		C58.8,58.2,59.4,57.4,59.4,56.5"/>
</g>
<path class="st0" d="M45.1,64.5c0.1,0,0.2,0.1,0.2,0.2v0.1c0,0.1-0.1,0.2-0.2,0.2c-0.1,0-0.2-0.1-0.2-0.2v-0.1
	C45,64.5,45.1,64.5,45.1,64.5"/>
<path class="st0" d="M45.7,63.6L45.7,63.6c0-0.7,0.6-1.3,1.3-1.3c0.4,0,0.7,0.2,1,0.4v0.1c0,0.1-0.1,0.1-0.1,0.1h-0.1
	c-0.2-0.2-0.4-0.4-0.8-0.4c-0.6,0-1,0.5-1,1.1l0,0c0,0.6,0.5,1.1,1.1,1.1c0.3,0,0.6-0.2,0.8-0.4c0,0,0,0,0.1,0s0.1,0.1,0.1,0.1v0.1
	c-0.3,0.3-0.6,0.4-1,0.4C46.2,65,45.7,64.4,45.7,63.6"/>
<path class="st0" d="M48.2,63.6L48.2,63.6c0-0.7,0.6-1.3,1.3-1.3c0.8,0,1.3,0.6,1.3,1.3l0,0c0,0.7-0.6,1.3-1.3,1.3
	C48.8,65,48.2,64.4,48.2,63.6 M50.6,63.6L50.6,63.6c0-0.6-0.5-1.1-1.1-1.1s-1,0.5-1,1.1l0,0c0,0.6,0.5,1.1,1.1,1.1
	C50.1,64.7,50.6,64.2,50.6,63.6"/>
<path class="st0" d="M51.3,62.5C51.3,62.4,51.4,62.4,51.3,62.5c0.2-0.1,0.2,0,0.2,0v0.4c0.2-0.3,0.4-0.5,0.9-0.5
	c0.4,0,0.7,0.3,0.9,0.6c0.2-0.3,0.4-0.6,0.9-0.6c0.6,0,1,0.4,1,1.1v1.4c0,0.1-0.1,0.1-0.1,0.1C55,65,55,65,55,64.9v-1.4
	c0-0.6-0.3-0.9-0.8-0.9c-0.4,0-0.8,0.3-0.8,0.9v1.4c0,0.1-0.1,0.1-0.1,0.1c-0.1,0-0.1,0-0.1-0.1v-1.4c0-0.5-0.3-0.9-0.7-0.9
	c-0.5,0-0.8,0.4-0.8,0.9v1.4c0,0.1,0,0.1-0.1,0.1s-0.1,0-0.1-0.1v-2.4H51.3z"/>
<path class="st0" d="M56,64.5c0.1,0,0.2,0.1,0.2,0.2v0.1c0,0.1-0.1,0.2-0.2,0.2c-0.1,0-0.2-0.1-0.2-0.2v-0.1
	C55.8,64.5,55.9,64.5,56,64.5"/>
<g>
	<g>
		<path class="st0" d="M34.6,21.8c0,1.9-1.6,3.5-3.5,3.5c-1.9,0-3.5-1.6-3.5-3.5s1.6-3.5,3.5-3.5C33,18.3,34.6,19.9,34.6,21.8"/>
		<path class="st0" d="M45.1,21.8c0,1.9-1.6,3.5-3.5,3.5s-3.5-1.6-3.5-3.5s1.6-3.5,3.5-3.5S45.1,19.9,45.1,21.8"/>
	</g>
	<path class="st0" d="M60.7,28.6l-4.1-5.4c-0.4-0.5-1.1-0.5-1.5,0L51,28.6c-0.4,0.5-0.2,0.9,0.5,0.9h1.8c-2.7,7-9.7,11.8-17.4,11.5
		c-8.8-0.4-16-7.3-16.8-16c-0.1-1.3-1.3-2.3-2.6-2.1c-1.3,0.1-2.3,1.3-2.1,2.6c0.5,5.4,2.9,10.4,6.8,14.1c3.9,3.8,9.1,6,14.5,6.3
		c5.5,0.3,10.8-1.5,15.1-4.9c3.7-2.9,6.3-6.8,7.6-11.3v0.1l0,0l1.9-0.1C60.9,29.6,61.1,29.1,60.7,28.6z"/>
</g>
<path class="st0" d="M58.8,18.3c-2-10.1-10.6-17.5-21-18.1c-10-0.6-19.9,5.9-23.6,14.2h-1.9c-0.7,0-0.9,0.4-0.5,0.9l4.2,5.4
	c0.4,0.5,1.1,0.5,1.5,0l4.2-5.4c0.4-0.5,0.2-1-0.5-1h-1.6c3.3-6.1,10.5-9.9,17.9-9.5c8.2,0.5,15,6.4,16.6,14.3
	c0.3,1.3,1.5,2.1,2.8,1.9C58.2,20.8,59,19.6,58.8,18.3z"/>
<path class="st0" d="M57.5,64.5c0.1,0,0.2,0.1,0.2,0.2v0.1c0,0.1-0.1,0.2-0.2,0.2c-0.1,0-0.2-0.1-0.2-0.2v-0.1
	C57.3,64.5,57.4,64.5,57.5,64.5"/>
<path class="st0" d="M56.8,61.3C56.8,61.2,56.9,61.2,56.8,61.3c0.2-0.1,0.2-0.1,0.2,0v1.6c0.2-0.3,0.5-0.6,1.1-0.6s1.2,0.5,1.2,1.3
	l0,0c0,0.8-0.6,1.3-1.2,1.3c-0.5,0-0.8-0.3-1.1-0.6v0.4c0,0.1,0,0.1-0.1,0.1s-0.1-0.1-0.1-0.1S56.8,61.3,56.8,61.3z M59,63.6
	L59,63.6c0-0.7-0.5-1.1-1-1.1s-1,0.4-1,1.1l0,0c0,0.7,0.5,1.1,1,1.1C58.6,64.7,59,64.3,59,63.6"/>
<path class="st0" d="M59.8,62.5C59.8,62.4,59.9,62.4,59.8,62.5c0.2-0.1,0.2-0.1,0.2,0v0.6c0.2-0.5,0.7-0.8,1-0.8
	c0.1,0,0.1,0.1,0.1,0.1c0,0.1-0.1,0.1-0.1,0.1c-0.5,0-1,0.5-1,1.3v0.9c0,0.1-0.1,0.1-0.1,0.1c-0.1,0-0.1,0-0.1-0.1
	C59.8,64.7,59.8,62.5,59.8,62.5z"/>
</svg>
