<?xml version="1.0" encoding="utf-8"?>
<!-- Generator: Adobe Illustrator 22.0.0, SVG Export Plug-In . SVG Version: 6.00 Build 0)  -->
<svg version="1.1" id="Camada_1" xmlns="http://www.w3.org/2000/svg" xmlns:xlink="http://www.w3.org/1999/xlink" x="0px" y="0px"
	 viewBox="0 0 70 65.6" style="enable-background:new 0 0 70 65.6;" xml:space="preserve">
<style type="text/css">
	.st0{fill:#4B5563;}
</style>
<title>anvisa</title>
<g>
	<path class="st0" d="M30.8,61.2c-0.2,0.2-0.5-0.1-0.5-0.6c-0.1-0.9-0.6-1.4-1.6-1.6c-0.9-0.2-1.5,0.1-1.9,0.8
		c-0.2,0.5-0.2,0.6-0.1,0.9c0.1,0.4,0.8,1,1.3,1.1c1.4,0.3,2.2,1.1,2,2.1c-0.1,0.7-0.5,1.1-1.2,1.3c-0.6,0.2-1.3,0.1-2-0.4
		c-0.4-0.2-0.4-0.3-0.6-0.1c-0.1,0.1-0.3,0.1-0.4,0.1c-0.2-0.1-0.2-0.2-0.1-0.9c0.2-1.1,0.3-1.4,0.6-1.3c0.2,0.1,0.2,0.2,0.3,0.6
		c0.1,0.7,0.4,1.1,1.1,1.4c0.7,0.2,1.3,0.1,1.6-0.4c0.4-0.7-0.2-1.4-1.2-1.6c-1-0.2-1.9-1.2-1.9-2c0-0.2,0.1-0.6,0.2-0.9
		c0.2-0.6,0.9-1.2,1.7-1.3c0.6-0.1,1.7,0.2,2.2,0.6c0.3,0.3,0.3,0.3,0.6,0.1c0.2-0.2,0.5-0.2,0.6,0C31.3,59.2,30.9,61.1,30.8,61.2"
		/>
	<path class="st0" d="M22.4,60.6c-0.3-0.5-0.3-1-0.1-1.6c0.1-0.3,0.2-0.4,0.4-0.4c0.2,0.1,1.6,0.5,2.2,0.7c0.4,0.1,0.4,0.1,0.5-0.1
		c0.2-0.6-0.3-1.4-1-1.5c-0.2,0-0.6,0-0.9,0.2c-0.9,0.4-1.1-0.1-0.2-0.6c0.6-0.3,0.8-0.3,1.5-0.1c0.5,0.1,0.7,0.2,0.9,0.5
		c0.2,0.2,0.4,0.6,0.4,1c0.2,1.2-0.7,2.6-1.7,2.7c-0.3,0-0.7,0-1-0.1C22.9,61.1,22.5,60.9,22.4,60.6 M23.8,60.7
		c0.6,0.1,1.2-0.3,0.9-0.6c-0.2-0.2-1.6-0.7-1.8-0.6c-0.4,0.2,0,0.9,0.6,1.1C23.6,60.7,23.7,60.7,23.8,60.7"/>
	<path class="st0" d="M22.7,57.3c-0.5-0.2-0.6-0.1-1.3,1c-0.7,1.1-0.8,1.3-0.4,1.6c0.2,0.1,0.2,0.2,0.1,0.4s-0.2,0.1-0.7-0.1
		c-0.4-0.2-0.5-0.4-0.6-0.5c0-0.2-0.1-0.2-0.7-0.4c-0.8-0.2-0.9-0.3-1.1-1.1c-0.1-0.3-0.2-0.4-0.3-0.4c-1.1,0.1-1.3,0-1.6-0.2
		c-0.7-0.6-0.6-1.3,0.3-2.9l0.5-0.9l-0.3-0.2c-0.2-0.2-0.2-0.3-0.1-0.5c0.2-0.2,0.2-0.2,1,0.3c0.6,0.4,0.9,0.6,0.9,0.8
		c0,0.3-0.2,0.4-0.6,0.2l-0.3-0.2L17,55c-0.9,1.5-0.9,1.8-0.1,2.1c0.3,0.1,0.5,0,1-0.3c0.4-0.3,0.7-0.6,1-1c0.3-0.5,0.4-0.6,0.2-0.7
		c-0.1-0.1-0.2-0.2-0.2-0.4c0-0.3,0.4-0.3,1,0.1c0.8,0.5,0.9,1.1,0.1,0.9c-0.3-0.1-0.3-0.1-0.8,0.9c-0.8,1.4-0.8,1.8,0,2.1
		c0.3,0.1,1-0.3,1.7-1.1c0.6-0.7,0.6-0.8,0.2-1.2c-0.2-0.3-0.2-0.5,0.2-0.5c0.2,0,1.1,0.5,1.7,1.1C23.3,57.1,23,57.4,22.7,57.3"/>
	<path class="st0" d="M14,50.5c-0.3-0.5-0.4-0.5-2.7,1.2c-1.2,0.9-2.2,1.6-2.2,1.7c0,0.1,0,0.3,0.1,0.4c0.2,0.3,0,0.7-0.3,0.6
		c-0.1,0-0.8-1-1.6-2.1c-1.7-2.3-1.6-2.2-0.6-2.9c0.4-0.3,0.8-0.5,1-0.5c0.5,0,0.4,0.3-0.3,0.9c-0.3,0.2-0.6,0.5-0.6,0.5
		c0,0.1,0.4,0.6,0.8,1.3c0.6,0.9,0.9,1.2,1,1.2c0.3,0,1.6-1,1.8-1.3c0.1-0.2,0-0.3-0.3-0.8L9.6,50l-0.5,0.2c-0.5,0.2-0.7,0-0.5-0.3
		s1.4-1.2,1.7-1.2c0.4,0,0.4,0.4,0.1,0.6c-0.3,0.2-0.3,0.2,0.3,1.1c0.2,0.2,0.4,0.5,0.5,0.5c0.2,0.1,2-1.2,1.9-1.4
		c0-0.1-0.1-0.3-0.2-0.5c-0.1-0.2-0.1-0.3,0.1-0.4c0.2-0.1,0.3-0.1,0.9,0.8c0.5,0.7,0.7,1,0.6,1.1C14.4,50.7,14.2,50.7,14,50.5"/>
	<path class="st0" d="M11.4,46.5c-0.2,0.1-0.3,0.1-0.4-0.2c-0.1-0.2-0.2-0.3-0.3-0.3c-0.2,0-2.2,0.9-2.4,1.2
		c-0.1,0.1-0.1,0.2-0.1,0.3c0.2,0.1,0.1,0.6-0.1,0.7c-0.1,0.1-0.2,0.1-0.2,0c-0.4-0.7-0.5-1-0.5-1.2c0.1-0.4,0.1-0.5-0.3-0.7
		c-0.2-0.1-0.3-0.3-0.5-0.7C6.4,44.9,6.5,44.2,7,44c0.4-0.2,0.6,0.2,0.3,0.6c-0.1,0.2-0.2,0.4-0.1,0.7c0.2,0.7,0.7,0.9,2.1,0.4
		c0.5-0.2,1-0.3,1.1-0.4c0.1-0.1,0.1-0.3,0-0.4c-0.2-0.3,0-0.6,0.3-0.5c0.2,0.1,1.2,1.8,1.1,1.9C11.7,46.4,11.5,46.5,11.4,46.5"/>
	<path class="st0" d="M5.3,41.9c0.1-0.8,0.3-1,1.6-1.5L8.1,40l0.2-0.4c0.1-0.3,0.2-0.4,0.3-0.4c0.2,0,0.4,0.8,0.3,1
		c-0.1,0.1,0,0.3,0.2,0.5c0.4,0.5,0.6,1.2,0.5,1.7c-0.2,0.8-1,1.2-1.6,0.9C7.5,43,7.3,42.8,7,42l-0.3-0.7l-0.3,0.1
		c-0.5,0.2-0.6,0.5-0.4,1.1c0.2,0.4,0.4,0.6,0.9,0.7c0.4,0.1,0.3,0.5-0.1,0.6S5.9,43.6,5.5,43c-0.1-0.2-0.2-0.4-0.3-0.5
		C5.3,42.2,5.3,42.1,5.3,41.9 M8.7,42.7c0.5-0.1,0.4-1.2-0.1-1.7c-0.3-0.3-0.7-0.3-0.9-0.1c-0.1,0.1-0.1,0.4,0,0.7
		C7.8,42.2,8.3,42.8,8.7,42.7"/>
	<path class="st0" d="M3.6,35.8c0.1,0,0.2,0.2,0.2,0.5c0,0.5,0.4,0.6,0.7,0.1c0.7-1.1,2.4-1.1,3.1,0c0.3,0.5,0.4,1.1,0.2,1.8
		c-0.1,0.5-0.1,0.5,0.3,0.5c0.4-0.1,0.5-0.3,0.4-1.3c-0.2-1.3-0.1-1.9,0.3-2.3C9,35,9.2,34.8,9.4,34.8c0.4-0.1,1,0.2,1.3,0.5
		s0.6,1.7,0.5,2.4c0,0.3-0.2,0.6-0.4,0.9C10.5,39,10.4,39,9.9,39c-0.6,0-1,0.1-1.5,0.2c-0.3,0.1-0.5,0.1-0.9,0
		c-0.3-0.1-0.5-0.1-0.7,0c-0.3,0.2-1,0.3-1.3,0.2c-0.8-0.3-1.3-0.9-1.4-1.4c0-0.2-0.2-0.4-0.5-0.6c-0.4-0.2-0.5-0.4-0.5-0.7
		C3.1,36.1,3.3,35.7,3.6,35.8 M5.4,38.5c0.7,0.4,1.6,0.1,1.8-0.7C7.4,37.3,7.3,37,7,36.6c-0.7-0.8-2-0.4-2.2,0.7c0,0.2,0,0.3,0,0.4
		C4.9,38,5.1,38.2,5.4,38.5 M9.5,38.1c0.3,0.4,1.1,0.1,1.1-0.6c0.1-0.6-0.2-1.6-0.4-1.9c-0.3-0.4-0.7-0.4-0.9,0
		c-0.1,0.2-0.1,1,0,1.7C9.3,37.7,9.4,38,9.5,38.1"/>
	<path class="st0" d="M7.8,35.1c-0.2,0-0.3-0.1-0.3-0.3s-0.1-0.4-0.1-0.4c-0.2-0.1-2.4-0.2-2.7,0c-0.1,0.1-0.2,0.2-0.2,0.2
		C4.6,34.7,4.3,35,4.1,35c-0.1,0-0.2,0-0.2,0c-0.1-0.8-0.1-1.1,0.1-1.3c0.3-0.3,0.3-0.4,0-0.7c-0.1-0.2-0.2-0.4-0.1-0.9
		C4,31.3,4.5,30.8,5,30.9c0.5,0,0.5,0.4,0,0.7c-0.2,0.1-0.4,0.3-0.4,0.6c-0.2,0.8,0.3,1.1,1.7,1.3c0.5,0.1,1.1,0.1,1.1,0.1
		c0.1,0,0.2-0.2,0.2-0.4c0-0.4,0.3-0.6,0.5-0.3C8.2,33,8.3,35,8.2,35.1C8.1,35,7.9,35.1,7.8,35.1"/>
	<path class="st0" d="M2.7,28.4c0,0,0.1-0.1,0.2-0.1C3,28.2,3,28.1,3,28.1s0.2-0.2,0.3-0.2s0.1,0,0.2,0L3.6,28c0,0,0,0.1,0,0.2
		s0,0.1-0.2,0.3c-0.2,0.1-0.2,0.1-0.2,0.2l0.2,0.2c0,0,0,0,0,0.1c0,0,0,0,0,0.1s0,0.1,0,0.2c0,0,0,0.1-0.1,0.1l-0.1,0.1H3.1
		c-0.1,0-0.1,0-0.1,0s-0.1-0.1-0.1-0.2c0-0.2-0.1-0.3-0.1-0.3c-0.1-0.1-0.2-0.3-0.2-0.3v-0.1C2.6,28.5,2.7,28.4,2.7,28.4 M4.4,28.1
		c0.4-0.7,0.7-0.8,2.1-0.6l1.3,0.2l0.3-0.3c0.2-0.2,0.4-0.3,0.5-0.2c0.1,0.1,0,0.9-0.1,1s-0.1,0.2,0,0.5c0.2,0.6,0,1.3-0.3,1.7
		c-0.5,0.7-1.4,0.7-1.8,0.1C6,30.1,5.9,29.8,5.9,29L6,28.2l-0.4-0.1c-0.5-0.1-0.8,0.2-0.8,0.8c0,0.5,0.1,0.7,0.5,1.1
		c0.3,0.3,0,0.6-0.4,0.5s-0.7-0.6-0.8-1.3c0-0.3,0-0.4,0-0.6C4.2,28.5,4.3,28.3,4.4,28.1 M7.1,30.4c0.5,0.1,0.9-0.9,0.7-1.6
		c-0.1-0.4-0.4-0.6-0.8-0.5c-0.2,0.1-0.3,0.3-0.3,0.6C6.5,29.5,6.7,30.3,7.1,30.4"/>
	<path class="st0" d="M8.2,26.6c0.1-0.4,0.1-0.3-1.6-0.9c-1-0.4-1-0.4-1.2,0C5.2,25.8,5.1,26,5,26c-0.2,0-0.3-0.3-0.2-0.8
		c0.1-0.4,0.1-0.5,0.5-0.6l0.4-0.2l-0.1-0.5c-0.1-0.7,0.2-1.6,0.8-1.9c0.5-0.2,0.8-0.2,2.2,0.2l1,0.3l0.2-0.4
		c0.1-0.3,0.2-0.3,0.4-0.3c0.2,0.1,0.2,0.2,0,0.9c-0.1,0.6-0.3,0.9-0.4,1.1c-0.3,0.3-0.6,0.1-0.5-0.3c0.1-0.3,0.1-0.3-0.8-0.7
		c-1.4-0.6-2-0.5-2.3,0.4c-0.3,0.7,0.5,1.6,1.7,2c0.6,0.2,0.6,0.2,0.8-0.1c0.2-0.4,0.4-0.4,0.6-0.1c0.1,0.2,0,0.4-0.2,1.1
		C8.9,26.7,8.7,27,8.6,27C8.3,27.1,8.1,26.9,8.2,26.6"/>
	<path class="st0" d="M9.3,21.7c-1.1-0.3-1.9-0.9-2-1.7c-0.1-0.5,0-1.3,0.3-1.6C7.7,18.3,7.9,18,8,17.8c0.2-0.5,0.5-0.5,0.9-0.2
		s0.4,0.6-0.1,0.7c-0.3,0.1-0.5,0.2-0.7,0.6c-0.3,0.6-0.3,0.9-0.1,1.3c0.4,0.7,1.2,1,1.9,0.8c0.8-0.2,1.1-1,0.7-2
		c-0.1-0.2-0.1-0.4,0-0.5c0.5-0.4,1,0.8,0.7,1.7c-0.2,0.6-0.2,0.7-0.6,1C10.4,21.7,9.9,21.9,9.3,21.7"/>
	<path class="st0" d="M8.8,15c0.2,0.2,0.1,0.4-0.2,0.4c-0.2,0-0.2,0-0.3-0.2c0-0.1,0-0.1,0-0.2C8.6,14.9,8.7,14.9,8.8,15 M9.5,15.5
		c0.1-0.1,0.5,0.2,1.6,0.9c0.8,0.5,1.4,1,1.5,1c0,0,0.2-0.1,0.3-0.2c0.2-0.3,0.5-0.4,0.7-0.1c0.1,0.2,0,0.3-0.4,0.9
		c-0.3,0.4-0.6,0.7-0.7,0.9c-0.4,0.3-0.6,0-0.4-0.4c0.2-0.4,0.1-0.5-1.1-1.4l-1-0.7l-0.3,0.3C9.4,17,9.1,17,9,16.7
		c0-0.1,0.2-0.6,0.4-0.9C9.3,15.7,9.4,15.6,9.5,15.5"/>
	<path class="st0" d="M11.9,12.6c0.8-0.4,1-0.3,2.1,0.7l0.9,0.8l0.5-0.1c0.3,0,0.5,0,0.5,0.1c0.1,0.2-0.5,0.8-0.7,0.8
		c-0.1,0-0.2,0.1-0.3,0.4c-0.2,0.6-0.7,1.1-1.2,1.3c-0.8,0.2-1.6-0.2-1.6-0.9c0-0.6,0.1-0.9,0.6-1.5l0.5-0.6L13,13.3
		c-0.4-0.4-0.8-0.3-1.1,0.2c-0.3,0.4-0.3,0.6-0.2,1.2c0.1,0.4-0.3,0.5-0.6,0.2s-0.3-0.9,0.1-1.5c0.1-0.2,0.2-0.4,0.3-0.5
		C11.6,12.8,11.8,12.7,11.9,12.6 M12.9,16c0.4,0.3,1.3-0.3,1.4-1c0.1-0.4,0-0.7-0.4-0.8c-0.2,0-0.4,0.1-0.6,0.3
		C13,15,12.7,15.7,12.9,16"/>
	<path class="st0" d="M15.3,13.6c-0.3-0.4-0.1-0.6,0.4-0.4c0.4,0.2,0.8,0.1,1.1-0.3c0.6-0.9-0.1-1.5-1-0.7c-0.7,0.6-2,0.3-2.1-0.5
		c-0.1-0.7,0.1-1,1.3-1.9l0.5-0.3l0.4,0.4c0.5,0.5,0.4,0.7-0.2,0.7c-0.3,0-0.5,0.1-0.8,0.3c-0.4,0.3-0.4,0.3-0.3,0.6
		s0.1,0.3,0.4,0.4c0.2,0,0.5-0.1,0.8-0.2c0.9-0.6,1.4-0.6,1.9-0.1s0.3,1.3-0.3,2c-0.2,0.2-0.5,0.5-0.6,0.5
		C16.1,14.1,15.5,13.9,15.3,13.6"/>
	<path class="st0" d="M20,8.5c0.1-0.3,0.4-0.2,0.7,0.2C21.4,9.3,22.1,9.4,23,9c0.8-0.4,1.2-1,1-1.8c-0.1-0.5-0.2-0.6-0.4-0.8
		c-0.4-0.3-1.2-0.4-1.7-0.1c-1.3,0.6-2.4,0.4-2.8-0.5c-0.3-0.6-0.2-1.2,0.2-1.8c0.4-0.6,1-0.8,1.9-0.9c0.4,0,0.5,0,0.5-0.2
		c0-0.1,0.1-0.3,0.3-0.3c0.2,0,0.3,0,0.6,0.7c0.5,1,0.6,1.3,0.3,1.4c-0.2,0.1-0.3,0-0.6-0.3c-0.5-0.6-1-0.7-1.6-0.5
		c-0.7,0.2-1.1,0.7-1,1.3c0.1,0.8,0.9,1,1.9,0.6c0.9-0.4,2.3-0.2,2.8,0.5c0.1,0.2,0.3,0.6,0.4,0.8c0.2,0.6-0.1,1.5-0.6,2.1
		c-0.5,0.5-1.4,0.9-2.1,0.8c-0.4,0-0.4,0-0.5,0.3c0,0.3-0.2,0.5-0.4,0.4C20.8,10.4,20,8.6,20,8.5"/>
	<path class="st0" d="M25.2,4.2c0.1,0,0.3,0.4,0.7,1.6c0.3,0.9,0.6,1.6,0.6,1.7c0,0,0.2,0,0.3,0c0.4-0.1,0.6,0,0.6,0.3
		c0,0.2-0.2,0.3-0.8,0.5c-0.4,0.1-0.9,0.2-1.1,0.2C25,8.5,25,8.2,25.4,8s0.4-0.3-0.1-1.8L25,5.1h-0.4c-0.4,0-0.7-0.2-0.5-0.4
		c0.1-0.1,0.5-0.3,0.8-0.4C25,4.2,25.1,4.2,25.2,4.2 M25.1,3.4c0,0.3-0.2,0.4-0.4,0.2c-0.1-0.1-0.2-0.2-0.1-0.3
		c0-0.1,0.1-0.1,0.2-0.1C24.9,3.1,25,3.2,25.1,3.4"/>
	<path class="st0" d="M27.9,7.1c0.3-0.1,0.3,0,0.1-1.9c-0.2-1.1-0.1-1.1-0.6-1.1C27.2,4.1,27,4,26.9,4c-0.1-0.2,0.1-0.4,0.6-0.6
		c0.4-0.1,0.5-0.1,0.8,0.1l0.3,0.2L29,3.5c0.6-0.4,1.5-0.5,2-0.1c0.4,0.3,0.6,0.6,0.9,2l0.2,1.1h0.4c0.3,0,0.4,0.1,0.4,0.2
		c0,0.2-0.1,0.3-0.8,0.5c-0.6,0.2-0.9,0.2-1.2,0.1c-0.4-0.1-0.4-0.5,0-0.6c0.3-0.1,0.3-0.1,0.2-1c-0.2-1.5-0.5-2-1.4-1.9
		c-0.8,0.1-1.2,1.2-1,2.5c0.1,0.6,0.1,0.6,0.5,0.6c0.5,0,0.6,0.2,0.4,0.5c-0.1,0.2-0.4,0.2-1.1,0.3c-0.6,0.1-1,0.1-1,0
		C27.4,7.4,27.5,7.2,27.9,7.1"/>
	<path class="st0" d="M32.9,4.9l-0.1-1.3l-0.4-0.1C32.2,3.4,32,3.3,32,3.2C32,3,32,3,32.6,2.8l0.3-0.1V1.4c0-1.1,0-1.3,0.2-1.3
		c0.3-0.1,0.4,0.2,0.4,1.4v1.2l0.4,0.1c0.2,0,0.4,0.1,0.5,0.2c0.1,0.2-0.3,0.5-0.6,0.5c-0.2,0-0.2,0.1-0.2,1.2
		c0,1.7,0.3,2.1,1.1,1.5c0.2-0.2,0.4-0.2,0.5,0c0.4,0.5-1,1.2-1.7,0.8C33.1,6.8,33,6.4,32.9,4.9"/>
	<path class="st0" d="M38.8,3.5c0.4,0.5,0.6,1,0.5,1.5c0,0.4-0.1,0.5-0.3,0.4c-0.2,0-1.7-0.1-2.3-0.2c-0.4,0-0.4,0-0.5,0.2
		c-0.1,0.7,0.6,1.3,1.4,1.2c0.2,0,0.6-0.2,0.8-0.4c0.8-0.6,1.1-0.1,0.4,0.5c-0.5,0.5-0.7,0.5-1.4,0.5c-0.5,0-0.7-0.1-1-0.3
		c-0.2-0.2-0.5-0.5-0.6-0.8c-0.5-1.1,0-2.6,1-3c0.3-0.1,0.7-0.2,1-0.1h0.1C38.2,3.2,38.6,3.3,38.8,3.5 M37.4,3.7
		c-0.6,0.1-1.1,0.6-0.8,0.8c0.3,0.1,1.7,0.3,1.9,0.2c0.4-0.3-0.2-0.9-0.9-1C37.6,3.7,37.5,3.7,37.4,3.7 M38.1,1.5
		c0.1,0,0.2,0.1,0.2,0.2v0.1v0.1l0,0c0,0-0.1,0.1-0.3,0.3c-0.1,0.1-0.1,0.1-0.2,0.1c0,0-0.1,0-0.1,0.1c-0.1,0.1-0.1,0.1-0.2,0.1
		c-0.1,0-0.1,0-0.1,0c-0.1,0-0.1-0.1-0.1-0.2V2.2c0-0.1,0.1-0.2,0.1-0.2s0,0,0.1,0c0,0,0,0,0.1-0.1c0.2-0.1,0.3-0.2,0.3-0.2
		C38,1.6,38.1,1.6,38.1,1.5C38,1.5,38,1.5,38.1,1.5L38.1,1.5"/>
	<path class="st0" d="M40.1,5.6l0.2-1.3L40,4.1c-0.2-0.1-0.4-0.3-0.3-0.4c0-0.2,0.1-0.2,0.6-0.2h0.3L41,2.2C41.3,1.1,41.4,1,41.5,1
		c0.3,0,0.4,0.3,0.1,1.5l-0.3,1.1l0.4,0.2c0.2,0.1,0.4,0.2,0.4,0.3c0,0.2-0.5,0.4-0.7,0.3c-0.2,0-0.2,0.1-0.5,1.1
		c-0.4,1.6-0.2,2.1,0.7,1.7C42,7,42.1,7,42.2,7.3c0.3,0.6-1.3,0.9-1.9,0.4C39.9,7.4,39.9,7,40.1,5.6"/>
	<path class="st0" d="M44.7,4.8c0.1,0.1,0,0.5-0.4,1.7c-0.3,0.9-0.6,1.6-0.6,1.7c0,0,0.1,0.1,0.3,0.2c0.4,0.1,0.5,0.4,0.3,0.6
		c-0.1,0.1-0.3,0.1-0.9-0.1c-0.4-0.2-0.9-0.4-1-0.5c-0.4-0.3-0.2-0.6,0.3-0.5s0.5,0,1-1.5l0.3-1l-0.3-0.2c-0.3-0.2-0.4-0.6-0.2-0.6
		c0.1-0.1,0.6,0,0.9,0.2C44.6,4.7,44.7,4.8,44.7,4.8 M45.1,4.1C45,4.3,44.8,4.3,44.7,4c-0.1-0.2,0-0.2,0.1-0.3c0.1,0,0.1,0,0.2,0
		C45.1,3.8,45.2,3.9,45.1,4.1"/>
	<path class="st0" d="M44.7,8c0.3-1.1,0.9-1.9,1.7-2.1c0.5-0.1,1.3,0,1.6,0.3c0.1,0.1,0.4,0.3,0.6,0.4c0.5,0.2,0.5,0.5,0.2,0.9
		c-0.3,0.5-0.6,0.4-0.7-0.1c-0.1-0.3-0.2-0.5-0.6-0.7c-0.6-0.3-0.9-0.3-1.3,0c-0.6,0.5-0.9,1.3-0.7,1.9c0.3,0.8,1.1,1.1,2,0.7
		c0.2-0.1,0.4-0.1,0.5,0c0.4,0.4-0.7,1-1.6,0.8c-0.6-0.1-0.7-0.2-1-0.5C44.7,9.1,44.6,8.5,44.7,8"/>
	<path class="st0" d="M51.8,8.7c0.5,0.7,0.4,1-0.4,2.2l-0.7,1l0.1,0.4c0.1,0.3,0.1,0.5,0,0.5c-0.2,0.1-0.8-0.4-0.9-0.6
		c0-0.1-0.2-0.2-0.5-0.3c-0.6-0.1-1.2-0.6-1.4-1.1c-0.3-0.8,0-1.6,0.8-1.7c0.6-0.1,0.9,0,1.6,0.4l0.7,0.4l0.2-0.3
		c0.3-0.4,0.2-0.8-0.3-1.1c-0.4-0.2-0.7-0.2-1.2,0c-0.4,0.1-0.5-0.3-0.3-0.6c0.3-0.3,0.9-0.4,1.5-0.1C51.2,7.9,51.4,8,51.5,8
		C51.6,8.4,51.7,8.5,51.8,8.7 M48.6,10.1c-0.3,0.4,0.4,1.2,1.2,1.3c0.4,0.1,0.7-0.1,0.8-0.5c0-0.2-0.2-0.4-0.4-0.6
		C49.6,10,48.8,9.8,48.6,10.1"/>
	<path class="st0" d="M51.2,12.1c0.4-0.3,0.6-0.1,0.4,0.4c-0.2,0.5,0,0.8,0.5,1.1c1,0.5,1.4-0.3,0.6-1.1c-0.7-0.6-0.5-1.9,0.3-2.1
		c0.7-0.2,1,0,2,1l0.4,0.4l-0.3,0.4c-0.4,0.5-0.7,0.5-0.7-0.1c0-0.3-0.1-0.5-0.4-0.8c-0.3-0.3-0.4-0.4-0.7-0.3
		C53,11.1,53,11.1,53,11.4c0,0.2,0.1,0.5,0.3,0.7c0.7,0.8,0.8,1.4,0.3,1.9s-1.2,0.5-2-0.1c-0.3-0.2-0.5-0.4-0.6-0.6
		C50.8,13,50.9,12.4,51.2,12.1"/>
	<path class="st0" d="M34.6,61.8c-0.3,0-0.5-0.2-0.5-0.5s0.2-0.5,0.5-0.5c15.3,0,27.8-12.5,27.8-27.8c0-6.2-2-12.1-5.8-17
		c-0.2-0.2-0.1-0.5,0.1-0.7c0.2-0.2,0.5-0.1,0.7,0.1c4,5.1,6,11.2,6,17.7C63.4,48.9,50.5,61.8,34.6,61.8"/>
	<path class="st0" d="M29.4,22.1c-0.3-0.1-0.4-0.4-0.3-0.7c0.1-0.3,0.4-0.4,0.7-0.3c1.3,0.6,2.3,1.4,3.2,2.6c0.4-1.2,0.4-2.2-0.1-3
		c-1.1-1.7-4.3-2-6-2c0,2.6,0.5,4.3,1.8,5.2c1.2,0.9,2.7,0.7,3.6,0.5C31.6,23.5,30.7,22.6,29.4,22.1"/>
	<path class="st0" d="M39.6,27.7c0.3-0.1,0.6-0.1,0.7,0.2c0.1,0.3,0.1,0.6-0.2,0.7c0,0-1.3,0.8-2.4,2.7c1.1,0.4,1.9,0.4,2.6-0.1
		c1.5-1,1.8-3.8,1.8-5.3c-2.3-0.1-3.9,0.5-4.7,1.5s-0.7,2.3-0.5,3.1C38.2,28.5,39.5,27.7,39.6,27.7"/>
	<path class="st0" d="M34.5,9.9C21.8,9.9,11.4,20.3,11.4,33s10.3,23.1,23.1,23.1S57.6,45.8,57.6,33C57.6,20.3,47.3,9.9,34.5,9.9
		 M50.5,33.4l-3.9,8.8c-0.8,1.9-2.6,3.4-4.6,3.9l-0.7,0.2l-4,1.6c-1,0.4-2,0.6-3,0.6c-1.1,0-2.2-0.2-3.3-0.7l-5-2.2
		c-1.8-0.8-3.7-1.3-5.6-1.5L18.9,44c-0.3,0-0.5-0.3-0.5-0.5v-5.1c0-0.1,0-0.2,0.1-0.3c0.1-0.2,3-4,7.5-3c2.5,0.6,4.5,1.6,5.8,2.4
		c0.8,0.5,1.8,0.8,2.8,0.8c0-0.5,0.1-1,0.1-1.4c0.2-2.6,0.1-7.8-1.9-11.4c-0.4,0.1-1.1,0.2-1.9,0.2c-0.9,0-2-0.2-2.9-0.9
		c-1.6-1.2-2.3-3.4-2.2-6.6c0-0.3,0.2-0.5,0.5-0.5c0.2,0,5.6-0.3,7.4,2.4c0.8,1.2,0.8,2.8-0.1,4.6c1,1.7,1.6,3.9,1.9,6.5
		c0.1,0.5,0.1,0.9,0.1,1.4c0.1-0.3,0.3-0.6,0.4-0.9c-0.1-0.1-0.1-0.1-0.1-0.2s-1-2.8,0.5-4.8c1.1-1.4,3.1-2.1,6-1.9
		c0.3,0,0.5,0.2,0.5,0.5c0,0.2,0.2,5.1-2.3,6.8c-0.5,0.3-1.1,0.5-1.8,0.5c-0.6,0-1.2-0.1-1.9-0.4c-0.6,1.2-1.1,2.7-1.4,4.7
		c0,0.6-0.1,1.1-0.1,1.4h4.1c0.9,0,1.6,0.5,2,1.1l4.3-4.9c0.8-1.1,2.2-1.8,3.6-1.8h0.3c0.2,0,0.3,0.1,0.4,0.2
		C50.6,33.1,50.6,33.3,50.5,33.4"/>
	<path class="st0" d="M47,35.1l-4.7,5.4c0,0,0,0,0,0.1c0,1.3-1.1,2.4-2.4,2.4H33c-0.9,0-1.8,0.1-2.6,0.4L30.1,43l-0.2-0.5l0,0
		c1-0.3,2-0.5,3-0.5h6.9c0.7,0,1.3-0.6,1.3-1.3s-0.6-1.3-1.3-1.3h-5c-1.3,0-2.6-0.4-3.6-1c-1.2-0.7-3.1-1.7-5.4-2.2
		c-3.4-0.7-5.8,1.8-6.3,2.5V43l1.2,0.1c2.1,0.2,4.1,0.7,5.9,1.5l5,2.2c1.7,0.8,3.8,0.8,5.5,0.1l4-1.6c0,0,0,0,0.1,0l0.7-0.2
		c1.7-0.4,3.2-1.7,3.9-3.3l3.5-8C48.3,33.9,47.5,34.4,47,35.1"/>
</g>
</svg>
