<?xml version="1.0" encoding="utf-8"?>
<!-- Generator: Adobe Illustrator 22.0.0, SVG Export Plug-In . SVG Version: 6.00 Build 0)  -->
<svg version="1.1" id="Camada_1" xmlns:figma="http://www.figma.com/figma/ns"
	 xmlns="http://www.w3.org/2000/svg" xmlns:xlink="http://www.w3.org/1999/xlink" x="0px" y="0px" viewBox="0 0 109 102.6"
	 style="enable-background:new 0 0 109 102.6;" xml:space="preserve">
<style type="text/css">
	.st0{fill:#161E2E;}
</style>
<title>Logo</title>
<g>
	<path class="st0" d="M51.3,29.8C51.3,29.8,51.3,29.7,51.3,29.8c0.2-0.2,0.3-0.3,0.3-0.5c0.1-0.5-0.1-1-0.1-1.5
		c-0.1-0.9-0.3-1.7-0.4-2.6c-0.2-1.4,0.3-3.4-0.4-4.7c-0.4-0.8-1.3-1-2.1-1.2c-2.2-0.3-4.5-0.5-6.7-0.4c-1.4,0.1-3.2-0.2-4.5,0.7
		c-0.8,0.6-0.9,1.4-1,2.4c-0.1,1.2,0,2.4-0.1,3.6c0,0.9-0.1,1.6-0.2,2.5c-0.1,0.5-0.3,1.2,0.2,1.5c0.3,0.2,0.8,0.2,1.2,0.2
		c0.5,0,0.9,0.1,1.4,0.1C41,30,43.1,30,45.2,30c1,0,2.1,0,3.1-0.1c0.5,0,1.1,0,1.6-0.1C50.3,29.8,50.9,29.9,51.3,29.8z"/>
	<path class="st0" d="M58.9,64.4c0-3.9,0-7.9,0-11.8c0-2,0-3.9,0-5.9c0-1.9,0.1-3.7-0.3-5.6c-0.5-2-1.6-3.1-2.9-4.6
		c-1.1-1.2-2.2-2.4-3.3-3.5c-0.5-0.5-1.1-1.2-1.6-1.7c-0.2-0.2-0.9-0.9-0.9-1.3c-2,0.1-4.2,0.1-6.3,0.1c-2,0-4.1,0-6-0.1
		c-0.1,0.2-0.4,0.5-0.5,0.6c-0.5,0.5-1,1-1.6,1.6c-1,1-2,2-3.1,3.1c-1.6,1.6-3.1,3.3-3.8,5.4c0,0.5-0.3,1-0.3,1.5
		c-0.3,2-0.2,4-0.2,6c0,7.7,0.1,15.4,0,23.2c0,1.8-0.1,3.6,0.3,5.4c0.3,1.5,1,2.9,2.3,3.9c1.9,1.5,4.3,2,6.6,2.3
		c3.5,0.5,7.1,0.6,10.8,0.2c3.3-0.4,7.7-0.9,9.6-4c1.2-2,1.6-4.6,1.4-6.9C58.7,69.9,58.9,67.1,58.9,64.4z"/>
</g>
</svg>
