<?xml version="1.0" encoding="utf-8"?>
<!-- Generator: Adobe Illustrator 22.0.0, SVG Export Plug-In . SVG Version: 6.00 Build 0)  -->
<svg version="1.1" id="Camada_1" xmlns:figma="http://www.figma.com/figma/ns"
	 xmlns="http://www.w3.org/2000/svg" xmlns:xlink="http://www.w3.org/1999/xlink" x="0px" y="0px" viewBox="0 0 109 102.6"
	 style="enable-background:new 0 0 109 102.6;" xml:space="preserve">
<style type="text/css">
	.st0{fill:#FFFFFF;}
</style>
<title>Logo</title>
<g id="XMLID_152_">
	<g id="XMLID_153_">
		<path id="XMLID_154_" class="st0" d="M28.7,60c0.2,0.2,0.6,0.4,1,0.7c0.2,0.1,0.5,0.2,0.7,0.4c0.1,0.1,0.3,0.1,0.4,0.2
			c0.1,0.1,0.3,0.1,0.4,0.2c0.3,0.1,0.6,0.2,0.9,0.3c0.3,0.1,0.6,0.1,1,0.2c0.3,0,0.7,0.1,1,0.1s0.6,0,1,0.1c0.6,0,1.2,0.1,1.7,0.1
			c0.1,0,0.1,0,0.2,0c-0.1-0.1-0.1-0.1-0.2-0.2c-0.1,0-0.1,0-0.2,0s-0.2,0-0.4,0c-0.2,0-0.3,0-0.5,0c-0.4,0-0.8-0.1-1.2-0.2
			c-0.4-0.1-0.9-0.2-1.4-0.4c-0.4-0.1-0.9-0.3-1.3-0.5c-0.4-0.2-0.7-0.5-1-0.7c-0.1-0.1-0.2-0.2-0.2-0.2c-0.2-0.1-0.3-0.1-0.5-0.2
			c-0.9-0.5-1.7-1-2.4-1.4L28.7,60C28.7,60,28.7,60,28.7,60z"/>
		<path id="XMLID_155_" class="st0" d="M29.2,57.5c-0.1,0-0.2,0.1-0.3,0.1c-0.1,0-0.3,0.1-0.4,0.1c-0.3,0.1-0.6,0.1-0.9,0
			c0,0,0,0,0.1,0c0.4,0.1,0.8,0.1,1.2,0.1c0.4,0,0.7,0,1,0c0.1,0,0.2,0,0.3-0.1c-0.2-0.1-0.5-0.2-0.7-0.4
			C29.4,57.4,29.3,57.4,29.2,57.5z"/>
		<path id="XMLID_156_" class="st0" d="M27.6,58c0.2,0.1,0.4,0.2,0.6,0.3c0.2,0,0.3,0,0.5,0.1c0.2,0,0.5,0,0.7,0c0.3,0,0.5,0,0.7,0
			s0.5,0,0.7,0c0.1,0,0.2,0,0.3,0c-0.2-0.1-0.3-0.2-0.5-0.3c0,0-0.1,0-0.2,0c-0.2,0-0.4,0.1-0.7,0.1c-0.3,0-0.7,0-1.1-0.1
			C28.4,58.1,28,58,27.6,58z"/>
		<path id="XMLID_157_" class="st0" d="M31.4,59.4c0.3,0.1,0.6,0.2,0.9,0.2s0.6,0.1,0.9,0.1c0.1,0,0.3,0,0.4,0h0.1
			c-0.1-0.1-0.2-0.1-0.3-0.2c-0.2-0.1-0.5-0.3-0.7-0.4c-0.2,0-0.6-0.1-1.2-0.2c-0.2,0-0.4,0-0.6-0.1c-0.2,0-0.4,0-0.7-0.1
			c-0.2,0-0.5,0-0.7-0.1c0.3,0.1,0.6,0.2,0.9,0.3C30.7,59.2,31.1,59.4,31.4,59.4z"/>
		<path id="XMLID_158_" class="st0" d="M28.6,57c-0.1-0.1-0.3-0.1-0.4-0.2c-0.1,0-0.3,0-0.6,0.1c-0.2,0-0.5,0.1-0.8,0.1l0.1,0.2
			c0.2,0,0.4,0.1,0.6,0.1c0.3,0,0.6-0.1,0.9-0.1C28.5,57,28.5,57,28.6,57z"/>
		<path id="XMLID_159_" class="st0" d="M78.4,42.1c0,0.1,0,0.2,0,0.3c0,0.1,0,0.2,0,0.3c0,0.1,0,0.3,0,0.4c0,0.3,0,0.6,0,0.9
			c0,0.2,0,0.3,0,0.5c0,0.2,0,0.3-0.1,0.5c0,0.4-0.1,0.7-0.2,1.1c-0.1,0.4-0.2,0.8-0.3,1.2c0,0.1-0.1,0.2-0.1,0.3c0,0,0-0.1,0.1-0.1
			c0.2-0.3,0.4-0.8,0.6-1.2c0.2-0.5,0.2-1,0.3-1.5s0.2-1.1,0.2-1.6c0-0.5,0-1,0-1.4c0-0.2,0-0.4-0.1-0.5c0-0.1,0-0.1,0-0.1l0,0
			C78.7,41.6,78.5,41.9,78.4,42.1z"/>
		<path id="XMLID_160_" class="st0" d="M27.4,56.4c0,0-0.1,0.1-0.2,0.1l0,0c0.1,0,0.3-0.1,0.4-0.1l0,0
			C27.5,56.5,27.4,56.4,27.4,56.4L27.4,56.4z"/>
		<path id="XMLID_161_" class="st0" d="M26.2,56l0.1,0.2l0.1-0.1c0,0,0,0,0.1,0C26.5,56,26.4,56,26.2,56C26.3,56,26.3,56,26.2,56z"
			/>
		<path id="XMLID_162_" class="st0" d="M39.1,75.8c1.2,0.1,2.6,0.6,4.1,1c0.2,0.1,0.4,0.1,0.5,0.2c-0.2-0.1-0.4-0.2-0.5-0.3
			c-0.3-0.2-0.6-0.3-0.9-0.5c-1.2-0.6-2.5-1.1-3.5-1.6c-0.2-0.1-0.4-0.3-0.6-0.4c-0.2-0.1-0.3-0.3-0.4-0.4c-0.1-0.1-0.2-0.2-0.2-0.3
			c-0.1-0.1-0.1-0.1-0.1-0.1s0,0,0.1,0.1c0.1,0.1,0.1,0.1,0.3,0.2c0.1,0.1,0.3,0.2,0.5,0.3c0.2,0.1,0.4,0.2,0.6,0.3
			c0.9,0.4,2.3,0.7,3.6,1.1c0.3,0.1,0.7,0.2,1,0.3c0.3,0.1,0.6,0.2,0.9,0.4c0.1,0.1,0.3,0.1,0.4,0.2c0.1,0,0.1,0,0.2,0.1
			c-0.8-0.4-1.8-0.9-2.9-1.3c-1.2-0.5-2.4-1.1-3.3-1.5c-0.5-0.2-0.8-0.4-1.1-0.5c-0.1-0.1-0.2-0.1-0.3-0.2c-0.1,0-0.1-0.1-0.1-0.1
			s0,0,0.1,0.1c0.1,0,0.2,0.1,0.3,0.1c0.3,0.1,0.7,0.3,1.1,0.4c1,0.3,2.2,0.7,3.5,1.1c1.3,0.4,2.5,0.8,3.5,1.2
			c0.1,0.1,0.3,0.1,0.4,0.2c-0.1,0-0.1-0.1-0.2-0.1c-0.1-0.1-0.2-0.1-0.3-0.2c-0.2-0.1-0.3-0.2-0.5-0.2c-0.8-0.3-1.8-0.7-2.9-1.1
			c-1.1-0.4-2.2-0.8-2.9-1.1c-0.4-0.2-0.7-0.3-0.9-0.5c-0.1-0.1-0.2-0.1-0.2-0.2l-0.1-0.1c0,0,0,0,0.1,0.1c0.1,0,0.1,0.1,0.3,0.1
			c0.2,0.1,0.6,0.2,1,0.4c0.8,0.3,1.9,0.5,3,0.8c0.4,0.1,0.8,0.2,1.3,0.3c-0.8-0.3-1.8-0.6-2.8-0.9c-0.6-0.2-1.3-0.5-1.8-0.7
			c-0.6-0.2-1.1-0.5-1.5-0.8c-0.2-0.1-0.4-0.2-0.6-0.4c-0.2-0.1-0.3-0.2-0.4-0.3c-0.2-0.2-0.4-0.3-0.4-0.3s0.1,0.1,0.4,0.2
			c0.1,0.1,0.3,0.2,0.5,0.3c0.2,0.1,0.4,0.2,0.6,0.3c0.5,0.2,1,0.4,1.6,0.5c0.6,0.2,1.2,0.3,1.9,0.4c1.3,0.3,2.6,0.5,3.6,0.7
			c0.2,0,0.3,0.1,0.5,0.1v-0.1c-0.1,0-0.3-0.1-0.4-0.1c-0.2,0-0.4-0.1-0.6-0.1c-0.4-0.1-0.9-0.2-1.5-0.3c-0.6-0.1-1.1-0.3-1.7-0.5
			c-1.2-0.4-2.2-0.9-3-1.3c-0.4-0.2-0.7-0.4-0.9-0.6C37.3,70,37.2,70,37.2,70s0.1,0.1,0.4,0.2c0.2,0.1,0.6,0.3,1,0.4
			c0.8,0.3,1.9,0.7,3.1,0.9c0.5,0.1,1,0.2,1.5,0.2c-0.1,0-0.2-0.1-0.4-0.1c-0.4-0.2-0.9-0.4-1.4-0.5c-0.2-0.1-0.5-0.2-0.7-0.3
			c-0.2-0.1-0.5-0.2-0.7-0.3c-0.4-0.2-0.8-0.4-1.2-0.6c-0.7-0.4-1.1-0.6-1.1-0.6s0.5,0.2,1.2,0.4c0.4,0.1,0.8,0.3,1.2,0.4
			c0.2,0.1,0.5,0.1,0.7,0.2c0.2,0.1,0.5,0.1,0.7,0.2l0,0c-0.4-0.1-0.8-0.3-1.2-0.5c-1-0.4-1.9-0.9-2.6-1.3c-0.5-0.2-1.1-0.4-1.5-0.5
			c-0.4-0.2-0.8-0.3-1-0.4c-0.2-0.1-0.4-0.2-0.4-0.2s0.1,0.1,0.4,0.2c0.2,0.1,0.6,0.2,1,0.3h0.1l0,0c0.1,0,0.2,0,0.3,0
			c0.2,0,0.6,0.1,1,0.3c0.2,0.1,0.4,0.1,0.6,0.2c0.4,0.1,0.8,0.2,1.1,0.2c0.6,0.1,1.2,0.2,1.7,0.3c0.3,0,0.5,0.1,0.8,0.1
			c0.2,0,0.5,0,0.7,0.1c0.3,0,0.5,0,0.6,0s0.2,0,0.2,0c0-0.1-0.1-0.1-0.1-0.2c0,0-0.1,0-0.2,0c-0.3,0-0.6,0-1,0S41,69,40.6,68.9
			c-0.2,0-0.5-0.1-0.8-0.2c-0.3-0.1-0.5-0.1-0.8-0.1c-0.6-0.1-1.1-0.2-1.6-0.4c-0.5-0.2-0.9-0.3-1.3-0.5c-0.4-0.2-0.7-0.4-0.8-0.5
			C35.1,67.1,35,67,35,67s0.1,0.1,0.3,0.2c0.2,0.1,0.5,0.3,0.9,0.4c0.4,0.1,0.8,0.3,1.3,0.4c0.5,0.1,1,0.2,1.5,0.2
			c0.3,0,0.6,0,0.8,0.1c0.3,0,0.5,0,0.8,0.1c0.5,0,1,0.1,1.3,0.1c0.2,0,0.4,0,0.6,0c0,0,0-0.1-0.1-0.1c-0.1,0-0.1,0-0.3,0
			c-0.1,0-0.3,0-0.5,0c-0.2,0-0.3,0-0.5,0c-0.4,0-0.9-0.1-1.3-0.1c-0.2,0-0.5-0.1-0.7-0.1c-0.2-0.1-0.5-0.1-0.7-0.2
			c-1.9-0.7-3.8-1.3-3.8-1.3s2,0.4,4,0.8c0.2,0.1,0.5,0.1,0.7,0.1c0.2,0,0.5,0,0.7,0.1c0.2,0,0.4,0,0.5,0c-0.4-0.1-0.7-0.3-1.1-0.5
			c-0.2-0.1-0.4-0.2-0.6-0.3c-0.2-0.1-0.5-0.2-0.7-0.3c-0.9-0.3-1.8-0.6-2.6-0.8c-0.4-0.1-0.7-0.1-0.9-0.1c-0.2,0-0.3,0-0.3,0
			s0.1,0,0.3-0.1c0.2,0,0.5,0,0.9,0c0.7,0,1.7,0.1,2.7,0.3c0.2,0,0.5,0.1,0.7,0.2c0.2,0.1,0.5,0.1,0.7,0.2c0.4,0.1,0.9,0.2,1.2,0.2
			c0.1,0,0.2,0,0.3,0L41,66.4l0,0c0,0-0.1,0-0.3-0.1c-0.2,0-0.5-0.1-0.8-0.2c-0.7-0.2-1.5-0.4-2.4-0.7c-0.9-0.2-1.7-0.5-2.4-0.6
			c-0.2,0-0.3-0.1-0.4-0.1s-0.3,0-0.3,0c-0.2,0-0.3,0-0.3,0s0.1,0,0.3,0c0.1,0,0.2,0,0.4,0c0.1,0,0.3,0,0.5,0c0.7,0,1.6,0.2,2.5,0.3
			c0.9,0.1,1.8,0.3,2.4,0.3c0,0,0,0,0.1,0c-0.2-0.2-0.4-0.4-0.6-0.6c0,0-0.1,0-0.3,0c-0.2,0-0.5-0.1-0.9-0.2c-0.2,0-0.4-0.1-0.6-0.1
			c-0.2-0.1-0.4-0.1-0.7-0.2c-0.5-0.1-1-0.3-1.5-0.4c-0.5-0.2-1-0.3-1.4-0.5c-0.5-0.2-0.9-0.3-1.2-0.5c-0.7-0.3-1.2-0.5-1.2-0.5
			s0.5,0.1,1.2,0.3c0.4,0.1,0.8,0.2,1.3,0.3c0.5,0.1,1,0.2,1.5,0.3c0.5,0.1,1,0.2,1.5,0.2c0.2,0,0.5,0.1,0.7,0.1c0.2,0,0.4,0,0.6,0
			c0.1,0,0.1,0,0.2,0c-0.1-0.1-0.1-0.1-0.2-0.2c0,0-0.2,0-0.4-0.1c-0.1,0-0.3-0.1-0.5-0.1c-0.2,0-0.4-0.1-0.7-0.1
			c-0.5-0.1-1-0.2-1.7-0.3c-0.3-0.1-0.6-0.1-1-0.2c-0.3-0.1-0.7-0.1-1-0.2c-0.3-0.1-0.7-0.2-1-0.3c-0.3-0.1-0.6-0.3-0.9-0.4
			c-0.1-0.1-0.3-0.1-0.4-0.2c-0.1-0.1-0.3-0.2-0.4-0.2c-0.3-0.2-0.5-0.3-0.7-0.4c-0.4-0.3-0.7-0.6-0.9-0.8l0,0l9,15.6
			C38.4,75.7,38.7,75.7,39.1,75.8z"/>
		<path id="XMLID_163_" class="st0" d="M74.9,53c0-0.4,0.1-0.8,0-1.2c0-0.4-0.1-0.7-0.3-1c0-0.1-0.1-0.2-0.1-0.2
			c-0.1,0.2-0.1,0.3-0.2,0.5c0,0.1,0.1,0.4,0.2,0.7c0.1,0.3,0.1,0.6,0.2,0.9c0,0.2,0.1,0.5,0.1,0.8C74.8,53.3,74.9,53.2,74.9,53z"/>
		<path id="XMLID_164_" class="st0" d="M73,56.9c0,0.2,0.1,0.5,0.2,0.8c0,0.2,0.1,0.3,0.1,0.5c0,0.2,0.1,0.3,0.1,0.5
			c0,0.2,0.1,0.4,0.1,0.5c0,0.2,0,0.3,0,0.5c0,0.3-0.1,0.6-0.1,0.9l0,0c0,0,0.1-0.3,0.2-0.8c0.1-0.5,0.2-1.2,0.1-1.9
			c0-0.2,0-0.3-0.1-0.5c0-0.2-0.1-0.3-0.1-0.5c-0.1-0.3-0.2-0.6-0.3-0.8c-0.1-0.1-0.1-0.2-0.2-0.3l0,0c0,0.1,0,0.1,0,0.2
			C72.9,56.3,73,56.6,73,56.9z"/>
		<path id="XMLID_165_" class="st0" d="M75.4,52.7L75.4,52.7c0-0.1,0-0.2,0-0.2C75.4,52.6,75.4,52.7,75.4,52.7z"/>
		<path id="XMLID_166_" class="st0" d="M74.4,54.3c-0.1-0.4-0.2-0.7-0.4-0.9c-0.1-0.1-0.2-0.2-0.2-0.3c0,0,0,0-0.1-0.1
			c0,0.1-0.1,0.2-0.1,0.3c0,0,0.1,0.1,0.1,0.2c0.1,0.2,0.3,0.5,0.4,0.8c0.1,0.2,0.1,0.4,0.2,0.6c0,0.1,0,0.2,0.1,0.3v-0.1
			C74.5,54.8,74.4,54.5,74.4,54.3z"/>
		<path id="XMLID_167_" class="st0" d="M74.1,52.1c0,0,0.1,0.1,0.2,0.2l0,0c-0.1-0.2-0.1-0.3-0.2-0.5l0,0C74.1,52,74.1,52,74.1,52.1
			L74.1,52.1z"/>
		<path id="XMLID_168_" class="st0" d="M75,49.8c0,0.1,0.1,0.2,0.2,0.3s0.1,0.3,0.2,0.5c0.1,0.3,0.1,0.7,0.2,1.1v-0.1
			c0-0.5,0-0.9,0-1.3c0-0.4-0.1-0.8-0.1-1.1c0-0.1-0.1-0.3-0.1-0.4c-0.1,0.3-0.2,0.6-0.3,0.8C74.9,49.7,75,49.7,75,49.8z"/>
		<path id="XMLID_169_" class="st0" d="M73.1,59.3c0-0.2-0.1-0.3-0.1-0.5c0-0.2-0.1-0.3-0.2-0.5c-0.1-0.2-0.1-0.3-0.2-0.5
			c0,0,0-0.1-0.1-0.1c0,0.3-0.1,0.5-0.1,0.8l0,0c0,0,0.1,0.1,0.1,0.2c0.1,0.1,0.1,0.2,0.1,0.3c0.1,0.2,0.1,0.5,0.1,0.7
			c0,0.1,0,0.3,0.1,0.4c0,0.1,0.1,0.2,0.1,0.4c0.1,0.2,0.1,0.3,0.2,0.5c0-0.1,0-0.3,0-0.4c0-0.3,0-0.5,0-0.9
			C73.2,59.7,73.1,59.5,73.1,59.3z"/>
		<path id="XMLID_170_" class="st0" d="M72.7,63.1c0-0.4,0-0.9-0.1-1.3c-0.1-0.4-0.2-0.7-0.4-1c0,0.2,0,0.4,0,0.5c0,0,0,0,0,0.1v0.1
			c0,0.1,0.1,0.1,0.1,0.2s0.1,0.2,0.1,0.3c0.1,0.4,0.2,1,0.2,1.5C72.7,63.4,72.7,63.2,72.7,63.1z"/>
		<path id="XMLID_171_" class="st0" d="M47.1,88.4c-0.7-0.3-1.4-0.7-2.3-1l0.3,0.4C45.8,88,46.5,88.2,47.1,88.4z"/>
		<path id="XMLID_172_" class="st0" d="M75.2,53.5c-0.1,0.1-0.1,0.3-0.2,0.4c0,0.1-0.1,0.2-0.1,0.4c0,0.1,0,0.2,0,0.3
			c0.1-0.2,0.1-0.3,0.1-0.5C75.2,53.9,75.2,53.7,75.2,53.5z"/>
		<path id="XMLID_173_" class="st0" d="M58.3,94.7l0.4-0.6c-1.2,0.2-2.3,0.3-3.3,0.5c0.3,0,0.6,0,1,0.1C57,94.6,57.7,94.7,58.3,94.7
			z"/>
		<path id="XMLID_174_" class="st0" d="M46.9,89.9c0.1,0,0.2,0.1,0.3,0.1c-0.3-0.1-0.6-0.3-1-0.4l0.1,0.2
			C46.5,89.8,46.7,89.8,46.9,89.9z"/>
		<path id="XMLID_175_" class="st0" d="M47.2,85.8c-0.3-0.1-0.7-0.3-1.1-0.4c-0.4-0.2-0.8-0.3-1.2-0.6c-0.4-0.2-0.8-0.4-1.2-0.7
			c-0.4-0.2-0.8-0.5-1.1-0.8l0.9,1.4c0.1,0,0.2,0.1,0.2,0.1c1.5,0.6,3.1,1.1,4.2,1.3c0.3,0.1,0.5,0.1,0.8,0.1c0.2,0,0.4,0,0.5,0h0.1
			c-0.1,0-0.2,0-0.3-0.1C48.5,86.2,47.9,86,47.2,85.8z"/>
		<path id="XMLID_176_" class="st0" d="M47.7,91.7c-0.1,0-0.1,0-0.2-0.1L47.7,91.7c0,0.1,0.2,0.1,0.3,0.1
			C47.9,91.7,47.8,91.7,47.7,91.7z"/>
		<path id="XMLID_177_" class="st0" d="M95.4,31c-0.1,0.2-0.2,0.4-0.3,0.6c-0.1,0.4-0.3,0.7-0.4,1.1c-0.5,1.5-0.9,3-1.4,4.1
			c-0.1,0.3-0.3,0.5-0.4,0.7c-0.1,0.2-0.3,0.4-0.4,0.5c-0.1,0.1-0.2,0.2-0.3,0.3c-0.1,0.1-0.1,0.1-0.1,0.1s0,0,0.1-0.1
			c0.1-0.1,0.2-0.2,0.2-0.3c0.1-0.2,0.2-0.3,0.3-0.5c0.1-0.2,0.2-0.5,0.3-0.7c0.3-1.1,0.5-2.7,0.8-4.3c0.1-0.4,0.2-0.8,0.3-1.2
			c0.1-0.4,0.2-0.8,0.3-1.1c0.1-0.2,0.1-0.3,0.1-0.5c0-0.1,0-0.1,0.1-0.2c-0.4,1-0.8,2.2-1.1,3.4c-0.5,1.5-0.9,2.9-1.3,4
			c-0.2,0.5-0.3,1-0.5,1.3c-0.1,0.1-0.1,0.3-0.2,0.3c-0.1,0.1-0.1,0.1-0.1,0.1s0,0,0.1-0.1s0.1-0.2,0.1-0.4c0.1-0.3,0.2-0.8,0.3-1.3
			c0.2-1.1,0.6-2.6,0.9-4.1s0.6-3,0.9-4.1c0-0.2,0.1-0.3,0.1-0.5c0,0.1-0.1,0.1-0.1,0.2c-0.1,0.1-0.1,0.2-0.2,0.4
			c-0.1,0.2-0.1,0.4-0.2,0.6c-0.3,0.9-0.6,2.2-0.9,3.5c-0.3,1.3-0.6,2.6-0.9,3.5c-0.1,0.5-0.3,0.9-0.4,1.1c-0.1,0.1-0.1,0.2-0.2,0.3
			c0,0.1-0.1,0.1-0.1,0.1s0,0,0.1-0.1c0-0.1,0.1-0.2,0.1-0.3c0.1-0.3,0.2-0.7,0.3-1.1c0.2-1,0.4-2.3,0.6-3.6c0.1-0.5,0.1-1,0.2-1.5
			c-0.2,1-0.5,2.2-0.7,3.4c-0.2,0.7-0.4,1.5-0.6,2.2c-0.2,0.7-0.4,1.3-0.7,1.9c-0.1,0.3-0.2,0.5-0.4,0.7c-0.1,0.2-0.2,0.4-0.3,0.5
			c-0.2,0.3-0.3,0.4-0.3,0.4s0.1-0.2,0.2-0.5c0.1-0.1,0.1-0.3,0.2-0.6c0.1-0.2,0.2-0.5,0.2-0.7c0.2-0.5,0.3-1.2,0.4-1.9
			s0.2-1.4,0.3-2.2c0.1-1.5,0.2-3,0.3-4.2c0-0.2,0.1-0.4,0.1-0.6c0,0-0.1,0-0.1,0.1c0,0.1,0,0.3-0.1,0.5c0,0.2,0,0.4-0.1,0.7
			c0,0.5-0.1,1.1-0.2,1.7c-0.1,0.6-0.2,1.3-0.3,2c-0.3,1.3-0.7,2.7-1.1,3.6c-0.2,0.5-0.4,0.8-0.6,1.1c-0.2,0.2-0.2,0.4-0.2,0.4
			s0.1-0.2,0.2-0.4c0.1-0.3,0.2-0.7,0.4-1.2c0.3-1,0.5-2.3,0.7-3.6c0.1-0.6,0.1-1.2,0.1-1.7c0,0.1-0.1,0.3-0.1,0.4
			c-0.1,0.5-0.3,1.1-0.4,1.7c-0.1,0.3-0.1,0.6-0.2,0.8c-0.1,0.3-0.2,0.5-0.3,0.8c-0.2,0.5-0.3,1-0.5,1.4c-0.3,0.8-0.6,1.3-0.6,1.3
			s0.2-0.6,0.4-1.4c0.1-0.4,0.2-0.9,0.3-1.4c0-0.3,0.1-0.5,0.1-0.8c0.1-0.3,0.1-0.6,0.1-0.9c0,0,0,0,0-0.1c-0.1,0.5-0.3,1-0.4,1.5
			c-0.4,1.2-0.8,2.3-1.2,3.1c-0.1,0.7-0.3,1.3-0.4,1.8c-0.1,0.5-0.3,0.9-0.4,1.2c-0.1,0.3-0.2,0.4-0.2,0.4s0.1-0.2,0.1-0.5
			c0.1-0.3,0.2-0.7,0.3-1.2c0-0.1,0-0.1,0-0.2l0,0c0-0.1,0-0.2,0-0.3c0-0.3,0.1-0.7,0.2-1.2c0-0.2,0.1-0.5,0.2-0.7
			c0.1-0.4,0.1-0.9,0.1-1.3c0.1-0.7,0.1-1.4,0.1-2c0-0.3,0-0.6,0-0.9c0-0.3,0-0.6,0-0.8c0-0.3,0-0.5,0-0.7c0-0.1,0-0.2,0-0.3
			c-0.1,0.1-0.1,0.1-0.2,0.2c0,0.1,0,0.1,0,0.2c0.1,0.3,0.1,0.7,0.1,1.2s0,1-0.1,1.6c0,0.3-0.1,0.6-0.1,0.9c0,0.3-0.1,0.6-0.1,0.9
			c0,0.6-0.1,1.3-0.3,1.8c-0.1,0.6-0.3,1.1-0.4,1.5c-0.2,0.4-0.3,0.8-0.5,1c-0.1,0.2-0.2,0.4-0.2,0.4s0.1-0.1,0.2-0.4
			c0.1-0.2,0.2-0.6,0.3-1.1c0.1-0.4,0.2-1,0.3-1.5c0.1-0.6,0.1-1.2,0-1.8c0-0.3,0-0.6,0-0.9c0-0.3,0-0.6,0-0.9c0-0.6,0-1.1-0.1-1.5
			c0-0.3-0.1-0.5-0.1-0.7c0,0-0.1,0-0.1,0.1c0,0.1,0,0.1,0.1,0.3c0,0.2,0.1,0.4,0.1,0.5c0,0.2,0,0.4,0.1,0.6c0,0.5,0,1,0,1.5
			c0,0.3-0.1,0.6-0.1,0.9c-0.1,0.3-0.1,0.6-0.2,0.9c-0.5,2.3-1,4.5-1,4.5s0.2-2.3,0.5-4.6c0-0.3,0-0.6,0-0.8c0-0.3,0-0.5,0-0.8
			c0-0.2,0-0.4-0.1-0.6c-0.1,0.4-0.2,0.9-0.4,1.3c-0.1,0.2-0.2,0.5-0.3,0.8c-0.1,0.2-0.2,0.5-0.2,0.8c-0.3,1.1-0.5,2.2-0.6,3
			c0,0.4,0,0.8,0,1c0,0.2,0.1,0.4,0.1,0.4s-0.1-0.1-0.1-0.4c-0.1-0.2-0.1-0.6-0.1-1c-0.1-0.9-0.1-2,0-3.1c0-0.3,0.1-0.6,0.1-0.9
			c0-0.3,0.1-0.6,0.1-0.8c0.1-0.5,0.1-1,0.1-1.4c0-0.1,0-0.2,0-0.3c0,0-0.1,0.1-0.2,0.2l0,0c0,0,0,0.1,0,0.3c0,0.2-0.1,0.5-0.1,0.9
			c-0.1,0.8-0.3,1.8-0.5,2.8c-0.2,1-0.3,2-0.4,2.8c0,0.2,0,0.4,0,0.5c0,0.2,0,0.3,0,0.4c0,0.2,0,0.4,0,0.4s0-0.1,0-0.3
			c0-0.1,0-0.2,0-0.4c0-0.2,0-0.3,0-0.5c0-0.8,0-1.8,0-2.8c0-1,0.1-2.1,0.1-2.8c0,0,0,0,0-0.1c-0.2,0.2-0.4,0.5-0.6,0.7
			c0,0,0,0.2,0,0.4c0,0.3,0,0.6-0.1,1.1c0,0.2,0,0.5-0.1,0.7c0,0.3-0.1,0.5-0.1,0.8c-0.1,0.6-0.2,1.1-0.3,1.7s-0.3,1.2-0.4,1.7
			s-0.3,1-0.4,1.5c-0.2,0.8-0.4,1.4-0.4,1.4s0.1-0.6,0.2-1.5c0.1-0.4,0.1-0.9,0.2-1.5c0.1-0.5,0.1-1.1,0.2-1.7
			c0-0.6,0.1-1.2,0.1-1.7c0-0.3,0-0.5,0-0.8c0-0.2,0-0.5,0-0.7c0-0.1,0-0.1,0-0.2c-0.1,0.1-0.1,0.2-0.2,0.2c0,0.1,0,0.2-0.1,0.5
			c0,0.2,0,0.4-0.1,0.6c0,0.2-0.1,0.5-0.1,0.8c0,0.6-0.1,1.2-0.1,1.9c0,0.4,0,0.7-0.1,1.1c0,0.4-0.1,0.8-0.1,1.2
			c-0.1,0.4-0.1,0.8-0.2,1.2s-0.2,0.7-0.3,1.1c-0.1,0.2-0.1,0.3-0.2,0.5c-0.1,0.2-0.2,0.3-0.2,0.5c-0.1,0.3-0.3,0.6-0.4,0.8
			c-0.3,0.5-0.6,0.9-0.8,1.2c-0.2,0.3-0.3,0.4-0.3,0.4s0.1-0.2,0.3-0.5c0.2-0.3,0.4-0.7,0.7-1.2c0.1-0.3,0.2-0.6,0.3-0.9
			c0.1-0.2,0.1-0.3,0.2-0.5c0.1-0.2,0.1-0.3,0.1-0.5c0.1-0.3,0.2-0.7,0.2-1.1c0-0.4,0.1-0.7,0.1-1.1c0-0.4,0-0.8,0-1.1
			c0-0.4,0-0.7,0-1.1c0-0.7,0-1.4-0.1-2c0-0.1,0-0.2,0-0.2c0,0.1-0.1,0.1-0.2,0.2c0,0.1,0,0.1,0,0.2c0,0.1,0,0.3,0.1,0.4
			c0,0.2,0,0.4,0,0.6c0,0.4,0,0.9,0,1.4c-0.1,0.5-0.2,1.1-0.3,1.6c-0.1,0.5-0.2,1.1-0.4,1.5c-0.2,0.5-0.5,0.9-0.7,1.2
			c-0.1,0.1-0.2,0.2-0.2,0.3c-0.1,0.2-0.1,0.4-0.2,0.6c-0.4,1.1-0.9,2.1-1.3,3c0,0.2-0.1,0.3-0.2,0.5c-0.2,0.5-0.4,1-0.6,1.4
			c-0.2,0.5-0.4,0.9-0.5,1.1v0.1c0,0.3,0,0.6,0,0.9c0,0.2-0.1,0.4-0.1,0.6s-0.1,0.4-0.1,0.6v0.1c0,0,0,0,0,0.1
			c0.1,0.9,0.1,1.9,0,2.5c0,0.3-0.1,0.6-0.1,0.8c0,0.2-0.1,0.3-0.1,0.3s0-0.1,0-0.3c0-0.2,0-0.5,0-0.8c0-0.4-0.1-0.9-0.1-1.3
			c-0.1,0.2-0.1,0.4-0.2,0.5c-0.1,0.2-0.1,0.3-0.1,0.3s0-0.1,0.1-0.3c0.1-0.2,0.1-0.4,0.1-0.8l0,0c0-0.3-0.1-0.5-0.2-0.8
			c-0.1-0.2-0.1-0.4-0.2-0.6c0-0.1-0.1-0.2-0.1-0.3c-0.1,0-0.1,0.1-0.1,0.1s0,0,0.1-0.1c0-0.1-0.1-0.2-0.1-0.3
			c-0.1-0.4-0.3-0.7-0.4-1c0,0,0-0.1-0.1-0.1c-0.1,0.2-0.1,0.4-0.1,0.6c0,0,0.1,0.1,0.1,0.2c0,0.1,0.1,0.1,0.2,0.2
			c0.1,0.1,0.1,0.2,0.2,0.3c0.1,0.3,0.2,0.6,0.3,0.9c0,0.2,0.1,0.3,0.1,0.5c0,0.2,0,0.4,0,0.5c0,0.7-0.2,1.4-0.3,1.9
			c-0.2,0.5-0.3,0.8-0.3,0.8c0,0.2-0.1,0.3-0.1,0.5c0,0.1,0,0.1,0.1,0.2c0.1,0.2,0.2,0.4,0.3,0.7c0.1,0.2,0.1,0.4,0.1,0.5
			s0,0.2,0,0.2s0-0.1,0-0.2c0-0.1-0.1-0.3-0.2-0.5c-0.1-0.2-0.2-0.4-0.3-0.6v0.1c0,0,0,0,0-0.1l0,0c-0.1-0.2-0.3-0.5-0.4-0.7
			c-0.1-0.1-0.1-0.2-0.2-0.4c0-0.1-0.1-0.3-0.1-0.4c0-0.1-0.1-0.3-0.1-0.4l0,0c0,0.1,0,0.3,0,0.4c0.1,0.1,0.1,0.2,0.2,0.3
			c0.2,0.4,0.4,0.9,0.4,1.4c0,0.5,0,1-0.1,1.4c-0.1,0.2-0.1,0.4-0.1,0.5c0,0.1,0,0.1,0,0.2c0,0.6-0.1,1.3,0,1.7
			c0,0.2,0.1,0.4,0.1,0.6c0.1,0.1,0.1,0.2,0.1,0.2s0-0.1-0.1-0.2c0-0.1-0.1-0.3-0.2-0.6c-0.1-0.5-0.1-1.1-0.2-1.7
			c0-0.3,0-0.6-0.1-0.9c0-0.1-0.1-0.3-0.1-0.4s-0.1-0.1-0.1-0.2c0,0.2,0,0.4,0,0.5c0,0,0,0,0,0.1c0,0.2,0,0.4,0,0.7v0.1v0.1
			c0,0.4,0.1,0.9,0.1,1.1c0.1,0.7,0.3,1.5,0.7,1.9c0.2,0.2,0.4,0.4,0.5,0.4c0.2,0.1,0.3,0.1,0.3,0.1s-0.1,0-0.3,0
			c-0.2-0.1-0.4-0.2-0.6-0.4s-0.4-0.5-0.6-0.8c-0.1-0.2-0.2-0.5-0.3-0.8c0,0.1-0.1,0.2-0.1,0.3c-0.1,0.2-0.1,0.4-0.1,0.6
			c0,0.2,0,0.4,0,0.6s0.1,0.4,0.1,0.5c0.1,0.1,0.1,0.2,0.2,0.3s0.1,0.1,0.1,0.1h-0.1c-0.1,0-0.2-0.1-0.3-0.3
			c-0.2-0.3-0.3-0.7-0.3-1.1c0-0.2,0-0.4,0-0.6s0.1-0.4,0.1-0.5c0-0.2,0.1-0.3,0.1-0.4c0,0,0,0,0-0.1v-0.1c-0.2,0.4-0.4,0.7-0.7,1.1
			c-0.4,0.5-0.7,1-0.9,1.5C70.1,67,70,67.2,70,67.3c0,0.1-0.1,0.2-0.1,0.2s0-0.1,0-0.2c0-0.1,0.1-0.3,0.2-0.6c0.2-0.5,0.5-1,0.8-1.6
			c0.1-0.3,0.3-0.6,0.4-0.8c0-0.1,0.1-0.3,0.1-0.4c0-0.1,0.1-0.2,0.1-0.3c0-0.1,0-0.1,0-0.1c-0.1,0-0.1,0.1-0.2,0.2
			c-0.2,0.2-0.4,0.4-0.6,0.6c-0.2,0.2-0.4,0.5-0.6,0.8c-0.2,0.3-0.4,0.6-0.5,0.9c-0.1,0.3-0.2,0.6-0.1,0.8c0,0.3,0.1,0.5,0.1,0.6
			c0,0.1,0.1,0.2,0.1,0.2s0-0.1-0.1-0.2c-0.1-0.1-0.2-0.3-0.2-0.6c-0.1-0.3,0-0.6,0.1-0.9c0.1-0.3,0.3-0.6,0.4-1
			c0.2-0.3,0.4-0.6,0.6-0.9c0.2-0.3,0.4-0.5,0.6-0.7c0.2-0.3,0.4-0.5,0.5-0.6c-0.1,0-0.2,0.1-0.3,0.1c-0.2,0.1-0.4,0.3-0.7,0.5
			c-0.1,0.1-0.2,0.2-0.3,0.3c-0.1,0.1-0.2,0.2-0.3,0.4c-0.4,0.5-0.7,1.2-0.9,1.7c-0.2,0.5-0.2,0.8-0.2,0.8s0-0.4,0.1-0.9
			c0.1-0.5,0.3-1.2,0.7-1.9c0.1-0.2,0.2-0.3,0.3-0.5c0.1-0.2,0.2-0.3,0.3-0.4c0.2-0.3,0.5-0.5,0.7-0.7c0.1-0.1,0.2-0.2,0.4-0.2
			c0.1-0.1,0.2-0.1,0.3-0.1h0.1v-0.1l0,0c-0.1,0-0.2,0-0.3,0c-0.1,0-0.2,0-0.3,0s-0.2,0-0.4,0.1c-0.1,0-0.3,0.1-0.4,0.1
			c-0.3,0.1-0.6,0.3-0.8,0.5c-0.5,0.4-0.9,1-1.2,1.5c-0.1,0.2-0.2,0.4-0.3,0.6C68,64.7,68,64.7,68,64.7s0-0.1,0.1-0.2
			c0-0.2,0.1-0.4,0.2-0.6c0.2-0.5,0.5-1.2,1-1.7c0.3-0.3,0.6-0.5,0.9-0.7c0.2-0.1,0.3-0.2,0.5-0.2c0.2-0.1,0.3-0.1,0.5-0.1
			c0.1,0,0.3-0.1,0.4-0.1s0.2,0,0.3,0l0,0c-0.1,0-0.2,0-0.2,0c-0.1,0-0.2,0-0.4,0c-0.3,0-0.6,0.1-1,0.3c-0.3,0.2-0.7,0.4-1,0.6
			c-0.2,0.1-0.3,0.3-0.5,0.4c-0.2,0.1-0.3,0.3-0.5,0.4c-0.3,0.3-0.6,0.5-0.8,0.7c-0.2,0.2-0.4,0.4-0.5,0.6c-0.1,0.1-0.2,0.2-0.2,0.2
			s0.1-0.1,0.2-0.3s0.3-0.4,0.5-0.6c0.2-0.3,0.5-0.5,0.7-0.9c0.1-0.2,0.3-0.3,0.4-0.4s0.3-0.3,0.5-0.5c0.3-0.3,0.7-0.6,1-0.8
			c0.4-0.2,0.8-0.4,1.1-0.4c0.1,0,0.1,0,0.2,0c0,0,0,0-0.1,0c-0.3,0-0.7,0-1.1,0c-0.4,0.1-0.8,0.2-1.3,0.4c-0.4,0.2-0.8,0.4-1.2,0.7
			c-0.3,0.3-0.7,0.6-1,0.8c-0.3,0.2-0.6,0.3-0.8,0.4c-0.1,0-0.2,0-0.2,0c-0.1,0-0.1,0-0.1,0s0,0,0.1,0c0.1,0,0.1,0,0.2-0.1
			c0.2-0.1,0.4-0.2,0.7-0.5c0.3-0.2,0.6-0.5,0.8-0.9c0.3-0.4,0.6-0.7,1-1.1c0.4-0.3,0.9-0.6,1.3-0.8c0.5-0.2,0.9-0.3,1.3-0.4
			c0.2,0,0.4-0.1,0.6-0.1c0.1,0,0.3,0,0.4,0l0,0h-0.1c-0.1,0-0.2,0-0.3-0.1c-0.1,0-0.2,0-0.4,0c-0.3,0-0.7,0-1,0
			c-0.4,0-0.8,0.1-1.2,0.3c-0.4,0.1-0.8,0.3-1.2,0.5c-0.4,0.2-0.7,0.4-0.9,0.6c-0.3,0.2-0.5,0.4-0.6,0.5c-0.1,0.1-0.2,0.2-0.2,0.2
			s0.1-0.1,0.2-0.3c0.1-0.2,0.3-0.4,0.5-0.6c0.2-0.2,0.5-0.5,0.9-0.7c0.3-0.3,0.7-0.5,1.1-0.7c0.4-0.2,0.8-0.4,1.2-0.5h0.1
			c-0.2,0-0.4,0-0.6,0c-0.4,0-0.8-0.1-1.2-0.1s-0.7-0.1-1-0.1c-0.2,0-0.3,0-0.4,0c-0.1,0-0.2,0-0.3,0.1c-0.2,0-0.3,0.1-0.3,0.1
			s0.1,0,0.3-0.1c0.1,0,0.2-0.1,0.3-0.1s0.3-0.1,0.4-0.1c0.3,0,0.7,0,1,0c0.4,0,0.8,0,1.1,0c0.2,0,0.4,0,0.6-0.1
			c0.2,0,0.4-0.1,0.6-0.1c0.4-0.1,0.7-0.2,1-0.2c0.2,0,0.3,0,0.4,0l0,0c-0.1,0-0.1,0-0.2-0.1c-0.1,0-0.2-0.1-0.4-0.1
			c-0.1,0-0.3-0.1-0.4-0.1c-0.2,0-0.3,0-0.5-0.1c-0.2,0-0.4,0-0.5,0c-0.2,0-0.4,0-0.6,0c-0.4,0-0.8,0-1.1,0.1c-0.4,0-0.7,0.1-1,0.2
			c-0.3,0-0.5,0.1-0.7,0.2c-0.2,0-0.3,0.1-0.3,0.1s0.1-0.1,0.2-0.1c0.2-0.1,0.4-0.2,0.6-0.3c0.3-0.1,0.6-0.3,1-0.4
			c0.4-0.2,0.7-0.3,1.1-0.4c0.2-0.1,0.4-0.1,0.6-0.2h0.1c-0.3-0.1-0.7-0.1-1-0.2c-0.5-0.1-1-0.1-1.4-0.1c-0.5,0-0.9,0.1-1.2,0.2
			s-0.6,0.3-0.8,0.4c-0.2,0.1-0.3,0.2-0.3,0.2s0.1-0.1,0.3-0.2c0.2-0.1,0.4-0.3,0.8-0.5c0.3-0.2,0.8-0.3,1.3-0.4
			c0.5-0.1,1-0.1,1.5-0.1c0.4,0,0.8,0,1.2,0c-0.5-0.1-1.1-0.2-1.6-0.2c-0.3,0-0.6,0-0.8,0c-0.3,0-0.5,0-0.8,0c-0.5,0-1,0.1-1.4,0.2
			c-0.2,0.1-0.4,0.1-0.5,0.2c-0.2,0.1-0.3,0.1-0.4,0.2c-0.2,0.1-0.3,0.2-0.3,0.2s0.1-0.1,0.3-0.3c0.1-0.1,0.2-0.2,0.4-0.3
			c0.1-0.1,0.3-0.2,0.5-0.3c0.4-0.2,0.9-0.4,1.4-0.6c0.3-0.1,0.5-0.2,0.8-0.2c0.3-0.1,0.6-0.1,0.9-0.2c1.2-0.2,2.4-0.3,3.3-0.3
			c0.2,0,0.3,0,0.5,0c-0.1,0-0.2-0.1-0.2-0.1c-0.4-0.1-0.8-0.2-1.3-0.1c-0.5,0-1,0.1-1.6,0c-1.1,0-2.1,0-2.9,0.2
			C66.3,54,66,54,65.8,54.1c-0.2,0.1-0.3,0.1-0.3,0.1s0.1-0.1,0.3-0.1c0.2-0.1,0.5-0.2,0.9-0.3c0.8-0.2,1.9-0.3,2.9-0.4
			c0.5,0,1-0.1,1.5-0.2c0.2,0,0.5-0.1,0.8-0.1c0.2,0,0.5,0.1,0.7,0.1s0.3,0.1,0.4,0.1c-0.1,0-0.2-0.1-0.3-0.1
			c-0.3-0.1-0.6-0.2-1-0.3c-0.2,0-0.4-0.1-0.7-0.1c-0.2,0-0.4-0.1-0.7-0.1c-0.9-0.1-1.8,0-2.5,0c-0.3,0-0.6,0.1-0.8,0.1
			c-0.2,0.1-0.3,0.1-0.3,0.1s0.1,0,0.3-0.1c0.2-0.1,0.5-0.2,0.8-0.3c0.7-0.2,1.6-0.4,2.5-0.4c0.2,0,0.5,0,0.7,0c0.2,0,0.4,0,0.7,0
			c0.2,0,0.4,0,0.7,0c0.2,0,0.4,0.1,0.6,0.1c-0.1-0.1-0.3-0.1-0.4-0.2c-0.2-0.1-0.4-0.2-0.6-0.2c-0.2-0.1-0.5-0.1-0.8-0.1
			c-0.5-0.1-1.1-0.1-1.7,0c-1.2,0.1-2.4,0.3-3.3,0.5c-0.4,0.1-0.8,0.2-1.1,0.2c-0.3,0-0.4-0.1-0.4-0.1s0.1,0.1,0.4,0
			c0.3,0,0.6-0.1,1.1-0.3c0.9-0.3,2-0.6,3.3-0.8c0.6-0.1,1.2-0.2,1.8-0.2c0.3,0,0.6,0,0.9,0s0.5,0.1,0.8,0.2
			c0.5,0.1,0.8,0.3,1.1,0.4c0.1,0,0.1,0,0.2,0.1c0,0-0.1-0.1-0.2-0.1c-0.1-0.1-0.2-0.1-0.3-0.2c0,0-0.1-0.1-0.2-0.1
			c-0.1,0-0.1-0.1-0.2-0.1c-0.6-0.3-1.5-0.5-2.5-0.5c-1-0.1-2,0-2.8,0s-1.3,0.1-1.3,0.1s0.5-0.2,1.2-0.4c0.7-0.2,1.7-0.6,2.8-0.8
			c0.5-0.1,1.1-0.2,1.6-0.2c0.4,0,0.7,0,1.1,0c-0.3-0.1-0.7-0.2-1.1-0.3C72,49,71.8,49,71.5,49c-0.3,0-0.5,0-0.8,0
			c-0.6,0-1.1,0.3-1.6,0.5c-0.5,0.2-1,0.5-1.4,0.6c-0.4,0.2-0.8,0.3-1,0.4c-0.3,0.1-0.4,0.1-0.4,0.1s0.1-0.1,0.4-0.2
			c0.2-0.1,0.6-0.3,1-0.5c0.4-0.2,0.8-0.5,1.3-0.8c0.5-0.3,1-0.6,1.7-0.8c0.3-0.1,0.6-0.1,1-0.1c0.1,0,0.3,0,0.5,0s0.3,0,0.4,0.1
			c0.6,0.1,1.1,0.2,1.6,0.3c0.2,0,0.4,0.1,0.6,0.1c0.2,0,0.3,0,0.4,0.1c0.1,0,0.2,0,0.2,0c0-0.1,0.1-0.1,0.1-0.2
			c-0.3,0-0.6-0.1-1.1-0.2c-0.2,0-0.5-0.1-0.7-0.1c-0.3-0.1-0.5-0.1-0.8-0.2c-0.3-0.1-0.5-0.1-0.8-0.2c-0.3,0-0.6-0.1-0.8-0.2
			c-0.3,0-0.6-0.1-0.8,0c-0.3,0-0.6,0-0.8,0.1c-0.5,0.1-1,0.2-1.5,0.3c-0.9,0.2-1.4,0.3-1.4,0.3s0.6-0.2,1.4-0.5
			c0.4-0.2,0.9-0.3,1.5-0.4c0.3-0.1,0.6-0.1,0.8-0.2c0.3-0.1,0.6-0.1,0.9-0.1s0.6,0,0.9,0.1c0.3,0,0.6,0.1,0.8,0.1
			c0.3,0,0.5,0,0.8,0.1c0.2,0,0.5,0,0.7,0c0.7,0,1.2,0,1.4,0c-0.1,0-0.1-0.1-0.2-0.1c-0.8-0.4-0.9-0.4-1-0.5
			c-0.1-0.1-0.3-0.1-0.5-0.2c-0.4-0.1-0.9-0.2-1.4-0.3c-0.3,0-0.6-0.1-0.8-0.1c-0.3,0-0.6,0-0.9,0c-1.2,0-2.4,0.2-3.3,0.4
			c-0.9,0.2-1.5,0.4-1.5,0.4s0.6-0.3,1.4-0.7c0.9-0.4,2-0.9,3.3-1.2c0.3-0.1,0.6-0.2,1-0.2c0.3-0.1,0.6-0.1,1-0.1c0.2,0,0.4,0,0.6,0
			c-0.2,0-0.4,0-0.6-0.1c-0.4,0-0.7,0-1.1,0c-0.4,0-0.7,0-1.1,0.1c-0.4,0-0.8,0.1-1.1,0.2c-0.4,0.1-0.7,0.2-1.1,0.2
			c-0.3,0.1-0.7,0.2-1,0.3s-0.6,0.2-0.9,0.4c-0.5,0.2-0.9,0.5-1.2,0.6c-0.3,0.1-0.5,0.2-0.5,0.2s0.2-0.1,0.5-0.3
			c0.3-0.2,0.7-0.4,1.2-0.8c0.2-0.2,0.5-0.3,0.8-0.5s0.6-0.3,1-0.4c0.3-0.1,0.7-0.3,1.1-0.4c0.4-0.1,0.7-0.2,1.1-0.3
			s0.8-0.1,1.2-0.2c0.4,0,0.8-0.1,1.1-0.1c0.4,0,0.7,0,1.1,0c0.3,0,0.7,0,1,0c0.6,0,1.1,0.1,1.4,0.1c0.2,0,0.3,0,0.4,0l0,0
			c-0.1-0.1-0.3-0.1-0.5-0.1c-0.2-0.1-0.4-0.1-0.7-0.2c-1-0.2-2.3-0.4-3.7-0.6c-1.4-0.1-2.7-0.1-3.8,0c-0.3,0-0.5,0.1-0.7,0.1
			c-0.2,0-0.4,0.1-0.5,0.1c-0.1,0-0.2,0.1-0.3,0.1s-0.1,0.1-0.1,0.1s0,0,0.1-0.1c0.1,0,0.2-0.1,0.3-0.2c0.1-0.1,0.3-0.2,0.5-0.2
			c0.2-0.1,0.4-0.2,0.7-0.2c1-0.3,2.4-0.5,3.8-0.6c1.3-0.1,2.7-0.1,3.7,0c-0.1,0-0.2-0.1-0.3-0.2c-0.1-0.1-0.3-0.1-0.4-0.2
			c-0.3-0.1-0.6-0.2-1-0.3c-0.4-0.1-0.7-0.2-1.1-0.2c-0.4-0.1-0.8-0.1-1.2-0.1C70.2,41,68.6,41,67.5,41c-1.2,0-2,0-2,0
			s0.8-0.1,2-0.3c1.2-0.2,2.8-0.4,4.4-0.5c0.4,0,0.8,0,1.2,0c0.4,0,0.8,0,1.2,0.1s0.8,0.1,1.1,0.2c0.2,0,0.4,0.1,0.5,0.1
			c0.2,0,0.3,0.1,0.5,0.1c0.3,0.1,0.6,0.2,0.9,0.3c0.1,0.1,0.2,0.1,0.4,0.1c0.1,0,0.2,0.1,0.3,0.1c0.2,0.1,0.3,0.1,0.4,0.2
			c0.1-0.2,0.2-0.3,0.3-0.5h-0.1c-0.4-0.1-1-0.2-1.6-0.4c-0.7-0.2-1.4-0.4-2.3-0.7c-0.8-0.3-1.7-0.6-2.6-0.8l-0.7-0.1
			c-0.2,0-0.4-0.1-0.7-0.1c-0.4,0-0.9-0.1-1.3-0.1c-0.4,0-0.8,0-1.2,0c-0.4,0-0.8,0.1-1.1,0.1c-0.3,0.1-0.6,0.1-0.9,0.2
			c-0.3,0-0.5,0.1-0.7,0.2c-0.4,0.1-0.6,0.2-0.6,0.2s0.2-0.1,0.6-0.2c0.2-0.1,0.4-0.2,0.7-0.2c0.3-0.1,0.6-0.2,0.9-0.2
			c0.3-0.1,0.7-0.2,1.1-0.2c0.4-0.1,0.8-0.1,1.3-0.1c0.4,0,0.9,0,1.3,0c0.2,0,0.5,0,0.7,0.1l0.7,0.1c0.9,0.2,1.8,0.4,2.7,0.6
			c0.8,0.2,1.6,0.4,2.3,0.5c0.7,0.1,1.2,0.2,1.6,0.3c0.3,0,0.5,0.1,0.6,0.1l0,0c-0.1,0-0.2-0.1-0.3-0.1c-0.4-0.1-0.9-0.4-1.6-0.6
			c-0.7-0.2-1.4-0.5-2.3-0.7c-0.4-0.1-0.8-0.3-1.3-0.4c-0.4-0.1-0.9-0.2-1.3-0.3c-0.9-0.2-1.8-0.5-2.7-0.6c-0.9-0.1-1.7-0.1-2.3,0.1
			c-0.7,0.2-1.2,0.4-1.6,0.6c-0.4,0.2-0.6,0.3-0.6,0.3s0.2-0.1,0.5-0.3c0.3-0.2,0.9-0.5,1.5-0.7c0.7-0.2,1.5-0.3,2.4-0.3
			s1.8,0.2,2.7,0.4c0.5,0.1,0.9,0.2,1.4,0.2c0.5,0.1,0.9,0.2,1.3,0.3c0.9,0.2,1.7,0.4,2.3,0.6c0.6,0.2,1.1,0.3,1.5,0.4
			c-0.1,0-0.1-0.1-0.2-0.1c-0.1-0.1-0.2-0.1-0.3-0.2c-0.2-0.2-0.4-0.3-0.7-0.5c-0.3-0.2-0.6-0.4-0.9-0.6c-0.3-0.2-0.7-0.4-1.1-0.6
			c-0.4-0.2-0.8-0.3-1.2-0.5c-0.4-0.1-0.9-0.3-1.3-0.4l-0.7-0.2c-0.2,0-0.4-0.1-0.7-0.1c-0.5-0.1-0.9-0.1-1.3-0.2
			c-0.4,0-0.9-0.1-1.2,0c-0.4,0-0.8,0-1.1,0.1c-0.3,0-0.6,0.1-0.9,0.2s-0.5,0.2-0.7,0.3c-0.4,0.2-0.6,0.3-0.6,0.3s0.2-0.1,0.5-0.4
			c0.2-0.1,0.4-0.2,0.7-0.4c0.3-0.1,0.6-0.2,0.9-0.3c0.4-0.1,0.7-0.2,1.2-0.3c0.4-0.1,0.9-0.1,1.3-0.1c0.5,0,0.9,0,1.4,0
			c0.2,0,0.5,0,0.7,0l0.7,0.1c0.5,0,1,0.2,1.5,0.2c0.5,0.1,0.9,0.2,1.4,0.3c0.4,0.1,0.9,0.3,1.3,0.4c0.4,0.1,0.8,0.3,1.1,0.5
			c0.3,0.1,0.7,0.3,1,0.5c0.2,0.1,0.3,0.2,0.4,0.2c0.1,0.1,0.2,0.1,0.3,0.2c0.2,0.1,0.4,0.2,0.5,0.3c0,0,0-0.1,0.1-0.1l0,0
			c0,0,0,0,0-0.1c-0.1-0.1-0.1-0.2-0.3-0.3c-0.3-0.3-0.8-0.6-1.4-1s-1.4-0.8-2.3-1.1c-0.4-0.2-0.9-0.4-1.3-0.5
			c-0.5-0.2-0.9-0.3-1.4-0.4c-1-0.2-2-0.2-2.9-0.3c-0.9,0-1.8,0-2.6,0c-0.8,0-1.4,0-1.8,0c-0.4,0-0.7,0-0.7,0s0.2,0,0.7,0
			c0.4,0,1.1-0.1,1.8-0.1c0.8-0.1,1.6-0.1,2.6-0.2c0.9,0,2,0,3,0.1c0.5,0.1,1,0.2,1.5,0.3c0.5,0.1,1,0.3,1.4,0.4
			c0.9,0.3,1.7,0.6,2.4,1c0.7,0.3,1.3,0.7,1.7,1c0.1,0.1,0.2,0.2,0.3,0.3c0,0,0,0,0.1-0.1c-0.1-0.1-0.2-0.1-0.3-0.3
			c-0.3-0.2-0.7-0.6-1.2-0.9c-0.2-0.2-0.5-0.4-0.8-0.6s-0.6-0.4-0.9-0.6c-0.3-0.2-0.7-0.4-1-0.6c-0.2-0.1-0.4-0.2-0.5-0.3l-0.3-0.1
			l-0.3-0.1c-0.4-0.1-0.8-0.3-1.2-0.4c-0.4-0.1-0.8-0.2-1.2-0.3c-0.4-0.1-0.8-0.1-1.1-0.2c-0.4,0-0.7-0.1-1-0.1
			c-0.6,0-1.2-0.1-1.5-0.1c-0.4,0-0.6-0.1-0.6-0.1s0.2,0,0.6,0c0.4,0,0.9,0,1.5,0c0.3,0,0.7,0,1,0c0.4,0,0.7,0,1.1,0.1
			c0.4,0,0.8,0.1,1.2,0.2s0.8,0.2,1.2,0.3l0.3,0.1l0.3,0.1c0.2,0.1,0.4,0.1,0.6,0.2c0.4,0.2,0.8,0.3,1.1,0.5c0.4,0.2,0.7,0.4,1,0.6
			c0.3,0.2,0.6,0.4,0.9,0.6s0.6,0.4,0.8,0.5l-0.1-0.1c-0.2-0.2-0.4-0.4-0.7-0.6c-0.3-0.2-0.6-0.4-0.9-0.7c-0.4-0.2-0.7-0.4-1.1-0.7
			c-0.8-0.4-1.7-0.8-2.6-1.2c-0.5-0.2-0.9-0.3-1.4-0.4c-0.5-0.1-0.9-0.2-1.4-0.3c-0.5-0.1-0.9-0.1-1.3-0.2c-0.4,0-0.8,0-1.2,0
			c-0.4,0-0.7,0.1-1,0.1c-0.3,0.1-0.6,0.1-0.8,0.2c-0.4,0.2-0.6,0.3-0.6,0.3s0.2-0.1,0.6-0.4c0.2-0.1,0.4-0.2,0.7-0.3
			c0.3-0.1,0.6-0.2,1-0.3c0.4-0.1,0.8-0.1,1.2-0.2c0.4,0,0.9-0.1,1.4,0c0.5,0,1,0.1,1.5,0.1c0.5,0.1,1,0.2,1.5,0.3
			c1,0.2,2,0.5,2.9,0.9c0.5,0.2,0.9,0.4,1.3,0.5c0.4,0.2,0.8,0.4,1.1,0.6s0.7,0.4,1,0.6c0.3,0.2,0.6,0.4,0.7,0.5
			c0.2,0.2,0.3,0.3,0.4,0.3l0,0c-0.1-0.1-0.2-0.2-0.4-0.4c-0.1-0.2-0.3-0.3-0.5-0.5c-0.2-0.2-0.4-0.4-0.7-0.6
			c-0.6-0.4-1.3-0.9-2-1.4c-0.4-0.2-0.8-0.5-1.2-0.8c-0.4-0.2-0.8-0.5-1.2-0.7c-0.2-0.1-0.4-0.2-0.7-0.3c-0.2-0.1-0.4-0.2-0.7-0.2
			c-0.4-0.1-0.9-0.2-1.3-0.2c-0.2,0-0.4,0-0.7,0c-0.2,0-0.4,0-0.6,0.1c-0.4,0.1-0.8,0.2-1.1,0.3c-0.7,0.2-1.3,0.4-1.7,0.5
			c-0.4,0.1-0.6,0.2-0.6,0.2s0.2-0.1,0.6-0.2c0.4-0.2,1-0.4,1.6-0.7c0.3-0.1,0.7-0.3,1.1-0.4c0.2-0.1,0.4-0.1,0.6-0.1
			c0.2,0,0.5-0.1,0.7-0.1c0.5,0,1,0,1.5,0.1c0.2,0,0.5,0.1,0.7,0.2c0.2,0.1,0.5,0.1,0.7,0.2c0.5,0.2,0.9,0.4,1.4,0.6
			c0.2,0.1,0.4,0.2,0.6,0.3l0.3,0.2l0.3,0.2c0.8,0.4,1.5,0.9,2.2,1.3c0.3,0.2,0.6,0.4,0.8,0.6c0.2,0.2,0.5,0.4,0.6,0.5
			c0.2,0.2,0.3,0.3,0.4,0.4c0.1-0.1,0.3-0.2,0.4-0.4l-0.1-0.1c-0.1-0.1-0.3-0.3-0.4-0.4c-0.2-0.2-0.4-0.3-0.6-0.5s-0.4-0.4-0.7-0.6
			s-0.5-0.4-0.8-0.6s-0.6-0.4-0.9-0.6s-0.7-0.4-1-0.5c-0.3-0.2-0.7-0.3-1-0.5c-0.3-0.1-0.7-0.3-1-0.4c-0.3-0.1-0.7-0.2-1-0.3
			c-0.3-0.1-0.6-0.2-0.9-0.2c-0.6-0.1-1-0.2-1.4-0.2c-0.2,0-0.3,0-0.4,0s-0.1,0-0.1,0h0.1c0.1,0,0.2,0,0.4,0c0.3,0,0.8,0,1.4,0.1
			c0.3,0,0.6,0.1,0.9,0.1c0.3,0.1,0.7,0.1,1,0.2c0.4,0.1,0.7,0.2,1.1,0.3c0.4,0.1,0.7,0.3,1.1,0.4c0.4,0.1,0.7,0.3,1.1,0.5
			c0.3,0.2,0.7,0.3,1,0.5s0.6,0.4,0.9,0.5c0.3,0.2,0.5,0.4,0.8,0.5c0.2,0.2,0.5,0.3,0.6,0.5c0.2,0.1,0.3,0.3,0.5,0.4
			c0.1,0.1,0.2,0.1,0.2,0.2c0.2-0.1,0.3-0.3,0.5-0.4c-0.1-0.1-0.2-0.2-0.3-0.4l-0.1-0.1l-0.1-0.1c-0.1-0.1-0.1-0.1-0.2-0.2
			c-0.1-0.2-0.4-0.4-0.6-0.6c-0.2-0.2-0.6-0.4-0.9-0.6c-0.4-0.2-0.7-0.4-1.1-0.6c-0.2-0.1-0.4-0.2-0.6-0.3c-0.2-0.1-0.4-0.2-0.6-0.2
			c-0.4-0.2-0.9-0.3-1.3-0.4c-0.5-0.1-0.9-0.2-1.4-0.3c-0.5-0.1-0.9-0.2-1.4-0.2c-0.5-0.1-0.9-0.1-1.3-0.1c-0.4,0-0.8,0-1.2,0
			c-0.4,0-0.7,0-1,0.1c-0.3,0-0.6,0-0.8,0.1c-0.4,0.1-0.7,0.1-0.7,0.1s0.2-0.1,0.6-0.2c0.2-0.1,0.5-0.1,0.8-0.2
			c0.3-0.1,0.6-0.1,1-0.2c0.4-0.1,0.8-0.1,1.2-0.2c0.4,0,0.9-0.1,1.3-0.1c0.5,0,1,0,1.5,0c0.5,0,1,0.1,1.5,0.1
			c0.5,0.1,1,0.1,1.5,0.3c0.2,0.1,0.5,0.1,0.7,0.2c0.2,0.1,0.5,0.1,0.7,0.2c0.5,0.1,0.9,0.3,1.3,0.5c0.4,0.2,0.8,0.4,1.2,0.6
			c0.3,0.2,0.7,0.4,0.9,0.7c0.1,0.1,0.3,0.2,0.4,0.3c0.1,0.1,0.1,0.1,0.2,0.2l0.1,0.1c0.1,0.2,0.3,0.3,0.3,0.4c0,0,0.1,0,0.1-0.1
			c0,0,0-0.1-0.1-0.1c0-0.1-0.1-0.2-0.2-0.2c-0.1-0.2-0.3-0.4-0.5-0.7c-0.2-0.3-0.5-0.5-0.8-0.8c-0.7-0.6-1.5-1.2-2.6-1.7
			c-0.5-0.3-1-0.5-1.6-0.7c-0.3-0.1-0.6-0.2-0.8-0.3c-0.3-0.1-0.6-0.2-0.9-0.3c-0.6-0.1-1.2-0.2-1.8-0.2c-0.6,0-1.2,0-1.8,0.1
			c-1.2,0.1-2.2,0.4-3.2,0.5c-0.9,0.2-1.7,0.3-2.3,0.3c-0.6,0.1-0.9,0.1-0.9,0.1s0.3,0,0.9-0.1c0.5-0.1,1.3-0.3,2.2-0.5
			s2-0.6,3.1-0.8c0.6-0.1,1.2-0.2,1.8-0.3c0.6,0,1.3,0,2,0.1c0.3,0,0.6,0.1,0.9,0.2c0.4,0.1,0.6,0.2,0.9,0.3
			c0.6,0.2,1.2,0.4,1.8,0.6c1.1,0.5,2.1,1,3,1.6c0.4,0.3,0.8,0.6,1.1,0.9c0.1,0.1,0.2,0.3,0.4,0.4c-0.1-0.1-0.2-0.3-0.3-0.4
			c-0.2-0.3-0.5-0.6-0.8-0.9s-0.7-0.7-1.2-1c-0.4-0.3-0.9-0.7-1.4-1c-0.5-0.3-1-0.7-1.6-1c-0.3-0.2-0.6-0.3-0.8-0.5l0,0
			c0,0-0.1,0,0.1,0l0,0h-0.1h-0.1L82,24.2l-0.1-0.4l-0.5-0.2L81,23.5c-0.3-0.1-0.6-0.2-0.9-0.2s-0.6-0.1-0.9-0.1
			c-0.2,0-0.3-0.1-0.5-0.1s-0.3,0-0.5,0c-0.3,0-0.6,0-0.9-0.1c-0.3,0-0.6,0-0.9,0c-0.5,0-1,0.1-1.5,0.1s-0.9,0.2-1.3,0.2
			c-0.2,0-0.4,0.1-0.6,0.1s-0.3,0.1-0.5,0.1c-0.6,0.2-0.9,0.3-0.9,0.3s0.3-0.1,0.8-0.4c0.1-0.1,0.3-0.1,0.4-0.2
			c0.2-0.1,0.4-0.1,0.6-0.2c0.4-0.1,0.8-0.3,1.3-0.4c0.5-0.1,1-0.3,1.6-0.3c0.3,0,0.6-0.1,0.9-0.1s0.6,0,0.9,0c0.2,0,0.3,0,0.5,0
			c0.2,0,0.3,0,0.5,0c0.3,0,0.7,0,1,0.1c0.3,0.1,0.7,0.1,1,0.2l0.5,0.1l0.5,0.1l0.5,0.1l0.2,0.1h0.1H83l0,0l0,0h0.1l0,0
			c0.3,0.1,0.6,0.3,0.9,0.4c0.6,0.3,1.2,0.6,1.8,0.9c0.5,0.3,0.9,0.5,1.3,0.8c-0.6-0.5-1.3-1.1-1.9-1.7c-0.2-0.2-0.4-0.4-0.6-0.5
			c-0.2-0.2-0.4-0.3-0.6-0.5c-0.4-0.3-0.9-0.5-1.3-0.7c-0.9-0.4-1.8-0.7-2.5-0.8c-0.8-0.2-1.4-0.2-1.9-0.2c-0.2,0-0.4,0-0.5,0
			c-0.1,0-0.2,0-0.2,0s0.1,0,0.2,0c0.1,0,0.3,0,0.5,0c0.5,0,1.1,0,1.9,0.1c0.8,0.1,1.7,0.3,2.6,0.7c0.5,0.2,0.9,0.4,1.4,0.7
			s0.9,0.6,1.3,0.9c0.8,0.6,1.7,1.3,2.5,1.9c-0.2-0.2-0.4-0.4-0.6-0.6c-0.4-0.4-0.8-0.8-1.2-1.3c-0.4-0.5-0.7-1-1.1-1.4
			c-0.4-0.5-0.7-0.9-1.2-1.3c-0.4-0.4-0.9-0.7-1.4-1c-0.5-0.3-1-0.5-1.4-0.6c-0.5-0.1-1-0.2-1.4-0.3c-0.4,0-0.8,0-1.2,0
			c-0.4,0-0.7,0.1-0.9,0.2c-0.3,0.1-0.4,0.1-0.6,0.2c-0.1,0-0.2,0.1-0.2,0.1s0.1,0,0.2-0.1c0.1,0,0.3-0.1,0.6-0.2
			c0.2-0.1,0.5-0.2,0.9-0.2c0.4-0.1,0.8-0.1,1.2-0.1c0.5,0,0.9,0.1,1.5,0.2c0.5,0.1,1,0.3,1.5,0.6c0.5,0.3,1,0.6,1.5,1
			s0.9,0.8,1.3,1.3c0.4,0.5,0.8,0.9,1.2,1.3s0.8,0.8,1.2,1.2c0.8,0.8,1.6,1.5,2.2,2.1c0.3,0.3,0.6,0.7,0.9,1
			c-0.1-0.3-0.3-0.5-0.4-0.8c-0.7-1.5-1.8-3.4-3.1-5.2c-0.6-0.9-1.3-1.7-2.1-2.4c-0.7-0.7-1.5-1.3-2.2-1.6c-0.4-0.2-0.7-0.3-1-0.4
			c-0.3-0.1-0.6-0.1-0.9-0.1c-0.2,0-0.4,0-0.6,0c-0.1,0-0.2,0-0.2,0s0.1,0,0.2,0c0.1,0,0.3-0.1,0.6-0.1c0.2,0,0.5,0,0.9,0
			c0.3,0,0.7,0.1,1.1,0.3c0.8,0.3,1.7,0.8,2.6,1.4s1.7,1.4,2.5,2.3c1.6,1.7,2.9,3.5,3.8,4.9c0.1,0.2,0.2,0.4,0.3,0.5
			c-0.1-0.2-0.3-0.5-0.4-0.8c-0.2-0.4-0.4-0.9-0.7-1.3c-0.2-0.5-0.5-1-0.7-1.5c-0.5-1-1-2-1.7-3c-0.7-1-1.4-1.9-2.2-2.6
			c-0.8-0.8-1.7-1.3-2.5-1.7c-0.8-0.4-1.5-0.7-2-1c-0.2-0.1-0.4-0.3-0.5-0.4c-0.1-0.1-0.2-0.1-0.2-0.1s0.1,0,0.2,0.1
			c0.1,0.1,0.3,0.2,0.5,0.3c0.5,0.2,1.2,0.5,2,0.8c0.9,0.3,1.8,0.8,2.8,1.5c0.9,0.7,1.8,1.6,2.6,2.6c0.8,1,1.4,2,2,3
			c0.3,0.5,0.6,1,0.8,1.4c0.3,0.4,0.5,0.8,0.8,1.2c0.3,0.4,0.5,0.7,0.7,1c0.1,0.1,0.1,0.2,0.2,0.3c0-0.1-0.1-0.2-0.1-0.3
			c-0.1-0.3-0.3-0.7-0.4-1.1c-0.3-0.8-0.6-1.8-1-2.8c-0.2-0.5-0.3-1-0.5-1.5c-0.2-0.5-0.4-1-0.6-1.5c-0.2-0.5-0.5-1-0.8-1.5
			c-0.1-0.2-0.3-0.5-0.4-0.7c-0.2-0.2-0.3-0.4-0.5-0.6c-0.2-0.2-0.3-0.4-0.5-0.6s-0.4-0.3-0.5-0.5c-0.3-0.3-0.7-0.6-1.1-0.8
			c-0.3-0.2-0.7-0.4-1-0.6c-0.2-0.1-0.3-0.2-0.5-0.2H61.4c0.2,0.5,0.4,0.9,0.6,1.3c0.1,0.2,0.2,0.4,0.2,0.6c0.1,0.2,0.1,0.4,0.1,0.5
			c0.1,0.3,0.1,0.4,0.1,0.4s-0.1-0.1-0.2-0.4c-0.1-0.1-0.1-0.3-0.2-0.4c-0.1-0.2-0.2-0.4-0.3-0.6c-0.3-0.4-0.6-0.8-1-1.3
			c0-0.1-0.1-0.1-0.1-0.2H60v0.1c-0.1,1.5-0.1,3-0.2,4.1c0,0.3-0.1,0.5-0.1,0.8c-0.1,0.2-0.1,0.4-0.2,0.6c-0.1,0.3-0.2,0.5-0.2,0.5
			s0-0.2,0.1-0.5c0-0.2,0.1-0.4,0.1-0.6s0-0.5,0-0.8c-0.1-1.1-0.4-2.6-0.6-4.1c0-0.1,0-0.1,0-0.2H59c-0.1,0.8-0.2,1.5-0.3,2.4
			c-0.1,0.5-0.2,1-0.3,1.5c-0.1,0.5-0.2,1-0.3,1.4c-0.1,0.2-0.1,0.4-0.2,0.7c-0.1,0.2-0.2,0.4-0.2,0.6c-0.2,0.4-0.3,0.8-0.5,1.1
			c-0.2,0.3-0.3,0.6-0.5,0.9c-0.1,0.3-0.3,0.5-0.4,0.7c-0.2,0.4-0.4,0.6-0.4,0.6s0.1-0.2,0.3-0.6c0.1-0.2,0.2-0.4,0.3-0.7
			c0.1-0.3,0.2-0.6,0.3-0.9c0.1-0.4,0.2-0.7,0.3-1.1c0-0.2,0.1-0.4,0.1-0.6s0.1-0.4,0.1-0.7c0.1-0.5,0.1-0.9,0.1-1.4s0-1,0-1.5
			c0,0,0-0.1,0-0.2c-0.1,0.4-0.2,0.8-0.4,1.2c-0.4,1-0.9,2-1.5,2.9c-0.3,0.4-0.6,0.9-0.8,1.2c-0.3,0.4-0.6,0.7-0.8,1
			c-0.3,0.3-0.5,0.6-0.8,0.8c-0.2,0.2-0.4,0.4-0.6,0.6c-0.3,0.3-0.6,0.5-0.6,0.5s0.2-0.2,0.5-0.6c0.2-0.2,0.3-0.4,0.5-0.7
			c0.2-0.3,0.4-0.6,0.7-0.9c0.2-0.3,0.5-0.7,0.7-1.1c0.2-0.4,0.5-0.8,0.7-1.3c0.4-0.9,0.8-1.9,1.1-2.9s0.5-2,0.6-3h-0.4
			c0,0.1-0.1,0.2-0.1,0.4l-0.1,0.2c0,0.1-0.1,0.1-0.1,0.2l0,0.4c-0.2,0.4-0.4,0.9-0.7,1.4c-0.2,0.5-0.5,0.9-0.8,1.3
			s-0.5,0.8-0.8,1.2c-0.3,0.4-0.5,0.8-0.8,1.1c-0.3,0.3-0.5,0.7-0.8,1c-0.2,0.3-0.5,0.5-0.7,0.8c-0.2,0.2-0.4,0.4-0.5,0.6
			c-0.3,0.3-0.5,0.5-0.5,0.5s0.1-0.2,0.4-0.6c0.1-0.2,0.3-0.4,0.4-0.6c0.2-0.2,0.4-0.5,0.6-0.9c0.2-0.3,0.4-0.7,0.6-1
			c0.2-0.4,0.4-0.8,0.6-1.2c0.2-0.4,0.4-0.9,0.6-1.3c0.2-0.4,0.4-0.9,0.5-1.3c0.2-0.5,0.3-0.9,0.5-1.4l0.1-0.3c0-0.1,0-0.1,0-0.2
			v-0.1h-0.1c0,0.1,0,0.1-0.1,0.1c-0.1,0.3-0.2,0.5-0.3,0.8c-0.5,1-1.1,2.1-1.7,3.1c-1.3,2-2.7,3.8-3.8,5.2
			c-1.1,1.4-1.8,2.3-1.8,2.3s0.6-1,1.5-2.5c0.9-1.5,2.1-3.5,3.1-5.5c0.5-1,0.9-2.1,1.2-3.1c0-0.1,0.1-0.3,0.1-0.4h-0.5
			c-0.2,0.4-0.3,0.8-0.5,1.2c-0.2,0.6-0.5,1.1-0.7,1.7c-0.3,0.6-0.5,1.2-0.8,1.8c-0.3,0.6-0.6,1.2-0.9,1.7c-0.3,0.6-0.7,1.1-1,1.6
			c-0.4,0.5-0.7,1-1,1.4s-0.7,0.8-1,1.2s-0.6,0.7-0.9,1c-0.3,0.3-0.5,0.5-0.7,0.7c-0.4,0.4-0.6,0.6-0.6,0.6s0.2-0.3,0.6-0.7
			c0.2-0.2,0.4-0.5,0.6-0.8c0.2-0.3,0.5-0.7,0.8-1.1s0.6-0.8,0.9-1.3c0.3-0.5,0.6-1,0.9-1.5c0.3-0.5,0.6-1.1,0.8-1.6
			c0.3-0.6,0.5-1.1,0.7-1.7c0.2-0.6,0.4-1.2,0.6-1.8c0.2-0.6,0.3-1.2,0.5-1.8c0.1-0.2,0.1-0.5,0.2-0.7h-0.2c-0.5,1-1.1,2.1-1.7,3.2
			c-0.6,1-1.1,1.8-1.7,2.7c-0.5,0.9-1.1,1.6-1.5,2.3c-0.5,0.7-0.9,1.2-1.1,1.6c-0.2,0.2-0.3,0.3-0.4,0.4c0,0.2-0.1,0.2-0.1,0.2
			s0.1,0,0.1-0.1c0.1-0.1,0.2-0.2,0.3-0.4c0.2-0.4,0.6-1,0.9-1.7c0.4-0.7,0.8-1.6,1.2-2.5c0.4-0.9,0.9-1.9,1.3-2.9
			c0.4-0.9,0.7-1.9,1-2.7h-0.2c-0.6,1.2-1.2,2.6-1.9,3.9c-1,2.1-2.1,4.3-3,5.8c-0.2,0.4-0.4,0.7-0.6,1c-0.2,0.3-0.4,0.6-0.5,0.8
			c-0.1,0.2-0.3,0.3-0.4,0.4c-0.1,0.1-0.2,0.1-0.2,0.1s0.1-0.1,0.1-0.2c0.1-0.1,0.2-0.2,0.4-0.5c0.1-0.2,0.3-0.5,0.5-0.8
			c0.2-0.3,0.3-0.7,0.5-1.1c0.7-1.6,1.6-3.8,2.4-6c0-0.1,0-0.1,0.1-0.2c-1,1.6-2.1,3-2.9,4.1c-0.4,0.6-0.8,1-1.1,1.3
			c-0.1,0.1-0.3,0.3-0.4,0.3c-0.1,0.1-0.2,0.1-0.2,0.1s0.1,0,0.1-0.1c0.1-0.1,0.2-0.2,0.3-0.4c0.2-0.3,0.6-0.8,0.9-1.5
			c0.7-1.2,1.6-3,2.3-4.7c0.4-0.9,0.7-1.8,1-2.6h-0.5c-0.2,0.4-0.3,0.7-0.6,1.1c-0.2,0.5-0.5,0.9-0.8,1.4c-0.3,0.5-0.7,0.9-1,1.4
			c-0.3,0.4-0.6,0.9-0.9,1.3c-0.3,0.5-0.5,0.9-0.8,1.4c-0.5,0.9-0.9,1.8-1.2,2.5c-0.2,0.4-0.4,0.7-0.6,1c-0.2,0.3-0.4,0.5-0.5,0.7
			c-0.2,0.2-0.3,0.3-0.4,0.4c0.2,0.4,0.1,0.4,0.1,0.4s0-0.1,0.1-0.2c0.1-0.1,0.2-0.2,0.3-0.4c0.1-0.2,0.3-0.4,0.4-0.7
			c0.2-0.3,0.3-0.6,0.5-1c0.3-0.8,0.6-1.7,1-2.7c0.2-0.5,0.4-1,0.6-1.5c0.2-0.5,0.5-1,0.8-1.5c0.3-0.5,0.6-0.9,0.8-1.4
			c0.2-0.5,0.5-0.9,0.7-1.4c0.1-0.2,0.2-0.4,0.2-0.6H44c-0.4,1-1,2.1-1.5,3.2c-0.2,0.4-0.4,0.8-0.7,1.2c-0.2,0.4-0.5,0.8-0.7,1.2
			c-0.5,0.8-1,1.4-1.4,2c-0.2,0.3-0.4,0.5-0.6,0.7c-0.2,0.2-0.4,0.4-0.5,0.5c-0.3,0.3-0.5,0.4-0.5,0.4s0.2-0.2,0.4-0.5
			c0.1-0.2,0.3-0.4,0.4-0.6c0.2-0.2,0.3-0.5,0.5-0.8c0.3-0.6,0.7-1.3,1-2.1c0.2-0.4,0.3-0.8,0.5-1.2c0.2-0.4,0.3-0.9,0.5-1.3
			c0.3-0.9,0.6-1.9,0.9-2.8H42l0,0c-0.2,0.4-0.4,0.8-0.6,1.2c-0.4,0.9-0.9,1.8-1.3,2.7c-1,1.8-2,3.6-2.8,4.9c-0.4,0.7-0.7,1.2-1,1.6
			c-0.1,0.2-0.2,0.3-0.3,0.4L36,23.5l0,0l0,0l0,0l0,0l0,0l0,0l0.1-0.1c0.1-0.1,0.2-0.3,0.3-0.4c0.2-0.4,0.5-1,0.9-1.7
			c0.7-1.4,1.5-3.2,2.3-5.1c0.4-0.9,0.8-1.9,1.1-2.8c0-0.1,0-0.1,0.1-0.2c-0.1,0.2-0.2,0.4-0.3,0.5c-0.4,0.7-0.9,1.4-1.4,2.1
			c-0.5,0.7-1,1.4-1.4,2.1s-0.8,1.3-1,1.9c-0.1,0.3-0.2,0.6-0.3,0.8c-0.1,0.2-0.1,0.5-0.1,0.7c0,0.4,0,0.6,0,0.6s0-0.2,0-0.6
			c0-0.2,0-0.4,0.1-0.7c0-0.3,0.1-0.5,0.2-0.9c0.2-0.6,0.5-1.3,0.8-2.1c0.3-0.7,0.7-1.5,1.1-2.3c0.4-0.8,0.8-1.5,1.1-2.2
			c0.1-0.2,0.2-0.4,0.3-0.7h-0.4c-0.6,1-1.4,2.2-2.1,3.5c-0.8,1.5-1.6,3.1-2.1,4.3c-0.2,0.6-0.4,1.1-0.4,1.5c0,0.2,0,0.3,0,0.4
			c0,0.1,0.1,0.1,0.1,0.1s0,0-0.1-0.1c0-0.1-0.1-0.2-0.1-0.4c-0.1-0.4,0-1,0.1-1.6c0.2-1.3,0.8-3,1.4-4.7c0.1-0.2,0.2-0.4,0.2-0.6
			c-0.1,0.2-0.2,0.4-0.4,0.6c-0.2,0.3-0.4,0.7-0.6,1c-0.7,1.4-1.3,2.9-2,4c-0.2,0.3-0.3,0.5-0.5,0.7s-0.3,0.3-0.5,0.5
			c-0.1,0.1-0.3,0.2-0.3,0.3C32.1,22,32.1,22,32.1,22s0,0,0.1-0.1c0.1-0.1,0.2-0.2,0.3-0.3c0.1-0.1,0.2-0.3,0.4-0.5
			c0.1-0.2,0.3-0.4,0.4-0.7c0.5-1.1,0.9-2.6,1.4-4.2c0.1-0.4,0.3-0.8,0.4-1.1c0.2-0.4,0.3-0.8,0.5-1.1c0.1-0.2,0.1-0.3,0.2-0.5
			c0-0.1,0.1-0.1,0.1-0.2c-0.5,0.9-1.1,2.1-1.6,3.3c-0.7,1.4-1.3,2.8-1.9,3.8c-0.3,0.5-0.5,0.9-0.7,1.2c-0.1,0.1-0.2,0.3-0.2,0.3
			C31.4,22,31.4,22,31.4,22s0,0,0.1-0.1c0.1-0.1,0.1-0.2,0.2-0.3c0.1-0.3,0.3-0.8,0.5-1.3c0.4-1.1,0.9-2.5,1.5-4
			c0.5-1.3,1-2.7,1.4-3.7H35c-0.1,0.1-0.2,0.3-0.2,0.4c-0.4,0.9-0.9,2.1-1.4,3.3c-0.5,1.2-1,2.5-1.4,3.4c-0.2,0.5-0.4,0.8-0.6,1.1
			c-0.1,0.1-0.2,0.2-0.2,0.3c-0.1,0.1-0.1,0.1-0.1,0.1s0,0,0.1-0.1c0-0.1,0.1-0.1,0.2-0.3c0.1-0.3,0.3-0.6,0.5-1.1
			c0.3-0.9,0.7-2.2,1.1-3.5c0.1-0.5,0.3-1,0.4-1.5c-0.4,1-0.8,2.1-1.2,3.3c-0.3,0.7-0.6,1.4-0.9,2.1c-0.3,0.7-0.6,1.3-1,1.8
			c-0.2,0.2-0.3,0.5-0.4,0.7c-0.1,0.2-0.3,0.4-0.4,0.5c-0.2,0.2-0.4,0.4-0.4,0.4s0.1-0.2,0.3-0.4c0.1-0.1,0.2-0.3,0.3-0.5
			c0.1-0.2,0.2-0.4,0.3-0.7c0.2-0.5,0.5-1.1,0.7-1.8c0.2-0.7,0.4-1.4,0.6-2.2c0.4-1.5,0.6-3,0.9-4.2c0-0.2,0.1-0.4,0.2-0.6h-0.1
			c0,0.1-0.1,0.3-0.1,0.5c0,0.2-0.1,0.4-0.1,0.7c-0.1,0.5-0.3,1.1-0.4,1.7c-0.2,0.6-0.4,1.3-0.6,2c-0.5,1.3-1.1,2.6-1.6,3.5
			c-0.3,0.4-0.5,0.8-0.7,1s-0.3,0.4-0.3,0.4s0.1-0.1,0.2-0.4c0.2-0.3,0.4-0.6,0.6-1.1c0.4-0.9,0.9-2.2,1.2-3.5
			c0.1-0.6,0.3-1.1,0.3-1.7c-0.1,0.1-0.1,0.3-0.2,0.4c-0.2,0.5-0.4,1.1-0.7,1.6c-0.1,0.3-0.2,0.5-0.4,0.8c-0.1,0.3-0.3,0.5-0.4,0.8
			c-0.3,0.5-0.5,1-0.7,1.4c-0.4,0.8-0.8,1.3-0.8,1.3s0.2-0.5,0.6-1.4c0.2-0.4,0.3-0.9,0.5-1.4c0.1-0.3,0.2-0.5,0.3-0.8
			c0.1-0.3,0.2-0.6,0.2-0.8l0,0c-0.2,0.5-0.4,0.9-0.6,1.4c-0.5,1.1-1.2,2.2-1.6,3c-0.2,0.6-0.5,1.2-0.7,1.7
			c-0.2,0.5-0.4,0.9-0.5,1.1c-0.1,0.3-0.2,0.4-0.2,0.4s0.1-0.2,0.2-0.4c0.1-0.3,0.3-0.7,0.4-1.2c0-0.1,0-0.1,0-0.2l0,0
			c0-0.1,0-0.2,0.1-0.3c0.1-0.3,0.2-0.7,0.3-1.1c0.1-0.2,0.2-0.5,0.3-0.7c0.1-0.4,0.2-0.9,0.3-1.3c0.2-0.7,0.3-1.4,0.4-2
			c0.1-0.3,0.1-0.6,0.1-0.9c0-0.3,0.1-0.6,0.1-0.8c0-0.3,0-0.5,0.1-0.7c0-0.1,0-0.2,0-0.3c-0.1,0-0.2,0.1-0.2,0.1c0,0.1,0,0.1,0,0.2
			c0,0.3,0,0.7-0.1,1.2c-0.1,0.5-0.2,1-0.3,1.6c-0.1,0.3-0.1,0.6-0.2,0.9c-0.1,0.3-0.2,0.6-0.2,0.9c-0.1,0.6-0.3,1.3-0.5,1.8
			c-0.2,0.6-0.4,1.1-0.7,1.5c-0.2,0.4-0.4,0.7-0.6,1c-0.2,0.2-0.3,0.3-0.3,0.3s0.1-0.1,0.2-0.4c0.1-0.2,0.3-0.6,0.5-1s0.3-1,0.5-1.5
			c0.1-0.6,0.2-1.2,0.3-1.8c0-0.3,0.1-0.6,0.1-0.9c0-0.3,0.1-0.6,0.1-0.9c0.1-0.6,0.1-1.1,0.1-1.6c0-0.3,0-0.5,0-0.7
			c0,0-0.1,0-0.1,0.1c0,0.1,0,0.1,0,0.3s0,0.4,0,0.6s0,0.4,0,0.6c0,0.5-0.1,1-0.2,1.6c-0.1,0.3-0.1,0.6-0.2,0.9
			c-0.1,0.3-0.2,0.6-0.3,0.9c-0.8,2.2-1.7,4.4-1.7,4.4s0.6-2.3,1.1-4.6c0.1-0.3,0.1-0.6,0.2-0.8c0-0.3,0.1-0.6,0.1-0.8
			c0-0.2,0-0.4,0-0.6c-0.2,0.4-0.4,0.8-0.6,1.3c-0.1,0.2-0.2,0.5-0.4,0.7c-0.1,0.2-0.2,0.5-0.3,0.8c-0.4,1-0.8,2.1-1,2.9
			c-0.1,0.4-0.1,0.8-0.2,1c0,0.2,0,0.4,0,0.4s0-0.1-0.1-0.4c0-0.3,0-0.6,0-1.1c0.1-0.9,0.2-2,0.5-3.2c0.1-0.3,0.1-0.6,0.2-0.9
			c0.1-0.3,0.1-0.5,0.2-0.8c0.1-0.5,0.3-1,0.3-1.4c0-0.1,0-0.2,0-0.3c-0.1,0-0.1,0.1-0.2,0.1l0,0c0,0,0,0.1-0.1,0.3
			c-0.1,0.2-0.1,0.5-0.3,0.9c-0.2,0.8-0.6,1.8-0.9,2.7c-0.3,1-0.6,2-0.8,2.7c0,0.2-0.1,0.4-0.1,0.5c0,0.2,0,0.3-0.1,0.4
			c0,0.2-0.1,0.4-0.1,0.4s0-0.1,0-0.4c0-0.1,0-0.3,0-0.4c0-0.2,0-0.3,0.1-0.5C21.7,24,21.8,23,22,22c0.2-1,0.4-2.1,0.5-2.8v-0.1
			c-0.3,0.2-0.5,0.4-0.7,0.6c0,0,0,0.2-0.1,0.4c0,0.3-0.1,0.6-0.2,1.1c-0.1,0.2-0.1,0.5-0.2,0.7c-0.1,0.3-0.1,0.5-0.2,0.8
			c-0.1,0.6-0.4,1.1-0.6,1.7s-0.4,1.1-0.6,1.6c-0.2,0.5-0.4,1-0.6,1.4c-0.4,0.8-0.6,1.4-0.6,1.4s0.2-0.6,0.4-1.4
			c0.1-0.4,0.3-0.9,0.4-1.5c0.2-0.5,0.3-1.1,0.4-1.7c0.1-0.6,0.3-1.2,0.3-1.7c0-0.3,0.1-0.5,0.1-0.8c0-0.2,0.1-0.5,0.1-0.7
			c0-0.1,0-0.1,0-0.2c-0.1,0.1-0.2,0.1-0.2,0.2c0,0.1-0.1,0.2-0.1,0.5c0,0.2-0.1,0.4-0.2,0.6c-0.1,0.2-0.1,0.5-0.2,0.8
			c-0.1,0.6-0.3,1.2-0.4,1.9c-0.1,0.4-0.1,0.7-0.2,1.1c-0.1,0.4-0.2,0.8-0.3,1.1c-0.1,0.4-0.3,0.8-0.4,1.1c-0.1,0.4-0.3,0.7-0.5,1
			c-0.1,0.2-0.2,0.3-0.3,0.5c-0.1,0.1-0.2,0.3-0.3,0.4c-0.2,0.3-0.4,0.5-0.5,0.8c-0.4,0.4-0.7,0.8-0.9,1.1c-0.2,0.3-0.4,0.4-0.4,0.4
			s0.1-0.2,0.3-0.4c0.2-0.3,0.5-0.7,0.8-1.1c0.1-0.3,0.3-0.5,0.5-0.8c0.1-0.1,0.2-0.3,0.2-0.4c0.1-0.1,0.1-0.3,0.2-0.5
			c0.1-0.3,0.3-0.7,0.4-1c0.1-0.4,0.2-0.7,0.3-1.1c0.1-0.4,0.1-0.8,0.2-1.1c0.1-0.4,0.1-0.8,0.1-1.1c0.1-0.7,0.2-1.4,0.2-2
			c0-0.1,0-0.2,0-0.2c-0.1,0.1-0.1,0.1-0.2,0.2c0,0.1,0,0.1,0,0.2c0,0.1,0,0.3,0,0.4c0,0.2,0,0.4,0,0.6c0,0.4-0.1,0.9-0.2,1.4
			s-0.3,1-0.5,1.6c-0.2,0.5-0.4,1-0.7,1.5c-0.3,0.4-0.6,0.8-0.9,1.1c-0.1,0.1-0.2,0.2-0.3,0.3c-0.1,0.2-0.2,0.4-0.3,0.6
			c-0.6,1-1.2,2-1.8,2.8c-0.1,0.2-0.1,0.3-0.2,0.5c-0.1,0.2-0.2,0.5-0.4,0.7l9.7,16.2c0-0.1,0.1-0.3,0.1-0.4s0-0.2,0-0.4
			c0-0.1,0-0.2,0-0.3c0-0.2,0-0.2,0-0.2s0,0.1,0,0.2c0,0.1,0,0.2,0,0.3c0,0.1,0,0.2,0,0.4c0,0.2,0,0.4,0,0.6l0.6,1
			c0-0.2,0-0.4,0-0.6c0-0.3,0-0.6,0-0.9c0-0.3-0.1-0.5-0.1-0.6c0-0.2,0-0.2,0-0.2s0,0.1,0.1,0.2c0.1,0.1,0.2,0.3,0.2,0.6
			c0.1,0.3,0.2,0.5,0.3,0.9c0.1,0.3,0.2,0.7,0.2,1c0,0.2,0,0.4,0.1,0.5v0.1c0.1-0.3,0.2-0.6,0.2-0.9c0.1-0.4,0.2-0.8,0.2-1.2
			s0-0.8-0.1-1.1c-0.1-0.3-0.2-0.6-0.2-0.7c-0.1-0.2-0.1-0.3-0.1-0.3s0.1,0.1,0.2,0.2c0.1,0.2,0.2,0.4,0.4,0.7
			c0.1,0.3,0.2,0.7,0.2,1.1c0,0.4,0,0.9,0,1.3c0,0.4-0.1,0.7-0.1,1.1c0.1-0.4,0.2-0.9,0.3-1.4c0-0.2,0.1-0.5,0.1-0.7
			c0-0.2,0-0.5,0.1-0.7c0-0.5,0-0.9-0.1-1.3c0-0.2-0.1-0.3-0.1-0.5c0-0.1-0.1-0.3-0.1-0.4c-0.2-0.4-0.2-0.6-0.2-0.6s0.1,0.1,0.2,0.3
			c0.1,0.1,0.1,0.2,0.2,0.3c0.1,0.1,0.1,0.3,0.2,0.5c0.2,0.4,0.3,0.8,0.4,1.3c0.1,0.2,0.1,0.5,0.1,0.7c0,0.3,0.1,0.5,0.1,0.8
			c0.1,1.1,0,2.1-0.1,2.9c0,0.2,0,0.3-0.1,0.4c0-0.1,0.1-0.1,0.1-0.2c0.1-0.3,0.2-0.7,0.2-1.1c0-0.4,0-0.9,0.1-1.4
			c0.1-0.9,0.2-1.8,0.1-2.5c0-0.4-0.1-0.6-0.1-0.8c0-0.2-0.1-0.3-0.1-0.3s0,0.1,0.1,0.3c0.1,0.2,0.1,0.5,0.2,0.8
			c0.1,0.7,0.1,1.6,0,2.6c0,0.5,0,0.9,0,1.4c0,0.2,0,0.4,0,0.7c0,0.2-0.1,0.4-0.1,0.6c-0.1,0.1-0.1,0.3-0.2,0.4
			c0-0.1,0.1-0.1,0.1-0.2c0.1-0.2,0.2-0.5,0.3-0.9c0-0.2,0.1-0.4,0.1-0.6c0.1-0.2,0.1-0.4,0.1-0.6c0.2-0.8,0.2-1.6,0.2-2.1
			c0-0.3,0-0.5-0.1-0.7c0-0.2,0-0.3,0-0.3s0,0.1,0.1,0.3c0,0.2,0.1,0.4,0.2,0.7c0.1,0.6,0.2,1.4,0.1,2.2c0,0.2,0,0.4,0,0.6
			s0,0.4-0.1,0.6c0,0.2-0.1,0.4-0.1,0.6s-0.1,0.3-0.1,0.5c0.1-0.1,0.2-0.2,0.2-0.4c0.1-0.2,0.2-0.3,0.3-0.5c0.1-0.2,0.1-0.4,0.2-0.6
			c0.1-0.5,0.2-1,0.2-1.5c0.1-1,0-2.1-0.1-2.9c0-0.4-0.1-0.7,0-1c0-0.2,0.1-0.3,0.1-0.3S28,48.2,28,48.5c0,0.2,0.1,0.6,0.1,0.9
			c0.2,0.8,0.3,1.8,0.4,2.9c0,0.5,0,1.1,0,1.6c0,0.3-0.1,0.5-0.1,0.8c-0.1,0.2-0.1,0.5-0.2,0.7c-0.2,0.4-0.3,0.7-0.4,0.9
			c0,0.1,0,0.1-0.1,0.1l0.1-0.1c0.1-0.1,0.1-0.2,0.2-0.2l0.1-0.1c0-0.1,0.1-0.1,0.1-0.2c0.3-0.5,0.6-1.3,0.7-2.1
			c0.1-0.9,0.2-1.7,0.2-2.4c0-0.7,0.1-1.1,0.1-1.1s0.1,0.4,0.3,1.1c0.1,0.7,0.3,1.6,0.4,2.5c0,0.5,0.1,0.9,0,1.4
			c0,0.3-0.1,0.6-0.1,0.9c0.1-0.3,0.2-0.6,0.3-0.9c0.1-0.2,0.1-0.4,0.2-0.7c0-0.2,0.1-0.5,0.1-0.7c0-0.5-0.1-1-0.3-1.4
			c-0.2-0.5-0.3-0.9-0.4-1.3c-0.1-0.4-0.2-0.7-0.2-0.9c0-0.2-0.1-0.4-0.1-0.4s0.1,0.1,0.1,0.3c0.1,0.2,0.2,0.5,0.4,0.9
			c0.2,0.4,0.4,0.8,0.6,1.2c0.2,0.4,0.5,1,0.5,1.5c0.1,0.3,0,0.6,0,0.9c0,0.1,0,0.2,0,0.4c0,0.1-0.1,0.3-0.1,0.4
			c-0.1,0.5-0.3,0.9-0.4,1.3c-0.1,0.2-0.1,0.4-0.1,0.5c0,0.1-0.1,0.3-0.1,0.4s0,0.1,0,0.2c0.1,0,0.1,0.1,0.2,0.1
			c0.1-0.2,0.1-0.5,0.2-0.9c0-0.2,0.1-0.4,0.2-0.6c0.1-0.2,0.1-0.4,0.2-0.7c0.1-0.2,0.2-0.5,0.2-0.7c0.1-0.2,0.2-0.5,0.2-0.7
			c0-0.2,0.1-0.5,0.1-0.7c0-0.2,0-0.5,0-0.7c0-0.5,0-0.9-0.1-1.3c-0.1-0.8-0.1-1.3-0.1-1.3s0.1,0.5,0.3,1.3c0.1,0.4,0.2,0.8,0.2,1.3
			c0.1,0.2,0.1,0.5,0.1,0.8s0,0.5,0,0.8s-0.1,0.5-0.1,0.8c-0.1,0.2-0.1,0.5-0.2,0.7c-0.1,0.2-0.1,0.5-0.1,0.7c0,0.2-0.1,0.4-0.1,0.6
			c-0.1,0.6-0.1,1-0.2,1.2c0,0,0.1-0.1,0.1-0.2c0.1-0.1,0.1-0.2,0.2-0.3c0.1-0.1,0.1-0.2,0.2-0.4c0.1-0.3,0.3-0.7,0.4-1.2
			c0.1-0.2,0.1-0.5,0.1-0.7c0-0.3,0.1-0.5,0.1-0.8c0.1-1.1,0-2.1-0.1-2.9c-0.1-0.8-0.2-1.4-0.2-1.4s0.2,0.5,0.5,1.3s0.6,1.8,0.7,3
			c0,0.3,0.1,0.6,0.1,0.8c0,0.3,0,0.6,0,0.8c0,0.2,0,0.4,0,0.5c0-0.2,0.1-0.4,0.1-0.6c0-0.3,0.1-0.6,0.1-0.9c0-0.3,0.1-0.6,0.1-1
			c0-0.3,0-0.7-0.1-1c0-0.3-0.1-0.6-0.1-0.9c-0.1-0.3-0.1-0.6-0.2-0.9c-0.1-0.3-0.2-0.5-0.2-0.8c-0.2-0.5-0.3-0.9-0.4-1.1
			c-0.1-0.3-0.1-0.4-0.1-0.4s0.1,0.1,0.2,0.4s0.3,0.6,0.5,1.1c0.1,0.2,0.2,0.5,0.3,0.8c0.1,0.3,0.2,0.6,0.3,0.9
			c0.1,0.3,0.2,0.6,0.2,1c0,0.3,0.1,0.6,0.1,1c0,0.3,0,0.7,0,1s0,0.7,0,1c0,0.3-0.1,0.6-0.1,0.9c0,0.3-0.1,0.6-0.1,0.8
			c-0.1,0.5-0.2,0.9-0.2,1.2c0,0.2-0.1,0.3-0.1,0.4l0,0c0.1-0.1,0.1-0.2,0.2-0.4c0.1-0.1,0.1-0.3,0.2-0.5c0.3-0.8,0.6-2,0.8-3.2
			c0.2-1.2,0.4-2.4,0.4-3.3c0-0.2,0-0.4,0-0.6s-0.1-0.3-0.1-0.5c0-0.1-0.1-0.2-0.1-0.3s0-0.1,0-0.1s0,0,0.1,0.1
			c0,0.1,0.1,0.2,0.1,0.3c0,0.1,0.1,0.3,0.1,0.5c0,0.2,0.1,0.4,0.1,0.6c0.1,0.9,0.2,2.1,0.1,3.4c0,1.2-0.2,2.3-0.3,3.2
			c0.1-0.1,0.1-0.2,0.2-0.3c0.1-0.1,0.1-0.2,0.2-0.4c0.1-0.2,0.2-0.5,0.3-0.8c0.1-0.3,0.2-0.6,0.3-0.9c0.1-0.3,0.2-0.7,0.2-1
			c0.3-1.4,0.4-2.8,0.5-3.8c0.1-1,0.2-1.7,0.2-1.7s0,0.7,0,1.8c0,1,0.1,2.4,0,3.9c0,0.4-0.1,0.7-0.1,1.1c0,0.4-0.1,0.7-0.2,1
			c-0.1,0.3-0.2,0.7-0.3,1c0,0.2-0.1,0.3-0.1,0.4c-0.1,0.1-0.1,0.3-0.2,0.4c-0.1,0.3-0.2,0.5-0.3,0.7c-0.1,0.1-0.1,0.2-0.2,0.3
			c0,0.1-0.1,0.1-0.1,0.2c-0.1,0.1-0.1,0.2-0.2,0.3c0.1,0.1,0.3,0.2,0.4,0.3v-0.1c0.1-0.3,0.3-0.8,0.5-1.4c0.2-0.6,0.5-1.2,0.8-1.9
			s0.6-1.4,0.9-2.2l0.2-0.6c0.1-0.2,0.1-0.4,0.2-0.6c0.1-0.4,0.2-0.7,0.2-1.1c0.1-0.4,0.1-0.7,0.1-1.1c0-0.3,0-0.7,0-1
			s0-0.6-0.1-0.8c0-0.3-0.1-0.5-0.1-0.6c0-0.3-0.1-0.5-0.1-0.5s0,0.2,0.1,0.5c0,0.2,0.1,0.4,0.1,0.6c0,0.2,0.1,0.5,0.1,0.8
			s0.1,0.6,0.1,1c0,0.3,0,0.7,0,1.1c0,0.4-0.1,0.8-0.1,1.2c0,0.2-0.1,0.4-0.1,0.6l0.4,0.2c-0.2,0.8-0.5,1.5-0.8,2.3
			c-0.3,0.7-0.5,1.4-0.7,1.9c-0.2,0.6-0.3,1-0.4,1.4c-0.1,0.2-0.1,0.4-0.1,0.4l0,0c0-0.1,0.1-0.1,0.1-0.2c0.2-0.3,0.4-0.8,0.6-1.3
			c0.3-0.6,0.6-1.2,0.9-1.9c0.1-0.4,0.3-0.7,0.5-1.1c0.1-0.4,0.3-0.8,0.4-1.1c0.3-0.8,0.6-1.5,0.7-2.3c0.2-0.7,0.3-1.4,0.2-2
			c-0.1-0.6-0.2-1.1-0.4-1.4c-0.1-0.3-0.2-0.5-0.2-0.5s0.1,0.2,0.3,0.5c0.2,0.3,0.4,0.8,0.5,1.4c0.1,0.6,0.1,1.4,0,2.1
			c-0.1,0.8-0.4,1.6-0.6,2.3c-0.1,0.4-0.2,0.8-0.3,1.2c-0.1,0.4-0.3,0.8-0.4,1.1c-0.2,0.7-0.5,1.4-0.7,2c-0.2,0.5-0.4,1-0.5,1.3
			l0.1-0.1c0.1-0.1,0.1-0.1,0.2-0.2c0.2-0.2,0.3-0.3,0.5-0.6c0.2-0.2,0.4-0.5,0.6-0.8s0.4-0.6,0.6-0.9c0.2-0.3,0.4-0.7,0.6-1
			c0.2-0.4,0.3-0.7,0.5-1.1l0.2-0.6c0.1-0.2,0.1-0.4,0.2-0.6c0.1-0.4,0.2-0.8,0.3-1.1c0.1-0.4,0.1-0.7,0.2-1.1c0-0.4,0-0.7,0-1
			S42,52.1,42,51.9c-0.1-0.2-0.1-0.5-0.2-0.6c-0.2-0.3-0.2-0.5-0.2-0.5s0.1,0.2,0.3,0.5c0.1,0.2,0.2,0.4,0.3,0.6
			c0.1,0.2,0.2,0.5,0.2,0.8s0.1,0.7,0.1,1c0,0.4,0,0.7,0,1.1c0,0.4-0.1,0.8-0.1,1.2c0,0.2-0.1,0.4-0.1,0.6L42,57.5
			c-0.1,0.4-0.2,0.8-0.3,1.2c-0.1,0.4-0.3,0.8-0.4,1.2c-0.2,0.4-0.3,0.7-0.5,1.1c-0.2,0.3-0.3,0.7-0.5,0.9c-0.2,0.3-0.4,0.5-0.5,0.8
			c-0.1,0.1-0.2,0.2-0.2,0.3c-0.1,0.1-0.1,0.2-0.2,0.2c-0.2,0.2-0.2,0.3-0.3,0.4c0,0,0.1,0,0.1,0.1c0,0,0,0,0.1,0
			c0.1-0.1,0.1-0.1,0.3-0.2c0.3-0.2,0.6-0.6,1-1.1c0.4-0.5,0.8-1.2,1.2-1.9c0.2-0.4,0.4-0.7,0.6-1.1c0.2-0.4,0.3-0.8,0.5-1.2
			c0.2-0.8,0.4-1.7,0.5-2.5s0.2-1.6,0.2-2.2c0.1-0.7,0.1-1.2,0.1-1.6c0-0.4,0.1-0.6,0.1-0.6s0,0.2-0.1,0.6c0,0.4,0,0.9,0,1.6
			c0,0.7,0,1.4-0.1,2.3c-0.1,0.8-0.2,1.7-0.4,2.6c-0.1,0.4-0.2,0.9-0.4,1.3c-0.2,0.4-0.3,0.8-0.5,1.2c-0.4,0.8-0.7,1.4-1.1,2
			c-0.4,0.6-0.7,1-1,1.4c-0.1,0.1-0.2,0.2-0.3,0.3c0,0,0,0,0.1,0.1c0.1-0.1,0.1-0.1,0.3-0.2c0.2-0.2,0.5-0.5,0.9-0.9
			c0.2-0.2,0.4-0.4,0.6-0.6c0.2-0.2,0.4-0.5,0.6-0.7c0.2-0.3,0.4-0.5,0.6-0.8c0.1-0.1,0.2-0.3,0.3-0.4l0.1-0.2l0.1-0.2
			c0.2-0.3,0.3-0.7,0.4-1c0.1-0.3,0.2-0.7,0.3-1c0.1-0.3,0.2-0.6,0.3-0.9c0.1-0.3,0.1-0.6,0.2-0.9c0.1-0.5,0.2-1,0.2-1.3
			c0.1-0.3,0.1-0.5,0.1-0.5s0,0.2-0.1,0.5c0,0.3-0.1,0.8-0.1,1.3c0,0.3-0.1,0.6-0.1,0.9c0,0.3-0.1,0.6-0.2,1c-0.1,0.3-0.2,0.7-0.3,1
			c-0.1,0.4-0.2,0.7-0.4,1l-0.1,0.3l-0.1,0.3c-0.1,0.2-0.2,0.3-0.3,0.5c-0.2,0.3-0.4,0.6-0.6,0.9s-0.4,0.6-0.6,0.8
			c-0.2,0.3-0.4,0.5-0.6,0.7c-0.2,0.2-0.4,0.5-0.5,0.6l0.1-0.1c0.2-0.1,0.4-0.4,0.6-0.6c0.2-0.2,0.4-0.5,0.7-0.8
			c0.2-0.3,0.5-0.6,0.7-0.9c0.5-0.6,0.9-1.4,1.3-2.1c0.2-0.4,0.4-0.8,0.5-1.2c0.2-0.4,0.3-0.8,0.4-1.2c0.1-0.4,0.2-0.8,0.3-1.1
			c0-0.4,0.1-0.7,0.1-1s0-0.6,0-0.9c0-0.3,0-0.5-0.1-0.7c-0.1-0.4-0.2-0.6-0.2-0.6s0.1,0.2,0.3,0.5c0.1,0.2,0.1,0.4,0.2,0.7
			c0.1,0.3,0.1,0.6,0.2,0.9c0,0.3,0,0.7,0,1.1c0,0.4,0,0.8-0.1,1.2s-0.1,0.8-0.3,1.3c-0.1,0.4-0.2,0.9-0.4,1.3
			c-0.3,0.9-0.6,1.7-1,2.5c-0.2,0.4-0.4,0.7-0.6,1.1c-0.2,0.3-0.4,0.7-0.6,0.9c-0.2,0.3-0.4,0.5-0.6,0.8c-0.2,0.2-0.4,0.5-0.5,0.6
			c-0.2,0.2-0.3,0.3-0.3,0.3l0,0c0.1-0.1,0.2-0.1,0.4-0.3c0.2-0.1,0.3-0.2,0.5-0.4c0.2-0.2,0.4-0.4,0.6-0.6c0.4-0.4,0.9-1,1.4-1.6
			c0.3-0.3,0.5-0.6,0.8-0.9c0.2-0.3,0.5-0.7,0.7-1c0.1-0.2,0.2-0.4,0.3-0.5c0.1-0.2,0.2-0.4,0.2-0.6c0.2-0.4,0.2-0.8,0.3-1.1
			c0-0.2,0-0.4,0.1-0.6c0-0.2,0-0.4,0-0.6c0-0.4-0.1-0.7-0.1-1c-0.1-0.6-0.2-1.1-0.3-1.5s-0.1-0.6-0.1-0.6s0.1,0.2,0.2,0.6
			c0.1,0.4,0.3,0.9,0.4,1.5c0.1,0.3,0.2,0.7,0.2,1c0,0.2,0,0.4,0,0.6s0,0.4,0,0.6c0,0.4-0.1,0.8-0.2,1.2c-0.1,0.2-0.1,0.4-0.2,0.6
			c-0.1,0.2-0.2,0.4-0.3,0.6c-0.2,0.4-0.4,0.8-0.6,1.1c-0.1,0.2-0.2,0.3-0.4,0.5l-0.2,0.3l-0.2,0.2c-0.5,0.6-0.9,1.3-1.3,1.8
			c-0.2,0.3-0.4,0.5-0.6,0.7c-0.2,0.2-0.4,0.4-0.5,0.5c-0.2,0.2-0.3,0.2-0.4,0.3c0.1,0.1,0.2,0.3,0.3,0.4c0,0,0.1,0,0.1-0.1
			c0.1-0.1,0.2-0.2,0.4-0.3c0.2-0.1,0.3-0.3,0.5-0.4c0.2-0.2,0.4-0.3,0.6-0.5s0.4-0.4,0.6-0.7c0.2-0.2,0.4-0.5,0.6-0.7
			c0.2-0.3,0.4-0.5,0.6-0.8c0.2-0.3,0.4-0.6,0.5-0.8c0.2-0.3,0.3-0.6,0.4-0.8c0.1-0.3,0.2-0.6,0.4-0.8c0.1-0.3,0.2-0.5,0.3-0.8
			c0.1-0.5,0.2-0.9,0.3-1.2c0-0.1,0.1-0.3,0.1-0.3c0-0.1,0-0.1,0-0.1s0,0,0,0.1c0,0.1,0,0.2,0,0.3c0,0.3-0.1,0.7-0.2,1.2
			c0,0.2-0.1,0.5-0.2,0.8s-0.2,0.6-0.3,0.9c-0.1,0.3-0.2,0.6-0.4,0.9c-0.1,0.3-0.3,0.6-0.4,0.9c-0.2,0.3-0.3,0.6-0.5,0.9
			c-0.2,0.3-0.4,0.6-0.5,0.8c-0.2,0.3-0.4,0.5-0.6,0.7s-0.4,0.4-0.5,0.6c-0.2,0.2-0.3,0.4-0.5,0.5c-0.1,0.1-0.3,0.3-0.4,0.4
			c-0.1,0.1-0.1,0.1-0.2,0.2c0.1,0.1,0.2,0.3,0.3,0.5c0.1,0,0.2-0.1,0.4-0.2c0,0,0.1,0,0.1-0.1c0,0,0.1,0,0.1-0.1
			c0.1-0.1,0.1-0.1,0.2-0.2c0.2-0.1,0.4-0.3,0.6-0.5s0.4-0.5,0.6-0.7c0.2-0.3,0.4-0.6,0.6-0.9c0.1-0.2,0.2-0.3,0.3-0.5
			s0.2-0.4,0.3-0.5c0.2-0.4,0.3-0.7,0.5-1.1c0.1-0.4,0.3-0.8,0.4-1.2c0.1-0.4,0.2-0.8,0.3-1.2s0.2-0.8,0.2-1.1c0-0.4,0.1-0.7,0.1-1
			c0-0.3,0.1-0.6,0-0.9c0-0.3,0-0.5,0-0.7c0-0.4-0.1-0.6-0.1-0.6s0.1,0.2,0.1,0.6c0.1,0.2,0.1,0.4,0.1,0.7c0.1,0.3,0.1,0.6,0.1,0.9
			s0,0.7,0,1.1c0,0.4,0,0.8-0.1,1.2c0,0.4-0.1,0.8-0.2,1.3c-0.1,0.4-0.2,0.9-0.3,1.3c-0.1,0.4-0.2,0.9-0.4,1.3
			c-0.1,0.2-0.1,0.4-0.2,0.6c-0.1,0.2-0.2,0.4-0.3,0.6c-0.2,0.4-0.4,0.8-0.6,1.1c-0.2,0.3-0.4,0.7-0.6,1c-0.2,0.3-0.4,0.5-0.7,0.8
			c-0.1,0.1-0.2,0.2-0.3,0.3c-0.1,0-0.1,0.1-0.2,0.1l-0.1,0.1c-0.2,0.1-0.3,0.2-0.4,0.3v0.1h0.1c0.1,0,0.1-0.1,0.2-0.1
			c0.2-0.1,0.4-0.2,0.7-0.4c0.2-0.2,0.5-0.4,0.8-0.6c0.6-0.5,1.2-1.2,1.7-2.1c0.3-0.4,0.5-0.9,0.8-1.3c0.1-0.2,0.3-0.5,0.4-0.7
			c0.1-0.2,0.2-0.5,0.3-0.7c0.2-0.5,0.3-1,0.4-1.5c0.1-0.5,0.1-1,0.1-1.6c0-1-0.1-2-0.2-2.8s-0.1-1.5-0.1-2c0-0.5,0-0.8,0-0.8
			s0,0.3,0,0.8c0,0.5,0.1,1.2,0.2,2c0.1,0.8,0.3,1.8,0.4,2.8c0,0.5,0.1,1.1,0.1,1.6c0,0.6-0.1,1.1-0.3,1.7c-0.1,0.3-0.2,0.5-0.3,0.8
			c-0.1,0.3-0.2,0.5-0.3,0.8c-0.2,0.5-0.5,1-0.7,1.5c-0.5,0.9-1.1,1.8-1.7,2.4c-0.3,0.3-0.6,0.6-0.9,0.8c-0.1,0.1-0.2,0.2-0.4,0.3
			c0.1-0.1,0.3-0.1,0.4-0.2c0.3-0.2,0.6-0.4,0.9-0.6c0.3-0.3,0.6-0.6,1-0.9c0.3-0.3,0.7-0.7,1.1-1.1c0.3-0.4,0.7-0.8,1-1.3
			c0.2-0.2,0.3-0.4,0.5-0.7l0,0l0,0l0,0l0,0v-0.1l0.1-0.2l0.2-0.4l0.2-0.4l0.1-0.4c0.1-0.3,0.2-0.5,0.3-0.8c0.1-0.3,0.1-0.5,0.2-0.8
			c0-0.1,0.1-0.3,0.1-0.4c0-0.1,0-0.3,0.1-0.4c0-0.3,0.1-0.5,0.1-0.8s0-0.5,0.1-0.8c0.1-0.5,0-1,0-1.4s-0.1-0.8-0.1-1.2
			c0-0.2,0-0.3-0.1-0.5c0-0.2-0.1-0.3-0.1-0.4c-0.1-0.5-0.2-0.8-0.2-0.8s0.1,0.3,0.2,0.8c0,0.1,0.1,0.3,0.1,0.4
			c0,0.2,0.1,0.3,0.1,0.5c0.1,0.3,0.2,0.7,0.2,1.2c0.1,0.4,0.1,0.9,0.1,1.4c0,0.3,0,0.5,0,0.8s0,0.5,0,0.8c0,0.1,0,0.3,0,0.4
			c0,0.1,0,0.3-0.1,0.4c0,0.3-0.1,0.6-0.1,0.9c-0.1,0.3-0.2,0.6-0.2,0.9l0.5-0.2L52,66.3l-0.2,0.4v0.2V67v0.1l0,0l0,0v0.1l0,0
			c-0.2,0.3-0.3,0.5-0.5,0.8c-0.3,0.5-0.6,1-1,1.4c-0.3,0.4-0.6,0.7-0.8,1.1c0.5-0.5,1.1-1,1.6-1.5c0.2-0.2,0.3-0.3,0.5-0.5
			c0.2-0.2,0.3-0.3,0.5-0.5c0.3-0.3,0.5-0.7,0.8-1.1c0.4-0.7,0.8-1.5,1-2.1c0.2-0.7,0.3-1.2,0.4-1.6c0-0.2,0-0.4,0.1-0.5
			c0-0.1,0-0.2,0-0.2s0,0.1,0,0.2s0,0.3,0,0.5c0,0.4-0.1,1-0.3,1.7c-0.2,0.7-0.4,1.5-0.9,2.2c-0.2,0.4-0.5,0.8-0.7,1.2
			c-0.3,0.4-0.6,0.7-0.9,1c-0.6,0.7-1.3,1.3-1.9,2c0.2-0.1,0.4-0.3,0.6-0.4c0.4-0.3,0.8-0.6,1.2-0.9s0.9-0.5,1.3-0.8
			c0.4-0.3,0.8-0.6,1.2-0.9s0.7-0.7,1-1.1c0.3-0.4,0.5-0.8,0.7-1.2c0.2-0.4,0.3-0.8,0.4-1.2c0.1-0.4,0.1-0.7,0.1-1.1
			c0-0.3,0-0.6-0.1-0.8c0-0.2-0.1-0.4-0.1-0.5c0-0.1,0-0.2,0-0.2s0,0.1,0.1,0.2c0,0.1,0.1,0.3,0.1,0.5c0,0.2,0.1,0.5,0.1,0.8
			c0,0.3,0,0.7,0,1.1S56.1,65.6,56,66c-0.2,0.4-0.4,0.9-0.6,1.3c-0.3,0.4-0.6,0.8-1,1.2c-0.4,0.4-0.8,0.7-1.2,1
			c-0.4,0.3-0.9,0.6-1.3,0.9c-0.4,0.3-0.8,0.6-1.2,0.9c-0.7,0.6-1.4,1.2-2,1.8c-0.3,0.3-0.6,0.5-0.9,0.7c0.2-0.1,0.5-0.2,0.8-0.3
			c1.3-0.5,3.1-1.2,4.8-2.2c0.8-0.5,1.6-1,2.3-1.6s1.3-1.2,1.6-1.8c0.2-0.3,0.3-0.6,0.4-0.9c0.1-0.3,0.2-0.5,0.2-0.7
			c0.1-0.2,0.1-0.4,0.1-0.5c0-0.1,0-0.2,0-0.2s0,0.1,0,0.2c0,0.1,0,0.3,0,0.5c0,0.2,0,0.5-0.1,0.8c-0.1,0.3-0.2,0.6-0.3,1
			c-0.3,0.7-0.8,1.4-1.5,2.1c-0.6,0.7-1.4,1.3-2.2,1.9c-1.6,1.2-3.3,2.2-4.7,2.9c-0.2,0.1-0.3,0.2-0.5,0.2c0.2-0.1,0.4-0.2,0.7-0.3
			c0.4-0.2,0.8-0.3,1.2-0.5c0.4-0.1,0.9-0.3,1.3-0.5c0.9-0.3,1.9-0.7,2.8-1.2s1.8-1,2.5-1.7c0.7-0.6,1.3-1.4,1.7-2
			c0.4-0.7,0.7-1.3,1-1.6c0.1-0.2,0.3-0.3,0.4-0.4c0.1-0.1,0.1-0.1,0.1-0.1s0,0.1-0.1,0.1c-0.1,0.1-0.2,0.2-0.3,0.4
			c-0.3,0.4-0.5,1-0.9,1.7c-0.4,0.7-0.9,1.5-1.6,2.2c-0.7,0.7-1.6,1.4-2.5,2c-0.9,0.6-1.9,1.1-2.8,1.5c-0.5,0.2-0.9,0.4-1.3,0.6
			c-0.4,0.2-0.8,0.4-1.1,0.5c-0.3,0.2-0.7,0.3-1,0.5c-0.1,0.1-0.2,0.1-0.3,0.2c0.1,0,0.2,0,0.3-0.1c0.3-0.1,0.7-0.2,1-0.3
			c0.7-0.2,1.6-0.4,2.5-0.6c0.5-0.1,0.9-0.2,1.4-0.3s0.9-0.3,1.4-0.4c0.5-0.2,0.9-0.3,1.3-0.5c0.2-0.1,0.4-0.2,0.6-0.3
			c0.2-0.1,0.4-0.2,0.6-0.4c0.2-0.1,0.4-0.3,0.5-0.4c0.2-0.1,0.3-0.3,0.5-0.4c0.3-0.3,0.6-0.6,0.8-0.9c0.3-0.3,0.4-0.6,0.6-0.8
			s0.3-0.5,0.4-0.7c0.2-0.4,0.3-0.6,0.3-0.6s-0.1,0.2-0.2,0.6c-0.1,0.2-0.2,0.5-0.3,0.7c-0.1,0.3-0.3,0.6-0.5,0.9s-0.4,0.7-0.7,1
			c-0.1,0.2-0.3,0.3-0.4,0.5c-0.2,0.2-0.3,0.3-0.5,0.5c-0.2,0.2-0.4,0.3-0.6,0.5s-0.4,0.3-0.6,0.4c-0.4,0.3-0.9,0.5-1.3,0.7
			c-0.5,0.2-0.9,0.4-1.4,0.6c-0.5,0.2-0.9,0.3-1.4,0.5c-0.9,0.3-1.7,0.6-2.4,0.9c-0.4,0.1-0.6,0.2-0.9,0.4c-0.3,0.1-0.5,0.2-0.7,0.3
			c0,0,0,0-0.1,0h0.1c0.2,0,0.4-0.1,0.7-0.2c0.3-0.1,0.6-0.1,0.9-0.2c0.7-0.2,1.5-0.4,2.3-0.7c0.8-0.3,1.7-0.6,2.6-1
			c0.4-0.2,0.9-0.4,1.3-0.6c0.4-0.2,0.8-0.5,1.2-0.7c0.7-0.5,1.4-1,2-1.4c0.6-0.4,1.1-0.8,1.4-1.1c0.3-0.2,0.5-0.4,0.5-0.4
			s-0.2,0.2-0.5,0.4c-0.3,0.3-0.8,0.7-1.3,1.1c-0.5,0.5-1.2,1-1.9,1.6c-0.4,0.3-0.7,0.5-1.1,0.8s-0.8,0.5-1.3,0.7
			c-0.9,0.4-1.7,0.9-2.6,1.2c-0.8,0.4-1.6,0.7-2.3,0.9c-0.2,0.1-0.3,0.1-0.4,0.1c0.1,0,0.3-0.1,0.5-0.1c0.4-0.1,0.8-0.2,1.3-0.3
			c0.5-0.1,0.9-0.3,1.4-0.4c0.5-0.2,1-0.3,1.5-0.5c0.5-0.2,1-0.3,1.5-0.6c0.5-0.2,1-0.5,1.4-0.7c0.4-0.3,0.9-0.6,1.3-0.8
			c0.4-0.3,0.8-0.6,1.2-0.9s0.7-0.6,1-0.8c1.2-1.1,2-1.9,2-1.9s-0.7,0.8-1.8,2.1c-0.3,0.3-0.6,0.6-1,0.9c-0.3,0.3-0.7,0.7-1.1,1
			s-0.8,0.7-1.3,1s-0.9,0.6-1.4,0.9c-0.5,0.3-1,0.5-1.5,0.8c-0.5,0.3-1,0.5-1.5,0.7s-0.9,0.4-1.4,0.6c-0.4,0.2-0.9,0.3-1.2,0.5
			c-0.8,0.3-1.5,0.6-1.9,0.8c0.2,0,0.3,0,0.5,0c0.2,0,0.5-0.1,0.8-0.1c0.3-0.1,0.7-0.2,1-0.3c0.4-0.1,0.7-0.2,1.1-0.4
			c0.8-0.3,1.6-0.6,2.4-1c1.6-0.8,3.2-1.7,4.4-2.3c1.2-0.6,2-1,2-1s-0.8,0.5-1.9,1.2c-1.1,0.8-2.6,1.8-4.2,2.8
			c-0.8,0.5-1.6,0.9-2.4,1.3c-0.3,0.2-0.6,0.3-1,0.4c0.5-0.1,1-0.3,1.6-0.4c0.9-0.3,1.9-0.6,2.8-0.9c0.5-0.2,1-0.3,1.4-0.5
			c0.5-0.2,0.9-0.4,1.3-0.6c0.4-0.2,0.8-0.4,1.2-0.7c0.2-0.1,0.4-0.2,0.5-0.4c0.2-0.1,0.3-0.2,0.5-0.4c0.1-0.1,0.3-0.2,0.4-0.3
			c0.1-0.1,0.2-0.2,0.4-0.3c0.2-0.2,0.4-0.4,0.6-0.6c0.3-0.3,0.5-0.5,0.5-0.5s-0.1,0.2-0.4,0.6c-0.1,0.2-0.3,0.4-0.5,0.6
			c-0.1,0.1-0.2,0.3-0.3,0.4c-0.1,0.1-0.2,0.3-0.4,0.4c-0.1,0.1-0.3,0.3-0.4,0.4c-0.2,0.1-0.3,0.3-0.5,0.4c-0.3,0.3-0.7,0.6-1.1,0.9
			c-0.4,0.3-0.8,0.6-1.3,0.8c-0.4,0.3-0.9,0.5-1.4,0.7c-0.9,0.5-1.9,0.9-2.8,1.3c-0.9,0.4-1.7,0.7-2.4,1C51,84,50.4,84.2,50,84.4
			c-0.1,0-0.2,0.1-0.3,0.1c0,0,0,0,0,0.1l0,0c0.2-0.1,0.4-0.2,0.6-0.2c0.2-0.1,0.5-0.2,0.8-0.3c0.6-0.2,1.3-0.4,2-0.5
			c0.7-0.2,1.5-0.3,2.3-0.6c0.4-0.1,0.7-0.2,1.1-0.4c0.3-0.2,0.7-0.3,1-0.5c0.3-0.2,0.6-0.4,0.9-0.5c0.3-0.2,0.5-0.4,0.8-0.6
			c0.2-0.2,0.4-0.4,0.6-0.5c0.2-0.2,0.3-0.3,0.5-0.4c0.2-0.2,0.4-0.4,0.4-0.4s-0.1,0.2-0.4,0.4c-0.1,0.1-0.2,0.3-0.4,0.5
			c-0.2,0.2-0.4,0.4-0.6,0.6c-0.2,0.2-0.5,0.4-0.7,0.6c-0.3,0.2-0.6,0.5-0.9,0.7c-0.3,0.2-0.7,0.4-1,0.6c-0.4,0.2-0.7,0.3-1.1,0.5
			c-0.8,0.3-1.5,0.5-2.2,0.8c-0.7,0.2-1.4,0.5-1.9,0.7c-0.3,0.1-0.5,0.2-0.7,0.3c-0.1,0-0.1,0.1-0.2,0.1l0,0c0.1,0,0.2,0,0.4,0
			c0.1,0,0.3,0,0.4,0c0.3,0,0.6,0,1-0.1c0.2,0,0.4-0.1,0.6-0.1c0.2,0,0.4-0.1,0.6-0.2c0.2-0.1,0.4-0.1,0.6-0.2
			c0.2-0.1,0.4-0.2,0.7-0.2c0.4-0.2,0.9-0.4,1.4-0.6c0.5-0.2,0.9-0.5,1.4-0.8c0.4-0.3,0.9-0.6,1.3-0.9c0.4-0.3,0.8-0.6,1.2-0.9
			c0.8-0.6,1.5-1.2,2.1-1.7c1.2-1,2.1-1.7,2.1-1.7s-0.7,0.8-1.9,1.9c-0.5,0.6-1.2,1.3-1.9,2c-0.4,0.4-0.7,0.7-1.1,1.1
			c-0.4,0.4-0.8,0.7-1.2,1.1c-0.4,0.3-0.9,0.7-1.3,1c-0.5,0.3-0.9,0.6-1.4,0.8c-0.2,0.1-0.5,0.2-0.7,0.3c-0.2,0.1-0.5,0.2-0.7,0.3
			c-0.1,0.2-0.2,0.3-0.2,0.3c1.2-0.3,2.6-0.7,4-1.1c1.9-0.6,3.9-1.3,5.2-1.9c0.3-0.2,0.7-0.3,0.9-0.5c0.3-0.1,0.5-0.3,0.7-0.4
			c0.2-0.1,0.3-0.2,0.4-0.3s0.1-0.1,0.1-0.1s0,0-0.1,0.1c-0.1,0.1-0.2,0.2-0.4,0.4c-0.2,0.1-0.4,0.3-0.7,0.5
			c-0.3,0.2-0.6,0.3-0.9,0.5c-1.3,0.8-3.2,1.6-5.1,2.4c-1.9,0.8-3.8,1.5-5.3,2c-0.6,0.2-1.2,0.4-1.6,0.5c0.2,0,0.5-0.1,0.9-0.1
			c0.4-0.1,0.7-0.1,1.1-0.2c0.4-0.1,0.9-0.2,1.3-0.3c0.5-0.1,1-0.3,1.5-0.4c0.5-0.2,1.1-0.3,1.6-0.5c0.5-0.2,1.1-0.4,1.6-0.6
			c0.5-0.2,1.1-0.4,1.6-0.6c0.5-0.2,1.1-0.4,1.6-0.6c0.7-0.3,1.4-0.6,2-0.9l30.3-49.6c0.1-1.1,0.3-2.2,0.6-3.4
			C95.3,31.5,95.4,31.2,95.4,31z"/>
		<path id="XMLID_178_" class="st0" d="M44.9,80.7c0.1,0,0.1,0,0.2,0.1c-0.2-0.1-0.3-0.2-0.5-0.3c-0.6-0.4-1.2-0.8-1.8-1.2
			c-0.6-0.4-1.2-0.8-1.8-1.1c-0.6-0.3-1.2-0.6-1.7-0.8c-0.1,0-0.3-0.1-0.4-0.1l0.9,1.6c0.9,0.4,1.8,0.7,2.7,1.1
			C43.3,80.2,44.2,80.5,44.9,80.7z"/>
		<path id="XMLID_179_" class="st0" d="M35.3,61.1c-0.1,0-0.2,0-0.3,0c-0.1,0-0.2,0-0.3,0c-0.2,0-0.5,0-0.8-0.1
			c-0.1,0-0.3,0-0.4-0.1c-0.1,0-0.3-0.1-0.5-0.1c-0.3-0.1-0.6-0.2-1-0.3c-0.3-0.1-0.7-0.2-1-0.4c-0.1,0-0.2-0.1-0.3-0.1
			c0,0,0.1,0,0.1,0.1c0.3,0.2,0.6,0.5,1,0.6c0.4,0.2,0.8,0.3,1.3,0.4c0.5,0.1,0.9,0.2,1.3,0.3c0.4,0.1,0.8,0.1,1.2,0.1
			c0.2,0,0.3,0,0.5,0h0.1l0,0c-0.2-0.2-0.5-0.4-0.7-0.6C35.5,61.1,35.4,61.1,35.3,61.1z"/>
		<path id="XMLID_180_" class="st0" d="M41.9,82c-0.1-0.1-0.2-0.1-0.3-0.2L41.9,82c0.3,0.3,0.7,0.5,1,0.7c0.4,0.2,0.8,0.5,1.2,0.7
			s0.8,0.4,1.2,0.5c0.4,0.2,0.8,0.3,1.2,0.4c0.4,0.1,0.7,0.2,1.1,0.3c0.4,0.1,0.8,0.2,1.1,0.2h-0.1c-0.3-0.1-0.8-0.3-1.4-0.5
			c-1.2-0.4-2.7-1-4.1-1.7C42.6,82.3,42.3,82.2,41.9,82z"/>
		<path id="XMLID_181_" class="st0" d="M55.4,98.2c-0.3-0.1-0.6-0.1-0.8-0.1c0.1,0.1,0.2,0.2,0.4,0.3c0.2,0.2,0.4,0.5,0.6,0.8
			l0.5-0.9C55.9,98.3,55.6,98.3,55.4,98.2z"/>
		<path id="XMLID_182_" class="st0" d="M55,96.7c-0.1,0-0.1,0-0.2,0c0.3,0.1,0.6,0.1,0.8,0.2c0.3,0.1,0.7,0.2,1,0.4l0.3-0.4
			c-0.1,0-0.3,0-0.4,0C56.1,96.8,55.5,96.8,55,96.7z"/>
		<path id="XMLID_183_" class="st0" d="M38.2,75.9l0.7,1.1c0.2,0,0.4,0.1,0.6,0.1c0.5,0.1,1.2,0.4,1.8,0.6c0.7,0.3,1.3,0.6,2,0.9
			c0.7,0.3,1.3,0.6,2,0.9c0.3,0.1,0.6,0.3,0.9,0.4c0.3,0.1,0.6,0.2,0.8,0.3c0.1,0,0.1,0,0.2,0.1c-0.2-0.1-0.5-0.3-0.8-0.5
			c-1-0.6-2.3-1.3-3.6-2c-1.3-0.7-2.7-1.3-3.7-1.7C38.7,76,38.4,76,38.2,75.9z"/>
		<path id="XMLID_184_" class="st0" d="M61.3,86.9c-0.5,0.3-1,0.5-1.6,0.8c-0.5,0.3-1.1,0.5-1.6,0.7c-0.5,0.3-1.1,0.5-1.6,0.7
			c-0.5,0.2-1,0.4-1.5,0.6c-0.5,0.2-1,0.3-1.4,0.5s-0.8,0.3-1.2,0.4c-0.3,0.1-0.6,0.1-0.8,0.2l0,0c0.3,0,0.6-0.1,1-0.1
			c0.4-0.1,0.8-0.1,1.2-0.2s0.8-0.2,1.3-0.3c0.4-0.1,0.9-0.3,1.4-0.4c0.5-0.2,0.9-0.3,1.4-0.5c1.9-0.7,3.7-1.5,5-2.2
			c0.1,0,0.1-0.1,0.2-0.1l0.9-1.5c-0.4,0.2-0.8,0.5-1.3,0.7C62.3,86.3,61.8,86.6,61.3,86.9z"/>
		<path id="XMLID_185_" class="st0" d="M59.4,91.6c-0.3,0.1-0.6,0.2-0.9,0.3c-0.3,0.1-0.6,0.2-0.9,0.3c-0.6,0.2-1.2,0.3-1.7,0.4
			c-0.6,0.1-1.1,0.2-1.6,0.3c-0.8,0.1-1.5,0.3-2,0.4c0.4,0,0.9,0,1.4-0.1c1.6-0.1,3.7,0,5.7-0.1l1.2-1.9l-0.2,0.1
			C60,91.4,59.7,91.5,59.4,91.6z"/>
		<path id="XMLID_186_" class="st0" d="M58.2,89.6c-0.5,0.2-0.9,0.4-1.4,0.6c-0.5,0.2-0.9,0.4-1.4,0.5c-0.5,0.1-0.9,0.3-1.3,0.4
			c-0.2,0.1-0.4,0.1-0.6,0.2c0.2,0,0.4,0,0.6,0c0.5,0,1-0.1,1.5-0.1c0.5-0.1,1.1-0.1,1.7-0.2c0.3,0,0.6-0.1,0.9-0.2
			c0.3-0.1,0.6-0.1,0.9-0.2c0.3-0.1,0.6-0.2,0.9-0.3l0.9-0.3c0.2-0.1,0.4-0.2,0.6-0.2l1.6-2.6l0,0C61.7,87.8,60,88.7,58.2,89.6z"/>
		<path id="XMLID_187_" class="st0" d="M41.2,80.8c0.3,0.1,0.7,0.3,1.1,0.4c0.4,0.1,0.7,0.3,1.1,0.4c1.1,0.3,2.2,0.6,3.1,0.8
			c-0.2-0.1-0.5-0.3-0.8-0.4c-0.3-0.2-0.7-0.3-1.1-0.5c-0.8-0.3-1.6-0.7-2.4-1.1c-0.7-0.4-1.4-0.7-2.1-1.1l0.8,1.4
			C41,80.8,41.1,80.8,41.2,80.8z"/>
		<path id="XMLID_188_" class="st0" d="M56.3,95.3c-0.2,0-0.4,0-0.6,0c0.4,0.1,0.7,0.1,1.1,0.2c0.3,0.1,0.6,0.1,0.9,0.2l0.2-0.4
			C57.4,95.3,56.9,95.3,56.3,95.3z"/>
		<path id="XMLID_189_" class="st0" d="M75.4,52.3C75.4,52.3,75.4,52.2,75.4,52.3C75.4,52.2,75.4,52.3,75.4,52.3z"/>
		<path id="XMLID_190_" class="st0" d="M10.9,30.2L10.9,30.2L10.9,30.2L10.9,30.2z"/>
		<path id="XMLID_191_" class="st0" d="M13,33.6L13,33.6L13,33.6L13,33.6z"/>
		<path id="XMLID_192_" class="st0" d="M13.4,28.4c-0.1-0.1-0.2-0.2-0.3-0.2c-0.1-0.1-0.3-0.2-0.5-0.3c-0.4-0.2-0.8-0.4-1.4-0.5
			c-0.3-0.1-0.5-0.1-0.8-0.2s-0.6-0.1-0.9-0.1c-0.1,0-0.3,0-0.4,0l0.4,0.6c0.2,0,0.3,0.1,0.5,0.1c0.3,0.1,0.6,0.1,0.8,0.2
			c0.3,0.1,0.5,0.1,0.8,0.2c0.2,0,0.5,0.1,0.7,0.1c0.7,0.1,1.2,0.2,1.4,0.2C13.5,28.5,13.5,28.5,13.4,28.4z"/>
		<path id="XMLID_193_" class="st0" d="M11.3,29c-0.2-0.1-0.5-0.2-0.8-0.3c-0.2-0.1-0.4-0.2-0.6-0.2l0.2,0.4l0,0
			c0.6,0.2,1.1,0.3,1.5,0.5c0.2,0.1,0.4,0.1,0.6,0.2c0.2,0.1,0.3,0.1,0.4,0.1c0.1,0,0.2,0,0.2,0.1c0-0.1,0.1-0.1,0.1-0.2
			c-0.3-0.1-0.6-0.2-1-0.3C11.8,29.2,11.5,29.1,11.3,29z"/>
		<path id="XMLID_194_" class="st0" d="M12.3,31.9c-0.1,0.1-0.1,0.2-0.2,0.3l0.4,0.6c0-0.2,0-0.5-0.1-0.7
			C12.4,32,12.3,31.9,12.3,31.9z"/>
		<path id="XMLID_195_" class="st0" d="M10.5,25.8c0.3,0,0.7,0,1,0c0.2,0,0.4,0,0.6,0.1c-0.2,0-0.4-0.1-0.6-0.1
			c-0.4-0.1-0.7-0.1-1.1-0.2c-0.4-0.1-0.8-0.1-1.1-0.1s-0.7,0-1.1,0l0.3,0.6c0.3-0.1,0.7-0.1,1-0.2C9.8,25.9,10.1,25.8,10.5,25.8z"
			/>
		<path id="XMLID_196_" class="st0" d="M17.3,23.9c0,0.1,0,0.2,0,0.3s0,0.2,0,0.3c0,0.1,0,0.3,0,0.4c0,0.3,0,0.6-0.1,0.9
			c0,0.2-0.1,0.3-0.1,0.5S17,26.6,17,26.8c-0.1,0.4-0.2,0.7-0.3,1.1c-0.1,0.4-0.3,0.8-0.5,1.1c-0.1,0.1-0.1,0.2-0.2,0.3l0.1-0.1
			c0.3-0.3,0.6-0.7,0.8-1.1c0.2-0.4,0.4-1,0.6-1.5c0.2-0.5,0.3-1,0.4-1.5c0.1-0.5,0.1-1,0.1-1.4c0-0.2,0-0.4,0-0.5v-0.1l0,0
			C17.7,23.4,17.5,23.6,17.3,23.9z"/>
		<path id="XMLID_197_" class="st0" d="M12.2,13c0.3,0,0.7,0.1,1,0.2c0.4,0.1,0.8,0.1,1.1,0.2c0.4,0.1,0.8,0.2,1.2,0.3
			c0.4,0.1,0.8,0.3,1.2,0.5l0.3,0.1l0.3,0.2c0.2,0.1,0.4,0.2,0.6,0.3c0.4,0.2,0.7,0.5,1.1,0.7c0.3,0.2,0.6,0.5,0.9,0.7
			s0.6,0.5,0.8,0.7c0.3,0.2,0.5,0.5,0.7,0.7l-0.1-0.1c-0.2-0.2-0.4-0.4-0.7-0.7c-0.2-0.3-0.6-0.5-0.9-0.8s-0.7-0.5-1-0.8
			c-0.7-0.6-1.6-1.1-2.4-1.6c-0.4-0.2-0.9-0.5-1.3-0.6c-0.1,0-0.2-0.1-0.3-0.1h-4.4c0.1,0,0.2,0,0.3,0.1
			C11.1,12.9,11.6,12.9,12.2,13z"/>
		<path id="XMLID_198_" class="st0" d="M20.9,14.5c0.4,0.3,0.7,0.5,1.1,0.7c0.3,0.3,0.6,0.5,0.9,0.7c0.3,0.2,0.5,0.5,0.7,0.6
			c0.2,0.2,0.3,0.3,0.4,0.4l0,0c-0.1-0.1-0.2-0.2-0.3-0.5c-0.1-0.2-0.3-0.4-0.4-0.6c-0.2-0.2-0.4-0.5-0.6-0.7
			c-0.5-0.5-1.1-1.1-1.8-1.7c-0.3-0.2-0.6-0.5-0.9-0.7h-2.3c0.7,0.3,1.4,0.6,2.1,1C20.1,14,20.5,14.2,20.9,14.5z"/>
		<path id="XMLID_199_" class="st0" d="M12.9,31.1c0,0.1,0.1,0.2,0.1,0.3c0,0.1,0.1,0.3,0.1,0.5c0.1,0.3,0.1,0.7,0,1.1v-0.1
			c0.1-0.5,0.1-0.9,0.2-1.3c0.1-0.4,0.1-0.8,0-1.1c0-0.2,0-0.3-0.1-0.4c-0.2,0.3-0.3,0.5-0.4,0.8C12.8,31,12.9,31,12.9,31.1z"/>
		<path id="XMLID_200_" class="st0" d="M74.5,55.5L74.5,55.5L74.5,55.5L74.5,55.5z"/>
		<path id="XMLID_201_" class="st0" d="M98.2,29c0.1-0.4,0.2-0.7,0.3-1.1c0.1-0.3,0.1-0.7,0.2-0.9c0-0.1,0-0.2,0-0.2
			c-0.1,0.3-0.3,0.6-0.5,1c-0.5,1.2-1.2,2.7-1.8,4.3c0,0.1-0.1,0.2-0.1,0.3l1.6-2.6C98.1,29.4,98.2,29.2,98.2,29z"/>
		<path id="XMLID_202_" class="st0" d="M10.4,19.9c-0.2-0.1-0.4-0.1-0.7-0.2c-0.4-0.1-0.9-0.2-1.3-0.3c-0.4-0.1-0.8-0.1-1.2-0.2
			c-0.4,0-0.8,0-1.1,0c-0.4,0-0.7,0-1,0c-0.2,0-0.4,0-0.6,0.1l1.2,1.9c0.2,0,0.4,0,0.6,0c1.2,0,2.9,0,4.5,0.1c0.4,0,0.8,0.1,1.2,0.2
			c0.4,0.1,0.8,0.2,1.2,0.2c0.4,0.1,0.8,0.2,1.1,0.3c0.2,0.1,0.3,0.1,0.5,0.2s0.3,0.1,0.5,0.2c0.3,0.1,0.6,0.3,0.8,0.4
			c0.1,0.1,0.2,0.1,0.3,0.2c0.1,0.1,0.2,0.1,0.2,0.2c0.1,0.1,0.3,0.2,0.3,0.2c0.1-0.1,0.2-0.3,0.3-0.4C17,23,17,23,17,22.9
			c-0.4-0.1-0.9-0.4-1.6-0.7c-0.6-0.3-1.4-0.7-2.2-1.1c-0.8-0.4-1.6-0.8-2.5-1.1L10.4,19.9z"/>
		<path id="XMLID_203_" class="st0" d="M54.7,100.3c-0.3-0.3-0.5-0.6-0.8-0.8c-0.3-0.2-0.5-0.4-0.8-0.5c-0.2-0.1-0.4-0.1-0.6-0.2
			c-0.2,0-0.4,0-0.4,0s-0.1,0-0.2,0l1.9,3.2L54.7,100.3C54.8,100.4,54.7,100.4,54.7,100.3z"/>
		<path id="XMLID_204_" class="st0" d="M13.9,30.9c0-0.3,0-0.6,0-0.9c0-0.3,0-0.6,0-0.8c0-0.1,0-0.2,0-0.3c-0.1,0.2-0.2,0.4-0.3,0.5
			c0,0.1,0,0.1,0,0.2c0,0.2,0.1,0.5,0.1,0.9c0,0.4,0,0.8-0.1,1.2c-0.1,0.4-0.2,0.9-0.3,1.3c0.1-0.2,0.2-0.5,0.4-0.7
			c0-0.2,0.1-0.4,0.1-0.6C13.9,31.4,13.9,31.1,13.9,30.9z"/>
		<path id="XMLID_205_" class="st0" d="M15.2,28.7c0.1-0.4,0.2-0.7,0.3-1.1s0.1-0.7,0.2-1c0-0.2,0-0.3,0.1-0.5c0-0.1,0-0.1,0-0.2
			c-0.1,0.1-0.2,0.3-0.3,0.4c-0.2,0.3-0.3,0.6-0.5,0.8c0,0.2-0.1,0.7-0.3,1.4c0,0.2-0.1,0.5-0.1,0.7s-0.1,0.5-0.1,0.8
			c0,0.3-0.1,0.5-0.1,0.8c0.1-0.3,0.3-0.7,0.4-1C14.9,29.4,15.1,29.1,15.2,28.7z"/>
		<path id="XMLID_206_" class="st0" d="M10.6,22.2c-1.6-0.3-3.2-0.5-4.4-0.7c-0.2,0-0.3,0-0.5-0.1l1.1,1.8l0,0
			c1.1-0.1,2.5-0.1,3.9,0c1.4,0.1,2.7,0.3,3.8,0.5c-0.1-0.1-0.2-0.1-0.3-0.2c-0.1-0.1-0.3-0.1-0.4-0.2c-0.3-0.2-0.6-0.3-0.9-0.4
			c-0.3-0.1-0.7-0.3-1.1-0.4S11,22.3,10.6,22.2z"/>
		<path id="XMLID_207_" class="st0" d="M7.9,25C8,25,8,25,8.1,25c0.4,0,0.8-0.1,1.2-0.1s0.8,0,1.2,0s0.8,0.1,1.1,0.1
			c0.4,0.1,0.7,0.1,1.1,0.1c0.3,0.1,0.7,0.1,0.9,0.2c0.6,0.1,1.1,0.2,1.4,0.3c0.2,0,0.3,0.1,0.4,0.1l0,0c-0.1-0.1-0.3-0.1-0.4-0.2
			c-0.2-0.1-0.4-0.2-0.6-0.3c-0.9-0.4-2.3-0.8-3.6-1.1c-1.3-0.3-2.6-0.5-3.7-0.6L7.9,25z"/>
		<path id="XMLID_208_" class="st0" d="M5.1,19.2c0.3,0,0.6-0.1,1-0.1c0.4,0,0.7-0.1,1.1-0.1c0.4,0,0.8,0,1.3,0.1
			c0.4,0,0.9,0.1,1.4,0.2c0.2,0.1,0.5,0.1,0.7,0.2l0.7,0.2c0.9,0.3,1.8,0.6,2.6,1c0.8,0.3,1.6,0.6,2.2,0.9c0.6,0.2,1.2,0.4,1.6,0.5
			c0.3,0.1,0.5,0.2,0.6,0.2l0,0c-0.1,0-0.2-0.1-0.3-0.2c-0.4-0.2-0.9-0.5-1.5-0.8c-0.6-0.3-1.4-0.7-2.2-1.1
			c-0.4-0.2-0.8-0.4-1.2-0.6s-0.9-0.4-1.3-0.5c-0.9-0.4-1.7-0.7-2.6-1c-0.8-0.2-1.7-0.3-2.4-0.3c-0.7,0.1-1.3,0.2-1.7,0.4
			c-0.4,0.1-0.6,0.2-0.6,0.2s0.2-0.1,0.6-0.3c0.4-0.2,0.9-0.4,1.7-0.5c0.7-0.1,1.6-0.1,2.5,0.1s1.8,0.5,2.7,0.8
			c0.5,0.2,0.9,0.3,1.4,0.4c0.4,0.2,0.9,0.3,1.3,0.5c0.8,0.3,1.6,0.6,2.3,0.9c0.6,0.3,1.1,0.5,1.5,0.7c0-0.1-0.1-0.1-0.1-0.2
			c-0.1-0.1-0.2-0.2-0.3-0.3c-0.2-0.2-0.4-0.4-0.6-0.6c-0.3-0.2-0.5-0.5-0.8-0.7c-0.3-0.2-0.7-0.5-1-0.7c-0.4-0.2-0.8-0.5-1.2-0.7
			s-0.8-0.4-1.3-0.6l-0.6-0.3c-0.2-0.1-0.4-0.2-0.7-0.2c-0.4-0.2-0.9-0.3-1.3-0.4c-0.6-0.1-1.1-0.2-1.5-0.2C8.7,16,8.3,16,8,16
			c-0.4,0-0.7,0-1,0.1c-0.3,0.1-0.5,0.1-0.7,0.2c-0.4,0.2-0.6,0.3-0.6,0.3s0.2-0.1,0.6-0.3C6.5,16.2,6.7,16.1,7,16
			c0.3-0.1,0.6-0.2,1-0.2s0.8-0.1,1.2-0.1c0.4,0,0.9,0,1.3,0c0.5,0.1,0.9,0.1,1.4,0.2c0.2,0,0.5,0.1,0.7,0.1l0.7,0.2
			c0.5,0.1,1,0.3,1.4,0.4c0.5,0.2,0.9,0.3,1.3,0.5c0.4,0.2,0.8,0.4,1.2,0.6c0.4,0.2,0.7,0.4,1.1,0.6c0.3,0.2,0.6,0.4,0.9,0.6
			c0.1,0.1,0.3,0.2,0.4,0.3c0.1,0.1,0.2,0.2,0.3,0.2c0.2,0.2,0.3,0.3,0.4,0.4l0.1-0.1l0,0c0,0,0,0,0-0.1c-0.1-0.1-0.1-0.2-0.2-0.3
			c-0.2-0.3-0.7-0.7-1.3-1.2c-0.6-0.5-1.3-1-2.1-1.5c-0.4-0.2-0.8-0.5-1.3-0.7c-0.5-0.2-0.9-0.4-1.4-0.6c-1-0.3-1.9-0.5-2.9-0.7
			c-0.9-0.2-1.8-0.3-2.6-0.4C7.8,14.1,7.2,14,6.8,14c-0.4,0.1-0.6,0-0.6,0s0.2,0.1,0.7,0.1c0.4,0,1.1,0.1,1.8,0.1
			c0.8,0,1.7,0.1,2.6,0.2c1,0.1,2,0.3,3,0.5c0.5,0.1,1,0.3,1.5,0.5c0.5,0.2,0.9,0.4,1.4,0.7c0.9,0.4,1.7,0.9,2.3,1.3
			c0.7,0.4,1.2,0.9,1.5,1.2c0.1,0.1,0.2,0.3,0.3,0.4c0,0,0,0,0.1-0.1c-0.1-0.1-0.1-0.2-0.3-0.3c-0.2-0.3-0.6-0.7-1-1.1
			c-0.2-0.2-0.5-0.5-0.7-0.7c-0.3-0.2-0.5-0.5-0.8-0.8s-0.6-0.5-0.9-0.7c-0.2-0.1-0.3-0.2-0.5-0.3l-0.3-0.2l-0.3-0.1
			c-0.4-0.2-0.8-0.4-1.1-0.6c-0.4-0.2-0.7-0.3-1.1-0.4c-0.4-0.1-0.7-0.2-1.1-0.3c-0.3-0.1-0.7-0.2-1-0.2c-0.6-0.1-1.1-0.2-1.5-0.3
			c-0.2,0-0.3-0.1-0.4-0.1H0.6l3.9,6.5C4.6,19.2,4.8,19.2,5.1,19.2z"/>
		<path id="XMLID_209_" class="st0" d="M106.1,16.5l0.3-0.6c-0.1-0.2-0.1-0.3-0.2-0.5c-0.2-0.6-0.5-1.2-0.8-1.8
			c-0.1-0.3-0.3-0.6-0.4-0.9h-0.9c0.1,0.2,0.2,0.3,0.3,0.5C105,14.3,105.6,15.4,106.1,16.5z"/>
		<path id="XMLID_210_" class="st0" d="M93.6,14c0.1,0.1,0.3,0.3,0.4,0.4c0.4,0.5,0.8,1,1.2,1.5c0.4,0.5,0.7,1.1,1.1,1.6
			c0.4,0.5,0.7,1.1,1,1.6c0.3,0.5,0.6,1,0.8,1.5c0.2,0.5,0.5,0.9,0.7,1.4c0.5,0.9,0.8,1.6,1.1,2.1c0-0.2-0.1-0.4-0.1-0.6
			c0-0.3-0.2-0.6-0.2-0.9c-0.1-0.3-0.3-0.7-0.4-1.1c-0.2-0.4-0.4-0.8-0.6-1.2c-0.4-0.8-0.9-1.7-1.5-2.6c-1-1.7-2.2-3.3-3.1-4.6
			L93.9,14C93.9,14,93.8,14,93.6,14z"/>
		<path id="XMLID_211_" class="st0" d="M107.4,14.3l0.4-0.6c-0.1-0.2-0.2-0.4-0.3-0.6c-0.1-0.1-0.1-0.3-0.2-0.4h-0.8
			c0.1,0.1,0.1,0.2,0.2,0.3C106.9,13.5,107.1,13.9,107.4,14.3z"/>
		<path id="XMLID_212_" class="st0" d="M107.9,12.9c0.1,0.1,0.1,0.2,0.2,0.3l0.2-0.4L107.9,12.9C107.9,12.8,107.9,12.8,107.9,12.9z"
			/>
		<path id="XMLID_213_" class="st0" d="M77,47.1c0.1-0.4,0.1-0.7,0.1-1.1c0-0.4,0-0.7,0-1c0-0.2,0-0.3,0-0.5v-0.1
			c-0.1,0.1-0.1,0.3-0.2,0.4c-0.1,0.3-0.3,0.6-0.4,0.9c0,0.2,0,0.7-0.1,1.4c0,0.2,0,0.4,0,0.7c0,0.2,0,0.5,0,0.8s0,0.5,0,0.8
			c0.1-0.4,0.2-0.7,0.3-1.1C76.8,47.9,76.9,47.5,77,47.1z"/>
		<path id="XMLID_214_" class="st0" d="M26.5,14.6c0-0.1-0.1-0.1-0.1-0.2l-0.1-0.1c-0.1-0.1-0.1-0.2-0.2-0.3
			c-0.1-0.2-0.3-0.4-0.5-0.7c-0.2-0.2-0.4-0.4-0.6-0.6h-1.6c0,0,0,0,0.1,0c0.3,0.2,0.6,0.5,0.8,0.7c0.3,0.2,0.5,0.5,0.7,0.7
			s0.4,0.4,0.6,0.6s0.3,0.3,0.4,0.4c0.1,0.1,0.1,0.1,0.2,0.2c0.2-0.1,0.4-0.2,0.5-0.3C26.7,14.9,26.6,14.8,26.5,14.6z"/>
		<path id="XMLID_215_" class="st0" d="M75.5,52.9C75.5,53,75.5,53,75.5,52.9L75.5,52.9L75.5,52.9z"/>
		<path id="XMLID_216_" class="st0" d="M76,49.4c0-0.3-0.1-0.6-0.1-0.8c0-0.3,0-0.5-0.1-0.8c0-0.1,0-0.2,0-0.3
			c-0.1,0.2-0.2,0.4-0.2,0.6c0,0.1,0,0.1,0.1,0.2c0.1,0.2,0.2,0.5,0.2,0.8c0.1,0.4,0.1,0.8,0.1,1.2s-0.1,0.9-0.1,1.3
			c0.1-0.2,0.2-0.5,0.2-0.7c0-0.2,0-0.4,0-0.6C76.1,50,76,49.7,76,49.4z"/>
		<path id="XMLID_217_" class="st0" d="M99.2,15.1c0.6,1,1.2,2,1.8,3c0.5,1,1,1.9,1.4,2.7c0.2,0.3,0.3,0.6,0.5,0.8l0.1-0.2
			c0,0,0-0.1-0.1-0.1c-0.3-0.6-0.6-1.4-0.9-2.2c-0.3-0.8-0.6-1.7-0.9-2.5c-0.2-0.4-0.4-0.8-0.6-1.2s-0.4-0.8-0.7-1.1
			c-0.2-0.4-0.5-0.7-0.7-1c-0.2-0.2-0.3-0.4-0.5-0.6h-1.2c0.2,0.3,0.5,0.6,0.7,0.9C98.6,14.1,98.9,14.6,99.2,15.1z"/>
		<path id="XMLID_218_" class="st0" d="M28.7,13.5c-0.1-0.2-0.2-0.4-0.4-0.7h-0.4c0.1,0.1,0.2,0.3,0.3,0.4c0.1,0.1,0.1,0.1,0.2,0.2
			c0,0.1,0.1,0.1,0.1,0.1c0.1,0.2,0.2,0.3,0.3,0.4h0.1v-0.1C28.7,13.6,28.7,13.6,28.7,13.5z"/>
		<path id="XMLID_219_" class="st0" d="M87.3,12.8c0.3,0.1,0.7,0.2,1.1,0.4c0.4,0.2,0.8,0.4,1.2,0.7c0.2,0.1,0.4,0.3,0.6,0.4
			c0.2,0.2,0.4,0.4,0.6,0.5c0.2,0.2,0.4,0.4,0.6,0.6c0.2,0.2,0.4,0.4,0.6,0.7c0.4,0.5,0.7,1,1,1.4c0.3,0.5,0.6,1,0.9,1.5
			c0.3,0.5,0.5,1,0.7,1.5c0.5,1,0.9,1.9,1.3,2.6c0.2,0.4,0.4,0.7,0.5,1c0.2,0.3,0.3,0.5,0.4,0.8c0,0,0,0,0,0.1v-0.1
			c-0.1-0.2-0.2-0.5-0.3-0.8c-0.1-0.3-0.2-0.7-0.4-1c-0.3-0.8-0.7-1.6-1.1-2.6c-0.4-0.9-0.9-1.9-1.5-2.9c-0.3-0.5-0.6-0.9-0.9-1.4
			c-0.3-0.4-0.6-0.9-1-1.3c-0.7-0.8-1.3-1.5-1.9-2.1c0,0,0,0-0.1-0.1c-0.1,0-0.3-0.1-0.4-0.1c-0.1,0-0.1,0-0.2-0.1h-2.1
			C87.2,12.8,87.2,12.8,87.3,12.8z"/>
		<path id="XMLID_220_" class="st0" d="M94.2,28C94.1,28,94.1,28,94.2,28L94.2,28L94.2,28z"/>
		<path id="XMLID_221_" class="st0" d="M25.2,15.9c-0.1-0.1-0.2-0.3-0.4-0.5c-0.1-0.2-0.3-0.4-0.5-0.6c-0.2-0.2-0.4-0.4-0.6-0.7
			c-0.2-0.2-0.5-0.5-0.7-0.7c-0.2-0.2-0.5-0.4-0.8-0.7h-1.1l0.1,0.1c0.7,0.6,1.4,1.1,2,1.6c0.3,0.3,0.5,0.5,0.7,0.7
			c0.2,0.2,0.4,0.5,0.5,0.6c0.2,0.2,0.3,0.4,0.3,0.5C24.9,16.1,25,16,25.2,15.9C25.2,15.9,25.2,15.9,25.2,15.9z"/>
		<path id="XMLID_222_" class="st0" d="M92,14.9c0.4,0.4,0.7,0.8,1.1,1.2c0.4,0.4,0.7,0.9,1,1.3c0.6,0.9,1.2,1.9,1.7,2.8
			c0.5,0.9,1,1.8,1.3,2.5c0.1,0.2,0.1,0.3,0.2,0.4c-0.1-0.1-0.1-0.3-0.2-0.5c-0.2-0.4-0.4-0.9-0.6-1.4c-0.2-0.5-0.4-1-0.6-1.6
			c-0.2-0.5-0.4-1.1-0.7-1.6c-0.3-0.5-0.5-1.1-0.9-1.6c-0.3-0.5-0.7-1-1-1.5c-0.4-0.5-0.7-0.9-1.1-1.4c-0.6-0.2-1.3-0.3-2.1-0.6
			C90.7,13.6,91.4,14.2,92,14.9z"/>
		<path id="XMLID_223_" class="st0" d="M97.9,17c0.6,0.8,1.3,1.7,1.8,2.5c0.2,0.3,0.4,0.7,0.6,1c-0.2-0.5-0.4-1.1-0.7-1.7
			c-0.4-1-0.9-2.1-1.4-3.1c-0.3-0.5-0.5-1-0.8-1.5s-0.6-1-0.9-1.4h-2.2C95.3,13.9,96.6,15.4,97.9,17z"/>
		<path id="XMLID_428_" class="st0" d="M99.4,13.1c0.3,0.3,0.6,0.6,0.8,0.9c0.3,0.3,0.5,0.7,0.8,1.1c0.2,0.4,0.5,0.8,0.7,1.2
			c0.4,0.8,0.8,1.7,1.2,2.5c0.3,0.6,0.5,1.1,0.7,1.6l0.4-0.7c0-0.2-0.1-0.3-0.1-0.5c-0.1-0.2-0.2-0.4-0.3-0.7
			c-0.1-0.2-0.2-0.5-0.3-0.7s-0.2-0.5-0.3-0.7c-0.3-0.5-0.5-1-0.9-1.5c-0.3-0.5-0.7-1-1-1.4c-0.4-0.5-0.8-0.9-1.2-1.4c0,0,0,0,0-0.1
			h-0.8C99.2,12.9,99.3,13,99.4,13.1z"/>
		<path id="XMLID_429_" class="st0" d="M103.2,14.8c0.4,0.5,0.8,1,1.1,1.5c0.2,0.3,0.3,0.5,0.5,0.8c0.2,0.2,0.3,0.5,0.4,0.7l0,0
			c-0.5-1.3-1.1-2.7-1.7-4.1c-0.1-0.3-0.3-0.6-0.4-0.8h-2c0.2,0.2,0.5,0.4,0.7,0.7C102.4,13.9,102.8,14.3,103.2,14.8z"/>
	</g>
	<g id="XMLID_430_">
		<path id="XMLID_431_" class="st0" d="M8,0.4h0.5L4.6,8.7H4.4L0.5,0.4H1l3.5,7.5L8,0.4z"/>
		<path id="XMLID_433_" class="st0" d="M12.8,8.7h-0.4V0.4h0.4V8.7z"/>
		<path id="XMLID_435_" class="st0" d="M20.1,8.7h-2.8V0.4h2.5c2.3,0,4.2,1.9,4.2,4.1C24,6.8,22.3,8.6,20.1,8.7z M20.1,8.3
			c1.9-0.2,3.5-1.8,3.5-3.7c0-2.1-1.7-3.7-3.7-3.7h-2.1v7.4H20.1z"/>
		<path id="XMLID_438_" class="st0" d="M33,6.3h-4.7l-1.1,2.4h-0.5l3.7-8.3h0.3l3.7,8.3h-0.5L33,6.3z M28.4,5.9h4.4l-2.2-5L28.4,5.9
			z"/>
		<path id="XMLID_441_" class="st0" d="M45.3,0.4v8.3h-0.8l-4.9-5.2v5.2H38V0.4h0.8l4.9,5.2V0.4H45.3z"/>
		<path id="XMLID_443_" class="st0" d="M54.9,7h-3.7l-0.7,1.7h-1.8l3.9-8.3h0.8l4,8.3h-1.8L54.9,7z M51.8,5.6h2.5L53,2.9L51.8,5.6z"
			/>
		<path id="XMLID_446_" class="st0" d="M66.2,1.9h-2.6v6.8h-1.7V1.9h-2.6V0.4h7L66.2,1.9L66.2,1.9z"/>
		<path id="XMLID_448_" class="st0" d="M76.9,5.4c0,1.9-1.3,3.4-3.7,3.4c-2.4,0-3.6-1.5-3.6-3.4v-5h1.6v4.5c0,1.6,0.7,2.3,2,2.3
			s2-0.8,2-2.3V0.4h1.7V5.4z"/>
		<path id="XMLID_450_" class="st0" d="M84.4,6.6c-0.1,0-0.2,0-0.3,0h-1.5v2.1h-1.7V0.4h3.6c2.4,0,3.2,1.4,3.2,3
			c0,1.4-0.6,2.4-1.7,2.8l1.9,2.5h-2L84.4,6.6z M82.5,5.2H84c1.3,0,2-0.7,2-1.7c0-0.9-0.4-1.7-1.7-1.7h-1.7L82.5,5.2L82.5,5.2z"/>
		<path id="XMLID_453_" class="st0" d="M96.7,7h-3.7l-0.7,1.7h-1.8l3.9-8.3h0.8l4,8.3h-1.8L96.7,7z M93.7,5.6h2.5l-1.3-2.7L93.7,5.6
			z"/>
		<path id="XMLID_456_" class="st0" d="M108.5,7.3v1.4h-5.9V0.4h1.7v6.9H108.5z"/>
	</g>
</g>
</svg>
