<?xml version="1.0" encoding="utf-8"?>
<!-- Generator: Adobe Illustrator 22.0.0, SVG Export Plug-In . SVG Version: 6.00 Build 0)  -->
<svg version="1.1" id="Camada_1" xmlns="http://www.w3.org/2000/svg" xmlns:xlink="http://www.w3.org/1999/xlink" x="0px" y="0px"
	 viewBox="0 0 70 65.6" style="enable-background:new 0 0 70 65.6;" xml:space="preserve">
<style type="text/css">
	.st0{fill:#4B5563;}
</style>
<title>anvisa</title>
<g>
	<path class="st0" d="M34.8,65.3c-0.1,0-0.3,0-0.4-0.1L7,49.2c-0.2-0.1-0.4-0.4-0.4-0.6l0.2-31.8c0-0.3,0.1-0.5,0.4-0.6L34.8,0.4
		c0.2-0.1,0.5-0.1,0.7,0l27.4,16c0.2,0.1,0.4,0.4,0.4,0.6l-0.2,31.8c0,0.3-0.1,0.5-0.4,0.6L35.2,65.2C35.1,65.3,35,65.3,34.8,65.3
		 M8.1,48.1l26.7,15.6l26.9-15.3l0.1-30.9L35.1,1.9L8.3,17.2L8.1,48.1z"/>
	
		<rect x="45.9" y="-0.6" transform="matrix(0.5041 -0.8636 0.8636 0.5041 12.1139 46.6796)" class="st0" width="1.6" height="26.8"/>
	<rect x="33.1" y="52.1" transform="matrix(0.8683 -0.496 0.496 0.8683 -20.1181 30.0256)" class="st0" width="26.8" height="1.6"/>
	
		<rect x="-1.5" y="31.8" transform="matrix(4.995239e-03 -1 1 4.995239e-03 -20.8377 44.326)" class="st0" width="26.8" height="1.6"/>
	<path class="st0" d="M18.7,35.7c0.2,0.5,0.2,1.1-0.1,1.5c-0.4,0.5-0.9,0.7-1.9,0.7c-0.5,0-1,0.1-1,0.1c-0.1,0-0.1,0.5-0.1,1v1
		l0.3,0.1c0.4,0.1,0.5,0.3,0.3,0.4c-0.2,0.1-1.8,0.1-1.9,0c0,0-0.1-0.1-0.1-0.2c0-0.2,0.3-0.3,0.5-0.2c0,0,0.1,0,0.2,0
		c0.1-0.1,0.1-4.3,0-4.5c0-0.1-0.2-0.2-0.4-0.3c-0.4-0.1-0.5-0.3-0.2-0.4c0.1-0.1,0.8-0.1,1.5-0.1C17.8,34.7,18.3,34.9,18.7,35.7
		 M16.5,35.3h-0.9v0.9c0,0.5,0,1,0,1.1s0.2,0.1,1,0.1c1,0,1,0,1.3-0.4c0.4-0.4,0.4-0.7,0.2-1.1c-0.2-0.4-0.6-0.6-1.5-0.6
		C16.7,35.3,16.6,35.3,16.5,35.3"/>
	<path class="st0" d="M20.9,35.6c0.2,0.4,0.3,0.8,0.4,1s0.3,0.8,0.6,1.4c0.2,0.6,0.5,1.2,0.6,1.4s0.2,0.3,0.2,0.4
		c0,0.2,0.5,0.5,0.7,0.5c0.1,0,0.2,0.1,0.2,0.2c0,0.2-0.1,0.2-0.9,0.2c-0.7,0-0.8,0-0.9-0.1c0-0.1,0-0.2,0.2-0.3
		c0.3-0.2,0.3-0.3,0.1-0.7l-0.2-0.3h-1.3c-0.7,0-1.4,0-1.5,0s-0.2,0.1-0.3,0.3c-0.1,0.1-0.1,0.3-0.2,0.4c-0.1,0.1,0,0.2,0.2,0.3
		c0.3,0.1,0.3,0.3,0.1,0.4c-0.2,0.1-1.4,0.1-1.5,0c-0.2-0.2-0.1-0.4,0.2-0.5c0.4-0.1,0.4-0.1,0.7-0.8c0.2-0.5,0.7-1.6,1.2-2.9
		c0.1-0.3,0.3-0.7,0.4-0.9c0.2-0.5,0.3-0.7,0.5-0.7C20.5,34.8,20.7,35.1,20.9,35.6 M20.1,36.3c-0.1,0.2-0.2,0.6-0.4,0.8
		c-0.4,0.8-0.5,1.3-0.4,1.3c0,0,0.5,0.1,1.1,0.1c0.7,0,1,0,1-0.1s-0.1-0.4-0.3-0.8c-0.5-1.1-0.7-1.6-0.9-1.6
		C20.2,36,20.2,36.1,20.1,36.3"/>
	<path class="st0" d="M27.7,35.3c0.5,0.4,0.6,1.2,0.4,1.7c-0.2,0.3-0.7,0.9-1,0.9c-0.2,0.1-0.2,0.1-0.2,0.4c0,0.2,0.2,0.6,0.4,0.9
		c0.3,0.5,0.4,0.7,0.8,0.8c0.7,0.3,0.4,0.8-0.3,0.5C27.3,40.3,27,40,26.5,39L26,38.1L25.6,38c-0.7-0.1-0.8,0-0.8,1.1v1l0.3,0.1
		c0.3,0.1,0.3,0.1,0.3,0.3s0,0.2-0.9,0.2c-0.7,0-0.9,0-1-0.2s0.1-0.3,0.4-0.4c0.1,0,0.2-0.1,0.3-0.1c0,0,0-0.9,0-1.9
		c0-3,0-2.8-0.2-2.8c-0.4,0-0.5-0.2-0.4-0.4s0.3-0.2,1.6-0.2C26.8,34.8,27.2,34.9,27.7,35.3 M24.9,36.3c0,0.5,0,1,0,1
		c0.1,0.2,1.7,0.2,2.1,0c0.6-0.3,0.8-1.1,0.3-1.6c-0.3-0.3-0.4-0.3-1.1-0.3c-0.3,0-0.6,0-0.7,0C24.9,35.3,24.9,35.5,24.9,36.3"/>
	<path class="st0" d="M32.2,35.6c0.2,0.4,0.3,0.8,0.4,1c0.1,0.2,0.3,0.8,0.6,1.4c0.2,0.6,0.5,1.2,0.6,1.4s0.2,0.3,0.2,0.4
		c0,0.2,0.5,0.5,0.7,0.5c0.1,0,0.2,0.1,0.2,0.2c0,0.2-0.1,0.2-0.9,0.2c-0.7,0-0.8,0-0.9-0.1c0-0.1,0-0.2,0.2-0.3
		c0.3-0.2,0.3-0.3,0.1-0.7l-0.2-0.3h-1.3c-0.7,0-1.4,0-1.5,0s-0.2,0.1-0.3,0.3C30,39.7,30,39.9,29.9,40c-0.1,0.1,0,0.2,0.2,0.3
		c0.3,0.1,0.3,0.3,0.1,0.4c-0.2,0.1-1.4,0.1-1.5,0c-0.2-0.2-0.1-0.4,0.2-0.5c0.4-0.1,0.4-0.1,0.7-0.8c0.2-0.5,0.7-1.6,1.2-2.9
		c0.1-0.3,0.3-0.7,0.4-0.9c0.2-0.5,0.3-0.7,0.5-0.7C31.8,34.8,32,35.1,32.2,35.6 M31.4,36.3c-0.1,0.2-0.2,0.6-0.4,0.8
		c-0.4,0.8-0.5,1.3-0.4,1.3c0,0,0.6,0.1,1.1,0.1c0.7,0,1,0,1-0.1s-0.1-0.4-0.3-0.8C32,36.4,31.8,36,31.6,36
		C31.5,36,31.5,36.1,31.4,36.3"/>
	<path class="st0" d="M36.6,34.7c1.7,0,2,0.1,2.5,0.7c0.3,0.3,0.3,0.5,0.3,0.8s-0.1,0.6-0.2,0.8c-0.2,0.5-0.2,0.6,0,0.7
		c0.3,0.2,0.6,0.8,0.6,1.2c0,0.5-0.3,1.1-0.7,1.3c-0.3,0.2-0.5,0.2-2.2,0.3c-1.6,0-1.9,0-1.9-0.1c-0.1-0.2,0-0.3,0.4-0.4l0.3-0.1
		v-4.6h-0.3c-0.1,0-0.3-0.1-0.4-0.2c-0.2-0.3,0.1-0.4,1.3-0.4C36.4,34.7,36.5,34.7,36.6,34.7 M36.3,36c0,0.8,0,1.1,0.1,1.3
		s1.3,0.2,1.8,0c0.7-0.2,1-0.9,0.7-1.4s-0.6-0.6-1.7-0.6h-0.9L36.3,36z M36.4,38.1c-0.1,0.2-0.1,1.9,0,2c0,0,0.6,0,1.2,0
		c1,0,1.1,0,1.4-0.3c0.6-0.5,0.5-1.3-0.2-1.7c-0.2-0.1-0.9-0.2-1.5-0.2C36.8,37.9,36.4,38,36.4,38.1"/>
	<path class="st0" d="M40.1,40.1l0.3-0.1l-0.1-4.7H40c-0.4,0-0.5-0.2-0.3-0.4c0.1-0.1,0.5-0.1,2.1-0.1c1.4,0,2,0,2.1,0.1
		s0.1,0.4,0.1,1c0,0.7,0,0.9-0.2,1c-0.3,0.1-0.3,0-0.3-0.7c0-0.3,0-0.6-0.1-0.7c-0.1-0.1-2.4,0-2.5,0.1s-0.1,1.6,0,1.9
		c0.1,0.1,0.2,0.2,0.7,0.1c0.6,0,0.6,0,0.8-0.4c0.1-0.2,0.2-0.3,0.3-0.3c0.2,0,0.2,0.1,0.2,1s0,1-0.2,1c-0.1,0-0.2-0.1-0.3-0.3
		c0.1-0.6,0.1-0.6-0.5-0.6c-0.3,0-0.7,0-0.7,0c-0.1,0.1-0.1,2,0,2.1c0.7,0.1,2.3,0,2.4,0c0.1,0,0.1-0.3,0.1-0.6
		c0-0.6,0.1-0.9,0.4-0.8c0.1,0.1,0.2,0.2,0.2,0.9c0,0.4,0,0.9-0.1,1s-0.3,0.2-2.2,0.2s-2.2,0-2.2-0.2C39.7,40.3,39.8,40.2,40.1,40.1
		"/>
	<path class="st0" d="M44.7,40.1c0.4,0,0.5-0.1,0.5-2.4c0-1.2,0-2.3,0-2.3c0-0.1-0.1-0.1-0.3-0.1s-0.3-0.1-0.3-0.2
		c-0.1-0.1-0.1-0.2,0.1-0.3c0.1-0.1,0.4-0.1,0.6-0.1c0.5,0,0.4-0.1,2.8,3.7c0.3,0.4,0.5,0.8,0.6,0.7c0,0,0.1-0.9,0.1-1.9v-1.8h-0.3
		c-0.4,0-0.5-0.2-0.3-0.4s1.7-0.2,1.9,0s0,0.4-0.4,0.5h-0.3L49.1,38c0,1.4-0.1,2.6-0.1,2.6s-0.1,0-0.2,0c-0.1,0-0.3-0.3-0.6-0.7
		c-0.5-0.9-2.3-3.5-2.3-3.6c-0.1-0.2-0.2,0.5-0.2,2V40l0.4,0.1c0.4,0.1,0.5,0.2,0.2,0.4c-0.2,0.2-1.8,0.2-1.8,0
		C44.4,40.3,44.5,40.1,44.7,40.1"/>
	<path class="st0" d="M53.7,35.3c0.9,0.8,1.1,2.7,0.5,3.8c-0.6,1.2-1.8,1.7-3.1,1.3c-0.9-0.3-1.7-1.5-1.7-2.7c0-1.3,0.5-2.4,1.4-2.8
		c0.3-0.2,0.7-0.2,1.1-0.2C52.6,34.8,53.3,35,53.7,35.3 M50.2,36.5C50,36.9,50,37.1,50,37.8c0.1,1.3,0.6,2.1,1.7,2.3
		c0.3,0,0.5,0.1,0.5,0.1s0.2,0,0.3-0.1c0.9-0.3,1.5-1.2,1.5-2.3c0-0.3,0-0.8-0.1-0.9c-0.2-0.9-0.9-1.5-1.7-1.5
		C51.1,35.3,50.5,35.7,50.2,36.5"/>
	<path class="st0" d="M54.8,38.7c0.2-0.2,0.4,0,0.5,0.4c0.2,0.7,0.7,1,1.5,1s1.2-0.3,1.4-1c0.1-0.4,0.1-0.5,0-0.8
		C58,38,57.4,37.6,57,37.6c-1.2,0-1.9-0.5-1.9-1.4c0-0.6,0.2-1,0.8-1.3c0.5-0.3,1-0.3,1.7,0c0.3,0.1,0.4,0.1,0.5,0s0.2-0.1,0.3-0.1
		c0.2,0,0.2,0.1,0.2,0.8c0,0.9,0,1.2-0.3,1.1c-0.1,0-0.2-0.1-0.3-0.5c-0.2-0.6-0.5-0.9-1.1-0.9c-0.6-0.1-1,0.2-1.2,0.6
		C55.5,36.5,56.1,37,57,37c0.8,0,1.8,0.7,1.9,1.3c0,0.2,0,0.5,0,0.8c-0.1,0.5-0.6,1.1-1.2,1.4c-0.5,0.2-1.4,0.1-1.9-0.1
		c-0.3-0.2-0.3-0.2-0.5,0c-0.1,0.2-0.4,0.3-0.4,0.1C54.7,40.4,54.7,38.8,54.8,38.7"/>
	<path class="st0" d="M14.5,32.4c0-0.2,0.1-0.3,0.4-0.2c0.4,0,0.4-0.3,0.4-3c0-1.5,0-2.7-0.1-2.7c0,0-0.2-0.1-0.4-0.2
		c-0.9-0.3-0.3-0.7,1.1-0.6c0.9,0,0.9,0.1,1,0.3c0,0.2,0,0.3-0.3,0.3c-0.2,0-0.4,0.1-0.5,0.1S16,27.1,16,29.3v2.8h1.3
		c1.8,0,1.8,0,1.8-0.9c0-0.7,0.2-1,0.5-0.9c0.2,0.1,0.2,0.3,0.2,1.2v1.1h-2.6c-1.4,0-2.6,0-2.7,0C14.5,32.6,14.5,32.5,14.5,32.4"/>
	<path class="st0" d="M20.6,32.1c0.6,0,0.6-0.1,0.6-2.4c0-3.8,0-3.5-0.4-3.5c-0.3,0-0.4-0.1-0.4-0.3c-0.1-0.3,0.2-0.4,1.2-0.4
		c0.8,0,1,0,1.1,0.2s0,0.5-0.3,0.5c-0.4,0-0.5,0.2-0.5,3V32h0.3c0.4,0,0.7,0.3,0.6,0.5s-0.2,0.2-1.1,0.2c-0.6,0-1.1,0-1.2-0.1
		C20.2,32.5,20.3,32.1,20.6,32.1"/>
	<path class="st0" d="M26,31c0-0.1-1.1-2.5-1.2-2.7c0-0.1-0.2-0.5-0.4-1c-0.4-0.9-0.5-1-0.9-1.1c-0.3,0-0.5-0.4-0.2-0.6
		c0.2-0.1,1.6-0.1,1.9,0c0.3,0.2,0.3,0.4-0.1,0.5c-0.2,0-0.3,0.1-0.3,0.2c0,0.3,1.9,4.6,2.1,4.8c0.2,0.2,0.2,0.1,1-1.6
		c0.1-0.2,0.3-0.6,0.4-0.9c0.4-0.9,0.9-2.2,0.9-2.3c0-0.1-0.1-0.1-0.2-0.1c-0.3,0-0.5-0.3-0.3-0.5s1.8-0.2,2,0
		c0.2,0.3,0,0.5-0.4,0.5s-0.5,0.1-1.4,2.3c-0.2,0.6-0.6,1.3-0.7,1.6c-0.1,0.3-0.4,1-0.6,1.5c-0.4,1-0.6,1.2-0.9,1
		C26.7,32.6,26,31.1,26,31"/>
	<path class="st0" d="M36.1,26.2c0.6,0.5,0.8,1.4,0.4,2c-0.2,0.4-0.9,1-1.2,1.1c-0.2,0.1-0.3,0.1-0.2,0.5c0,0.2,0.3,0.7,0.5,1.1
		c0.3,0.6,0.5,0.8,0.9,1c0.8,0.4,0.5,1-0.3,0.6c-0.6-0.2-0.9-0.6-1.5-1.8l-0.6-1.1l-0.5-0.1c-0.9-0.1-0.9,0-0.9,1.3V32l0.4,0.1
		c0.3,0.1,0.4,0.1,0.4,0.4c0,0.3,0,0.3-1.1,0.3c-0.9,0-1.1,0-1.2-0.2s0.1-0.4,0.4-0.5c0.1,0,0.3-0.1,0.3-0.1s0-1.1,0.1-2.3
		c0-3.6,0-3.4-0.3-3.4c-0.4,0-0.6-0.2-0.5-0.4c0.1-0.2,0.3-0.2,1.9-0.2C35.1,25.6,35.5,25.7,36.1,26.2 M32.7,27.5c0,0.6,0,1.2,0,1.3
		c0.1,0.2,2,0.2,2.5-0.1c0.8-0.4,1-1.4,0.3-2c-0.3-0.3-0.5-0.4-1.3-0.4c-0.4,0-0.7,0-0.9,0C32.7,26.3,32.8,26.5,32.7,27.5"/>
	<path class="st0" d="M38,32.1l0.4-0.1l-0.1-5.7h-0.4c-0.4,0-0.6-0.3-0.3-0.5c0.1-0.1,0.6-0.2,2.6-0.2c1.6,0,2.5,0,2.6,0.1
		s0.2,0.4,0.2,1.2c0,0.9,0,1.1-0.2,1.2c-0.3,0.2-0.4,0-0.4-0.9c0-0.4-0.1-0.8-0.1-0.8c-0.1-0.1-2.9-0.1-3.1,0.1
		c-0.1,0.1-0.2,2,0,2.3c0.1,0.2,0.2,0.2,0.9,0.2c0.8,0,0.8,0,0.9-0.4c0.1-0.3,0.2-0.4,0.4-0.4s0.2,0.1,0.2,1.2s0,1.2-0.2,1.2
		s-0.3-0.1-0.3-0.4c-0.1-0.4-0.1-0.4-0.9-0.4c-0.4,0-0.8,0-0.9,0C39,29.6,39,32,39.2,32c0.8,0.1,2.8,0,2.9,0
		c0.1-0.1,0.1-0.3,0.1-0.7c0-0.7,0.2-1.1,0.5-1c0.2,0.1,0.2,0.3,0.2,1.1c0,0.5,0,1.1-0.1,1.2c-0.1,0.2-0.4,0.2-2.7,0.2
		s-2.6,0-2.7-0.2C37.4,32.3,37.5,32.2,38,32.1"/>
	<path class="st0" d="M49.3,25.6c2,0,2,0,2.5,0.4c1,0.7,1.5,1.9,1.4,3.5c0,0.6-0.2,1.2-0.3,1.5c-0.3,0.8-1.2,1.5-1.8,1.6
		s-3.8,0.1-3.9,0c0,0-0.1-0.2-0.1-0.3s0.1-0.2,0.5-0.3l0.5-0.1v-2.8v-2.8h-0.3c-0.4,0-0.6-0.3-0.4-0.6c0.1-0.1,0.3-0.2,1.1-0.2
		C48.5,25.6,48.9,25.6,49.3,25.6 M48.7,26.5c-0.1,0.2-0.1,3.5,0,5.2c0,0.3,0.1,0.3,0.4,0.4c0.9,0.1,2-0.1,2.4-0.3
		c0.9-0.6,1.4-2.5,0.9-4c-0.4-1.2-0.9-1.5-2.5-1.5C48.9,26.3,48.7,26.3,48.7,26.5"/>
	<path class="st0" d="M53.4,32.1l0.4-0.1l-0.1-5.7h-0.4c-0.4,0-0.6-0.3-0.3-0.5c0.1-0.1,0.6-0.2,2.6-0.2c1.6,0,2.5,0,2.6,0.1
		s0.2,0.4,0.2,1.2c0,0.9,0,1.1-0.2,1.2c-0.3,0.2-0.4,0-0.4-0.9c0-0.4-0.1-0.8-0.1-0.8c-0.1-0.1-2.9-0.1-3.1,0.1
		c-0.1,0.1-0.2,2,0,2.3c0.1,0.2,0.2,0.2,0.9,0.2c0.8,0,0.8,0,0.9-0.4c0.1-0.3,0.2-0.4,0.4-0.4s0.2,0.1,0.2,1.2s0,1.2-0.2,1.2
		s-0.3-0.1-0.3-0.4c-0.1-0.4-0.1-0.4-0.9-0.4c-0.4,0-0.8,0-0.9,0c-0.2,0.1-0.1,2.5,0,2.5c0.8,0.1,2.8,0,2.9,0
		c0.1-0.1,0.1-0.3,0.1-0.7c0-0.7,0.2-1.1,0.5-1c0.2,0.1,0.2,0.3,0.2,1.1c0,0.5,0,1.1-0.1,1.2c-0.1,0.2-0.4,0.2-2.7,0.2
		s-2.6,0-2.7-0.2C52.9,32.3,53,32.2,53.4,32.1"/>
</g>
</svg>
