<?xml version="1.0" encoding="utf-8"?>
<!-- Generator: Adobe Illustrator 22.0.0, SVG Export Plug-In . SVG Version: 6.00 Build 0)  -->
<svg version="1.1" id="Camada_1" xmlns:figma="http://www.figma.com/figma/ns"
	 xmlns="http://www.w3.org/2000/svg" xmlns:xlink="http://www.w3.org/1999/xlink" x="0px" y="0px" viewBox="0 0 109 102.6"
	 style="enable-background:new 0 0 109 102.6;" xml:space="preserve">
<style type="text/css">
	.st0{fill:#FFFFFF;}
</style>
<title>Logo</title>
<g>
	<path class="st0" d="M78.3,45.5c0-0.1,0.1-0.2,0.2-0.2c0.5-0.3,0.2-1,0.2-1.4c0-1.7-0.1-3.4-0.1-5.1c0.1-2.1,0.4-4.4-2.3-5.4
		c-1-0.4-2.1-0.5-3.2-0.5C63.3,32.2,53.6,32,44,32.3c-4.7,0.2-9.3,0.4-13.9,0.8c-1.8,0.2-3.5,1.7-3.6,3.4c-0.2,2.6-0.1,4,0,6.6
		c0,0.6-0.2,1.8,0.4,2.3c0.1,0.1,0.2,0.2,0.2,0.2c7.8,0.6,16.5,0.9,25.5,0.9C61.7,46.4,70.4,46.1,78.3,45.5z"/>
	<path class="st0" d="M78.9,46.9c-0.2-0.3-0.2-0.6-0.2-0.9c-7.9,0.6-16.9,0.9-26.2,0.9c-9.2,0-18-0.3-26-0.8c0.1,0-0.5,0.6-0.5,0.6
		c-0.2,0.2-0.4,0.5-0.4,0.9c0,0.9,0.1,1.9,0.1,2.8c0,1.4,0,2.7,0,4.1c0,2.7,0.1,5.6,0.1,8.3c0,1.5,0.1,3.1,1.3,4.2
		c1.7,1.5,5,1.8,7.3,2.1c2,0.3,4,0.5,6,0.8c4,0.4,7.9,0.6,11.9,0.6s7.9-0.2,11.8-0.5c3.8-0.4,7.6-0.8,11.2-1.8
		c1.4-0.4,3.2-1.1,3.7-2.4c0.2-0.5,0.2-0.9,0.2-1.4c0.1-2.7,0.1-5.5,0.1-8.2c0-1.4,0-2.7,0.1-4.1c0-1.3,0.2-2.6,0.1-3.8
		C79.3,47.7,79.1,47.3,78.9,46.9z"/>
</g>
</svg>
