<?xml version="1.0" encoding="utf-8"?>
<!-- Generator: Adobe Illustrator 22.0.0, SVG Export Plug-In . SVG Version: 6.00 Build 0)  -->
<svg version="1.1" id="Camada_1" xmlns:figma="http://www.figma.com/figma/ns"
	 xmlns="http://www.w3.org/2000/svg" xmlns:xlink="http://www.w3.org/1999/xlink" x="0px" y="0px" viewBox="0 0 109 102.6"
	 style="enable-background:new 0 0 109 102.6;" xml:space="preserve">
<style type="text/css">
	.st0{fill:#FFFFFF;}
</style>
<title>Logo</title>
<g>
	<g>
		<path class="st0" d="M27.9,44.3c0,1.4,0,2.7,0,4.1c0,1.4,0,2.7,0,4.1c0,1.4,0,2.7,0,4.1c0,1.3,0,2.7,0,4s0,2.6,0,3.9
			c0,1.3,0,2.5,0,3.8c0,1.2,0,2.4,0,3.6c0,1.1,0,2.2,0,3.3c0,1,0,2,0,3c0,0.9,0,1.8,0,2.7c0,0.8,0,1.5,0,2.3c0,0.6,0,1.3,0,1.9
			c0,0.5,0,1,0,1.4c0,0.3,0,0.6,0,0.9c0,0.1,0,0.3,0,0.4c1,1,2.7,1.3,4.1,1.5c2.2,0.3,4.3,0.3,6.5,0.2c1.9-0.1,3.8-0.1,5.7-0.4
			c1.5-0.2,3.2-0.5,4.6-1.3l0,0c0-0.1,0-0.2,0-0.4c0-0.3,0-0.6,0-0.9c0-0.5,0-0.9,0-1.4c0-0.6,0-1.2,0-1.8c0-0.7,0-1.5,0-2.2
			c0-0.9,0-1.7,0-2.6c0-1,0-1.9,0-2.9c0-1.1,0-2.1,0-3.2s0-2.3,0-3.4c0-1.2,0-2.4,0-3.6c0-1.3,0-2.5,0-3.8c0-1.3,0-2.6,0-3.9
			c0-1.3,0-2.7,0-4s0-2.7,0-4c0-1.3,0-2.7,0-4c0-1.3,0-6.3,0-7.2h-21C27.9,39.7,27.9,43,27.9,44.3z"/>
	</g>
	<path class="st0" d="M27.9,33.5c0,0,0.4-2.6,3.2-2.5c-0.1-2.8-0.1-3.2,1.1-3.5c0-4.5,0-5.5,0.5-5.7c0-2.1,0.9-2.1,1.5-2.1
		s8.5-1.7,10.4-2.4c0.3-0.1,0.6-0.1,0.7,0.3c0,0.4,0.1,0.8,0.1,0.8s0.2,0.3-0.4,0.7s-1.1,1-1,2.2s0,6,0,6c0.9,0,1.2,0.2,1.1,3.6
		c0,0,3.7,0.2,3.7,2.7s0,3.1,0,3.1h-21V33.5z"/>
</g>
</svg>
