<?xml version="1.0" encoding="utf-8"?>
<!-- Generator: Adobe Illustrator 22.0.0, SVG Export Plug-In . SVG Version: 6.00 Build 0)  -->
<svg version="1.1" id="Camada_1" xmlns="http://www.w3.org/2000/svg" xmlns:xlink="http://www.w3.org/1999/xlink" x="0px" y="0px"
	 viewBox="0 0 70 65.6" style="enable-background:new 0 0 70 65.6;" xml:space="preserve">
<style type="text/css">
	.st0{fill:#4B5563;}
</style>
<title>anvisa</title>
<g>
	<path class="st0" d="M15.9,24.5c0.5-0.2,0.9-0.5,1.4-0.6c0.4-0.1,0.8-0.3,1.2-0.5c0.9-0.5,1.8-1,2.8-1.3s2-0.6,3-0.9
		c-1,0.3-2,0.7-3,1c-0.6,0.2-1.2,0.4-1.8,0.7c-0.6,0.3-1.2,0.8-1.8,1.1c-0.2,0.1-0.4,0.2-0.6,0.3c-0.1,0-0.1-0.1-0.2-0.1h-0.1
		c0,0.1,0.1,0.1,0.1,0.2c-0.4,0.2-0.7,0.4-1,0.5l0.1-0.1C16.1,24.6,16,24.5,15.9,24.5"/>
	<path class="st0" d="M31.2,14.9c0.1,0.7-0.6,1.5-0.8,2c-0.4,1-1,1.9-1.8,2.5c-0.1,0-0.1,0-0.2,0.1c-0.6,0.2-1.2,0.4-1.8,0.6
		c0.6-0.7,1-1.7,1.3-2.4c0.1-0.4,0.2-0.9,0.2-1.3c0-0.5-0.1-1,0-1.5l0,0C29.1,14.6,30.1,14.7,31.2,14.9 M33.8,15.5L33.8,15.5
		c-0.2,0.5-0.4,0.9-0.7,1.2c-0.5,0.7-1.1,1.5-1.8,2c0,0,0,0,0,0.1c-0.2,0-0.4,0.1-0.5,0.1s-0.1,0-0.2,0s-0.2,0.1-0.2,0.2
		c-0.3,0.1-0.7,0.2-1,0.3c0.7-0.6,1-1.5,1.5-2.4c0.2-0.4,0.7-1.3,0.5-1.9c0.6,0.1,1.2,0.2,1.8,0.4C33.4,15.3,33.6,15.4,33.8,15.5
		 M33.6,18.2c-0.5,0.1-1,0.2-1.6,0.3c0.2-0.1,0.3-0.3,0.5-0.5c0.4-0.5,0.8-0.9,1.1-1.4c0.2-0.3,0.4-0.7,0.5-1.1
		c0.7,0.2,1.3,0.5,1.9,0.9c0.4,0.2,0.7,0.5,1.1,0.6c0.3,0.1,0.6,0.2,0.8,0.3C36.5,17.4,35.1,17.9,33.6,18.2 M35.4,19.7
		c-0.5-0.3-1.1-0.3-1.7-0.4c-0.7,0-1.3-0.1-2-0.3c0.7-0.2,1.3-0.3,2-0.5c1.4-0.3,2.7-0.7,4.1-0.9c0,0-0.1,0-0.1,0.1
		c-0.4,0.2-0.9,0.5-1.2,0.8C36.1,18.9,35.7,19.3,35.4,19.7 M32.8,21.2c-0.4-0.1-0.8-0.2-1.2-0.4c-0.9-0.3-2-0.5-2.9-1
		c0.8-0.2,1.6-0.5,2.4-0.7c0.7,0.2,1.3,0.3,2,0.3s1.6,0,2.3,0.3c-0.3,0.3-0.6,0.7-0.9,1c-0.3,0.3-0.6,0.6-0.9,0.9
		c0-0.1-0.1-0.1-0.2-0.2C33.2,21.4,32.9,21.3,32.8,21.2 M25.6,20.9c0.2,0,0.3-0.1,0.5-0.1c0.7-0.2,1.3-0.5,2-0.7h0.1
		c0.2-0.1,0.8,0.4,1,0.5c0.4,0.1,0.8,0.2,1.2,0.3c1,0.3,2.1,0.5,3,0.9c-0.8,0.6-1.6,1.2-2.5,1.6C29,22.7,27.2,21.9,25.6,20.9
		 M21.5,21.6c-0.1,0-0.1,0-0.2,0c-0.3,0-0.6,0-0.8,0c-0.1,0-0.1,0-0.2,0.1c0.6-0.8,1.3-1.6,1.9-2.4c1.4-1.6,2.7-3.7,4.9-4.4
		c0.3-0.1,0.5-0.1,0.8-0.2c-0.2,0.4-0.1,0.8-0.2,1.2c0,0.4-0.1,0.9-0.2,1.3c-0.3,1.1-1.1,1.9-1.5,2.9c-0.2,0.1-0.4,0.1-0.5,0.2
		c-0.2,0.1-0.4,0.1-0.7,0.1c-0.1,0-0.1-0.1-0.2-0.1c0.1-0.2,0.1-0.3,0.1-0.5c0.1-0.5,0.3-1,0.3-1.4c0-0.7-0.5-1.4-0.1-2.1
		c0,0,0-0.1-0.1,0c-0.5,0.7,0,1.6-0.1,2.4c-0.1,0.5-0.2,1-0.4,1.4c0,0,0,0-0.1-0.1c-0.2-0.2-0.5,0.2-0.3,0.3l0,0l0.1,0.1
		c0,0,0,0.1-0.1,0.1c-0.3,0.1-0.6,0.2-1,0.2l0,0c0-0.8-0.1-1.5-0.2-2.2c0,0-0.1,0,0,0c0,0.5,0,1.1,0,1.6c0,0.2,0,0.5-0.1,0.7
		c-0.1,0-0.1,0-0.2,0.1c-0.3,0.1-0.6,0.4-1,0.5 M27.4,23.9c-1.4-0.1-2.4-1-3.5-1.7c-0.3-0.2-0.6-0.4-0.9-0.4c0-0.1,0.1-0.1,0.1-0.2
		c0,0,0.1,0,0.1-0.1c0.2,0,0.3-0.1,0.5-0.1c0.2,0.1,0.4,0,0.5-0.1c0.3-0.1,0.6-0.1,0.9-0.2c0.3,0.1,0.6,0.3,0.9,0.5
		c0.5,0.4,1,0.7,1.6,0.9c1,0.3,2,0.8,3,1.1c-0.5,0.2-1.1,0.4-1.7,0.5c-0.5,0.1-0.9,0.1-1.4,0C27.5,24,27.5,23.9,27.4,23.9 M19,23.1
		c0,0,0.1,0,0.1-0.1c0.1,0,0.1-0.1,0.1-0.1l0,0c0.3-0.2,0.6-0.4,1-0.5c0.4-0.2,0.7-0.1,1.1-0.2c0,0.1,0,0.1,0,0.2s0.1,0.2,0.2,0.1
		c0-0.1,0.1-0.2,0.1-0.3l0,0c0.1,0,0.2-0.1,0.3-0.1H22c0.2-0.1,0.3-0.1,0.4-0.1s0.1,0,0.2,0c0.8,0.1,1.4,0.9,2.1,1.2
		c0.5,0.3,0.9,0.5,1.4,0.6c-1-0.1-2-0.3-3-0.2c-0.1,0-0.2,0-0.2,0c-0.4-0.2-0.8-0.5-1.3-0.6c-0.7-0.2-1.3-0.2-2-0.4
		c-0.1,0-0.1,0.1-0.1,0.2c0.5,0.4,1.1,0.2,1.7,0.4c0.4,0.1,0.8,0.3,1.2,0.5c-0.9,0-1.7-0.2-2.6-0.4C19.6,23.2,19.3,23.1,19,23.1
		 M18,23.8c0.1-0.1,0.2-0.2,0.4-0.3c0.1,0,0.3,0,0.4,0C18.5,23.6,18.3,23.7,18,23.8"/>
	<path class="st0" d="M8.9,27.5c0.2-0.3,0.4-0.6,0.6-0.8c0.2-0.2,0.4-0.4,0.5-0.7c0.4-0.6,0.6-1.2,1.1-1.7c0.4-0.5,0.9-1.1,1.4-1.5
		c-0.4,0.5-0.8,1.1-1.3,1.6c-0.3,0.3-0.5,0.6-0.8,1s-0.4,0.9-0.7,1.2c-0.1,0.1-0.2,0.3-0.3,0.4c-0.1,0-0.1,0-0.2,0l0,0
		c0,0,0.1,0,0.1,0.1c-0.1,0.2-0.3,0.4-0.4,0.7v-0.1C9.1,27.5,9,27.5,8.9,27.5"/>
	<path class="st0" d="M14.1,16.9c0.3,0.3,0.2,1,0.2,1.4c0.1,0.7,0.1,1.4-0.1,2l-0.1,0.1c-0.3,0.3-0.5,0.6-0.8,0.9
		c0.1-0.6,0-1.3-0.1-1.8c-0.1-0.3-0.2-0.6-0.4-0.8c-0.1-0.3-0.4-0.5-0.5-0.8l0,0C12.9,17.5,13.5,17.1,14.1,16.9 M15.8,16.3
		L15.8,16.3c0,0.3,0.1,0.6,0,0.9c-0.1,0.6-0.1,1.2-0.3,1.7l0,0c-0.1,0.1-0.2,0.2-0.3,0.3h-0.1c-0.1,0-0.1,0.1-0.1,0.2
		c-0.2,0.2-0.3,0.3-0.5,0.5c0.2-0.6,0.1-1.2,0-1.8c0-0.3-0.1-1-0.4-1.2c0.4-0.2,0.8-0.3,1.1-0.4S15.7,16.3,15.8,16.3 M16.6,17.9
		c-0.3,0.2-0.5,0.5-0.8,0.7c0-0.1,0.1-0.3,0.1-0.5c0-0.4,0.1-0.8,0.1-1.1c0-0.3,0-0.5-0.1-0.8c0.5-0.1,0.9-0.2,1.4-0.2
		c0.3,0,0.6,0,0.9,0c0.2,0,0.4-0.1,0.6-0.1C18,16.5,17.4,17.2,16.6,17.9 M18.1,18.1c-0.4,0-0.7,0.2-1.1,0.4
		c-0.4,0.2-0.8,0.4-1.2,0.5c0.3-0.3,0.6-0.7,0.9-1c0.7-0.6,1.2-1.3,1.9-1.9v0.1c-0.1,0.3-0.3,0.6-0.4,0.9
		C18.2,17.4,18.2,17.8,18.1,18.1 M17.2,19.9c-0.3,0.1-0.5,0.2-0.8,0.2c-0.6,0.2-1.3,0.5-2,0.5c0.4-0.4,0.7-0.8,1.1-1.2
		c0.4-0.1,0.8-0.3,1.2-0.5c0.4-0.2,0.9-0.5,1.3-0.6c0,0.3-0.1,0.6-0.1,0.9s-0.1,0.5-0.2,0.8c0,0-0.1,0-0.2,0
		C17.5,19.8,17.3,19.8,17.2,19.9 M13.1,22.2c0.1-0.1,0.2-0.2,0.2-0.3c0.3-0.3,0.6-0.7,0.9-1.1c0,0,0,0,0.1,0
		c0.1-0.1,0.6-0.1,0.7-0.1c0.3-0.1,0.5-0.1,0.8-0.2c0.6-0.2,1.3-0.5,2-0.5c-0.2,0.6-0.5,1.2-0.9,1.8C15.6,22,14.4,22.2,13.1,22.2
		 M11.1,24C11.1,24,11,24.1,11.1,24c-0.2,0.2-0.4,0.2-0.5,0.4c0,0,0,0.1-0.1,0.1c0.1-0.7,0.1-1.3,0.2-2c0.2-1.4,0.2-3,1.2-4.1
		c0.1-0.1,0.3-0.3,0.4-0.4c0,0.3,0.2,0.5,0.3,0.7c0.1,0.3,0.2,0.5,0.3,0.8c0.2,0.7,0.1,1.4,0.2,2.1c-0.1,0.1-0.2,0.2-0.2,0.3
		c-0.1,0.1-0.2,0.2-0.3,0.3c-0.1,0-0.1,0-0.2,0c0-0.1-0.1-0.2-0.1-0.3c-0.1-0.3-0.2-0.6-0.4-0.9c-0.2-0.4-0.8-0.6-0.8-1.1l0,0
		c0,0.6,0.6,0.9,0.8,1.4c0.1,0.3,0.2,0.6,0.3,0.9c0,0,0,0-0.1,0c-0.2,0-0.2,0.3,0,0.3l0,0h0.1v0.1c-0.2,0.2-0.3,0.3-0.4,0.5l0,0
		c-0.2-0.4-0.6-0.8-0.9-1.1l0,0c0.2,0.3,0.4,0.6,0.6,0.9c0.1,0.1,0.1,0.3,0.2,0.4l-0.1,0.1c-0.1,0.2-0.2,0.4-0.4,0.6 M15.1,23.2
		c-0.8,0.5-1.7,0.3-2.6,0.3c-0.2,0-0.4,0-0.6,0.1v-0.1c0,0,0-0.1,0.1-0.1c0.1-0.1,0.1-0.2,0.2-0.2c0.1,0,0.2-0.1,0.2-0.3
		c0.1-0.1,0.3-0.3,0.4-0.4c0.2,0,0.4,0,0.7,0c0.4,0,0.8,0,1.2-0.1c0.7-0.2,1.4-0.2,2.1-0.4c-0.2,0.3-0.5,0.6-0.8,0.8
		C15.8,23,15.5,23.1,15.1,23.2C15.2,23.2,15.2,23.2,15.1,23.2 M10.2,25.7C10.2,25.6,10.2,25.6,10.2,25.7c0.1-0.1,0.1-0.1,0.1-0.2
		l0,0c0.1-0.2,0.2-0.4,0.4-0.6c0.2-0.3,0.4-0.3,0.6-0.5c0,0,0,0.1,0.1,0.1c0,0.1,0.1,0,0.1,0c0-0.1,0-0.1,0-0.2l0,0
		c0.1-0.1,0.1-0.1,0.2-0.2l0,0c0.1-0.1,0.1-0.1,0.2-0.2c0.1,0,0.1,0,0.1-0.1c0.5-0.2,1.1,0,1.6,0c0.3,0,0.7-0.1,1-0.1
		c-0.6,0.3-1.2,0.6-1.7,0.9l-0.1,0.1c-0.3,0-0.6,0-0.9,0.1c-0.5,0.1-0.8,0.4-1.2,0.5c-0.1,0,0,0.1,0,0.1c0.4,0.1,0.7-0.3,1.1-0.4
		c0.3-0.1,0.6-0.1,0.8-0.2c-0.5,0.3-1,0.5-1.6,0.7C10.6,25.6,10.4,25.6,10.2,25.7 M9.9,26.4c0-0.1,0.1-0.2,0.1-0.3
		c0.1,0,0.2-0.1,0.2-0.1C10.1,26.1,10,26.3,9.9,26.4"/>
	<path class="st0" d="M6.8,40.3c0-0.2-2.6-6.1-2.8-6.5c-0.1-0.2-0.6-1.2-1-2.3c-0.9-2.3-1.1-2.5-2.1-2.7c-0.8-0.1-1.1-1-0.5-1.4
		c0.5-0.3,3.8-0.3,4.5,0c0.8,0.4,0.7,1.1-0.2,1.3C4.3,28.8,4,29,4,29.1c0,0.6,4.5,11,5,11.6c0.4,0.4,0.5,0.2,2.3-3.9
		c0.2-0.5,0.7-1.5,0.9-2.1c1-2.2,2.3-5.3,2.3-5.5c0-0.1-0.2-0.3-0.4-0.3c-0.7,0-1.1-0.8-0.8-1.2c0.5-0.6,4.4-0.6,4.9,0
		s0.1,1.3-0.8,1.3s-1.1,0.3-3.3,5.5c-0.6,1.4-1.3,3.2-1.7,4s-1.1,2.4-1.6,3.5c-1,2.4-1.5,2.9-2.1,2.3C8.4,44,6.8,40.5,6.8,40.3"/>
	<path class="st0" d="M22.5,34.7c1.1,1,1.7,2,1.7,3.4c0,0.9-0.1,1.1-0.5,1.1c-0.5,0-4,0.2-5.7,0.2c-0.9,0-1,0.1-1,0.7
		c0,1.6,1.8,2.9,3.6,2.5c0.5-0.1,1.3-0.6,1.9-1.2c1.8-1.6,2.6-0.7,1,1.2c-1.1,1.3-1.4,1.4-3.3,1.6c-1.2,0.1-1.7,0.1-2.5-0.4
		c-0.6-0.3-1.3-1.1-1.8-1.9c-1.5-2.6-0.7-6.4,1.6-7.5c0.7-0.4,1.5-0.6,2.3-0.6C20.9,33.9,21.9,34.1,22.5,34.7 M19.2,35.5
		c-1.3,0.3-2.4,1.8-1.6,2.1c0.7,0.3,4.2,0.2,4.5-0.1c0.8-0.8-0.8-2-2.3-2.1C19.6,35.4,19.4,35.4,19.2,35.5"/>
	<path class="st0" d="M35.5,33.2c-0.1,0.3-0.4,0.4-1.2,0.4c-1.3-0.1-1.6,0.6-0.5,1.5c2.4,2,1.8,6.1-1.1,7.5
		c-1.3,0.7-2.8,0.6-4.3-0.1c-1.1-0.5-1.3-0.5-1.3,0.4c0,1.1,0.6,1.4,3,1.4c3.1,0,4.7,0.4,5.3,1.5c0.3,0.5,0.5,1.2,0.5,1.6
		c0,0.9-0.9,2.3-1.7,2.9c-0.8,0.5-4.3,0.8-5.9,0.4c-0.8-0.2-1.4-0.6-2-1.3c-0.8-0.9-0.9-1.1-0.7-2.3c0.2-1.5,0.2-2.3,0-3.6
		c-0.1-0.7,0-1.3,0.4-2.1c0.4-0.7,0.5-1.3,0.3-1.6C26,39,26,37.4,26.4,36.7c1-1.8,2.5-2.9,3.9-2.9c0.5,0,1-0.3,1.6-1
		c0.7-0.8,1.1-1,1.9-1C34.9,31.9,35.8,32.5,35.5,33.2 M27.6,46.3c-1.2,0.6-0.6,2.5,0.9,2.9s3.9,0.2,4.8-0.4c1-0.6,1.2-1.6,0.5-2.2
		c-0.4-0.3-2.4-0.5-4-0.5C28.8,46.1,27.9,46.2,27.6,46.3 M28.4,36.5c-1.3,1.5-0.9,3.8,0.9,4.7c1.2,0.6,1.9,0.6,3-0.1
		c2.3-1.4,1.7-4.6-0.9-5.5c-0.4-0.1-0.7-0.2-1-0.2C29.6,35.4,29,35.8,28.4,36.5"/>
	<path class="st0" d="M42.2,34.1c1.9,0.8,2.2,1.4,2.2,4.9v3.1l0.9,0.7c0.5,0.4,0.8,0.8,0.7,1c-0.2,0.4-2.2,0.4-2.5,0
		c-0.2-0.2-0.6-0.1-1.3,0.1c-1.4,0.6-3.2,0.5-4.2-0.1c-1.8-1.1-2.2-3.1-0.8-4.4c1-0.9,1.8-1.2,3.8-1.4l1.9-0.2v-0.9
		c0-1.3-0.8-1.9-2.2-1.6c-1.1,0.2-1.6,0.5-2.4,1.6c-0.5,0.7-1.4,0.2-1.3-0.7c0.1-1,1.2-1.9,2.8-2.3c0.6-0.2,1-0.2,1.4-0.2
		C41.4,33.8,41.8,33.9,42.2,34.1 M37.8,41.4c0,1.2,2.6,1.8,4.1,1c0.9-0.5,1.3-1.3,0.8-2.1c-0.2-0.4-0.9-0.6-1.7-0.6
		C39.6,39.7,37.8,40.4,37.8,41.4"/>
	<path class="st0" d="M48.3,42.7c0.9-0.2,0.9,0,0.9-4.5c0-2.7,0-2.6-1-2.8c-0.5-0.1-1-0.3-1.1-0.5c-0.3-0.4,0.5-1,1.6-1.2
		c0.9-0.1,1.2,0,1.8,0.6l0.7,0.7l1.1-0.6c1.5-0.9,3.7-0.7,4.9,0.4c0.9,0.9,1.1,1.6,1.4,5.1l0.2,2.6l1,0.1c0.7,0.1,1,0.3,1,0.7
		c0,0.5-0.3,0.6-2.1,0.8c-1.5,0.2-2.3,0.2-2.8-0.1c-0.9-0.4-0.8-1.2,0.3-1.4c0.8-0.1,0.8-0.1,0.9-2.3c0.1-3.7-0.5-5-2.6-5
		c-1.9,0-3.3,2.4-3.2,5.6c0,1.5,0,1.5,0.9,1.7c1.1,0.2,1.3,0.6,0.7,1.2c-0.4,0.4-0.9,0.4-2.8,0.4c-1.6,0-2.4-0.2-2.5-0.4
		C47.1,43.3,47.4,42.8,48.3,42.7"/>
	<path class="st0" d="M67.6,34.4c2.7,1.3,3.3,6,1.2,8.4c-1.1,1.2-2.4,1.6-4.2,1.3c-2.5-0.4-3.6-2-3.6-5.1c0-2.3,0.5-3.4,2-4.4
		c0.7-0.5,1.7-0.7,2.6-0.7C66.2,33.9,67,34.1,67.6,34.4 M63.4,36.1c-1.1,1.4-1.4,3.1-0.7,4.8c0.5,1.2,1.4,1.8,2.6,1.8
		c0.5,0,1.3-0.2,1.6-0.4c1.4-1,1.9-3.9,0.8-5.5c-0.6-1-1.1-1.2-2.8-1.3c-0.1,0-0.2,0-0.3,0C64.1,35.5,63.8,35.7,63.4,36.1"/>
</g>
</svg>
